<svg width="24" height="25" viewBox="0 0 24 25" fill="none" xmlns="http://www.w3.org/2000/svg">
<path d="M7 11.5C6.40905 11.5 5.82389 11.3836 5.27792 11.1575C4.73196 10.9313 4.23588 10.5998 3.81802 10.182C3.40016 9.76412 3.06869 9.26804 2.84254 8.72208C2.6164 8.17611 2.5 7.59095 2.5 7C2.5 6.40905 2.6164 5.82389 2.84254 5.27792C3.06869 4.73196 3.40016 4.23588 3.81802 3.81802C4.23588 3.40016 4.73196 3.06869 5.27792 2.84254C5.82389 2.6164 6.40905 2.5 7 2.5C8.19347 2.5 9.33807 2.97411 10.182 3.81802C11.0259 4.66193 11.5 5.80653 11.5 7C11.5 8.19347 11.0259 9.33807 10.182 10.182C9.33807 11.0259 8.19347 11.5 7 11.5ZM17.5 15.5C16.4391 15.5 15.4217 15.0786 14.6716 14.3284C13.9214 13.5783 13.5 12.5609 13.5 11.5C13.5 10.4391 13.9214 9.42172 14.6716 8.67157C15.4217 7.92143 16.4391 7.5 17.5 7.5C18.5609 7.5 19.5783 7.92143 20.3284 8.67157C21.0786 9.42172 21.5 10.4391 21.5 11.5C21.5 12.5609 21.0786 13.5783 20.3284 14.3284C19.5783 15.0786 18.5609 15.5 17.5 15.5ZM17.5 16.5C18.6935 16.5 19.8381 16.9741 20.682 17.818C21.5259 18.6619 22 19.8065 22 21V21.5H13V21C13 19.8065 13.4741 18.6619 14.318 17.818C15.1619 16.9741 16.3065 16.5 17.5 16.5ZM7 12.5C7.65661 12.5 8.30679 12.6293 8.91342 12.8806C9.52004 13.1319 10.0712 13.5002 10.5355 13.9645C10.9998 14.4288 11.3681 14.98 11.6194 15.5866C11.8707 16.1932 12 16.8434 12 17.5V21.5H2V17.5C2 16.1739 2.52678 14.9021 3.46447 13.9645C4.40215 13.0268 5.67392 12.5 7 12.5Z" fill="#5F2B38"/>
</svg>
