<svg width="24" height="25" viewBox="0 0 24 25" fill="none" xmlns="http://www.w3.org/2000/svg">
<g clip-path="url(#clip0_387_22616)">
<path fill-rule="evenodd" clip-rule="evenodd" d="M8.0047 9.67662C9.52941 9.67662 9.52941 11.0884 11.0682 11.0884C11.8049 11.0884 12.1853 10.7571 12.5546 10.4159L12.5797 10.3927C12.6216 10.3539 12.6635 10.315 12.7059 10.2766V11.0884C12.7059 13.0352 11.1233 14.6178 9.17647 14.6178C7.22965 14.6178 5.64706 13.0352 5.64706 11.0884V10.9472C5.96569 10.8177 6.20006 10.61 6.43226 10.3998L6.46991 10.3657C6.85273 10.0191 7.2417 9.67662 8.0047 9.67662ZM24 0.5V14.6176H19.7647V13.2059H22.5882V1.91177H1.41175V13.2059H2.82351V14.6176H0V0.500025H24V0.5ZM18.3981 9.42815L13.944 21.2898C11.7657 21.4197 8.33224 21.5143 6.05648 20.6884L6.53648 19.3613C8.16565 19.9543 10.7591 20.0347 13.1591 19.8823L14.8165 15.4493L14.0612 15.2517C13.4767 15.0992 12.888 14.9848 12.2965 14.8874C13.3991 13.9811 14.1177 12.6244 14.1177 11.0884V9.67662C14.1177 6.95191 11.9012 4.73545 9.17647 4.73545C6.45176 4.73545 4.2353 6.95191 4.2353 9.67662V11.0884C4.2353 12.6216 4.95248 13.9768 6.05083 14.8832C5.35059 15.0004 4.65741 15.1444 3.97552 15.3392C2.46635 15.7684 1.41177 17.1688 1.41177 18.7401V22.854L1.848 23.0347C4.15341 23.9933 6.68894 24.5001 9.17647 24.5001C11.4297 24.5001 13.5346 24.3011 15.1031 23.9411C15.7327 23.7985 16.2395 23.3538 16.4612 22.7524L16.8593 21.6611C17.0386 21.1712 16.9539 20.6361 16.6292 20.2296C16.4668 20.0234 16.2565 19.8681 16.0221 19.7736L19.7195 9.92509L18.3981 9.42815Z" fill="#5F2B38"/>
</g>
<defs>
<clipPath id="clip0_387_22616">
<rect width="24" height="24" fill="white" transform="translate(0 0.5)"/>
</clipPath>
</defs>
</svg>
