<svg width="24" height="25" viewBox="0 0 24 25" fill="none" xmlns="http://www.w3.org/2000/svg">
<path d="M11.9469 15.04C8.49689 15.04 5.58594 15.6038 5.58594 17.7795C5.58594 19.9562 8.5157 20.5001 11.9469 20.5001C15.3969 20.5001 18.3078 19.9364 18.3078 17.7606C18.3078 15.584 15.3781 15.04 11.9469 15.04Z" fill="#5F2B38"/>
<path opacity="0.4" d="M11.9515 12.967C14.2876 12.967 16.1608 11.0831 16.1608 8.73351C16.1608 6.38306 14.2876 4.5 11.9515 4.5C9.61537 4.5 7.74219 6.38306 7.74219 8.73351C7.74219 11.0831 9.61537 12.967 11.9515 12.967Z" fill="#5F2B38"/>
<path opacity="0.4" d="M21.0846 9.71972C21.689 7.34225 19.917 5.20703 17.6606 5.20703C17.4153 5.20703 17.1807 5.23405 16.9515 5.27998C16.921 5.28718 16.887 5.30249 16.8691 5.32951C16.8485 5.36373 16.8637 5.40966 16.8861 5.43937C17.5639 6.39577 17.9534 7.56018 17.9534 8.81016C17.9534 10.0079 17.5962 11.1246 16.9694 12.0513C16.9049 12.1467 16.9622 12.2755 17.0759 12.2953C17.2335 12.3232 17.3947 12.3376 17.5594 12.3421C19.2025 12.3854 20.6772 11.3218 21.0846 9.71972Z" fill="#5F2B38"/>
<path d="M22.8055 15.3165C22.5046 14.6717 21.7785 14.2295 20.6744 14.0125C20.1533 13.8846 18.7431 13.7045 17.4313 13.7288C17.4116 13.7315 17.4009 13.745 17.3991 13.754C17.3964 13.7666 17.4017 13.7882 17.4277 13.8017C18.0339 14.1034 20.3772 15.4155 20.0826 18.1829C20.07 18.3027 20.1659 18.4063 20.2849 18.3883C20.8616 18.3054 22.3453 17.9848 22.8055 16.9861C23.0598 16.4584 23.0598 15.8451 22.8055 15.3165Z" fill="#5F2B38"/>
<path opacity="0.4" d="M7.04117 5.27998C6.81284 5.23315 6.57735 5.20703 6.33201 5.20703C4.0756 5.20703 2.30359 7.34225 2.90889 9.71972C3.3154 11.3218 4.79013 12.3854 6.43319 12.3421C6.59795 12.3376 6.76001 12.3223 6.91671 12.2953C7.03042 12.2755 7.08773 12.1467 7.02326 12.0513C6.39648 11.1237 6.03921 10.0079 6.03921 8.81016C6.03921 7.55928 6.42961 6.39486 7.10743 5.43937C7.12892 5.40966 7.14504 5.36373 7.12355 5.32951C7.10564 5.30159 7.07251 5.28718 7.04117 5.27998Z" fill="#5F2B38"/>
<path d="M3.32156 14.0127C2.21752 14.2297 1.49225 14.6719 1.19139 15.3167C0.936203 15.8453 0.936203 16.4586 1.19139 16.9872C1.65163 17.9851 3.13531 18.3066 3.71195 18.3885C3.83104 18.4065 3.92595 18.3038 3.91342 18.1832C3.61883 15.4167 5.9621 14.1046 6.56918 13.8029C6.59425 13.7885 6.59962 13.7677 6.59694 13.7542C6.59515 13.7452 6.5853 13.7317 6.5656 13.7299C5.25294 13.7047 3.84358 13.8848 3.32156 14.0127Z" fill="#5F2B38"/>
</svg>
