<svg width="100" height="100" viewBox="0 0 100 100" fill="none" xmlns="http://www.w3.org/2000/svg">
<path d="M35.4777 20.5317H20.0391V36.624H35.4777V20.5317Z" fill="#E0E0E0"/>
<path d="M34.4308 20.5317H18.9922V36.624H34.4308V20.5317Z" fill="#FAFAFA"/>
<path d="M34.4384 36.6239H18.9922V20.5271H34.4384V36.6239ZM18.9998 36.6239H34.4293V20.5377H18.9998V36.6239Z" fill="#E0E0E0"/>
<path d="M32.3578 22.6963H21.0703V34.4626H32.3578V22.6963Z" fill="#FAFAFA"/>
<path d="M21.0674 34.54C20.9881 34.6588 20.8947 34.7675 20.7893 34.8638C20.6099 35.0538 20.3561 35.3198 20.0718 35.5919C19.7876 35.864 19.5277 36.1208 19.3346 36.2972C19.2365 36.4001 19.1268 36.4914 19.0078 36.5692C19.0898 36.4508 19.1858 36.3426 19.2936 36.247C19.4729 36.057 19.7268 35.791 20.0125 35.5174C20.2983 35.2438 20.5582 34.9869 20.7513 34.8106C20.846 34.7087 20.9521 34.6179 21.0674 34.54Z" fill="#E0E0E0"/>
<path d="M32.3594 34.5112C32.4776 34.5912 32.5863 34.6845 32.6831 34.7894C32.8747 34.9703 33.1315 35.2241 33.4112 35.5068C33.6909 35.7895 33.9402 36.0525 34.1165 36.2455C34.2203 36.3423 34.3116 36.4516 34.3886 36.5708C34.2707 36.4916 34.1625 36.3988 34.0663 36.2942C33.8763 36.1133 33.6179 35.8595 33.3367 35.5752C33.0555 35.291 32.8078 35.028 32.6299 34.8365C32.5273 34.7391 32.4365 34.6299 32.3594 34.5112Z" fill="#E0E0E0"/>
<path d="M32.3281 22.7267C32.4081 22.6084 32.5014 22.4997 32.6063 22.4029C32.7872 22.2129 33.041 21.956 33.3237 21.6763C33.6064 21.3967 33.8694 21.1474 34.0624 20.9695C34.1595 20.8665 34.2687 20.7756 34.3877 20.699C34.3085 20.8169 34.2157 20.9251 34.1111 21.0212C33.9302 21.2112 33.6764 21.4696 33.3921 21.7493C33.1079 22.029 32.8449 22.2798 32.6534 22.4576C32.5563 22.5601 32.447 22.6505 32.3281 22.7267Z" fill="#E0E0E0"/>
<path d="M21.037 22.7554C20.9183 22.6761 20.8096 22.5827 20.7133 22.4772C20.5233 22.2979 20.2664 22.044 19.9867 21.7598C19.707 21.4756 19.4577 21.2156 19.2799 21.0226C19.177 20.9245 19.0857 20.8148 19.0078 20.6958C19.1259 20.7737 19.2345 20.865 19.3316 20.9679C19.5216 21.1472 19.7876 21.4011 20.0597 21.6868C20.3317 21.9726 20.5901 22.2325 20.7665 22.4256C20.8702 22.5236 20.9611 22.6345 21.037 22.7554Z" fill="#E0E0E0"/>
<path d="M32.3268 34.4625C32.3268 34.4625 32.3268 34.4412 32.3268 34.4047C32.3268 34.3682 32.3268 34.3105 32.3268 34.2405C32.3268 34.0885 32.3268 33.8803 32.3268 33.6052C32.3268 33.0473 32.3268 32.2372 32.3146 31.2066C32.3146 29.147 32.3025 26.2104 32.2918 22.6946L32.3359 22.7372H21.0879L21.1366 22.687C21.1366 27.0053 21.1366 31.047 21.1366 34.4533L21.094 34.4093L29.2442 34.4321L31.5334 34.4427H32.1414H32.2934H32.3481H32.2979H32.1459H31.5486L29.2686 34.4533L21.091 34.4761H21.0469V34.4336C21.0469 31.0257 21.0469 26.9856 21.0469 22.6673V22.6399H21.097H32.345H32.3678V22.684C32.3587 26.2104 32.3511 29.1561 32.345 31.2233C32.345 32.2478 32.3359 33.0565 32.3344 33.6113C32.3344 33.8833 32.3344 34.0931 32.3344 34.2375C32.3344 34.3059 32.3344 34.3591 32.3344 34.3971C32.334 34.4191 32.3315 34.441 32.3268 34.4625Z" fill="#E0E0E0"/>
<path d="M28.5947 26.6953H24.8281V30.4619H28.5947V26.6953Z" fill="#EBEBEB"/>
<path d="M72.7567 20.8198L71.2656 20.8279L71.3058 28.2499L72.7969 28.2419L72.7567 20.8198Z" fill="#E0E0E0"/>
<path d="M62.206 20.8407L58.3438 20.8616L58.3659 24.9594L62.2282 24.9385L62.206 20.8407Z" fill="#EBEBEB"/>
<path d="M66.0513 20.8197L62.1875 20.8406L62.2097 24.9384L66.0735 24.9175L66.0513 20.8197Z" fill="#F5F5F5"/>
<path d="M58.3475 21.9956C60.9142 22.0169 63.4835 22.0052 66.0554 21.9607C66.0663 21.9607 66.0767 21.9563 66.0844 21.9486C66.0921 21.9409 66.0964 21.9305 66.0964 21.9196C66.0964 21.9087 66.0921 21.8983 66.0844 21.8906C66.0767 21.8829 66.0663 21.8786 66.0554 21.8786C63.4881 21.8649 60.9132 21.8786 58.3475 21.9257C58.3382 21.9257 58.3293 21.9294 58.3227 21.9359C58.3162 21.9425 58.3125 21.9514 58.3125 21.9607C58.3125 21.9699 58.3162 21.9788 58.3227 21.9854C58.3293 21.9919 58.3382 21.9956 58.3475 21.9956Z" fill="#E0E0E0"/>
<path d="M62.9552 24.8705L55.9375 24.9084L55.9556 28.2478L62.9733 28.2099L62.9552 24.8705Z" fill="#EBEBEB"/>
<path d="M69.9396 24.8326L62.9219 24.8706L62.9399 28.21L69.9577 28.172L69.9396 24.8326Z" fill="#F5F5F5"/>
<path d="M55.9412 25.8396C60.6031 25.8928 65.2816 25.8396 69.945 25.7697C69.9559 25.7697 69.9663 25.7654 69.974 25.7577C69.9817 25.75 69.986 25.7395 69.986 25.7286C69.986 25.7178 69.9817 25.7073 69.974 25.6996C69.9663 25.6919 69.9559 25.6876 69.945 25.6876C65.2831 25.6633 60.6031 25.6663 55.9412 25.7697C55.9319 25.7697 55.923 25.7734 55.9165 25.7799C55.9099 25.7865 55.9062 25.7954 55.9062 25.8046C55.9062 25.8139 55.9099 25.8228 55.9165 25.8294C55.923 25.8359 55.9319 25.8396 55.9412 25.8396Z" fill="#E0E0E0"/>
<path d="M80.5116 28.2502H53.3203V29.4465H80.5116V28.2502Z" fill="#E0E0E0"/>
<path d="M58.8691 28.825H57.7656V31.2266H58.8691V28.825Z" fill="#E0E0E0"/>
<path d="M75.3535 28.825H74.25V31.2266H75.3535V28.825Z" fill="#E0E0E0"/>
<path d="M74.2177 18.0532L72.7266 18.0613L72.7818 28.2695L74.2729 28.2614L74.2177 18.0532Z" fill="#EBEBEB"/>
<path d="M76.5445 19.9543L74.2266 19.9668L74.2713 28.24L76.5893 28.2275L76.5445 19.9543Z" fill="#F5F5F5"/>
<path d="M76.5289 21.5503C76.1443 21.5913 75.7573 21.605 75.3707 21.5913C74.9836 21.605 74.5961 21.5913 74.2109 21.5503C74.9827 21.4976 75.7572 21.4976 76.5289 21.5503Z" fill="#E0E0E0"/>
<path d="M76.5289 21.2036C76.1442 21.2428 75.7572 21.256 75.3707 21.2432C74.9837 21.2559 74.5962 21.2427 74.2109 21.2036C74.9826 21.1489 75.7572 21.1489 76.5289 21.2036Z" fill="#E0E0E0"/>
<path d="M76.5289 26.9856C75.7572 27.0383 74.9827 27.0383 74.2109 26.9856C74.9826 26.9309 75.7572 26.9309 76.5289 26.9856Z" fill="#E0E0E0"/>
<path d="M76.5289 26.6377C75.7572 26.6904 74.9827 26.6904 74.2109 26.6377C74.9827 26.585 75.7572 26.585 76.5289 26.6377Z" fill="#E0E0E0"/>
<path d="M75.4082 25.8792C75.3854 25.8792 75.3672 25.0447 75.3672 24.0157C75.3672 22.9866 75.3854 22.1506 75.4082 22.1506C75.431 22.1506 75.4477 22.9851 75.4477 24.0157C75.4477 25.0462 75.4295 25.8792 75.4082 25.8792Z" fill="#E0E0E0"/>
<path d="M79.0779 21.9878H76.5547V28.232H79.0779V21.9878Z" fill="#EBEBEB"/>
<path d="M73.8729 19.799C73.8729 19.8838 73.8478 19.9667 73.8007 20.0371C73.7536 20.1076 73.6866 20.1626 73.6083 20.195C73.53 20.2275 73.4438 20.2359 73.3606 20.2194C73.2775 20.2029 73.2011 20.162 73.1412 20.1021C73.0812 20.0421 73.0404 19.9658 73.0239 19.8826C73.0073 19.7995 73.0158 19.7133 73.0483 19.635C73.0807 19.5566 73.1356 19.4897 73.2061 19.4426C73.2766 19.3955 73.3595 19.3704 73.4443 19.3704C73.558 19.3704 73.667 19.4155 73.7474 19.4959C73.8277 19.5763 73.8729 19.6853 73.8729 19.799Z" fill="#E0E0E0"/>
<path d="M73.577 20.9785H73.3125V27.0509H73.577V20.9785Z" fill="#E0E0E0"/>
<path d="M73.128 35.0888C73.4337 34.8206 73.7736 34.5942 74.1388 34.4155L74.1708 33.2907L75.9948 32.9304L76.4508 33.9595C76.8568 33.9856 77.2576 34.0659 77.6424 34.1981L78.4602 33.4244L80.0076 34.4626L79.6017 35.5129C79.8706 35.818 80.0971 36.158 80.2751 36.5237L81.4014 36.5556L81.7616 38.3796L80.7311 38.8356C80.7054 39.2411 80.6257 39.6414 80.494 40.0258L81.2661 40.8435L80.234 42.4L79.1883 41.9911C78.8824 42.2598 78.5419 42.4862 78.176 42.6645L78.1456 43.7893L76.3216 44.1495L75.8656 43.1205C75.4595 43.0944 75.0587 43.0141 74.6739 42.8819L73.8561 43.6555L72.3088 42.6174L72.7146 41.5671C72.4457 41.2619 72.2192 40.9219 72.0412 40.5563L70.9149 40.5243L70.5547 38.7003L71.5837 38.2443C71.6106 37.8389 71.6908 37.4387 71.8224 37.0542L71.0502 36.2364L72.0868 34.6891L73.1372 35.0934L73.128 35.0888ZM74.5432 37.3567C74.3229 37.685 74.205 38.0713 74.2044 38.4667C74.2037 38.862 74.3203 39.2487 74.5394 39.5778C74.7585 39.9069 75.0703 40.1636 75.4354 40.3155C75.8004 40.4674 76.2023 40.5076 76.5902 40.431C76.9781 40.3545 77.3345 40.1646 77.6145 39.8854C77.8945 39.6062 78.0854 39.2503 78.163 38.8626C78.2407 38.475 78.2016 38.073 78.0508 37.7075C77.9 37.342 77.6441 37.0295 77.3156 36.8095C76.8754 36.5145 76.336 36.4065 75.8161 36.5091C75.2962 36.6117 74.8384 36.9166 74.5432 37.3567Z" fill="#5F2B38"/>
<path d="M64.7264 34.3608C64.8981 34.2566 65.0832 34.1763 65.2767 34.1222L65.3891 33.578L66.3087 33.5613L66.441 34.1009C66.636 34.1488 66.8237 34.2229 66.9988 34.3213L67.4639 34.0173L68.1267 34.6572L67.8379 35.1314C67.9418 35.3033 68.0221 35.4883 68.0765 35.6817L68.6207 35.7957L68.6374 36.7153L68.0978 36.8475C68.0486 37.0422 67.9746 37.2297 67.8774 37.4054L68.1814 37.8705L67.5415 38.5317L67.0672 38.2429C66.8951 38.3467 66.7101 38.4275 66.517 38.483L66.403 39.0272L65.4834 39.0424L65.3511 38.5028C65.1563 38.4549 64.9687 38.3813 64.7933 38.2839L64.3282 38.5879L63.667 37.9495L63.9558 37.4738C63.851 37.3021 63.7702 37.117 63.7156 36.9235L63.1715 36.811L63.1562 35.8914L63.6959 35.7592C63.7432 35.5642 63.8169 35.3765 63.9147 35.2014L63.6107 34.7362L64.2491 34.0735L64.7249 34.3623L64.7264 34.3608ZM65.2159 35.5859C65.0804 35.7263 64.9896 35.9037 64.9549 36.0956C64.9202 36.2876 64.9433 36.4856 65.0211 36.6644C65.0989 36.8433 65.228 36.9951 65.3921 37.1007C65.5561 37.2062 65.7478 37.2607 65.9429 37.2573C66.1379 37.2539 66.3276 37.1927 66.4879 37.0816C66.6482 36.9704 66.7719 36.8142 66.8435 36.6327C66.915 36.4512 66.9311 36.2526 66.8898 36.0619C66.8484 35.8713 66.7515 35.6972 66.6112 35.5616C66.518 35.4715 66.408 35.4007 66.2874 35.3532C66.1668 35.3057 66.0381 35.2824 65.9085 35.2846C65.7789 35.2869 65.651 35.3147 65.5322 35.3664C65.4133 35.4181 65.3059 35.4927 65.2159 35.5859Z" fill="#455A64"/>
<path d="M65.2143 35.5858C65.2662 35.5223 65.3284 35.4678 65.3982 35.4247C65.589 35.3012 65.8167 35.2475 66.0427 35.2727C66.1985 35.2882 66.3485 35.3403 66.4804 35.4247C66.6313 35.5237 66.753 35.6612 66.8331 35.8229C66.8776 35.9097 66.9078 36.0031 66.9227 36.0996C66.9395 36.2002 66.9395 36.3029 66.9227 36.4036C66.8949 36.618 66.799 36.8178 66.6491 36.9736C66.4984 37.1281 66.3026 37.2308 66.0898 37.2669C65.9891 37.2836 65.8864 37.2836 65.7858 37.2669C65.6891 37.255 65.5948 37.2283 65.5061 37.1879C65.3411 37.1136 65.1992 36.9959 65.0957 36.8474C64.9849 36.6906 64.9221 36.505 64.9148 36.3131C64.9075 36.1213 64.9561 35.9314 65.0547 35.7667C65.0951 35.6963 65.1464 35.6327 65.2067 35.5782C65.2067 35.5782 65.1474 35.6436 65.0714 35.7788C64.9659 35.9711 64.9274 36.1931 64.9619 36.4096C64.9879 36.5686 65.053 36.7185 65.1515 36.8459C65.2499 36.9733 65.3786 37.0741 65.5259 37.1392C65.6102 37.1774 65.6999 37.2025 65.7919 37.2137C65.887 37.2297 65.9841 37.2297 66.0791 37.2137C66.2804 37.1797 66.4655 37.0821 66.6072 36.9352C66.7489 36.7883 66.8398 36.5998 66.8665 36.3975C66.8817 36.3023 66.8817 36.2054 66.8665 36.1102C66.8528 36.0189 66.8251 35.9302 66.7844 35.8472C66.7248 35.7262 66.6408 35.6189 66.5376 35.532C66.4344 35.4451 66.3143 35.3805 66.1849 35.3424C66.0554 35.3042 65.9195 35.2933 65.7857 35.3104C65.6519 35.3274 65.523 35.372 65.4073 35.4414C65.2781 35.5235 65.2203 35.5904 65.2143 35.5858Z" fill="#455A64"/>
<path d="M64.7305 34.3607L64.7001 34.344L64.6089 34.2923L64.2502 34.0795H64.2609L63.627 34.7438V34.7271L63.931 35.1831V35.1907V35.1998C63.8344 35.3741 63.7618 35.5607 63.7152 35.7546V35.7652H63.7045L63.1649 35.9005L63.1801 35.8792C63.1862 36.169 63.1923 36.4756 63.1984 36.7988L63.1801 36.7775L63.7258 36.89H63.7395V36.9037C63.7967 37.0997 63.8806 37.2869 63.9888 37.46L63.9964 37.4722L63.9888 37.4843L63.7015 37.9601V37.9297L64.3627 38.5681H64.3308L64.7959 38.2641L64.8081 38.255L64.8233 38.2626C64.9968 38.359 65.1823 38.4321 65.375 38.4799H65.3902V38.4967L65.5225 39.0362L65.4951 39.015L66.4147 38.9982L66.3873 39.021C66.4238 38.8493 66.4618 38.6638 66.5013 38.4769V38.4602H66.5181C66.7084 38.4055 66.8908 38.3263 67.0607 38.2246H67.0759H67.0896L67.5653 38.5134H67.5304L68.1688 37.8522V37.8871L67.8648 37.422L67.8557 37.4068L67.8633 37.3931C67.9603 37.2199 68.0335 37.0343 68.0806 36.8414V36.8262H68.0958L68.6369 36.6939L68.6157 36.7213C68.6157 36.4066 68.605 36.1011 68.6005 35.8017L68.6217 35.826L68.0776 35.712H68.0624V35.6983C68.0087 35.5067 67.9294 35.3232 67.8268 35.1527V35.1405V35.1283L68.1156 34.6541V34.683L67.4544 34.0415H67.4817L67.0166 34.3455H67.006H66.9953C66.8214 34.2484 66.6354 34.1748 66.4421 34.1267H66.4314V34.116C66.3843 33.9199 66.3417 33.7436 66.3022 33.5764L66.3174 33.5886L65.3978 33.6007L65.41 33.5901C65.3644 33.8074 65.3264 33.9853 65.2945 34.1342C65.1496 34.1746 65.0091 34.2291 64.8749 34.2969L64.7761 34.3486L64.7427 34.3653C64.7523 34.3575 64.7625 34.3504 64.7731 34.344L64.8704 34.2878C65.0042 34.2172 65.1447 34.1601 65.2899 34.1175C65.3203 33.9655 65.3553 33.7907 65.3993 33.5734V33.5627H65.41L66.3296 33.543H66.3433V33.5551C66.3843 33.7223 66.4284 33.8986 66.477 34.0947L66.4633 34.0811C66.6603 34.129 66.85 34.2031 67.0273 34.3014H67.006L67.4696 33.9974L67.4848 33.9883L67.4969 34.0005L68.1597 34.6374L68.1733 34.651L68.1642 34.6678C68.07 34.8198 67.9757 34.9794 67.8769 35.142V35.1177C67.9818 35.2911 68.0631 35.4776 68.1186 35.6725L68.1004 35.6558L68.6445 35.7682H68.6643V35.788C68.6704 36.092 68.6765 36.3985 68.6825 36.7076V36.7289H68.6613L68.1217 36.8611L68.1414 36.8414C68.0934 37.039 68.0188 37.2293 67.9195 37.4068V37.384L68.2235 37.8476L68.2357 37.8674L68.2205 37.8826L67.5821 38.5453L67.5653 38.5605L67.5471 38.5498L67.0713 38.261H67.1002C66.9268 38.3669 66.7396 38.4482 66.5439 38.5027L66.5637 38.4814C66.5257 38.6684 66.4861 38.8538 66.4512 39.0256V39.0484H66.4284L65.5088 39.0636H65.486V39.0423C65.4404 38.8554 65.3948 38.6715 65.3537 38.5012L65.3735 38.521C65.1765 38.4724 64.9868 38.3978 64.8096 38.299H64.8369L64.3718 38.603L64.3536 38.6152L64.3384 38.6L63.6787 37.9616L63.6635 37.9464L63.6741 37.9297L63.9629 37.4554V37.4798C63.8504 37.3088 63.7619 37.1231 63.7 36.928L63.7167 36.9447L63.1725 36.8307H63.1558V36.8125C63.1558 36.4903 63.1452 36.1817 63.1406 35.8929V35.8762H63.1573L63.6969 35.7454L63.6833 35.7591C63.7324 35.5626 63.8076 35.3734 63.9067 35.1967V35.215L63.6027 34.7483V34.7392L63.6103 34.7301L64.2533 34.0719L64.6044 34.2908L64.6941 34.3471C64.7065 34.3507 64.7187 34.3553 64.7305 34.3607Z" fill="#455A64"/>
<path d="M67.9211 61.8712L64.7838 61.3894L64.6486 59.4787C64.0157 59.204 63.4222 58.8462 62.8838 58.4147L61.1267 59.1747L59.248 56.6151L60.502 55.1695C60.2497 54.5261 60.0846 53.8518 60.011 53.1647L58.2266 52.4624L58.7084 49.3251L60.6175 49.1899C60.8926 48.5572 61.2504 47.9638 61.6815 47.4251L60.9215 45.668L63.4812 43.7893L64.9252 45.0433C65.5689 44.7917 66.243 44.6267 66.9301 44.5523L67.6369 42.7603L70.7742 43.2421L70.9094 45.1512C71.5422 45.4262 72.1356 45.784 72.6742 46.2152L74.4328 45.4552L76.3191 48.024L75.0651 49.468C75.3167 50.1116 75.4813 50.7858 75.5546 51.4729L77.339 52.1751L76.8557 55.32L74.945 55.4538C74.6701 56.0866 74.3123 56.68 73.881 57.2185L74.641 58.9771L72.0753 60.8528L70.6298 59.5988C69.9863 59.8506 69.312 60.0152 68.6249 60.0883L67.9211 61.8712ZM64.7884 61.3818L67.9166 61.8636L68.6188 60.0807C69.3071 60.0078 69.9825 59.8427 70.6267 59.5897L72.0722 60.8437L74.6289 58.968L73.8689 57.2124C74.3006 56.6737 74.6584 56.0797 74.9329 55.4462L76.842 55.3124L77.3223 52.1843L75.5409 51.479C75.4678 50.7912 75.3027 50.1164 75.0499 49.4726L76.3039 48.0286L74.4313 45.4765L72.6757 46.2365C72.1372 45.8023 71.5432 45.4419 70.9094 45.1649L70.7757 43.2558L67.646 42.7755L66.9453 44.5584C66.2577 44.6327 65.5831 44.7978 64.9389 45.0494L63.4949 43.7954L60.9428 45.668L61.7028 47.4236C61.2679 47.9621 60.9074 48.5567 60.6312 49.1914L58.7221 49.3267L58.2418 52.4548L60.0247 53.1571C60.0958 53.8459 60.2583 54.5221 60.5081 55.168L59.2541 56.612L61.1267 59.1626L62.8823 58.4026C63.4215 58.8344 64.0161 59.1923 64.6501 59.4666L64.7884 61.3818ZM67.9014 55.6362C67.7273 55.6359 67.5536 55.6227 67.3815 55.5967C66.8855 55.5197 66.4126 55.334 65.9967 55.0529C65.5808 54.7718 65.2323 54.4022 64.976 53.9706C64.7197 53.539 64.562 53.0561 64.5141 52.5564C64.4663 52.0567 64.5296 51.5526 64.6994 51.0802C64.8693 50.6079 65.1414 50.1789 65.4965 49.824C65.8515 49.4691 66.2806 49.1972 66.753 49.0275C67.2255 48.8579 67.7296 48.7949 68.2293 48.8429C68.7289 48.891 69.2118 49.0489 69.6433 49.3054C70.2256 49.6522 70.6909 50.1651 70.9796 50.7783C71.2684 51.3914 71.3672 52.0769 71.2636 52.7467C71.1607 53.4173 70.8598 54.0419 70.3994 54.5403C69.9389 55.0386 69.34 55.388 68.6796 55.5435C68.4247 55.6049 68.1635 55.636 67.9014 55.6362ZM65.8858 49.4878C65.3484 49.8843 64.9395 50.4303 64.7103 51.0577C64.4811 51.6851 64.4417 52.366 64.5969 53.0157C64.8058 53.8926 65.3543 54.6507 66.1218 55.1235C66.8893 55.5963 67.8131 55.7452 68.6902 55.5374C69.1802 55.4209 69.6381 55.1971 70.0309 54.882C70.4238 54.567 70.7417 54.1685 70.9617 53.7156C71.1817 53.2626 71.2982 52.7664 71.303 52.2628C71.3078 51.7593 71.2006 51.261 70.9891 50.8039C70.7777 50.3469 70.4674 49.9425 70.0806 49.6201C69.6938 49.2977 69.2402 49.0652 68.7525 48.9395C68.2649 48.8139 67.7554 48.7982 67.261 48.8935C66.7665 48.9888 66.2994 49.1929 65.8934 49.4908L65.8858 49.4878Z" fill="#E0E0E0"/>
<path d="M65.8857 49.4877C66.0989 49.3022 66.3413 49.1532 66.6032 49.0469C67.2128 48.7902 67.8836 48.7149 68.535 48.83C69.1864 48.9452 69.7908 49.2458 70.2755 49.696C70.7325 50.1202 71.0674 50.6593 71.2453 51.257C71.4428 51.9193 71.4375 52.6255 71.2301 53.2847C71.0105 53.9963 70.568 54.6184 69.9677 55.059C69.3674 55.4997 68.6413 55.7356 67.8967 55.7319C67.5454 55.734 67.1959 55.6802 66.8616 55.5723C66.5394 55.4745 66.2343 55.3273 65.9572 55.1361C65.4404 54.7876 65.0268 54.3067 64.7594 53.7437C64.5281 53.2545 64.4156 52.7176 64.4311 52.1766C64.4503 51.3942 64.7392 50.6425 65.2489 50.0486C65.4295 49.8307 65.6447 49.6438 65.8857 49.4953C65.9009 49.5136 65.6456 49.6808 65.3081 50.1033C64.8362 50.6961 64.5762 51.4296 64.5694 52.1873C64.563 52.7423 64.6958 53.2901 64.9557 53.7806C65.2157 54.271 65.5945 54.6885 66.0575 54.9947C66.6028 55.3571 67.2434 55.5496 67.8982 55.548C68.6012 55.5494 69.2862 55.3257 69.8529 54.9097C70.4196 54.4937 70.8383 53.9072 71.0477 53.2361C71.151 52.9201 71.2023 52.5896 71.1997 52.2572C71.2042 51.9383 71.1606 51.6206 71.0705 51.3148C70.9045 50.7446 70.5897 50.2289 70.1585 49.8206C69.7834 49.4645 69.3299 49.2016 68.8345 49.053C68.1102 48.8319 67.3327 48.8597 66.626 49.1321C66.3734 49.2382 66.1264 49.3569 65.8857 49.4877Z" fill="#263238"/>
<path d="M64.9322 45.0387C64.898 45.0176 64.8659 44.9932 64.8364 44.9658L64.5583 44.7332L63.4639 43.806H63.5034L60.9574 45.6984L60.9741 45.6391L61.7448 47.3932L61.7584 47.4236L61.7372 47.451C61.3082 47.9875 60.9529 48.5789 60.6808 49.2096L60.664 49.2446H60.626L58.7139 49.3844L58.7777 49.3267C58.6257 50.3131 58.4737 51.3604 58.3035 52.4609L58.2564 52.3788L60.0348 53.0795L60.0804 53.0978V53.1464C60.1549 53.8274 60.3195 54.4954 60.5698 55.1331L60.5896 55.1802L60.5561 55.2182L59.3021 56.6667V56.5588L61.196 59.12L61.0866 59.0911L62.8422 58.3311L62.8939 58.3083L62.938 58.3433C63.4707 58.7742 64.0585 59.132 64.686 59.4073L64.7376 59.4301V59.4863C64.7802 60.0852 64.8258 60.7388 64.8729 61.3985L64.7924 61.3103L67.9388 61.7709L67.8339 61.8317C68.0558 61.2678 68.2899 60.6598 68.5361 60.0487L68.5574 59.9925H68.6167C69.2939 59.9192 69.9584 59.7562 70.5927 59.5076L70.6489 59.4863L70.693 59.5243L72.1385 60.7814H72.0184L74.5751 58.9072L74.5432 59.0227L73.7832 57.2656L73.7604 57.2124L73.7968 57.1668C74.2276 56.6351 74.5855 56.0483 74.8608 55.4219L74.8836 55.3687H74.9399L76.852 55.2349L76.7669 55.3139C76.9331 54.2439 77.0947 53.1991 77.2518 52.1797L77.3065 52.277L75.5251 51.5717L75.4749 51.5535V51.5003C75.4024 50.8196 75.2398 50.1515 74.9916 49.5136L74.9733 49.4665L75.0068 49.427L76.2653 47.983V48.0848L74.3942 45.5236L74.4839 45.5479L72.7252 46.3079L72.6872 46.3247L72.6538 46.2988C72.1206 45.8679 71.5322 45.51 70.9043 45.2348L70.8678 45.2181V45.1801C70.8207 44.4855 70.7781 43.8592 70.7386 43.2679L70.7872 43.3211L67.6348 42.8074L67.6819 42.78C67.3961 43.4899 67.162 44.0735 66.9675 44.5584L66.9599 44.5767H66.9416C66.4263 44.6282 65.9172 44.73 65.4216 44.8807L65.0553 44.9977C65.0159 45.0137 64.9752 45.0265 64.9337 45.0357C64.9712 45.0152 65.0103 44.9979 65.0508 44.984C65.1298 44.9521 65.2499 44.905 65.4125 44.8503C65.9088 44.6858 66.4207 44.5732 66.9401 44.5143L66.9143 44.5341C67.1028 44.0462 67.3292 43.461 67.6044 42.7466L67.6165 42.7131H67.6515L70.7888 43.1813H70.8328V43.2269C70.8769 43.8182 70.9225 44.4429 70.9742 45.1391L70.9362 45.0843C71.5766 45.3623 72.1772 45.7242 72.7222 46.1605L72.6508 46.1499L74.4048 45.3899L74.4596 45.3655L74.4945 45.4142L76.3763 47.9663L76.4143 48.0195L76.3717 48.0681L75.1192 49.5167L75.1329 49.43C75.389 50.0817 75.5572 50.7646 75.633 51.4607L75.5783 51.3878L77.3628 52.0946L77.4296 52.1204L77.4175 52.1919C77.2624 53.2113 77.1033 54.256 76.9402 55.3261L76.9296 55.4006H76.8551L74.9429 55.5374L75.022 55.4811C74.7428 56.1232 74.3788 56.7249 73.9397 57.2702L73.9534 57.1729C74.2057 57.7515 74.4591 58.3367 74.7134 58.9285L74.7438 58.9999L74.6815 59.0455L72.1248 60.9227L72.0625 60.9683L72.0048 60.9167C71.5255 60.5012 71.0431 60.0827 70.5577 59.6611L70.6565 59.6779C70.0061 59.9359 69.3242 60.1061 68.6288 60.184L68.7094 60.1217C68.4677 60.7297 68.2291 61.3377 68.0072 61.9062L67.9783 61.9776L67.9023 61.9655L64.768 61.4836L64.692 61.4715V61.3955C64.6449 60.7358 64.5993 60.0822 64.5583 59.4833L64.6145 59.5623C63.9723 59.2822 63.3706 58.9172 62.8255 58.4771L62.9212 58.4907L61.1626 59.2507L61.0988 59.272L61.0547 59.2143C60.4056 58.3251 59.7703 57.4587 59.182 56.6546L59.141 56.5983L59.1866 56.5467L60.4452 55.1027L60.43 55.1878C60.1764 54.5357 60.0108 53.8528 59.9375 53.1571L59.9876 53.2239L58.2062 52.5187L58.1484 52.4959L58.1576 52.4351C58.3293 51.3361 58.4935 50.2888 58.647 49.3023L58.6546 49.2461H58.7108L60.623 49.1169L60.5683 49.1549C60.8497 48.5166 61.2146 47.9186 61.6536 47.3765L61.646 47.4358L60.886 45.6756L60.8708 45.6391L60.9027 45.6163L63.47 43.7543L63.4897 43.7391L63.508 43.7559L64.572 44.6998L64.8456 44.9475C64.8763 44.9761 64.9052 45.0066 64.9322 45.0387Z" fill="#263238"/>
<path d="M80.3299 67.6973C80.5368 66.6813 80.6291 65.6453 80.605 64.6087C80.5852 63.5812 80.3603 62.54 79.8207 61.6675C79.2193 62.6139 78.9459 63.7317 79.0424 64.8488C79.1123 65.9253 79.5502 66.945 80.2827 67.7368" fill="#5F2B38"/>
<path d="M79.0067 70.4455C79.0204 69.3405 79.0067 68.2233 78.7499 67.1502C78.493 66.0771 77.9503 65.0374 77.0779 64.364C76.7577 65.4989 76.79 66.7044 77.1706 67.8205C77.5521 68.9286 78.0628 69.7555 79.0098 70.4455" fill="#5F2B38"/>
<path d="M77.3382 73.712C77.4902 72.724 77.6088 71.7238 77.5024 70.7313C77.396 69.7387 77.0464 68.7462 76.3365 68.0378C75.9145 69.0156 75.7995 70.0986 76.0067 71.1432C76.2164 72.1783 76.5736 72.9809 77.3382 73.712Z" fill="#5F2B38"/>
<path d="M76.1198 76.0467C76.0666 74.925 75.9875 73.7941 75.6562 72.7225C75.3248 71.6509 74.7153 70.6295 73.7851 70.0017C73.5287 71.1709 73.6348 72.3904 74.0891 73.4977C74.5451 74.5967 75.1135 75.4038 76.1137 76.0452" fill="#5F2B38"/>
<path d="M74.3019 78.8011C74.3369 77.7721 74.3521 76.7324 74.1302 75.7277C73.9082 74.723 73.4294 73.7441 72.6269 73.0996C72.3063 74.1497 72.3121 75.2723 72.6436 76.319C72.9765 77.3586 73.4355 78.143 74.3019 78.8011Z" fill="#5F2B38"/>
<path d="M72.7973 81.16C72.8337 80.1309 72.8474 79.0912 72.627 78.0865C72.4066 77.0818 72.0388 76.1987 71.2377 75.5542C70.9155 76.5954 70.8076 77.6396 71.1405 78.6778C71.4733 79.716 71.9309 80.5018 72.7973 81.16Z" fill="#5F2B38"/>
<path d="M79.0156 70.4153C79.7104 69.9478 80.4578 69.5636 81.2424 69.2708C81.8562 69.0276 82.4957 68.8553 83.1485 68.757C83.805 68.6592 84.4757 68.7487 85.0835 69.0154C84.318 69.8139 83.3362 70.3717 82.2583 70.6204C81.1805 70.8691 80.0535 70.7978 79.0156 70.4153Z" fill="#5F2B38"/>
<path d="M74.3047 78.8193C74.87 78.4387 75.4781 78.126 76.1165 77.8875C76.6157 77.6895 77.1359 77.5493 77.6669 77.4695C78.2006 77.39 78.7459 77.4628 79.2401 77.6793C78.6175 78.3287 77.8189 78.7824 76.9423 78.9849C76.0657 79.1874 75.1491 79.1298 74.3047 78.8193Z" fill="#5F2B38"/>
<path d="M73.125 80.6903C73.733 80.4532 74.5492 79.9637 75.1968 79.8817C75.7272 79.7997 76.2651 79.7783 76.8004 79.8178C77.3388 79.8598 77.8545 80.0526 78.2884 80.3741C77.5358 80.8662 76.6569 81.1301 75.7576 81.1341C74.8639 81.1341 73.8728 81.1767 73.125 80.6888" fill="#5F2B38"/>
<path d="M77.5859 73.5084C78.2809 73.0402 79.0289 72.656 79.8143 72.3638C80.4274 72.1201 81.0664 71.9472 81.7188 71.8485C82.3754 71.7518 83.046 71.8419 83.6538 72.1084C82.8878 72.9061 81.9059 73.4634 80.8283 73.712C79.7507 73.9606 78.624 73.8898 77.5859 73.5084Z" fill="#5F2B38"/>
<path d="M75.6578 76.8402C76.2883 76.2884 76.9816 75.8129 77.7235 75.4235C78.3008 75.1049 78.9128 74.8534 79.5475 74.6742C80.1862 74.4942 80.8627 74.4984 81.4991 74.6863C80.8405 75.575 79.9368 76.2521 78.8989 76.6347C77.8611 77.0173 76.7341 77.0887 75.6562 76.8402" fill="#5F2B38"/>
<path d="M80.1875 68.0409C81.3212 67.952 82.417 67.5924 83.3829 66.9923C84.3488 66.3922 85.1567 65.5691 85.7385 64.592C84.9041 64.6969 84.0665 64.896 83.34 65.311C82.124 66.0148 81.3108 67.2004 80.1875 68.047" fill="#5F2B38"/>
<path d="M81.4594 65.457C82.2906 65.0586 82.9459 64.3679 83.3 63.5169C83.6542 62.6659 83.6823 61.7142 83.3791 60.8438C82.6453 61.3541 82.074 62.065 81.7335 62.8914C81.3931 63.7179 81.2979 64.6249 81.4594 65.5041" fill="#5F2B38"/>
<path d="M72.6562 81.3501C72.6649 81.3338 72.6746 81.3181 72.6851 81.303C72.7064 81.268 72.7368 81.2239 72.7733 81.1677C72.8569 81.0461 72.9739 80.8728 73.1229 80.6524C73.2719 80.432 73.4619 80.1569 73.6686 79.8346C73.8753 79.5124 74.1246 79.1506 74.3738 78.7387C74.6231 78.3268 74.9119 77.883 75.2007 77.395C75.4895 76.9071 75.7981 76.3842 76.1127 75.831C76.742 74.7214 77.4184 73.4917 78.0887 72.183C79.4446 69.5655 80.5815 67.1518 81.3978 65.4022L82.3736 63.329C82.4876 63.0888 82.5758 62.8988 82.6381 62.7666C82.667 62.7058 82.6898 62.6571 82.708 62.6146C82.7263 62.572 82.7338 62.5659 82.7338 62.5659C82.7298 62.5838 82.7237 62.6011 82.7156 62.6176C82.7004 62.6556 82.6791 62.7042 82.6518 62.7696L82.4025 63.3396C82.1836 63.8321 81.8644 64.5465 81.4616 65.4235C80.659 67.1806 79.5282 69.599 78.1723 72.2179C77.4959 73.5266 76.818 74.7563 76.1826 75.8659C75.8619 76.4177 75.5579 76.9436 75.26 77.427C74.9621 77.9103 74.6839 78.3602 74.424 78.7676C74.1641 79.175 73.9209 79.5382 73.7081 79.8574C73.4953 80.1766 73.3083 80.4487 73.1502 80.6691L72.79 81.1753L72.6942 81.306C72.6699 81.3364 72.6578 81.3516 72.6562 81.3501Z" fill="#263238"/>
<path d="M20.24 71.2057C19.8417 70.3178 19.5435 69.3885 19.3508 68.4347C19.1325 67.4899 19.1703 66.504 19.4602 65.5786C20.2061 66.3211 20.6868 67.2884 20.8282 68.3313C20.9834 69.3276 20.7924 70.3469 20.2871 71.2193" fill="#5F2B38"/>
<path d="M22.0253 73.449C21.7836 72.4397 21.5693 71.4153 21.5784 70.3771C21.5875 69.3389 21.8824 68.278 22.5375 67.48C23.0664 68.4554 23.2853 69.5689 23.1653 70.672C23.0452 71.7649 22.7488 72.6282 22.0253 73.4566" fill="#5F2B38"/>
<path d="M24.2314 76.0969C23.8955 75.2229 23.5733 74.3322 23.4714 73.4019C23.3696 72.4717 23.4851 71.4883 23.9821 70.6948C24.5692 71.5033 24.8963 72.4714 24.92 73.4703C24.9428 74.4614 24.7801 75.27 24.2314 76.0969Z" fill="#5F2B38"/>
<path d="M25.8303 77.9786C25.6479 76.942 25.4868 75.8886 25.5689 74.8383C25.6509 73.788 25.9975 72.7285 26.7195 71.9609C27.193 72.9819 27.3446 74.1228 27.1542 75.232C26.9642 76.3309 26.6101 77.1882 25.8257 77.9817" fill="#5F2B38"/>
<path d="M28.057 80.1265C27.8107 79.1917 27.5827 78.2417 27.5782 77.2765C27.5736 76.3113 27.8107 75.3157 28.4111 74.5603C28.9226 75.4554 29.1495 76.485 29.0617 77.5121C28.972 78.5305 28.7121 79.3361 28.057 80.1265Z" fill="#5F2B38"/>
<path d="M22.013 73.4217C21.2789 73.1363 20.5136 72.9389 19.733 72.8334C19.1209 72.7371 18.4997 72.7111 17.8817 72.7559C17.2607 72.8026 16.6654 73.0233 16.1641 73.3928C17.0297 73.9659 18.0438 74.2739 19.082 74.279C20.1201 74.2841 21.1372 73.9862 22.0085 73.4217" fill="#5F2B38"/>
<path d="M28.0592 80.1416C27.4631 79.9101 26.8417 79.7499 26.2079 79.6643C25.7099 79.5854 25.2045 79.564 24.7016 79.6005C24.1963 79.6375 23.7118 79.8173 23.3047 80.1188C24.009 80.5849 24.834 80.8353 25.6786 80.8393C26.5231 80.8434 27.3505 80.6009 28.0592 80.1416Z" fill="#5F2B38"/>
<path d="M23.9646 75.957C23.2304 75.6723 22.4651 75.4754 21.6846 75.3703C21.073 75.2739 20.4523 75.2479 19.8348 75.2928C19.2139 75.3389 18.6186 75.5592 18.1172 75.9282C18.9828 76.5012 19.9969 76.8092 21.0351 76.8144C22.0732 76.8195 23.0903 76.5215 23.9616 75.957" fill="#5F2B38"/>
<path d="M26.4162 78.6094C25.7254 78.2348 24.9927 77.9429 24.2335 77.74C23.6388 77.5704 23.027 77.4684 22.4095 77.436C21.7875 77.4041 21.1691 77.5479 20.625 77.851C21.4122 78.5276 22.3796 78.9598 23.4088 79.0948C24.438 79.2298 25.4842 79.0617 26.4192 78.611" fill="#5F2B38"/>
<path d="M20.4442 71.4912C19.3876 71.6438 18.3098 71.5406 17.3014 71.1904C16.2929 70.8402 15.3831 70.2533 14.6484 69.4788C15.4327 69.3763 16.2296 69.4316 16.9923 69.6414C18.2508 70.0336 19.2404 70.9516 20.4442 71.4912Z" fill="#5F2B38"/>
<path d="M18.7499 69.3861C17.9064 69.1938 17.1634 68.6972 16.6631 67.9914C16.1627 67.2855 15.9403 66.4199 16.0382 65.5603C16.8141 65.876 17.4826 66.4083 17.964 67.0938C18.4454 67.7792 18.7193 68.5887 18.753 69.4257" fill="#5F2B38"/>
<path d="M28.593 80.7268C28.5798 80.7181 28.5676 80.7079 28.5566 80.6964L28.4562 80.6037L28.0778 80.248C27.9136 80.096 27.713 79.8954 27.4865 79.6643C27.26 79.4333 26.997 79.1764 26.7265 78.88C25.5956 77.7081 24.0878 76.0376 22.5054 74.1224C20.9231 72.2072 19.5475 70.4258 18.5641 69.1292C18.0716 68.4802 17.6779 67.9527 17.4074 67.5879L17.1034 67.1654L17.0243 67.0544C17.0143 67.0425 17.0061 67.0292 17 67.0149L17.0304 67.0483L17.1155 67.1547L17.4378 67.5682C17.719 67.933 18.1202 68.4543 18.6158 69.0882C19.6098 70.3771 20.99 72.1525 22.5678 74.0647C24.1455 75.9768 25.6488 77.6549 26.7675 78.8359C27.0442 79.1399 27.3041 79.3953 27.5275 79.6279C27.751 79.8604 27.947 80.058 28.1082 80.2191L28.4775 80.5931L28.5718 80.6903L28.593 80.7268Z" fill="#263238"/>
<path d="M73.3507 81.3499L75.2765 60.9591C75.3137 60.5788 75.2718 60.195 75.1535 59.8316C75.0352 59.4683 74.8431 59.1334 74.5891 58.8479C74.3352 58.5624 74.0249 58.3325 73.6779 58.1727C73.3308 58.0128 72.9545 57.9265 72.5725 57.9191L51.1268 57.4935C50.4205 57.4792 49.7354 57.735 49.2114 58.2088C48.6874 58.6825 48.364 59.3384 48.3072 60.0425L46.6641 81.3408L73.3507 81.3499Z" fill="#455A64"/>
<path d="M70.304 81.3452C70.3103 81.3219 70.3143 81.2979 70.3162 81.2738C70.3162 81.2221 70.3298 81.1522 70.3405 81.061C70.3602 80.871 70.3906 80.5974 70.4271 80.2463C70.4986 79.5349 70.6019 78.512 70.7311 77.2488C70.9789 74.712 71.3209 71.216 71.6978 67.3536C71.9851 64.344 72.2526 61.5579 72.4685 59.29C72.4685 59.1765 72.4654 59.0641 72.4594 58.9526C72.4614 58.8411 72.4496 58.7298 72.4244 58.6212C72.3669 58.4099 72.2427 58.2228 72.0702 58.0877C71.9061 57.9603 71.7064 57.887 71.4987 57.878L70.9348 57.8673L69.0546 57.8384L67.8522 57.8232H67.5376C67.4662 57.8232 67.4297 57.8232 67.4297 57.8232C67.4297 57.8232 67.4662 57.8232 67.5376 57.8308L67.8522 57.843L69.0546 57.8764L70.9333 57.922L71.4957 57.9372C71.6953 57.9466 71.8867 58.0195 72.042 58.1452C72.1973 58.271 72.3084 58.4431 72.359 58.6364C72.383 58.7406 72.3937 58.8473 72.391 58.9541C72.391 59.0636 72.391 59.1745 72.3986 59.287C72.1782 61.5548 71.9061 64.341 71.6127 67.3506C71.2449 71.2129 70.912 74.7104 70.6718 77.2473C70.5548 78.512 70.4606 79.5273 70.3952 80.2478C70.3648 80.5989 70.342 80.874 70.3253 81.064C70.3177 81.1552 70.3131 81.2252 70.3086 81.2768C70.3056 81.2995 70.304 81.3224 70.304 81.3452Z" fill="#263238"/>
<path d="M45.9948 45.6286C45.8826 45.5142 45.7444 45.4286 45.592 45.3793H45.6209C45.5932 45.3737 45.5653 45.3696 45.5373 45.3671C45.4862 45.3536 45.433 45.3505 45.3807 45.358C45.3285 45.3656 45.2783 45.3837 45.2333 45.4112C45.064 45.476 44.9252 45.6018 44.8441 45.7639C44.7819 45.9075 44.7601 46.0655 44.7813 46.2207C44.8025 46.3758 44.8657 46.5222 44.9642 46.6439C45.0362 46.7549 45.14 46.8415 45.2621 46.8923C45.3842 46.9432 45.5189 46.9559 45.6483 46.9287C45.7778 46.9016 45.896 46.8359 45.9874 46.7403C46.0788 46.6447 46.1391 46.5237 46.1605 46.3931C46.1991 46.262 46.2041 46.1233 46.1752 45.9897C46.1462 45.8561 46.0842 45.732 45.9948 45.6286Z" fill="#455A64"/>
<path d="M44.7769 41.9319C44.268 41.7926 43.8002 41.5326 43.4131 41.1741C43.026 40.8156 42.731 40.3691 42.5531 39.8723C42.3825 39.371 42.3333 38.8364 42.4097 38.3124C42.486 37.7883 42.6858 37.2899 42.9924 36.8582C42.3631 37.0193 41.7369 36.4341 41.6077 35.7942C41.4785 35.1543 41.7065 34.4916 41.9497 33.882C42.506 32.4912 43.2022 31.0959 44.3619 30.1611C45.5217 29.2263 47.2499 28.8706 48.5024 29.6747C48.5131 29.129 49.153 28.8554 49.685 28.7627C52.0045 28.3796 54.4882 28.9876 56.3152 30.4833C58.1423 31.979 59.2595 34.3578 59.15 36.7351C59.9374 37.9693 59.4327 39.845 58.1362 40.5077C58.3665 41.9391 58.0982 43.4062 57.3762 44.6634C56.6496 45.9087 55.5126 46.8625 54.1599 47.3614" fill="#5F2B38"/>
<path d="M45.4641 40.5928C45.6054 38.5606 46.9689 36.0769 48.992 36.3049L55.303 37.9465C55.6006 37.9788 55.8751 38.1218 56.0722 38.347C56.2692 38.5722 56.3745 38.8633 56.367 39.1625L55.5797 54.4081L55.6237 54.4172C55.6237 54.4172 54.163 58.7036 49.9997 57.3721C49.1713 57.1076 48.7974 56.2002 48.6317 55.2669H48.5892C48.5892 55.1559 48.5892 55.0541 48.5892 54.9477C48.5111 54.2525 48.506 53.551 48.574 52.8547C48.574 51.6235 48.574 51.1188 48.574 51.131C48.574 51.1431 45.9809 50.675 45.4656 47.2915C45.2026 45.6103 45.306 42.8561 45.4641 40.5928Z" fill="#B78876"/>
<path d="M46.5938 42.7483C46.5917 42.8616 46.6342 42.9713 46.7121 43.0537C46.7899 43.1361 46.897 43.1847 47.0103 43.1891C47.066 43.1947 47.1223 43.189 47.1758 43.1723C47.2292 43.1556 47.2788 43.1282 47.3214 43.0919C47.364 43.0555 47.3988 43.0109 47.4237 42.9607C47.4486 42.9105 47.4631 42.8559 47.4663 42.7999C47.468 42.6869 47.4256 42.5777 47.3482 42.4954C47.2707 42.4131 47.1642 42.3643 47.0513 42.3591C46.9956 42.3537 46.9393 42.3596 46.8858 42.3763C46.8324 42.3931 46.7828 42.4205 46.7401 42.4568C46.6975 42.4931 46.6625 42.5376 46.6374 42.5877C46.6122 42.6377 46.5974 42.6923 46.5938 42.7483Z" fill="#263238"/>
<path d="M46.0438 42.0323C46.097 42.09 46.4284 41.8483 46.8966 41.8529C47.3647 41.8575 47.7037 42.0931 47.7554 42.0368C47.7797 42.011 47.7265 41.9091 47.5775 41.7997C47.3767 41.6576 47.1365 41.5816 46.8905 41.5823C46.647 41.5799 46.4091 41.6549 46.211 41.7967C46.0712 41.9046 46.0226 42.0079 46.0438 42.0323Z" fill="#263238"/>
<path d="M51.1016 42.8258C51.0996 42.9392 51.142 43.0488 51.2199 43.1312C51.2977 43.2136 51.4048 43.2622 51.5181 43.2666C51.5738 43.2722 51.6301 43.2665 51.6836 43.2498C51.7371 43.2331 51.7866 43.2057 51.8292 43.1694C51.8718 43.133 51.9066 43.0884 51.9315 43.0383C51.9564 42.9881 51.9709 42.9334 51.9741 42.8775C51.9754 42.7646 51.9329 42.6556 51.8555 42.5734C51.7782 42.4912 51.6719 42.4422 51.5592 42.4367C51.5033 42.431 51.447 42.4367 51.3934 42.4534C51.3399 42.4701 51.2902 42.4975 51.2475 42.5338C51.2048 42.5701 51.1698 42.6147 51.1448 42.6649C51.1197 42.7151 51.105 42.7698 51.1016 42.8258Z" fill="#263238"/>
<path d="M50.6471 42.1509C50.7018 42.2087 51.0332 41.967 51.4998 41.9715C51.9665 41.9761 52.3085 42.2117 52.3586 42.1555C52.3845 42.1296 52.3298 42.0278 52.1808 41.9183C51.98 41.7761 51.7398 41.7001 51.4938 41.701C51.2508 41.6985 51.0133 41.7736 50.8158 41.9153C50.6714 42.0232 50.6213 42.1266 50.6471 42.1509Z" fill="#263238"/>
<path d="M48.926 45.6059C48.926 45.58 48.6387 45.5283 48.166 45.4645C48.0475 45.4508 47.9335 45.4265 47.9152 45.3444C47.905 45.2212 47.9337 45.0979 47.9973 44.9918C48.1113 44.703 48.2299 44.402 48.356 44.0798C48.8546 42.7893 49.2163 41.7268 49.1647 41.7071C49.113 41.6873 48.6661 42.7179 48.1675 44.0083C48.0475 44.3275 47.9319 44.63 47.8225 44.9203C47.7468 45.064 47.7237 45.2296 47.7571 45.3885C47.7745 45.4307 47.8011 45.4685 47.8351 45.499C47.869 45.5296 47.9094 45.552 47.9532 45.5648C48.0191 45.583 48.087 45.5927 48.1554 45.5937C48.6311 45.6287 48.9245 45.6332 48.926 45.6059Z" fill="#263238"/>
<path d="M48.5625 51.1356C50.1569 51.1708 51.7298 50.7625 53.1058 49.9561C53.1058 49.9561 51.9901 52.2756 48.602 51.9321L48.5625 51.1356Z" fill="#AA6550"/>
<path d="M49.1179 46.7335C49.2084 46.6225 49.3256 46.5364 49.4586 46.4832C49.5915 46.43 49.7359 46.4115 49.8779 46.4295C49.9811 46.4391 50.0813 46.4696 50.1723 46.5193C50.2632 46.5689 50.3431 46.6367 50.4069 46.7183C50.4686 46.7966 50.5049 46.8918 50.5109 46.9913C50.5168 47.0907 50.4922 47.1896 50.4403 47.2747C50.365 47.3568 50.2673 47.415 50.1592 47.442C50.0511 47.469 49.9374 47.4637 49.8323 47.4267C49.6124 47.3463 49.4104 47.2234 49.238 47.0649C49.1857 47.0274 49.1409 46.9805 49.1058 46.9266C49.0878 46.901 49.0781 46.8705 49.0781 46.8392C49.0781 46.8079 49.0878 46.7774 49.1058 46.7518" fill="#AA6550"/>
<path d="M50.3037 45.9388C50.2277 45.9388 50.2232 46.4419 49.7854 46.7991C49.3476 47.1563 48.8096 47.1031 48.805 47.1669C48.7974 47.1989 48.9251 47.2673 49.1531 47.2749C49.4501 47.2809 49.7398 47.1819 49.9708 46.9952C50.1936 46.8166 50.3376 46.558 50.3721 46.2747C50.3904 46.0619 50.3341 45.9357 50.3037 45.9388Z" fill="#263238"/>
<path d="M50.4399 41.3361C50.4855 41.4638 50.9522 41.406 51.5039 41.4759C52.0557 41.5458 52.495 41.6994 52.5679 41.5854C52.6014 41.5306 52.5254 41.4106 52.3475 41.2814C52.1108 41.1271 51.841 41.0308 51.5602 41.0002C51.2796 40.9643 50.9945 40.9961 50.7287 41.0929C50.522 41.1719 50.4202 41.2707 50.4399 41.3361Z" fill="#263238"/>
<path d="M46.2294 40.6811C46.3114 40.7875 46.6337 40.6811 47.0213 40.6811C47.4089 40.6811 47.7357 40.7571 47.8117 40.6461C47.8451 40.5929 47.795 40.4865 47.6597 40.3847C47.47 40.2591 47.2455 40.1969 47.0182 40.2069C46.7904 40.2085 46.5688 40.2813 46.3844 40.4151C46.24 40.52 46.1959 40.6294 46.2294 40.6811Z" fill="#263238"/>
<path d="M54.2382 42.3591C54.2224 42.1585 54.1919 41.9594 54.1471 41.7633C54.0887 41.5359 53.9965 41.3187 53.8734 41.1188C53.7125 40.8527 53.5019 40.62 53.2533 40.4333C52.9312 40.1891 52.5529 40.0298 52.1532 39.97C51.7534 39.9102 51.3451 39.9519 50.9657 40.0913C50.7476 40.1693 50.5426 40.28 50.3577 40.4196C50.1611 40.562 49.9891 40.7355 49.8485 40.9333C49.5435 41.3459 49.3789 41.8453 49.3789 42.3583C49.3789 42.8714 49.5435 43.3708 49.8485 43.7833C49.9891 43.9812 50.1611 44.1547 50.3577 44.2971C50.5426 44.4367 50.7476 44.5474 50.9657 44.6254C51.3712 44.7732 51.8087 44.8105 52.2334 44.7333C52.6045 44.6637 52.9539 44.5075 53.2533 44.2773C53.5019 44.0906 53.7125 43.8579 53.8734 43.5918C53.9967 43.3921 54.089 43.1748 54.1471 42.9473C54.1917 42.7517 54.2222 42.5531 54.2382 42.353C54.24 42.3661 54.24 42.3794 54.2382 42.3925C54.2382 42.4229 54.2382 42.4609 54.2382 42.5096C54.2384 42.5727 54.2333 42.6358 54.2231 42.6981C54.2136 42.7846 54.1983 42.8704 54.1774 42.9549C54.1227 43.187 54.033 43.4095 53.9114 43.6146C53.7517 43.8889 53.54 44.1295 53.2882 44.3229C52.9593 44.5768 52.5715 44.7434 52.1609 44.8072C51.7503 44.871 51.3303 44.8299 50.9399 44.6877C50.7141 44.6087 50.5019 44.4954 50.3106 44.3518C50.2111 44.2781 50.1167 44.1979 50.0279 44.1117C49.9394 44.022 49.8576 43.926 49.7831 43.8244C49.4674 43.3985 49.2969 42.8824 49.2969 42.3523C49.2969 41.8221 49.4674 41.306 49.7831 40.8801C49.8576 40.7786 49.9394 40.6826 50.0279 40.5929C50.1167 40.5067 50.2111 40.4265 50.3106 40.3527C50.5019 40.2091 50.7141 40.0958 50.9399 40.0168C51.3579 39.8656 51.8089 39.8299 52.2455 39.9134C52.5921 39.9788 52.9206 40.1176 53.209 40.3206C53.4974 40.5235 53.739 40.7858 53.9175 41.0899C54.0391 41.2951 54.1288 41.5175 54.1835 41.7496C54.2043 41.8341 54.2195 41.9199 54.2291 42.0065C54.2393 42.0688 54.2444 42.1318 54.2443 42.1949C54.2443 42.2436 54.2443 42.2816 54.2443 42.312C54.2446 42.3279 54.2425 42.3438 54.2382 42.3591Z" fill="#263238"/>
<path d="M58.1162 40.6857C58.1094 40.6707 58.1048 40.6548 58.1025 40.6385C58.0934 40.6036 58.0827 40.558 58.0706 40.5002C58.0584 40.4425 58.0417 40.3619 58.0174 40.2737C57.9931 40.1856 57.9642 40.0822 57.9338 39.9697C57.7369 39.3257 57.452 38.7119 57.0871 38.1457C56.5459 37.3061 55.8513 36.5759 55.0397 35.9934C54.039 35.2892 52.9037 34.7991 51.7048 34.554C50.5047 34.3051 49.2708 34.264 48.0568 34.4324C47.0653 34.5513 46.0976 34.8203 45.1871 35.2304C44.8395 35.3912 44.5056 35.5797 44.1884 35.7943C43.95 35.958 43.723 36.1378 43.509 36.3324L43.2779 36.5497L43.1259 36.7215L43.0287 36.8249C43.0178 36.8378 43.0056 36.8495 42.9922 36.8598C43.0008 36.8455 43.011 36.8323 43.0226 36.8203L43.1138 36.7109L43.2658 36.5345L43.4923 36.3096C43.704 36.11 43.9295 35.9256 44.1671 35.7578C44.4847 35.5382 44.8197 35.345 45.1688 35.1802C46.083 34.7582 47.0574 34.4813 48.0568 34.3594C49.277 34.1863 50.5179 34.2259 51.7246 34.4765C52.9337 34.7245 54.0781 35.2208 55.0853 35.9341C55.9025 36.5236 56.6 37.2633 57.1403 38.1138C57.5041 38.6857 57.7831 39.3073 57.9687 39.9591L58.0463 40.2631C58.0691 40.3528 58.0797 40.4303 58.0919 40.4926C58.104 40.5549 58.1101 40.5975 58.1162 40.6325C58.119 40.6501 58.119 40.668 58.1162 40.6857Z" fill="#263238"/>
<path d="M58.9383 37.4175C58.9336 37.4064 58.9311 37.3945 58.9307 37.3825C58.9307 37.3536 58.9307 37.3202 58.917 37.2776C58.9079 37.1864 58.8866 37.0527 58.8516 36.8809C58.7485 36.3988 58.5733 35.9351 58.3318 35.5053C57.9722 34.8682 57.5059 34.2975 56.9532 33.8181C56.2727 33.2342 55.5282 32.7294 54.734 32.3133C53.3003 31.5366 51.8088 30.872 50.2728 30.3251C49.683 30.1154 49.1996 29.9603 48.8652 29.857L48.4761 29.7384L48.3773 29.7065C48.3545 29.7065 48.3424 29.6943 48.3439 29.6928C48.3454 29.6913 48.356 29.6928 48.3788 29.6928L48.4807 29.7171C48.5704 29.7399 48.7026 29.7734 48.8713 29.822C49.2088 29.9163 49.6936 30.0622 50.288 30.2659C51.8335 30.7999 53.3323 31.4608 54.7689 32.2419C55.5683 32.6608 56.3166 33.1709 56.9988 33.7619C57.5544 34.2489 58.021 34.8291 58.3774 35.4764C58.6171 35.9127 58.7864 36.3842 58.879 36.8733C58.9039 37.006 58.9212 37.1399 58.9307 37.2746C58.9307 37.3171 58.9307 37.3521 58.9307 37.3795C58.9354 37.3916 58.938 37.4044 58.9383 37.4175Z" fill="#263238"/>
<path d="M48.5326 37.2701C48.5326 37.2701 51.7109 37.223 54.1171 40.8102C55.7025 43.1753 56.0369 46.1438 56.0369 46.1438L57.2635 40.494L56.3515 37.91L54.1551 36.6682L49.9873 36.4341L48.4141 37.2123" fill="#5F2B38"/>
<path d="M54.7569 37.5635C49.6953 36.3475 45.6475 38.0195 44.9058 41.9913L43.5469 39.7736L46.5094 36.2077L49.3974 35.4568L55.2022 36.3399L54.7569 37.5635Z" fill="#5F2B38"/>
<path d="M58.0279 37.2198C58.0217 37.2042 58.0177 37.1879 58.0157 37.1712C58.0157 37.1347 58.002 37.0876 57.9914 37.0283C57.9811 36.9504 57.9659 36.8732 57.9458 36.7973C57.9215 36.7061 57.9017 36.6012 57.8607 36.4933C57.7716 36.2127 57.6545 35.9417 57.5111 35.6846C57.3203 35.3451 57.0902 35.0293 56.8255 34.7438C56.5051 34.3966 56.1432 34.0903 55.7479 33.8318C55.2929 33.5381 54.8026 33.3032 54.2887 33.1326C53.2034 32.7632 51.9327 32.6325 50.6118 32.6598C49.2909 32.6872 48.0278 32.8118 46.9167 33.1052C46.393 33.2409 45.8839 33.4278 45.3967 33.663C44.9722 33.8696 44.5716 34.1219 44.2019 34.4154C43.6608 34.8365 43.207 35.359 42.8659 35.9537C42.8066 36.0601 42.7549 36.1543 42.7139 36.2394C42.6728 36.3246 42.6394 36.3914 42.6166 36.4538C42.5938 36.5161 42.5755 36.5541 42.5603 36.589C42.5451 36.624 42.5406 36.6346 42.5391 36.6331C42.6126 36.3916 42.7119 36.1587 42.8355 35.9385C43.1693 35.3331 43.621 34.8008 44.1639 34.3729C44.5346 34.0755 44.9374 33.8206 45.3647 33.6129C45.8553 33.3722 46.3685 33.1807 46.8969 33.0414C48.0141 32.7374 49.2833 32.6188 50.6103 32.5854C51.9372 32.5519 53.2171 32.6918 54.3115 33.0687C54.8309 33.2423 55.3259 33.4819 55.7843 33.7816C56.1825 34.0441 56.5461 34.3556 56.8666 34.7088C57.1318 34.9991 57.3614 35.3201 57.5506 35.6649C57.6918 35.926 57.8054 36.201 57.8895 36.4857C57.9216 36.5885 57.948 36.6931 57.9686 36.7988C57.9873 36.8757 58 36.954 58.0066 37.0329C58.0142 37.0937 58.0203 37.1408 58.0248 37.1849C58.0267 37.1964 58.0277 37.2081 58.0279 37.2198Z" fill="#263238"/>
<path d="M45.2882 40.6401C45.2169 40.6348 45.1465 40.6211 45.0784 40.599C44.892 40.5395 44.7165 40.4502 44.5586 40.3345C44.3273 40.1576 44.1304 39.9397 43.978 39.6916C43.7928 39.3877 43.6559 39.057 43.5721 38.7112C43.4314 38.0823 43.4242 37.4309 43.5509 36.799C43.588 36.6077 43.6435 36.4204 43.7165 36.2397C43.7409 36.1758 43.7667 36.1287 43.7819 36.0968C43.7971 36.0649 43.8092 36.0481 43.8108 36.0497C43.7237 36.2976 43.6551 36.5516 43.6056 36.8097C43.4974 37.4343 43.5124 38.074 43.6497 38.6929C43.7321 39.0303 43.8631 39.3539 44.0388 39.6536C44.1842 39.8964 44.3715 40.1115 44.592 40.2889C44.8023 40.4449 45.0378 40.5637 45.2882 40.6401Z" fill="#FAFAFA"/>
<path d="M55.9997 37.4311L55.9662 37.4205L55.872 37.3794L55.72 37.3126L55.5072 37.232C55.0544 37.0648 54.5835 36.9516 54.1042 36.8946C53.3932 36.8094 52.6743 36.8125 51.9641 36.9037C51.5628 36.9508 51.1448 37.0268 50.7131 37.115C50.2814 37.2031 49.8391 37.311 49.3937 37.4494C47.5971 37.9692 46.2124 39.1016 45.5937 40.1458C45.3436 40.5583 45.1556 41.0055 45.0359 41.4728C44.9918 41.6385 44.966 41.7677 44.9477 41.8574C44.9386 41.8969 44.9325 41.9303 44.9265 41.9577C44.9242 41.9692 44.9206 41.9804 44.9158 41.9911C44.9135 41.9796 44.9135 41.9677 44.9158 41.9562C44.9158 41.9288 44.9249 41.8954 44.931 41.8543C44.9489 41.7234 44.9737 41.5935 45.0055 41.4652C45.1135 40.9905 45.295 40.5356 45.5436 40.117C46.1637 39.053 47.5621 37.8978 49.3755 37.381C49.8315 37.2426 50.2693 37.1362 50.7025 37.0466C51.1357 36.9569 51.5552 36.8839 51.9595 36.8398C52.6756 36.7487 53.4003 36.7487 54.1164 36.8398C54.5983 36.9028 55.0706 37.0254 55.5224 37.2046L55.7337 37.2928L55.8857 37.3673L55.9769 37.4144C55.9905 37.4235 56.0012 37.4296 55.9997 37.4311Z" fill="#263238"/>
<path d="M49.375 37.4388C49.4119 37.4348 49.4491 37.4348 49.486 37.4388C49.591 37.4467 49.6955 37.4604 49.7991 37.4799C50.1811 37.5532 50.5516 37.6768 50.9011 37.8477C51.7888 38.2687 52.8968 39.1184 53.78 40.3359C54.1888 40.9121 54.5473 41.5223 54.8516 42.1599C55.1102 42.6733 55.3391 43.2011 55.5371 43.7407C55.6723 44.1036 55.7805 44.476 55.8608 44.8549C55.8867 44.9902 55.9049 45.0951 55.9125 45.1665C55.9195 45.2026 55.923 45.2392 55.9232 45.2759C55.9104 45.2416 55.9017 45.2059 55.8973 45.1695C55.8852 45.0981 55.8624 44.9947 55.8304 44.8655C55.7386 44.4909 55.6233 44.1223 55.4854 43.762C55.2803 43.2281 55.0469 42.7055 54.7862 42.1964C54.4813 41.567 54.1255 40.9636 53.7222 40.3922C52.9821 39.3544 52.0098 38.5039 50.8828 37.9085C50.5389 37.7352 50.1749 37.605 49.7991 37.5209C49.6653 37.4935 49.562 37.4738 49.4951 37.4647C49.4543 37.4601 49.4141 37.4515 49.375 37.4388Z" fill="#263238"/>
<path d="M48.4978 42.3591C48.4829 42.1584 48.4524 41.9592 48.4066 41.7632C48.3482 41.5359 48.256 41.3186 48.133 41.1187C47.972 40.8527 47.7615 40.62 47.5128 40.4332C47.2135 40.2031 46.864 40.0469 46.4929 39.9772C46.0683 39.9001 45.6307 39.9373 45.2252 40.0851C45.0071 40.1632 44.8021 40.2739 44.6172 40.4135C44.4207 40.5558 44.2487 40.7294 44.108 40.9272C43.804 41.3401 43.64 41.8395 43.64 42.3522C43.64 42.865 43.804 43.3643 44.108 43.7772C44.2487 43.9751 44.4207 44.1486 44.6172 44.291C44.8021 44.4305 45.0071 44.5412 45.2252 44.6193C45.6312 44.7674 46.0693 44.8047 46.4944 44.7272C46.8319 44.6636 47.1523 44.5295 47.4346 44.3339C47.7169 44.1383 47.9548 43.8854 48.133 43.5918C48.2563 43.392 48.3485 43.1747 48.4066 42.9473C48.4522 42.7518 48.4827 42.5531 48.4978 42.353C48.5002 42.366 48.5002 42.3794 48.4978 42.3925C48.4978 42.4229 48.4978 42.4609 48.4978 42.5095C48.4977 42.5748 48.4922 42.6398 48.4811 42.7041C48.4716 42.7906 48.4563 42.8765 48.4355 42.961C48.3827 43.1911 48.2955 43.4119 48.1771 43.6161C48.0173 43.8904 47.8056 44.131 47.5539 44.3244C47.2249 44.5783 46.8372 44.7449 46.4266 44.8087C46.016 44.8725 45.5959 44.8314 45.2055 44.6892C44.9797 44.6102 44.7675 44.4969 44.5762 44.3533C44.4768 44.2796 44.3823 44.1993 44.2935 44.1131C44.205 44.0234 44.1233 43.9274 44.0488 43.8259C43.733 43.4 43.5625 42.8839 43.5625 42.3537C43.5625 41.8236 43.733 41.3075 44.0488 40.8816C44.1233 40.7801 44.205 40.684 44.2935 40.5943C44.3823 40.5082 44.4768 40.4279 44.5762 40.3542C44.7675 40.2106 44.9797 40.0973 45.2055 40.0183C45.7486 39.8216 46.3435 39.8217 46.8866 40.0187C47.4296 40.2156 47.8863 40.5968 48.1771 41.0959C48.2986 41.3011 48.3883 41.5235 48.4431 41.7556C48.4638 41.8402 48.4791 41.926 48.4887 42.0125C48.4989 42.0748 48.5039 42.1379 48.5039 42.201C48.5039 42.2496 48.5039 42.2876 48.5039 42.318C48.5042 42.332 48.5022 42.3458 48.4978 42.3591Z" fill="#263238"/>
<path d="M56.1361 45.4402C56.0262 45.3259 55.89 45.2403 55.7394 45.1909H55.7698C55.7418 45.1841 55.7133 45.1795 55.6847 45.1772C55.6336 45.1635 55.5802 45.1605 55.5279 45.1683C55.4756 45.1762 55.4255 45.1947 55.3807 45.2228C55.2122 45.2882 55.074 45.4139 54.9931 45.5755C54.9305 45.7191 54.9085 45.8771 54.9297 46.0323C54.9509 46.1875 55.0144 46.334 55.1131 46.4555C55.1848 46.5667 55.2885 46.6535 55.4106 46.7045C55.5326 46.7555 55.6673 46.7682 55.7968 46.741C55.9262 46.7139 56.0444 46.6481 56.1356 46.5523C56.2269 46.4565 56.2869 46.3353 56.3079 46.2047C56.3461 46.0732 56.3504 45.934 56.3204 45.8004C56.2903 45.6667 56.2269 45.5428 56.1361 45.4402Z" fill="#455A64"/>
<path d="M46.5126 39.085C46.459 39.066 46.408 39.0405 46.3606 39.009C46.3036 38.9777 46.2488 38.9426 46.1964 38.9041C46.125 38.857 46.056 38.8063 45.9897 38.7521C45.8148 38.6143 45.6521 38.4618 45.5033 38.2961C45.3216 38.0914 45.1588 37.8706 45.0169 37.6364C44.8791 37.3995 44.7626 37.1507 44.6688 36.8931C44.5941 36.6824 44.5372 36.4658 44.4986 36.2456C44.4788 36.1529 44.4728 36.0663 44.4636 35.9918C44.4546 35.9278 44.45 35.8633 44.45 35.7987C44.4438 35.7437 44.4438 35.6881 44.45 35.6331C44.4652 35.6331 44.4743 35.8671 44.5503 36.2411C44.5964 36.4564 44.6579 36.6683 44.7342 36.8749C44.8298 37.1264 44.9462 37.3694 45.0823 37.6015C45.2217 37.8314 45.3798 38.0495 45.555 38.2535C45.6993 38.4195 45.8552 38.5749 46.0216 38.7187C46.318 38.9527 46.5202 39.0713 46.5126 39.085Z" fill="#FAFAFA"/>
<path d="M46.7396 34.8093C46.7518 34.8093 46.6545 35.0312 46.5436 35.396C46.3978 35.8699 46.312 36.3601 46.2882 36.8552C46.2653 37.351 46.3036 37.8478 46.4022 38.3342C46.4797 38.7066 46.5542 38.9316 46.5436 38.9422C46.5149 38.8948 46.493 38.8436 46.4782 38.7902C46.426 38.6477 46.3828 38.502 46.349 38.354C46.1145 37.371 46.1635 36.3417 46.4904 35.3854C46.537 35.2374 46.5933 35.0927 46.6591 34.9522C46.6801 34.9015 46.7072 34.8536 46.7396 34.8093Z" fill="#FAFAFA"/>
<path d="M50.1792 37.0359C50.1051 36.8952 50.0386 36.7506 49.9801 36.6027C49.6653 35.9067 49.2483 35.2617 48.7428 34.689C48.6321 34.5751 48.5276 34.4554 48.4297 34.3303C48.4672 34.3517 48.5015 34.3783 48.5315 34.4094C48.5954 34.4626 48.6835 34.5446 48.7838 34.651C49.3186 35.2095 49.7421 35.8646 50.0318 36.5814C50.0865 36.7182 50.126 36.8307 50.1503 36.9098C50.1658 36.9503 50.1755 36.9927 50.1792 37.0359Z" fill="#FAFAFA"/>
<path d="M51.1808 34.6162C51.229 34.7173 51.2603 34.8257 51.2735 34.9369C51.372 35.4669 51.3544 36.0119 51.2219 36.5345C51.2006 36.644 51.1627 36.7496 51.1094 36.8476C51.1834 36.4808 51.2342 36.1097 51.2614 35.7365C51.2581 35.3617 51.2312 34.9876 51.1808 34.6162Z" fill="#FAFAFA"/>
<path d="M52.8861 35.1953C52.9382 35.4781 52.9256 35.769 52.8493 36.0461C52.7729 36.3233 52.6348 36.5797 52.4453 36.7959C52.5764 36.5488 52.6863 36.291 52.7736 36.0252C52.8346 35.7523 52.8722 35.4746 52.8861 35.1953Z" fill="#FAFAFA"/>
<path d="M54.356 41.3802C54.3408 41.3802 54.3727 41.1172 54.3742 40.6947C54.373 40.1427 54.3072 39.5928 54.1782 39.0561C54.0466 38.5218 53.8522 38.0049 53.599 37.5164C53.403 37.1424 53.2555 36.9251 53.2662 36.9175C53.3103 36.9633 53.3486 37.0143 53.3802 37.0695C53.4776 37.2065 53.5669 37.3491 53.6477 37.4966C53.9182 37.9831 54.1227 38.5034 54.2557 39.044C54.3873 39.5844 54.4456 40.1402 54.429 40.6962C54.425 40.864 54.4118 41.0315 54.3894 41.1978C54.3843 41.2596 54.3731 41.3207 54.356 41.3802Z" fill="#455A64"/>
<path d="M57.4942 38.8296C57.5067 38.8988 57.5123 38.969 57.5109 39.0394C57.5109 39.1078 57.5109 39.1914 57.5109 39.2886C57.5109 39.3859 57.5109 39.4954 57.4942 39.617C57.4715 39.9017 57.4294 40.1846 57.368 40.4636C57.2154 41.1473 56.952 41.8014 56.5883 42.4001C56.4388 42.6435 56.2738 42.8771 56.0943 43.0993C56.0198 43.195 55.9423 43.2756 55.8784 43.347C55.8146 43.4185 55.7553 43.4793 55.7067 43.5264C55.6606 43.5778 55.6097 43.6246 55.5547 43.6662C55.5943 43.6081 55.6396 43.5541 55.69 43.5051C55.7356 43.455 55.7918 43.3926 55.8511 43.3182C55.9104 43.2437 55.9848 43.1662 56.0563 43.0643C56.229 42.8401 56.3879 42.6056 56.532 42.3621C56.7051 42.0628 56.8574 41.752 56.988 41.4318C57.1151 41.1096 57.2198 40.779 57.3012 40.4423C57.3658 40.1668 57.4135 39.8876 57.444 39.6063C57.4608 39.4862 57.4638 39.3768 57.4714 39.281C57.479 39.1853 57.4836 39.1032 57.4836 39.0348C57.481 38.9662 57.4846 38.8975 57.4942 38.8296Z" fill="#FAFAFA"/>
<path d="M53.6823 33.0034C53.7037 33.1087 53.7037 33.2173 53.6823 33.3226C53.6418 33.579 53.5505 33.8247 53.4137 34.0452C53.277 34.2658 53.0975 34.4568 52.8858 34.607C52.8022 34.6762 52.7055 34.7279 52.6016 34.759C52.6016 34.7484 52.7019 34.6891 52.8524 34.569C53.2453 34.2521 53.5186 33.8109 53.6276 33.3181C53.6404 33.2123 53.6587 33.1073 53.6823 33.0034Z" fill="#FAFAFA"/>
<path d="M56.6429 34.6177C56.6644 34.7218 56.6618 34.8294 56.6353 34.9323C56.5896 35.1835 56.4854 35.4204 56.3313 35.6239C56.1757 35.8279 55.9735 35.9916 55.7415 36.1012C55.6484 36.1538 55.5443 36.184 55.4375 36.1894C55.4375 36.1772 55.5485 36.1422 55.7141 36.051C55.9282 35.9312 56.1158 35.7694 56.2659 35.5753C56.4151 35.3807 56.5232 35.1578 56.5836 34.9202C56.6261 34.7378 56.6292 34.6177 56.6429 34.6177Z" fill="#FAFAFA"/>
<path d="M57.7061 35.928C57.6656 36.0192 57.6072 36.1014 57.5343 36.1697C57.204 36.5272 56.7493 36.7447 56.2636 36.7777C56.165 36.7916 56.0646 36.7848 55.9688 36.7579C56.2977 36.7343 56.6204 36.6557 56.9233 36.5253C57.2155 36.3709 57.4801 36.1691 57.7061 35.928Z" fill="#FAFAFA"/>
<path d="M50.6745 34.2999C50.5213 34.0822 50.4385 33.8228 50.4374 33.5566C50.4085 33.2937 50.4616 33.0282 50.5894 32.7966C50.5358 33.0464 50.5093 33.3012 50.5103 33.5566C50.5393 33.8094 50.5943 34.0585 50.6745 34.2999Z" fill="#FAFAFA"/>
<path d="M50.2109 34.4201C50.2109 34.4277 50.1182 34.3578 50.0027 34.221C49.7064 33.8579 49.5263 33.4141 49.4859 32.9472C49.4709 32.8517 49.474 32.7543 49.495 32.6599C49.5377 32.9781 49.6136 33.2909 49.7215 33.5932C49.8544 33.8856 50.0185 34.1629 50.2109 34.4201Z" fill="#455A64"/>
<path d="M47.5415 33.0034C47.6141 33.5295 47.4977 34.0643 47.2132 34.5128C47.1904 34.5021 47.3439 34.1875 47.4336 33.7695C47.5233 33.3515 47.5172 33.0034 47.5415 33.0034Z" fill="#FAFAFA"/>
<path d="M45.2563 35.145C45.2563 35.1542 45.1834 35.1314 45.0861 35.066C44.9626 34.9769 44.859 34.863 44.7821 34.7316C44.7015 34.6011 44.6497 34.455 44.6301 34.3029C44.6179 34.1874 44.6301 34.1145 44.6407 34.116C44.6838 34.3163 44.7534 34.51 44.8474 34.6921C44.9627 34.8608 45.1003 35.0131 45.2563 35.145Z" fill="#455A64"/>
<path d="M46.4454 29.2779C46.456 29.2871 46.2934 29.4603 46.0897 29.7871C45.83 30.2124 45.6656 30.6889 45.6079 31.1838C45.5502 31.6787 45.6004 32.1803 45.7553 32.6539C45.8738 33.0187 45.997 33.2239 45.9833 33.2314C45.9461 33.1887 45.915 33.1412 45.8906 33.0901C45.8168 32.956 45.7537 32.8162 45.7021 32.6721C45.5296 32.1928 45.4708 31.6799 45.5304 31.1739C45.59 30.668 45.7664 30.1828 46.0456 29.7567C46.1293 29.6286 46.2228 29.5071 46.3253 29.3935C46.3967 29.3144 46.4408 29.2734 46.4454 29.2779Z" fill="#FAFAFA"/>
<path d="M43.3865 30.9895C43.4002 30.9895 43.3531 31.1841 43.3531 31.4972C43.351 31.9051 43.4465 32.3077 43.6316 32.6712C43.8167 33.0348 44.086 33.3488 44.4171 33.5872C44.6709 33.7711 44.8533 33.8441 44.8472 33.8577C44.8015 33.8504 44.7573 33.8355 44.7165 33.8137C44.6009 33.7633 44.49 33.7028 44.3851 33.6328C44.0348 33.4003 43.7497 33.0822 43.5567 32.7086C43.3668 32.3323 43.2753 31.9139 43.2907 31.4926C43.2953 31.3667 43.3116 31.2416 43.3394 31.1187C43.3477 31.0733 43.3636 31.0296 43.3865 30.9895Z" fill="#455A64"/>
<path d="M49.2565 30.0608C49.28 30.0919 49.298 30.1269 49.3097 30.1642C49.3523 30.2621 49.3854 30.3639 49.4085 30.4682C49.4892 30.8079 49.4985 31.1608 49.4357 31.5043C49.3729 31.8479 49.2394 32.1746 49.0437 32.4639C48.9854 32.5517 48.9187 32.6337 48.8446 32.7086C48.7929 32.7618 48.7625 32.7892 48.758 32.7846C48.7534 32.7801 48.8598 32.6554 48.9966 32.4335C49.3557 31.8495 49.4832 31.1521 49.3538 30.4788C49.3052 30.2189 49.2368 30.0669 49.2565 30.0608Z" fill="#FAFAFA"/>
<path d="M50.7812 30.5654C50.821 30.6718 50.8396 30.7848 50.836 30.8983C50.8531 31.4531 50.6641 31.9946 50.3055 32.4183C50.2365 32.5089 50.1515 32.5862 50.0547 32.6463C50.1191 32.5552 50.188 32.4674 50.2614 32.3834C50.5845 31.9549 50.7658 31.4363 50.7797 30.8998C50.7843 30.6961 50.7691 30.5669 50.7812 30.5654Z" fill="#455A64"/>
<path d="M53.2386 31.4333C53.2477 31.4333 53.2933 31.4941 53.3343 31.6142C53.3862 31.7729 53.4048 31.9405 53.3891 32.1067C53.3712 32.2735 53.3195 32.4349 53.2371 32.5809C53.1732 32.6919 53.117 32.7466 53.1094 32.7329C53.2044 32.5296 53.2694 32.3135 53.3024 32.0915C53.3124 31.8702 53.2909 31.6486 53.2386 31.4333Z" fill="#FAFAFA"/>
<path d="M55.8407 33.1099C55.8544 33.1266 55.7343 33.2497 55.5367 33.3318C55.4263 33.3952 55.2979 33.4198 55.1719 33.4017C55.2781 33.3441 55.3895 33.2967 55.5048 33.2603C55.6119 33.2001 55.7244 33.1497 55.8407 33.1099Z" fill="#FAFAFA"/>
<path d="M57.3796 34.3259C57.4764 34.4876 57.5161 34.6771 57.4921 34.864C57.4949 35.0521 57.4356 35.2359 57.3233 35.3869C57.3021 35.3762 57.3993 35.1528 57.413 34.8594C57.4267 34.5661 57.3568 34.3335 57.3796 34.3259Z" fill="#455A64"/>
<path d="M54.9739 29.582C54.9739 29.582 55.0043 29.6109 55.0408 29.6732C55.0927 29.7616 55.136 29.8547 55.17 29.9514C55.2869 30.2725 55.3185 30.6185 55.2618 30.9555C55.205 31.2925 55.0619 31.6091 54.8462 31.8742C54.7821 31.9545 54.7104 32.0283 54.6319 32.0946C54.5772 32.1417 54.5438 32.163 54.5392 32.1584C54.5346 32.1539 54.6517 32.046 54.8021 31.8408C54.9983 31.5757 55.129 31.2681 55.1837 30.9429C55.2384 30.6177 55.2154 30.2843 55.1168 29.9696C55.0438 29.7264 54.9617 29.5881 54.9739 29.582Z" fill="#455A64"/>
<path d="M56.9243 31.178C56.9236 31.2914 56.8987 31.4033 56.8514 31.5064C56.7504 31.7609 56.5908 31.9882 56.3856 32.1696C56.1804 32.351 55.9354 32.4815 55.6703 32.5506C55.5625 32.5852 55.4485 32.5966 55.3359 32.584C55.3359 32.5704 55.4621 32.5582 55.6551 32.4974C55.9054 32.4162 56.1361 32.2842 56.3331 32.1098C56.53 31.9353 56.6889 31.7221 56.7997 31.4836C56.8848 31.3042 56.9107 31.175 56.9243 31.178Z" fill="#FAFAFA"/>
<path d="M58.3593 33.0034C58.3656 33.0786 58.352 33.1541 58.3198 33.2223C58.2567 33.3914 58.1567 33.5444 58.027 33.6701C57.8974 33.7957 57.7415 33.891 57.5704 33.9489C57.5013 33.9778 57.4262 33.9893 57.3516 33.9823C57.5789 33.8976 57.789 33.7724 57.9717 33.6129C58.1378 33.4357 58.2692 33.229 58.3593 33.0034Z" fill="#455A64"/>
<path d="M44.5748 55.3048L48.3399 53.1312L55.7362 52.4016L55.7848 53.4854L53.7875 68.5957L55.4139 81.3454H43.5625L44.5748 55.3048Z" fill="#263238"/>
<path d="M48.064 54.6756L47.8314 52.5005C47.8218 52.4095 47.8303 52.3176 47.8565 52.23C47.8827 52.1423 47.926 52.0608 47.984 51.9901C48.042 51.9194 48.1135 51.8609 48.1943 51.818C48.275 51.7752 48.3635 51.7488 48.4546 51.7405L55.3524 51.1173C55.3966 51.1133 55.4413 51.1184 55.4835 51.1323C55.5257 51.1462 55.5647 51.1685 55.598 51.198C55.6313 51.2274 55.6582 51.2634 55.6771 51.3036C55.696 51.3438 55.7066 51.3875 55.708 51.4319L55.7856 54.0159L53.7883 57.4055L51.7348 58.0561H49.2253L47.7812 56.5148L48.064 54.6756Z" fill="#263238"/>
<path d="M54.7707 53.1921C54.6785 53.1884 54.5866 53.1792 54.4956 53.1647C54.2455 53.141 53.9939 53.1365 53.7432 53.151C53.3713 53.1764 53.0019 53.2298 52.6381 53.3106C52.2262 53.3973 51.7793 53.5189 51.3051 53.6344C50.859 53.7497 50.4047 53.8305 49.9462 53.8761C49.5696 53.9109 49.1899 53.8852 48.8214 53.8001C48.5728 53.7407 48.3353 53.6422 48.1176 53.5082C48.0598 53.4707 48.0039 53.4301 47.9504 53.3866C47.914 53.3562 47.8957 53.338 47.8988 53.3365C47.9018 53.3349 47.9808 53.3912 48.1359 53.4793C48.3551 53.5997 48.5906 53.6878 48.8351 53.7408C49.1983 53.8163 49.5711 53.8353 49.9401 53.797C50.3934 53.7477 50.8425 53.6654 51.2838 53.5508C51.7565 53.4353 52.2064 53.3152 52.6229 53.2331C52.9907 53.1547 53.3644 53.1069 53.7401 53.0902C53.9942 53.0804 54.2486 53.0942 54.5001 53.1313C54.5898 53.1465 54.6521 53.1586 54.7038 53.1708C54.7267 53.1758 54.7491 53.183 54.7707 53.1921Z" fill="#455A64"/>
<g opacity="0.3">
<path d="M48.2327 53.5312C48.0472 54.0388 48.0427 54.6681 48.4166 55.0512C48.7206 55.3688 49.2131 55.4479 49.6448 55.3552C50.0722 55.2452 50.4778 55.0633 50.844 54.8171C51.794 54.2516 52.7577 53.6664 53.8369 53.4278C53.9076 53.4187 53.9744 53.3903 54.03 53.3457C54.0433 53.3344 54.0541 53.3205 54.0617 53.3048C54.0694 53.2892 54.0737 53.2721 54.0744 53.2547C54.0751 53.2372 54.0722 53.2199 54.0659 53.2036C54.0595 53.1874 54.0499 53.1726 54.0376 53.1603C54.0107 53.1435 53.9796 53.1345 53.9479 53.1344C52.9933 53.0387 52.0752 53.4156 51.1404 53.6254C50.2056 53.8352 49.131 54.0556 48.2752 53.5509" fill="black"/>
</g>
<path d="M49.545 51.6721C49.4471 51.7249 49.3651 51.8032 49.3079 51.8986C49.2 52.0734 49.2137 52.3698 49.2137 52.6905C49.2319 53.335 49.3383 53.8488 49.3125 53.8548C49.2653 53.7491 49.2341 53.6369 49.2198 53.522C49.1664 53.2488 49.1359 52.9717 49.1286 52.6936C49.1217 52.5415 49.1248 52.3892 49.1377 52.2376C49.1469 52.1076 49.1876 51.9819 49.2562 51.8712C49.3035 51.7963 49.3709 51.7362 49.4508 51.698C49.5116 51.6721 49.545 51.6721 49.545 51.6721Z" fill="#455A64"/>
<path d="M51.3676 53.5615C51.3403 53.5615 51.4026 53.0842 51.3175 52.5096C51.2324 51.9351 51.0469 51.4943 51.0728 51.4836C51.135 51.5684 51.1828 51.6629 51.2141 51.7633C51.3043 52.0002 51.3675 52.2465 51.4026 52.4975C51.4397 52.7491 51.4473 53.0041 51.4254 53.2575C51.4234 53.3613 51.4039 53.4641 51.3676 53.5615Z" fill="#455A64"/>
<path d="M53.5934 51.3013C53.6549 51.3765 53.6995 51.4641 53.7241 51.5581C53.8751 52.0058 53.8423 52.4951 53.6329 52.9186C53.5974 53.0093 53.5412 53.0905 53.4688 53.1557C53.6059 52.8684 53.6938 52.5601 53.7287 52.2437C53.7682 51.7117 53.566 51.3104 53.5934 51.3013Z" fill="#455A64"/>
<path d="M39.5373 73.9234C39.5373 73.9234 41.2093 61.6114 41.6972 59.3785C41.8809 58.5407 42.2312 57.7485 42.7274 57.049C43.2235 56.3494 43.8553 55.7568 44.5852 55.3064L45.0488 77.6139L43.0105 80.1797L40.7305 81.0522C40.2084 81.2528 39.6322 81.2619 39.1041 81.078L36.9198 80.318L36.7344 76.1562L38.5797 75.6227L39.5373 73.9234Z" fill="#263238"/>
<path d="M62.2537 55.0951C63.0903 55.4207 63.8342 55.9467 64.4199 56.6271C65.0057 57.3074 65.4153 58.1212 65.6129 58.997C66.917 64.7441 69.1484 72.3912 69.1834 74.8582C69.2274 78 67.8534 80.1508 66.0598 80.5475C65.0338 80.774 58.0554 80.66 54.2661 80.5794C53.5895 80.5646 52.9409 80.3069 52.4386 79.8534C51.9363 79.4 51.6138 78.781 51.5301 78.1094C51.4375 77.3768 51.6359 76.6371 52.0826 76.0491C52.5294 75.4611 53.1889 75.0717 53.9195 74.9646L61.597 73.8352L60.1713 65.8689L61.5818 54.8352L62.2537 55.0951Z" fill="#263238"/>
<path d="M55.585 52.6296L58.66 53.8867L61.5845 54.8352L61.6544 63.5858L59.914 81.3227L53.8112 81.3455L53.8233 73.4293C53.5965 69.6133 53.8457 65.7838 54.5651 62.0293L55.4938 54.5038" fill="#263238"/>
<path d="M60.09 65.0632C60.1011 65.0916 60.1088 65.1212 60.1128 65.1514C60.1265 65.2198 60.1432 65.3034 60.163 65.4067C60.2056 65.6408 60.2648 65.96 60.3348 66.3476C60.4761 67.1547 60.6661 68.2492 60.8774 69.4576C61.0887 70.666 61.2604 71.7634 61.3957 72.5705C61.4565 72.9612 61.5067 73.2804 61.5477 73.516C61.5629 73.6208 61.5751 73.706 61.5842 73.7744C61.5886 73.8046 61.5886 73.8353 61.5842 73.8656C61.5731 73.8372 61.5654 73.8076 61.5614 73.7774C61.5462 73.709 61.5295 73.6254 61.5082 73.522C61.4656 73.288 61.4064 72.9703 61.3334 72.5812C61.1905 71.7862 60.9975 70.6872 60.7908 69.4712C60.584 68.2552 60.4001 67.1563 60.274 66.3583C60.2132 65.9676 60.1645 65.6484 60.122 65.4128C60.1083 65.308 60.0976 65.2228 60.0885 65.1544C60.0846 65.1241 60.0851 65.0934 60.09 65.0632Z" fill="#263238"/>
<path d="M62.9655 56.3386C62.8894 56.3736 62.8106 56.4026 62.7299 56.4253C62.5166 56.5032 62.308 56.5935 62.1052 56.6958C61.4386 57.0386 60.8605 57.5314 60.4165 58.1353C60.2897 58.3054 60.1783 58.4865 60.0836 58.6764C60.0016 58.8559 59.935 59.042 59.8845 59.2327C59.7983 59.5582 59.7423 59.891 59.7173 60.2268C59.6914 60.5125 59.6869 60.7466 59.6854 60.9077C59.6909 60.9913 59.6909 61.075 59.6854 61.1585C59.6666 61.0763 59.6575 60.9921 59.658 60.9077C59.6453 60.6794 59.6453 60.4506 59.658 60.2222C59.6751 59.8816 59.726 59.5435 59.81 59.2129C59.8598 59.0164 59.927 58.8246 60.0106 58.6399C60.1063 58.4449 60.2197 58.2592 60.3496 58.0851C60.8004 57.4699 61.3947 56.9742 62.0809 56.6411C62.288 56.5421 62.5024 56.4592 62.7223 56.3933C62.8012 56.3666 62.8827 56.3482 62.9655 56.3386Z" fill="#263238"/>
<path d="M53.75 74.9964C53.7856 74.9976 53.8213 74.995 53.8564 74.9888L54.1604 74.9508L55.2822 74.7988L58.9788 74.2501L61.6662 73.8366H61.6555C61.998 73.8858 62.3204 74.0283 62.5873 74.2486C62.7961 74.4154 62.9697 74.622 63.098 74.8566C63.2061 75.0635 63.283 75.2853 63.326 75.5147C63.3284 75.4991 63.3284 75.4832 63.326 75.4676C63.326 75.4357 63.326 75.3901 63.3078 75.3308C63.2757 75.1586 63.2183 74.9922 63.1375 74.8368C63.0119 74.5927 62.8381 74.3766 62.6268 74.2014C62.3533 73.9693 62.0208 73.8177 61.6662 73.7637H61.6555L58.9712 74.168L55.2791 74.741L54.1619 74.9234L53.8579 74.9782C53.8214 74.9803 53.7852 74.9864 53.75 74.9964Z" fill="#263238"/>
<path d="M54.3628 80.5824C54.3882 80.5782 54.4129 80.57 54.4357 80.5581C54.5054 80.533 54.573 80.5025 54.6379 80.4669C54.8786 80.3387 55.0935 80.1671 55.2717 79.9607C55.5358 79.6529 55.7321 79.293 55.8478 78.9043C55.9912 78.4288 56.0291 77.9277 55.9588 77.436C55.8787 76.9426 55.6689 76.4794 55.3508 76.0938C55.096 75.7801 54.78 75.5216 54.4221 75.3338C54.1837 75.2064 53.9275 75.1157 53.6621 75.0648C53.5693 75.045 53.4933 75.045 53.4432 75.0374C53.418 75.0341 53.3924 75.0341 53.3672 75.0374C53.728 75.0977 54.0766 75.2163 54.3993 75.3886C54.7447 75.5806 55.0489 75.8389 55.2945 76.1486C55.5987 76.5252 55.7994 76.9748 55.8767 77.4527C55.9444 77.9303 55.9097 78.4168 55.7749 78.88C55.6656 79.2604 55.4794 79.6143 55.2277 79.9197C55.0565 80.1259 54.8508 80.3008 54.6197 80.4365C54.4585 80.5322 54.3597 80.5733 54.3628 80.5824Z" fill="#263238"/>
<g opacity="0.2">
<path d="M60.2008 65.6318L59.0547 74.191L60.5063 73.8657L60.9562 70.131L60.2008 65.6318Z" fill="black"/>
</g>
<g opacity="0.3">
<path d="M36.7656 76.1577C37.4552 76.0331 38.1615 76.0331 38.8511 76.1577C39.1461 76.2238 39.4232 76.3532 39.6634 76.5369C39.9035 76.7206 40.1009 76.9542 40.2419 77.2217C40.5123 77.7243 40.5963 78.3063 40.479 78.8648C40.3802 79.3466 40.2768 79.8452 39.9242 80.1872C39.4043 80.6918 38.8921 80.8545 38.2203 80.7359L36.9283 80.3164L36.7656 76.1577Z" fill="black"/>
</g>
<path d="M37.8775 80.6493C37.9049 80.6648 37.934 80.677 37.9642 80.6858C38.0487 80.7165 38.1356 80.7399 38.2241 80.7557C38.5509 80.8231 38.8896 80.8053 39.2075 80.704C39.4272 80.6323 39.63 80.5164 39.8034 80.3636C39.9995 80.1862 40.1608 79.9738 40.2791 79.7373C40.4095 79.4769 40.5012 79.1989 40.5512 78.912C40.6178 78.6051 40.625 78.2883 40.5725 77.9787C40.505 77.6731 40.3885 77.3805 40.2275 77.1123C40.0885 76.8699 39.9009 76.659 39.6764 76.4926C39.452 76.3262 39.1956 76.2081 38.9233 76.1456C38.6998 76.0981 38.4723 76.0726 38.2439 76.0696C37.9154 76.0668 37.5872 76.0882 37.2619 76.1334L36.9975 76.1714C36.9662 76.1733 36.9355 76.1799 36.9062 76.1912C36.937 76.1949 36.9682 76.1949 36.999 76.1912L37.265 76.1699C37.5897 76.1373 37.9161 76.1251 38.2423 76.1334C38.466 76.1403 38.6884 76.1688 38.9066 76.2185C39.1548 76.2786 39.3891 76.3859 39.5966 76.5347C40.0359 76.8387 40.3566 77.3965 40.4889 77.9985C40.5395 78.2974 40.5328 78.6033 40.4691 78.8998C40.422 79.179 40.3344 79.4499 40.2092 79.7039C40.0963 79.9331 39.9416 80.1393 39.7532 80.3119C39.5881 80.4607 39.3948 80.575 39.1847 80.6478C38.8767 80.7516 38.548 80.7787 38.2271 80.7268C38.0022 80.6873 37.8806 80.6417 37.8775 80.6493Z" fill="#263238"/>
<g opacity="0.3">
<path d="M53.5573 75.0466C54.1653 75.2138 54.8113 75.4023 55.2293 75.8765C55.6544 76.4008 55.9024 77.0463 55.9376 77.7203C55.9728 78.3944 55.7935 79.0622 55.4254 79.6279C55.2345 79.9392 54.9783 80.2052 54.6745 80.4077C54.3624 80.5649 54.007 80.6146 53.6637 80.549C52.7517 80.397 51.9735 79.6614 51.7029 78.7706C51.5702 78.3025 51.5366 77.8118 51.6044 77.3299C51.6722 76.8481 51.8398 76.3857 52.0966 75.9723C52.3428 75.603 53.1332 75.1804 53.5558 75.0466" fill="black"/>
</g>
<path d="M64.6965 77.167C64.6698 77.1076 64.6479 77.0461 64.6311 76.9831C64.5931 76.8646 64.5384 76.6928 64.4639 76.483C64.2843 75.9343 64.0185 75.4177 63.6766 74.9524C63.3246 74.4922 62.8507 74.14 62.3086 73.9355C62.0813 73.8613 61.847 73.8103 61.6094 73.7835C61.674 73.7753 61.7393 73.7753 61.8039 73.7835C61.9818 73.7953 62.1575 73.8295 62.3268 73.8854C62.8865 74.0796 63.3762 74.435 63.7343 74.9068C64.0851 75.3775 64.351 75.9057 64.5202 76.4678C64.5886 76.6822 64.6357 76.857 64.6722 76.9786C64.6881 77.0401 64.6963 77.1034 64.6965 77.167Z" fill="#455A64"/>
<path d="M59.4219 61.4412C59.4377 61.4804 59.4494 61.5211 59.4568 61.5628C59.4766 61.6509 59.5055 61.7695 59.5404 61.9184C59.6119 62.2224 59.7092 62.6784 59.8262 63.2272C60.0603 64.3337 60.3628 65.8689 60.6607 67.5698C60.9586 69.2707 61.1896 70.8165 61.3432 71.9383C61.4207 72.4976 61.48 72.9521 61.518 73.2668C61.5347 73.4188 61.5484 73.5388 61.559 73.6285C61.5696 73.7182 61.5696 73.7547 61.5681 73.7562C61.5554 73.7151 61.5468 73.6728 61.5423 73.63C61.5286 73.5419 61.5104 73.4218 61.486 73.2713C61.4389 72.9506 61.372 72.4992 61.2884 71.9459C61.1197 70.8272 60.878 69.2828 60.5816 67.5835C60.2852 65.8841 59.9919 64.3474 59.7715 63.2378C59.662 62.6891 59.5739 62.2422 59.51 61.9245C59.4812 61.7725 59.4584 61.6555 59.4416 61.5673C59.4316 61.5259 59.425 61.4837 59.4219 61.4412Z" fill="#455A64"/>
<path d="M62.017 55.2866C62.017 55.2988 61.8482 55.3945 61.5883 55.5815C61.2518 55.8248 60.9456 56.1075 60.6763 56.4236C60.4073 56.7411 60.1782 57.0902 59.9938 57.4633C59.8525 57.7505 59.7856 57.9375 59.7734 57.9329C59.7767 57.8858 59.788 57.8395 59.8069 57.7961C59.8448 57.6743 59.8905 57.555 59.9437 57.4389C60.1162 57.0543 60.3424 56.696 60.6155 56.3749C60.8898 56.0534 61.2075 55.7715 61.5594 55.5374C61.6657 55.4666 61.7764 55.4026 61.8908 55.3459C61.9297 55.32 61.9722 55.3001 62.017 55.2866Z" fill="#455A64"/>
<path d="M43.7015 75.6029C43.6995 75.5898 43.6995 75.5765 43.7015 75.5634C43.7015 75.5345 43.7015 75.4965 43.7015 75.4509C43.7015 75.346 43.7015 75.2001 43.7015 75.0162C43.6939 74.6392 43.6923 74.0935 43.6498 73.4217C43.627 73.0858 43.592 72.7179 43.5327 72.3273C43.4735 71.9367 43.3807 71.5232 43.2728 71.0915C43.06 70.2282 42.756 69.2827 42.6922 68.2461C42.661 67.2729 42.7857 66.301 43.0615 65.3672C43.2911 64.5039 43.5464 63.7408 43.7303 63.0872C43.8814 62.5771 44.0042 62.059 44.0982 61.5353C44.1347 61.3499 44.1483 61.2039 44.1651 61.1067C44.1651 61.0611 44.1772 61.0246 44.1818 60.9942C44.1863 60.9638 44.1818 60.9562 44.1909 60.9577C44.1922 60.9703 44.1922 60.9831 44.1909 60.9957C44.1909 61.0261 44.1909 61.0626 44.1818 61.1082C44.1711 61.207 44.162 61.3544 44.1301 61.5399C44.0408 62.0699 43.9185 62.5938 43.7638 63.1085C43.5875 63.7591 43.3382 64.5236 43.1117 65.3885C42.8448 66.3146 42.7247 67.2768 42.756 68.24C42.8199 69.2645 43.1178 70.2054 43.3291 71.0718C43.4348 71.4815 43.519 71.8966 43.5814 72.3151C43.6391 72.7088 43.6711 73.0751 43.6893 73.4156C43.7258 74.0905 43.7197 74.6316 43.7167 75.0147C43.7167 75.1986 43.7167 75.3445 43.7091 75.4494V75.5619C43.7086 75.5759 43.7061 75.5897 43.7015 75.6029Z" fill="#455A64"/>
<path d="M59.5181 57.9922L59.4695 57.98L59.3327 57.9375C59.1563 57.8864 58.9757 57.8508 58.7931 57.8311C58.1183 57.7692 57.4383 57.8623 56.8049 58.1032C56.3669 58.2642 55.9442 58.4641 55.5418 58.7005C55.1041 58.9498 54.6526 59.2447 54.1738 59.5502C53.6763 59.8775 53.1567 60.1701 52.6189 60.4257C52.0377 60.7026 51.4118 60.8735 50.7705 60.9304C50.1243 60.9675 49.4789 60.8443 48.8918 60.5716C48.3516 60.3191 47.8344 60.02 47.346 59.6779C46.8748 59.3617 46.434 59.0562 45.9886 58.813C45.5845 58.5807 45.1509 58.4038 44.6997 58.2871C44.3263 58.197 43.9402 58.1713 43.5581 58.2111C43.2699 58.2422 42.9887 58.3197 42.7252 58.4406C42.5021 58.5496 42.2971 58.6921 42.1172 58.8632C42.1266 58.85 42.1373 58.8378 42.1491 58.8267C42.1719 58.8039 42.2053 58.7674 42.2509 58.7248C42.3889 58.6039 42.5423 58.5017 42.7069 58.4208C42.972 58.2925 43.2566 58.2093 43.549 58.1746C43.9365 58.1301 44.3288 58.1522 44.7088 58.24C45.1661 58.3552 45.6058 58.5316 46.016 58.7644C46.4613 59.006 46.9097 59.31 47.384 59.6247C47.8704 59.9628 48.385 60.2583 48.9222 60.5078C49.4969 60.771 50.1274 60.889 50.7584 60.8513C51.391 60.7959 52.0087 60.6281 52.5824 60.3558C53.1176 60.1025 53.6346 59.8125 54.1297 59.4879C54.6101 59.1839 55.063 58.892 55.5054 58.6427C55.9121 58.4069 56.3395 58.2085 56.7821 58.05C57.4234 57.8113 58.1115 57.7259 58.7916 57.8007C58.9754 57.8242 59.1565 57.865 59.3327 57.9223L59.468 57.9724C59.4856 57.9763 59.5026 57.983 59.5181 57.9922Z" fill="#FAFAFA"/>
<path d="M65.3263 59.6081C65.281 59.6703 65.2301 59.7283 65.1743 59.7814C65.1133 59.8481 65.0477 59.9105 64.9782 59.9683C64.8909 60.0495 64.7991 60.1256 64.7031 60.1963C64.5882 60.2846 64.4685 60.3663 64.3444 60.4411C64.2034 60.5294 64.0578 60.61 63.9082 60.6827C63.5638 60.8469 63.2031 60.9743 62.832 61.0627C62.459 61.1447 62.0785 61.1875 61.6966 61.1904C61.53 61.1898 61.3636 61.1801 61.198 61.1615C61.054 61.1488 60.9109 61.1274 60.7694 61.0977C60.6371 61.0764 60.5231 61.0384 60.4213 61.0126C60.334 60.9902 60.2482 60.9623 60.1644 60.929C60.0911 60.9063 60.0203 60.8763 59.9531 60.8393C59.9531 60.8226 60.2571 60.9503 60.78 61.0415C60.9202 61.068 61.0618 61.0862 61.2041 61.0962C61.3561 61.1159 61.5233 61.1129 61.6966 61.1175C62.0724 61.1099 62.4466 61.0656 62.8138 60.9852C63.1798 60.8983 63.5362 60.7751 63.8778 60.6174C64.0298 60.5383 64.1818 60.4654 64.3125 60.3848C64.4361 60.3131 64.5558 60.235 64.6712 60.1507C65.0953 59.8422 65.3126 59.5959 65.3263 59.6081Z" fill="#FAFAFA"/>
<path d="M43.6287 62.5096C43.5104 62.5318 43.3894 62.5354 43.27 62.5203C42.9802 62.5011 42.694 62.4444 42.4188 62.3515C42.1438 62.2585 41.8818 62.1308 41.6391 61.9715C41.5345 61.9119 41.44 61.836 41.3594 61.7466C41.7034 61.9571 42.0669 62.1342 42.4447 62.2755C42.8309 62.3915 43.2274 62.4699 43.6287 62.5096Z" fill="#FAFAFA"/>
<path d="M59.7565 63.4596C59.5843 63.3338 59.4024 63.222 59.2123 63.1252C58.679 62.891 58.0976 62.7868 57.516 62.8212C56.7773 62.8319 55.9155 63.0264 54.9715 63.2772C54.0276 63.528 52.9955 63.8381 51.8829 64.0464C51.3419 64.1515 50.7936 64.2145 50.2428 64.2348C49.7295 64.2511 49.2156 64.2267 48.7061 64.1619C47.8453 64.0486 46.9953 63.8645 46.1647 63.6116C45.4548 63.4019 44.8894 63.2043 44.4927 63.0675L44.0443 62.9079L43.9287 62.8638C43.9029 62.8532 43.8892 62.8471 43.8907 62.8456C43.9047 62.8478 43.9185 62.8514 43.9318 62.8562L44.0503 62.8927L44.5063 63.0447C44.9 63.1724 45.467 63.3608 46.1783 63.5645C47.0083 63.8078 47.856 63.9856 48.7137 64.0965C49.2179 64.1575 49.7261 64.1799 50.2337 64.1634C50.7808 64.1414 51.3255 64.0784 51.8631 63.9749C52.9697 63.7667 54.0003 63.4551 54.9472 63.2149C55.8942 62.9748 56.7621 62.7787 57.5084 62.7741C58.098 62.746 58.6856 62.8624 59.2199 63.1131L59.3491 63.1815L59.4586 63.2514C59.5163 63.2854 59.5712 63.324 59.6227 63.3669L59.7185 63.446L59.7565 63.4596Z" fill="#FAFAFA"/>
<path d="M32.8039 80.511C32.8039 80.511 34.3923 80.7451 35.0003 80.9913C35.66 81.2573 36.4747 81.1023 37.028 80.7436C37.3425 80.5444 37.6368 80.3148 37.9065 80.0581L39.9372 80.0687C40.2371 79.7333 40.4384 79.3216 40.5189 78.879C40.5993 78.4364 40.5559 77.9802 40.3932 77.5607C40.2878 77.2693 40.1336 76.9979 39.9372 76.7581C39.7016 76.4921 39.3292 76.2733 38.6696 76.1501L36.2467 76.6213C36.2467 76.6213 33.1748 76.5697 31.936 76.5119C31.6382 76.4979 31.3437 76.5794 31.0954 76.7445C30.8051 76.9375 30.4768 77.2005 30.5026 77.3631C30.5208 77.4862 30.3202 78.2751 30.9176 78.7843C30.9176 78.7843 30.3795 79.1932 30.6576 79.5777L30.7914 79.748C30.7914 79.748 30.4266 80.204 30.6044 80.4046C30.7823 80.6053 32.3631 81.5811 32.9392 81.3683C33.5152 81.1555 33.0547 80.6174 32.8039 80.5156" fill="#B78876"/>
<path d="M31.3364 77.968C31.4043 77.9872 31.4704 78.0121 31.534 78.0425C31.6586 78.0927 31.838 78.1641 32.0675 78.2431C32.1815 78.2811 32.3077 78.3222 32.443 78.3602C32.5782 78.3982 32.7272 78.4331 32.8807 78.4863C33.0477 78.5356 33.1977 78.6303 33.3139 78.7599C33.3775 78.832 33.4208 78.9196 33.4395 79.0139C33.4581 79.1081 33.4515 79.2056 33.4203 79.2965C33.3793 79.3874 33.3078 79.461 33.2182 79.5047C33.1338 79.5432 33.0432 79.5664 32.9507 79.5731C32.7805 79.5794 32.6103 79.5667 32.443 79.5351C32.1629 79.4847 31.8885 79.4068 31.6237 79.3026C31.3972 79.2175 31.2178 79.1369 31.0947 79.0822C31.0293 79.0563 30.9662 79.0248 30.9062 78.9879C30.9744 79.0057 31.041 79.0291 31.1054 79.0579C31.2315 79.1065 31.4094 79.1795 31.6389 79.2585C31.9035 79.3544 32.1762 79.4267 32.4536 79.4743C32.6155 79.504 32.7802 79.5152 32.9446 79.5078C33.0287 79.5018 33.1111 79.4807 33.1878 79.4455C33.2643 79.4096 33.3249 79.3468 33.358 79.2691C33.3846 79.1897 33.39 79.1046 33.3734 79.0225C33.3569 78.9403 33.3191 78.8639 33.2638 78.801C33.1554 78.6803 33.0161 78.5914 32.861 78.5441C32.709 78.4909 32.5646 78.4559 32.4278 78.4134C32.291 78.3708 32.1663 78.3283 32.0523 78.2872C31.8243 78.2036 31.645 78.1246 31.5234 78.0653C31.4585 78.0381 31.3959 78.0056 31.3364 77.968Z" fill="#AA6550"/>
<path d="M31.5 76.8174C31.567 76.8384 31.6325 76.8638 31.6961 76.8934C31.8207 76.9451 32.0001 77.018 32.2266 77.0986C32.4531 77.1791 32.7251 77.2673 33.0307 77.3479C33.2001 77.3779 33.3603 77.4465 33.4988 77.5485C33.572 77.6121 33.6195 77.7002 33.6326 77.7963C33.6444 77.8931 33.6281 77.9913 33.5855 78.079C33.5424 78.1627 33.4826 78.2365 33.4096 78.2959C33.3366 78.3553 33.2521 78.3989 33.1614 78.424C32.9969 78.4738 32.823 78.4842 32.6537 78.4544C32.3762 78.3939 32.1046 78.309 31.842 78.2006L31.3024 78.0015C31.2358 77.9798 31.1712 77.9523 31.1094 77.9194C31.1782 77.9331 31.2458 77.9524 31.3115 77.9771L31.8511 78.1565C32.113 78.2567 32.3824 78.336 32.6567 78.3936C32.8165 78.4205 32.9804 78.4101 33.1355 78.3632C33.2174 78.3399 33.2936 78.3002 33.3595 78.2463C33.4253 78.1925 33.4795 78.1257 33.5186 78.0501C33.5599 77.9773 33.5754 77.8927 33.5627 77.81C33.55 77.7272 33.5099 77.6512 33.4487 77.5941C33.3186 77.4982 33.1683 77.4333 33.0094 77.4041C32.7054 77.319 32.4287 77.2263 32.2038 77.1396C31.9788 77.053 31.801 76.9724 31.6794 76.9147C31.6167 76.8879 31.5567 76.8553 31.5 76.8174Z" fill="#AA6550"/>
<path d="M37.8751 77.3282L36.4691 76.7521C36.4691 76.7521 32.5673 74.8309 32.4989 74.9281C32.4305 75.0254 32.2177 75.0117 32.2542 75.4936C32.2907 75.9754 34.5661 76.9908 34.636 77.1656C34.7059 77.3404 34.5661 78.1718 35.396 78.792C36.2259 79.4121 36.8431 79.4395 36.8431 79.4395" fill="#B78876"/>
<path d="M36.8512 79.4334H36.8162C36.7836 79.4311 36.7512 79.427 36.719 79.4212C36.5943 79.4002 36.4717 79.3682 36.3526 79.3254C36.1636 79.2583 35.981 79.1743 35.807 79.0746C35.5745 78.9457 35.3586 78.789 35.164 78.608C34.9308 78.3786 34.7688 78.0867 34.6974 77.7674C34.6605 77.5926 34.6361 77.4153 34.6244 77.237C34.6215 77.216 34.6175 77.1952 34.6122 77.1746C34.6031 77.1594 34.5906 77.1464 34.5758 77.1366C34.5392 77.1087 34.5012 77.0828 34.4618 77.0591C34.3827 77.0105 34.2991 76.9634 34.214 76.9147C33.8766 76.7262 33.5163 76.5347 33.15 76.3158C32.9691 76.2064 32.7867 76.0909 32.6104 75.9602C32.5204 75.8938 32.436 75.82 32.3581 75.7398C32.3169 75.6978 32.2812 75.6508 32.2517 75.5999C32.2373 75.5722 32.227 75.5425 32.2213 75.5118C32.2191 75.4824 32.2191 75.4529 32.2213 75.4236C32.2105 75.3059 32.2343 75.1875 32.2897 75.0831C32.3223 75.0329 32.366 74.9908 32.4174 74.96C32.4377 74.9475 32.4561 74.9322 32.4721 74.9144C32.4721 74.9144 32.4721 74.9144 32.4858 74.9007C32.4943 74.895 32.5044 74.8919 32.5146 74.8916H32.542L32.5846 74.9022C32.7974 74.9737 32.9904 75.0634 33.1926 75.1485C33.5786 75.3202 33.9526 75.4935 34.2976 75.6607C34.9983 75.9936 35.6261 76.3006 36.152 76.5621C36.2827 76.6259 36.4074 76.6913 36.5274 76.7445L36.871 76.8889L37.4227 77.1199L37.7693 77.2719L37.859 77.313L37.8878 77.3282L37.8559 77.319L37.7647 77.2856L37.4121 77.1473L36.8558 76.9254L36.5092 76.787C36.3876 76.7338 36.2645 76.67 36.1307 76.6062L34.2718 75.7185C33.9206 75.5543 33.5513 75.381 33.1652 75.2108C32.9737 75.1272 32.7761 75.036 32.5739 74.9691L32.5374 74.96H32.5207C32.5207 74.96 32.5207 74.9509 32.5207 74.9448C32.5648 74.9752 32.5314 74.9539 32.5405 74.9615C32.5203 74.9851 32.4967 75.0056 32.4706 75.0223C32.4273 75.0482 32.3904 75.0836 32.3626 75.1257C32.3154 75.2197 32.2949 75.3248 32.3034 75.4297C32.3002 75.4821 32.3107 75.5345 32.3338 75.5817C32.3603 75.6271 32.3924 75.669 32.4295 75.7063C32.5048 75.7836 32.5861 75.8548 32.6727 75.9191C32.846 76.0483 33.0269 76.1638 33.2062 76.2718C33.5665 76.4906 33.9252 76.6837 34.2702 76.8798C34.3554 76.9284 34.439 76.9755 34.5195 77.0318C34.559 77.0576 34.6001 77.0819 34.6381 77.1123C34.6622 77.1284 34.6812 77.1511 34.6928 77.1777C34.7005 77.2014 34.7056 77.2258 34.708 77.2506C34.7189 77.4278 34.7418 77.604 34.7764 77.7781C34.8446 78.0881 34.9996 78.3722 35.2233 78.5974C35.4134 78.7776 35.6241 78.9348 35.851 79.0655C36.0224 79.1665 36.2019 79.2529 36.3876 79.3239C36.5048 79.369 36.6252 79.4051 36.7478 79.4318C36.7889 79.441 36.8223 79.4455 36.8436 79.4486L36.8512 79.4334Z" fill="#AA6550"/>
<path d="M32.4984 79.5261C32.551 79.5345 32.6022 79.5504 32.6504 79.5732C32.7824 79.6301 32.9057 79.7053 33.0167 79.7967C33.0945 79.8598 33.1654 79.9312 33.228 80.0095C33.2669 80.0554 33.2964 80.1086 33.3146 80.166C33.3329 80.2234 33.3396 80.2839 33.3344 80.3439C33.3201 80.4106 33.2875 80.4719 33.2402 80.521C33.1929 80.5702 33.1329 80.6052 33.0668 80.622C32.93 80.6561 32.7861 80.6487 32.6534 80.6008C32.2052 80.4577 31.7716 80.2724 31.3584 80.0475C31.2339 79.9797 31.1136 79.9046 30.9981 79.8225C30.9539 79.7949 30.9127 79.7628 30.875 79.7268C30.923 79.7469 30.9688 79.7719 31.0118 79.8012C31.0984 79.8529 31.2246 79.9244 31.3827 80.0064C31.7977 80.2157 32.2281 80.393 32.6701 80.5369C32.79 80.5804 32.9198 80.5883 33.044 80.5597C33.0994 80.547 33.1501 80.5191 33.1904 80.4791C33.2307 80.439 33.259 80.3885 33.272 80.3332C33.2765 80.2809 33.2706 80.2282 33.2547 80.1781C33.2388 80.128 33.2132 80.0816 33.1793 80.0414C33.1215 79.9648 33.0557 79.8945 32.9832 79.8316C32.8351 79.7098 32.6722 79.6072 32.4984 79.5261Z" fill="#AA6550"/>
<path d="M54.8498 75.6455L52.3448 75.6972C52.3448 75.6972 48.5904 74.3398 47.8183 74.4705C47.1221 74.5861 44.5761 76.2778 44.0775 76.6137C44.0214 76.6497 43.9787 76.7031 43.9559 76.7657C43.9068 76.8981 43.911 77.0445 43.9677 77.1738C44.0244 77.3032 44.1292 77.4054 44.2599 77.4589L44.3131 77.4817L44.2903 77.5577C44.2601 77.656 44.2467 77.7588 44.2508 77.8617C44.257 77.9394 44.2877 78.0132 44.3386 78.0724C44.3894 78.1316 44.4578 78.173 44.5337 78.1908C44.6097 78.2086 44.6894 78.2017 44.7612 78.1712C44.833 78.1408 44.8933 78.0882 44.9333 78.0213L44.8375 78.1915C44.7983 78.2608 44.7798 78.34 44.7843 78.4195L44.7935 78.5715C44.7979 78.6556 44.8278 78.7363 44.8791 78.803C44.9304 78.8698 45.0007 78.9194 45.0807 78.9454C45.1571 78.9702 45.239 78.9725 45.3166 78.9521C45.3942 78.9316 45.4643 78.8892 45.5185 78.8299C45.8407 78.4757 46.5384 77.7659 47.0096 77.6853C47.5215 77.6239 48.037 77.598 48.5524 77.6078C48.6573 77.6085 48.7595 77.6408 48.8457 77.7004C48.9319 77.7601 48.9982 77.8443 49.0358 77.9422C48.7561 77.962 46.8044 78.9789 46.1143 79.3437C46.0075 79.397 45.9151 79.4755 45.8452 79.5724C45.7753 79.6693 45.73 79.7817 45.7131 79.9C45.6872 80.1158 45.7967 80.3423 46.2238 80.242C47.1358 80.0277 48.7926 79.2692 48.7926 79.2692C48.7926 79.2692 49.6453 79.026 50.1971 79.4212C50.9723 79.9684 51.3279 80.169 51.9952 79.9486C52.4001 79.813 52.7886 79.6325 53.1535 79.4105L55.4243 79.6309C55.4243 79.6309 56.8136 77.3601 54.8498 75.6455Z" fill="#B78876"/>
<path d="M49.0524 76.3312C49.0524 76.3464 48.7849 76.2612 48.3471 76.2339C47.7742 76.1953 47.2003 76.2924 46.6721 76.5175C46.1438 76.7425 45.6762 77.089 45.3071 77.5289C45.0244 77.8648 44.9028 78.1141 44.8906 78.1065C44.9107 78.0448 44.9388 77.9861 44.9742 77.9317C45.0606 77.7791 45.1592 77.6337 45.2691 77.497C45.6337 77.0408 46.1057 76.6821 46.6428 76.4529C47.1799 76.2238 47.7655 76.1313 48.3471 76.1837C48.5221 76.1984 48.6954 76.2279 48.8654 76.2719C48.9295 76.2856 48.9921 76.3055 49.0524 76.3312Z" fill="#AA6550"/>
<path d="M48.6521 75.4192C48.4133 75.3475 48.1669 75.3046 47.9179 75.2915C47.3143 75.2886 46.7221 75.4562 46.2095 75.7749C45.7015 76.1012 45.2386 76.4926 44.8323 76.9392L44.4554 77.3405C44.4118 77.392 44.364 77.4398 44.3125 77.4833C44.3473 77.4251 44.3886 77.3711 44.4356 77.3222C44.5177 77.2219 44.6408 77.079 44.7959 76.9058C45.1954 76.4446 45.6592 76.0432 46.173 75.7141C46.6958 75.3877 47.3034 75.2232 47.9195 75.2413C48.1051 75.2496 48.2887 75.2833 48.4651 75.3417C48.5129 75.3563 48.5596 75.374 48.605 75.3949C48.622 75.4002 48.6379 75.4084 48.6521 75.4192Z" fill="#AA6550"/>
<path d="M38.2114 39.4482C37.3871 37.532 35.9465 35.946 34.1181 34.9419C32.2897 33.9378 30.1783 33.5731 28.119 33.9057C26.0598 34.2383 24.1705 35.2491 22.7512 36.7777C21.3319 38.3064 20.4638 40.2653 20.2846 42.3435C20.1054 44.4218 20.6255 46.5003 21.7623 48.2493C22.8991 49.9983 24.5874 51.3176 26.5594 51.9977C28.5314 52.6778 30.674 52.6798 32.6473 52.0034C34.6205 51.3271 36.3113 50.011 37.4514 48.2642L41.069 48.2049L38.71 45.364C39.1929 43.3904 39.0179 41.3131 38.2114 39.4482Z" fill="#FAFAFA"/>
<path d="M25.8965 34.5325C25.8443 34.5493 25.7935 34.5702 25.7445 34.5948L25.3128 34.8C25.217 34.8471 25.1091 34.8927 24.9951 34.952L24.6303 35.1724L24.2062 35.4323L23.7502 35.7759C22.9754 36.3714 22.3037 37.0903 21.7621 37.9039C21.0361 38.9769 20.5365 40.1866 20.2938 41.4591C20.0142 43.0096 20.1185 44.605 20.5978 46.1058C20.734 46.5136 20.8965 46.9121 21.0842 47.299C21.1845 47.4935 21.2681 47.6987 21.3882 47.8872L21.7423 48.4572C22.2581 49.2295 22.885 49.9215 23.6028 50.5107C24.3611 51.1222 25.2038 51.6208 26.1047 51.9912C27.0548 52.3599 28.0561 52.5793 29.0733 52.6418C30.128 52.713 31.187 52.5973 32.2014 52.2998C32.4602 52.2317 32.7141 52.1464 32.9614 52.0444C33.2168 51.9574 33.467 51.8559 33.7108 51.7404C34.2042 51.5038 34.6766 51.2256 35.1229 50.909C36.0838 50.2245 36.9085 49.3667 37.5549 48.3797L37.4698 48.4268L41.0174 48.3371H41.2272L41.0965 48.173L38.8165 45.3215L38.8362 45.4081C39.1874 43.9662 39.1947 42.462 38.8575 41.0168C38.7043 40.343 38.47 39.6902 38.1598 39.0727C38.0221 38.7704 37.8621 38.4788 37.681 38.2003L37.4226 37.7868C37.333 37.6531 37.2266 37.5315 37.1323 37.4038C35.769 35.6335 33.821 34.4053 31.636 33.9382C30.8289 33.7582 30.0008 33.6902 29.1751 33.736L28.6522 33.7695L28.1765 33.8455L27.7402 33.9169C27.605 33.9473 27.4773 33.9868 27.3557 34.0187C27.114 34.0887 26.8997 34.1343 26.7173 34.2027L26.2613 34.379L25.9831 34.496C25.9516 34.5065 25.9215 34.5208 25.8934 34.5386C25.9269 34.5337 25.9596 34.5245 25.9907 34.5112L26.2704 34.417L26.7264 34.2559C26.9073 34.1951 27.1246 34.1525 27.3663 34.0887C29.1299 33.6659 30.9782 33.7637 32.6873 34.3701C34.3964 34.9766 35.8929 36.0658 36.9955 37.5056C37.0882 37.6318 37.1916 37.7519 37.2782 37.8826L37.5306 38.2899C37.7073 38.5639 37.8628 38.851 37.9957 39.1487C38.2979 39.7554 38.5256 40.3964 38.6736 41.0579C38.9984 42.4747 38.9864 43.9481 38.6386 45.3595L38.6265 45.4066L38.6584 45.4461C39.3941 46.3672 40.1541 47.3193 40.9384 48.3022L41.0174 48.1319L37.4682 48.2171H37.4135L37.3816 48.2642C36.4526 49.6812 35.1538 50.817 33.6257 51.5489C33.387 51.6641 33.1418 51.7656 32.8915 51.8529C32.6488 51.953 32.3994 52.0363 32.1452 52.1022C31.1526 52.3912 30.1168 52.5028 29.0854 52.432C28.0906 52.371 27.111 52.1577 26.1807 51.7997C25.2963 51.4373 24.469 50.9489 23.7244 50.3496C23.0215 49.7737 22.407 49.0977 21.9004 48.3432C21.7818 48.1563 21.6663 47.9708 21.5508 47.7869C21.4353 47.603 21.3532 47.4008 21.2468 47.2108C21.0607 46.8317 20.8998 46.4407 20.765 46.0404C20.323 44.6984 20.1924 43.2733 20.3831 41.8733C20.5738 40.4733 21.0807 39.1351 21.8654 37.9601C22.3932 37.1505 23.0487 36.4319 23.8065 35.8321L24.2473 35.484L24.6622 35.218L25.0194 34.9885C25.1319 34.9247 25.2383 34.876 25.3234 34.8274L25.746 34.607C25.7983 34.5868 25.8487 34.5618 25.8965 34.5325Z" fill="#263238"/>
<path d="M32.2789 47.9393L32.82 47.9383C33.1222 47.9377 33.3667 47.6923 33.3661 47.3901L33.3503 39.1243C33.3497 38.8221 33.1042 38.5776 32.802 38.5782L32.2609 38.5792C31.9587 38.5798 31.7142 38.8252 31.7148 39.1275L31.7306 47.3932C31.7312 47.6954 31.9767 47.9399 32.2789 47.9393Z" fill="#E0E0E0"/>
<path d="M29.5992 47.945L30.1403 47.9439C30.4425 47.9433 30.687 47.6979 30.6864 47.3957L30.6706 39.1299C30.67 38.8277 30.4245 38.5832 30.1223 38.5838L29.5812 38.5848C29.279 38.5854 29.0345 38.8309 29.0351 39.1331L29.0509 47.3988C29.0515 47.701 29.297 47.9455 29.5992 47.945Z" fill="#E0E0E0"/>
<path d="M26.5757 47.9496L27.1169 47.9486C27.4191 47.948 27.6636 47.7025 27.663 47.4003L27.6471 39.1346C27.6466 38.8324 27.4011 38.5878 27.0989 38.5884L26.5578 38.5895C26.2556 38.59 26.011 38.8355 26.0116 39.1377L26.0275 47.4034C26.0281 47.7057 26.2735 47.9502 26.5757 47.9496Z" fill="#E0E0E0"/>
<path d="M32.5251 47.9388C32.4566 47.93 32.3886 47.9173 32.3214 47.9008C32.1298 47.8471 31.9664 47.7212 31.8654 47.5497C31.7923 47.4286 31.7534 47.2899 31.7529 47.1484C31.7529 46.9888 31.7529 46.8171 31.7529 46.6316C31.7529 46.2592 31.7529 45.8382 31.7529 45.3715C31.7529 44.4367 31.7529 43.3256 31.7529 42.0944C31.7529 41.4773 31.7529 40.8298 31.7529 40.1579V39.6503C31.741 39.4834 31.7517 39.3157 31.7849 39.1517C31.839 38.9958 31.9414 38.8612 32.0772 38.7674C32.213 38.6736 32.3752 38.6255 32.5401 38.6301C32.7051 38.6346 32.8644 38.6916 32.9948 38.7928C33.1252 38.894 33.2199 39.0341 33.2653 39.1927C33.289 39.3588 33.2972 39.5268 33.2897 39.6943C33.2897 39.8646 33.2897 40.0348 33.2897 40.202C33.2897 40.8739 33.2897 41.5214 33.2897 42.1385C33.2897 43.3712 33.3018 44.4808 33.3064 45.4171C33.3064 45.8823 33.3064 46.3048 33.317 46.6757C33.317 46.8611 33.317 47.0359 33.317 47.191C33.3106 47.3325 33.2648 47.4693 33.1848 47.5862C33.073 47.7502 32.9038 47.8663 32.7105 47.9115C32.5768 47.9403 32.5038 47.9327 32.5038 47.9388C32.5742 47.9481 32.6456 47.9455 32.7151 47.9312C32.9178 47.8931 33.0978 47.7775 33.2167 47.609C33.3051 47.4876 33.3578 47.3438 33.3687 47.194C33.3687 47.0329 33.3687 46.8627 33.3687 46.6757C33.3687 46.3048 33.3687 45.8823 33.3687 45.4171C33.3687 44.4808 33.3687 43.3712 33.3687 42.1385C33.3687 41.5214 33.3687 40.8739 33.3687 40.202V39.442C33.372 39.3516 33.3633 39.2611 33.3429 39.173C33.2968 38.9902 33.1911 38.8279 33.0424 38.712C32.8937 38.5961 32.7106 38.5331 32.5221 38.5331C32.3339 38.5248 32.1482 38.5782 31.9931 38.6851C31.8399 38.793 31.7267 38.9485 31.6709 39.1274C31.6447 39.2152 31.6319 39.3064 31.6329 39.3979V39.6548C31.6329 39.8251 31.6329 39.9953 31.6329 40.1625C31.6329 40.8343 31.6329 41.4819 31.6405 42.099C31.6405 43.3302 31.6526 44.4413 31.6572 45.3776C31.6572 45.8427 31.6648 46.2638 31.6663 46.6362C31.6663 46.8216 31.6663 46.9934 31.6663 47.153C31.6682 47.3028 31.7119 47.4492 31.7925 47.5755C31.9009 47.7515 32.0747 47.8773 32.2758 47.9251C32.3571 47.9469 32.442 47.9516 32.5251 47.9388Z" fill="#263238"/>
<path d="M29.847 47.9434C29.778 47.9348 29.7095 47.9226 29.6418 47.9069C29.4773 47.8594 29.3328 47.7595 29.2305 47.6223C29.1281 47.485 29.0734 47.3181 29.0748 47.1469C29.0748 46.9873 29.0748 46.8155 29.0748 46.6301C29.0748 46.2592 29.0748 45.8366 29.0748 45.3715C29.0748 44.4352 29.0748 43.3256 29.0748 42.0929V39.6548C29.0621 39.4884 29.0728 39.3211 29.1067 39.1578C29.1599 39.001 29.2619 38.8654 29.3977 38.7707C29.5335 38.6761 29.6961 38.6274 29.8616 38.6318C30.027 38.6363 30.1868 38.6935 30.3173 38.7953C30.4479 38.897 30.5425 39.0379 30.5872 39.1973C30.6111 39.3633 30.6187 39.5313 30.61 39.6989C30.61 39.8706 30.61 40.0394 30.61 40.2081C30.61 40.8784 30.61 41.5259 30.61 42.143C30.61 43.3758 30.6222 44.4869 30.6267 45.4217C30.6267 45.8883 30.6267 46.3094 30.6359 46.6818C30.6359 46.8657 30.6359 47.0405 30.6359 47.197C30.6295 47.3385 30.5837 47.4754 30.5036 47.5922C30.3906 47.7556 30.2211 47.8715 30.0279 47.9175C29.8956 47.9449 29.8211 47.9373 29.8227 47.9434C29.8921 47.9548 29.963 47.9548 30.0324 47.9434C30.2354 47.9039 30.4155 47.788 30.5355 47.6196C30.6244 47.499 30.6772 47.3556 30.6875 47.2062C30.6951 47.0435 30.6875 46.8733 30.6875 46.6878C30.6875 46.3154 30.6875 45.8929 30.6875 45.4278C30.6875 44.493 30.6875 43.3818 30.6875 42.1491C30.6875 41.532 30.6875 40.8845 30.6875 40.2126V39.705C30.6875 39.6198 30.6875 39.5347 30.6875 39.4481C30.6916 39.3576 30.6829 39.2671 30.6617 39.179C30.616 38.9963 30.5105 38.8341 30.3621 38.7182C30.2137 38.6023 30.0308 38.5392 29.8424 38.5391C29.6546 38.5298 29.4689 38.5831 29.3146 38.6907C29.1603 38.7982 29.046 38.954 28.9897 39.1334C28.9642 39.2213 28.9519 39.3125 28.9532 39.404V39.6609C28.9532 39.8326 28.9532 40.0014 28.9532 40.1701C28.9532 40.8404 28.9532 41.4879 28.9532 42.105C28.9532 43.3378 28.9654 44.4474 28.9715 45.3837C28.9715 45.8488 28.9715 46.2714 28.9806 46.6422C28.9806 46.8277 28.9806 47.001 28.9806 47.159C28.9821 47.3087 29.0252 47.4551 29.1052 47.5816C29.2145 47.7575 29.3887 47.8831 29.5901 47.9312C29.6737 47.9549 29.7616 47.9591 29.847 47.9434Z" fill="#263238"/>
<path d="M26.8202 47.9494C26.7512 47.9407 26.6826 47.928 26.615 47.9114C26.4518 47.8644 26.3082 47.7655 26.206 47.6298C26.1037 47.4942 26.0483 47.3289 26.0481 47.159C26.0481 46.9994 26.0481 46.8277 26.0481 46.6422C26.0481 46.2698 26.0481 45.8488 26.0481 45.3837C26.0481 44.4474 26.0481 43.3378 26.0481 42.105V39.6639C26.0353 39.4976 26.046 39.3302 26.08 39.1669C26.1331 39.0101 26.2351 38.8745 26.3709 38.7798C26.5068 38.6852 26.6693 38.6365 26.8348 38.641C27.0003 38.6454 27.16 38.7026 27.2906 38.8044C27.4211 38.9061 27.5157 39.047 27.5605 39.2064C27.5843 39.3725 27.592 39.5405 27.5833 39.708C27.5833 39.8782 27.5833 40.0485 27.5833 40.2157C27.5833 40.8875 27.5833 41.535 27.5833 42.1522C27.5833 43.3849 27.5954 44.496 27.6 45.4308C27.6 45.8959 27.6 46.3185 27.6091 46.6909C27.6091 46.8748 27.6091 47.0496 27.6091 47.2046C27.6027 47.3461 27.5569 47.483 27.4769 47.5998C27.3642 47.7639 27.1947 47.8803 27.0011 47.9266C26.8689 47.954 26.7944 47.9464 26.7959 47.9525C26.8653 47.9639 26.9362 47.9639 27.0057 47.9525C27.1804 47.9182 27.339 47.8272 27.4569 47.6936C27.5748 47.5601 27.6454 47.3914 27.6577 47.2138C27.6577 47.0526 27.6577 46.8824 27.6577 46.697C27.6577 46.3246 27.6577 45.902 27.6577 45.4369C27.6577 44.5006 27.6577 43.391 27.6577 42.1582C27.6577 41.5411 27.6577 40.8936 27.6577 40.2218V39.4618C27.6602 39.3714 27.6516 39.281 27.6319 39.1927C27.5856 39.01 27.4798 38.8479 27.3312 38.7321C27.1826 38.6162 26.9996 38.5531 26.8111 38.5528C26.6232 38.5435 26.4376 38.5968 26.2833 38.7044C26.1289 38.8119 26.0147 38.9676 25.9584 39.1471C25.9336 39.2351 25.9213 39.3262 25.9219 39.4177V39.6639C25.9219 39.8357 25.9219 40.0044 25.9219 40.1716C25.9219 40.8434 25.9219 41.491 25.9219 42.1081C25.9219 43.3408 25.9341 44.4504 25.9401 45.3867C25.9401 45.8518 25.9401 46.2744 25.9493 46.6453C25.9493 46.8307 25.9493 47.0025 25.9493 47.1621C25.9507 47.3118 25.9939 47.4581 26.0739 47.5846C26.1832 47.7605 26.3574 47.8861 26.5588 47.9342C26.6435 47.9597 26.7331 47.9649 26.8202 47.9494Z" fill="#263238"/>
<path d="M31.0092 40.4239C31.0098 40.6513 30.9429 40.8737 30.8171 41.063C30.6913 41.2523 30.5121 41.4001 30.3023 41.4876C30.0924 41.5751 29.8614 41.5983 29.6383 41.5545C29.4152 41.5106 29.2102 41.4015 29.0491 41.2411C28.8881 41.0807 28.7782 40.8761 28.7334 40.6532C28.6887 40.4303 28.711 40.1991 28.7977 39.989C28.8843 39.7788 29.0314 39.599 29.2202 39.4724C29.4091 39.3459 29.6312 39.2781 29.8585 39.2778C30.163 39.2774 30.4552 39.3979 30.671 39.6128C30.8867 39.8277 31.0084 40.1194 31.0092 40.4239Z" fill="#5F2B38"/>
<path d="M27.9857 43.268C27.986 43.4952 27.9189 43.7175 27.7929 43.9066C27.6669 44.0958 27.4876 44.2433 27.2778 44.3305C27.0679 44.4178 26.8369 44.4409 26.6139 44.3968C26.391 44.3528 26.1861 44.2436 26.0251 44.0831C25.8642 43.9226 25.7545 43.718 25.7099 43.4952C25.6652 43.2723 25.6877 43.0412 25.7744 42.8311C25.8611 42.621 26.0081 42.4414 26.1969 42.3149C26.3857 42.1884 26.6078 42.1207 26.8351 42.1204C26.986 42.1202 27.1355 42.1497 27.275 42.2073C27.4145 42.2648 27.5412 42.3493 27.6481 42.4559C27.7549 42.5624 27.8398 42.689 27.8977 42.8283C27.9556 42.9677 27.9855 43.1171 27.9857 43.268Z" fill="#5F2B38"/>
<path d="M33.5675 45.4165C33.8007 44.8262 33.5113 44.1587 32.9211 43.9255C32.3308 43.6922 31.6633 43.9817 31.4301 44.5719C31.1969 45.1621 31.4863 45.8297 32.0765 46.0629C32.6668 46.2961 33.3343 46.0067 33.5675 45.4165Z" fill="#5F2B38"/>
<path d="M24.1112 81.3603H47.0374L44.0794 65.2696C44.0286 64.9931 43.8825 64.7431 43.6664 64.5631C43.4503 64.3832 43.1781 64.2847 42.8969 64.2847H22.2963C22.1192 64.2846 21.9443 64.3237 21.784 64.3991C21.6238 64.4746 21.4822 64.5845 21.3694 64.721C21.2565 64.8575 21.1752 65.0172 21.1313 65.1888C21.0874 65.3604 21.0819 65.5395 21.1153 65.7135L24.1112 81.3603Z" fill="#455A64"/>
<path d="M47.0355 81.3606H55.7314L55.6965 81.3347C54.9206 80.754 53.984 80.4274 53.0152 80.3999L46.7969 80.2175L47.0355 81.3606Z" fill="#455A64"/>
<path d="M41.5312 64.3062C41.5312 64.3062 41.5951 64.2955 41.7167 64.294C41.8939 64.2964 42.0681 64.3396 42.2259 64.4202C42.4745 64.5482 42.6844 64.7402 42.8339 64.9765C43.0234 65.2963 43.1508 65.6491 43.2093 66.0162C43.2838 66.4235 43.3492 66.875 43.4312 67.3568C43.5133 67.8387 43.6015 68.3539 43.7033 68.8951C43.904 69.9758 44.1396 71.1614 44.398 72.4047C44.9148 74.8899 45.3936 77.1365 45.7082 78.769C45.8602 79.5852 45.9864 80.2464 46.07 80.7039C46.1095 80.9289 46.1414 81.1052 46.1657 81.2314C46.1764 81.2876 46.1855 81.3317 46.1916 81.3682C46.1944 81.3837 46.1984 81.3989 46.2037 81.4138C46.2064 81.3982 46.2064 81.3822 46.2037 81.3666C46.2037 81.3302 46.1931 81.2846 46.1855 81.2283C46.1657 81.1007 46.1399 80.9243 46.1049 80.6994C46.0335 80.2434 45.921 79.5761 45.7705 78.7583C45.4665 77.1213 45.0014 74.8717 44.4846 72.3865C44.2277 71.1447 43.9876 69.9545 43.7839 68.8799C43.6805 68.3403 43.5893 67.8265 43.5042 67.3447C43.4191 66.8628 43.3522 66.4144 43.2716 66.004C43.2083 65.6311 43.0747 65.2737 42.878 64.9507C42.7201 64.7097 42.5 64.516 42.2411 64.3898C42.0783 64.3095 41.8981 64.2709 41.7167 64.2773C41.6539 64.2785 41.5915 64.2882 41.5312 64.3062Z" fill="#263238"/>
<path d="M33.7412 73.2445C34.1739 72.8117 34.1739 72.1101 33.7412 71.6774C33.3085 71.2447 32.6069 71.2447 32.1742 71.6774C31.7414 72.1101 31.7414 72.8117 32.1742 73.2445C32.6069 73.6772 33.3085 73.6772 33.7412 73.2445Z" fill="#F5F5F5"/>
<path d="M84.3874 81.3455C84.3874 81.3667 69.5613 81.385 51.2773 81.385C32.9932 81.385 18.1641 81.3667 18.1641 81.3455C18.1641 81.3242 32.9795 81.312 51.2773 81.312C69.575 81.312 84.3874 81.3242 84.3874 81.3455Z" fill="#263238"/>
</svg>
