<svg width="20" height="11" viewBox="0 0 20 11" fill="none" xmlns="http://www.w3.org/2000/svg">
<path d="M9.93543 10.8936C10.0137 10.8936 10.0802 10.8779 10.135 10.8466C10.1976 10.8232 10.2563 10.784 10.311 10.7293L19.0203 1.24534C19.1064 1.15144 19.1494 1.03798 19.1494 0.904953C19.1494 0.826703 19.1298 0.752365 19.0907 0.68194C19.0516 0.611515 18.9968 0.552827 18.9264 0.505877C18.856 0.466752 18.7777 0.447189 18.6916 0.447189C18.5664 0.447189 18.4608 0.486314 18.3747 0.564564L9.93543 9.76679L1.49615 0.564564C1.41007 0.486313 1.30444 0.447188 1.17924 0.447188C1.09316 0.447188 1.01882 0.466751 0.956224 0.505876C0.885798 0.552826 0.831023 0.611514 0.791898 0.681939C0.744948 0.752364 0.721473 0.826702 0.721473 0.904952C0.721473 1.03798 0.768423 1.15144 0.862323 1.24534L9.55983 10.7293C9.61461 10.784 9.66938 10.8232 9.72416 10.8466C9.78676 10.8779 9.85718 10.8936 9.93543 10.8936Z" fill="black"/>
</svg>
