<svg width="22" height="23" viewBox="0 0 22 23" fill="none" xmlns="http://www.w3.org/2000/svg">
<path d="M2.71875 8.90379H19.0297M8.15574 14.3408L9.96807 16.1531L13.5927 12.5285M6.34341 3.4668V5.27913M15.4051 3.4668V5.27913M5.61848 19.7778H16.13C17.145 19.7778 17.6525 19.7778 18.0402 19.5802C18.3812 19.4065 18.6585 19.1292 18.8322 18.7882C19.0297 18.4006 19.0297 17.893 19.0297 16.878V8.17886C19.0297 7.16385 19.0297 6.65635 18.8322 6.26868C18.6585 5.92766 18.3812 5.65041 18.0402 5.47666C17.6525 5.27913 17.145 5.27913 16.13 5.27913H5.61848C4.60348 5.27913 4.09598 5.27913 3.7083 5.47666C3.36728 5.65041 3.09003 5.92766 2.91628 6.26868C2.71875 6.65635 2.71875 7.16385 2.71875 8.17886V16.878C2.71875 17.893 2.71875 18.4006 2.91628 18.7882C3.09003 19.1292 3.36728 19.4065 3.7083 19.5802C4.09598 19.7778 4.60347 19.7778 5.61848 19.7778Z" stroke="#414652" stroke-width="1.73984" stroke-linecap="round" stroke-linejoin="round"/>
</svg>
