<svg width="21" height="15" viewBox="0 0 21 15" fill="none" xmlns="http://www.w3.org/2000/svg">
<path d="M19.9218 1.78493L7.9723 13.7344C7.90294 13.8039 7.82057 13.8589 7.72991 13.8965C7.63924 13.9341 7.54206 13.9535 7.44391 13.9535C7.34577 13.9535 7.24858 13.9341 7.15792 13.8965C7.06725 13.8589 6.98488 13.8039 6.91552 13.7344L1.68762 8.50652C1.54748 8.36638 1.46875 8.17631 1.46875 7.97813C1.46875 7.77994 1.54748 7.58987 1.68762 7.44973C1.82776 7.3096 2.01782 7.23087 2.21601 7.23087C2.41419 7.23087 2.60426 7.3096 2.7444 7.44973L7.44391 12.1502L18.865 0.728144C19.0052 0.588006 19.1952 0.509277 19.3934 0.509277C19.5916 0.509277 19.7817 0.588006 19.9218 0.728144C20.0619 0.868282 20.1407 1.05835 20.1407 1.25654C20.1407 1.45472 20.0619 1.64479 19.9218 1.78493Z" fill="#10A957" stroke="#10A957"/>
</svg>
