<svg width="18" height="18" viewBox="0 0 18 18" fill="none" xmlns="http://www.w3.org/2000/svg">
<path d="M9.41513 12.3796C9.30855 12.4961 9.15795 12.5625 9 12.5625C8.84205 12.5625 8.69145 12.4961 8.58488 12.3796L5.58486 9.09832C5.37524 8.86905 5.39117 8.51325 5.62044 8.30363C5.84973 8.094 6.20552 8.1099 6.41514 8.33918L8.4375 10.5512V2.25C8.4375 1.93934 8.68935 1.6875 9 1.6875C9.31065 1.6875 9.5625 1.93934 9.5625 2.25V10.5512L11.5849 8.33918C11.7945 8.1099 12.1503 8.094 12.3796 8.30363C12.6089 8.51325 12.6248 8.86905 12.4151 9.09832L9.41513 12.3796Z" fill="#111827" stroke="#111827" stroke-width="0.5"/>
<path d="M2.8125 11.25C2.8125 10.9394 2.56067 10.6875 2.25 10.6875C1.93934 10.6875 1.6875 10.9394 1.6875 11.25V11.2912C1.68749 12.3169 1.68747 13.1436 1.77489 13.7938C1.86566 14.4689 2.05982 15.0373 2.51126 15.4887C2.9627 15.9402 3.53111 16.1344 4.20619 16.2251C4.85642 16.3125 5.68316 16.3125 6.70885 16.3125H11.2912C12.3169 16.3125 13.1436 16.3125 13.7938 16.2251C14.4689 16.1344 15.0373 15.9402 15.4888 15.4887C15.9402 15.0373 16.1344 14.4689 16.2251 13.7938C16.3125 13.1436 16.3125 12.3169 16.3125 11.2912V11.25C16.3125 10.9394 16.0606 10.6875 15.75 10.6875C15.4394 10.6875 15.1875 10.9394 15.1875 11.25C15.1875 12.3266 15.1863 13.0774 15.1102 13.6439C15.0361 14.1943 14.9008 14.4856 14.6932 14.6932C14.4857 14.9008 14.1943 15.0361 13.6439 15.1102C13.0774 15.1863 12.3266 15.1875 11.25 15.1875H6.75C5.67344 15.1875 4.9226 15.1863 4.35609 15.1102C3.80576 15.0361 3.51433 14.9008 3.30676 14.6932C3.09919 14.4856 2.96385 14.1943 2.88986 13.6439C2.81369 13.0774 2.8125 12.3266 2.8125 11.25Z" fill="#111827" stroke="#111827" stroke-width="0.5"/>
</svg>
