<svg width="12" height="12" viewBox="0 0 12 12" fill="none" xmlns="http://www.w3.org/2000/svg">
<path d="M10.125 10.583H1.875C1.68708 10.583 1.53125 10.4272 1.53125 10.2393C1.53125 10.0513 1.68708 9.89551 1.875 9.89551H10.125C10.3129 9.89551 10.4688 10.0513 10.4688 10.2393C10.4688 10.4272 10.3129 10.583 10.125 10.583Z" fill="white"/>
<path d="M9.21703 2.09542C8.32786 1.20625 7.45703 1.18333 6.54494 2.09542L5.99036 2.65C5.94453 2.69583 5.92619 2.76917 5.94453 2.83333C6.29286 4.04792 7.26453 5.01958 8.47911 5.36791C8.49744 5.37249 8.51578 5.37708 8.53411 5.37708C8.58453 5.37708 8.63036 5.35874 8.66703 5.32208L9.21703 4.7675C9.67078 4.31833 9.89078 3.88292 9.89078 3.44292C9.89536 2.98917 9.67536 2.54917 9.21703 2.09542Z" fill="white"/>
<path d="M7.6548 5.78506C7.52189 5.72089 7.39355 5.65672 7.2698 5.58339C7.16897 5.52381 7.07272 5.45964 6.97647 5.39089C6.89855 5.34047 6.80689 5.26714 6.7198 5.19381C6.71064 5.18922 6.67855 5.16172 6.64189 5.12506C6.49064 4.99672 6.32105 4.83172 6.1698 4.64838C6.15605 4.63922 6.13313 4.60713 6.10105 4.56588C6.05522 4.51088 5.9773 4.41922 5.90855 4.3138C5.85355 4.24505 5.78939 4.14422 5.7298 4.04338C5.65647 3.91963 5.5923 3.79588 5.52813 3.66755C5.51842 3.64674 5.50902 3.62604 5.49995 3.60546C5.4323 3.45269 5.23306 3.40803 5.11495 3.52617L2.48939 6.15172C2.42981 6.21131 2.37481 6.32589 2.36106 6.40381L2.11356 8.15922C2.06773 8.47089 2.15481 8.76423 2.34731 8.96131C2.51231 9.12173 2.74148 9.20881 2.98898 9.20881C3.04398 9.20881 3.09898 9.20423 3.15398 9.19506L4.91398 8.94756C4.99648 8.93381 5.11105 8.87881 5.16605 8.81923L7.78831 6.19696C7.9073 6.07798 7.86243 5.87384 7.70769 5.80779C7.69028 5.80037 7.67263 5.79276 7.6548 5.78506Z" fill="white"/>
</svg>
