<svg width="19" height="18" viewBox="0 0 19 18" fill="none" xmlns="http://www.w3.org/2000/svg">
<path fill-rule="evenodd" clip-rule="evenodd" d="M9.97656 15.75C9.97656 15.3358 10.3123 15 10.7266 15H16.7266C17.1408 15 17.4766 15.3358 17.4766 15.75C17.4766 16.1642 17.1408 16.5 16.7266 16.5H10.7266C10.3123 16.5 9.97656 16.1642 9.97656 15.75Z" fill="#323232"/>
<path fill-rule="evenodd" clip-rule="evenodd" d="M16.5568 6.07495C17.7641 4.86285 17.7128 3.27114 16.8113 2.29637C16.3717 1.82107 15.746 1.51747 15.0373 1.50073C14.326 1.48393 13.5891 1.75595 12.9091 2.32489C12.8917 2.33944 12.8749 2.35477 12.859 2.37083L3.13241 12.1362C2.71238 12.5578 2.47656 13.1288 2.47656 13.724V14.9941C2.47656 15.8203 3.14554 16.5 3.97943 16.5H5.23855C5.83684 16.5 6.41049 16.2617 6.8327 15.8378L16.5568 6.07495ZM13.8819 4.34471C13.589 4.05182 13.1141 4.05182 12.8212 4.34471C12.5284 4.63761 12.5284 5.11248 12.8212 5.40537L13.5712 6.15537C13.8641 6.44826 14.339 6.44826 14.6319 6.15537C14.9248 5.86248 14.9248 5.38761 14.6319 5.09471L13.8819 4.34471Z" fill="#323232"/>
</svg>
