<svg width="26" height="22" viewBox="0 0 26 22" fill="none" xmlns="http://www.w3.org/2000/svg">
<path d="M18.1953 0C16.6603 0 15.3646 1.03548 14.9643 2.44444H1.69535C1.57388 2.44273 1.45328 2.46517 1.34056 2.51046C1.22784 2.55576 1.12524 2.62301 1.03874 2.7083C0.952232 2.79359 0.88354 2.89522 0.836655 3.00729C0.789769 3.11936 0.765625 3.23963 0.765625 3.36111C0.765625 3.48259 0.789769 3.60286 0.836655 3.71493C0.88354 3.827 0.952232 3.92863 1.03874 4.01392C1.12524 4.09922 1.22784 4.16646 1.34056 4.21176C1.45328 4.25705 1.57388 4.2795 1.69535 4.27778H14.9643C15.3646 5.68674 16.6603 6.72222 18.1953 6.72222C19.7304 6.72222 21.0261 5.68674 21.4264 4.27778H24.3065C24.4279 4.2795 24.5485 4.25705 24.6612 4.21176C24.774 4.16646 24.8766 4.09922 24.9631 4.01392C25.0496 3.92863 25.1183 3.827 25.1651 3.71493C25.212 3.60286 25.2362 3.48259 25.2362 3.36111C25.2362 3.23963 25.212 3.11936 25.1651 3.00729C25.1183 2.89522 25.0496 2.79359 24.9631 2.7083C24.8766 2.62301 24.774 2.55576 24.6612 2.51046C24.5485 2.46517 24.4279 2.44273 24.3065 2.44444H21.4264C21.0261 1.03548 19.7304 0 18.1953 0ZM7.80646 7.63889C6.27138 7.63889 4.97573 8.67437 4.57545 10.0833H1.69535C1.57388 10.0816 1.45328 10.1041 1.34056 10.1494C1.22784 10.1946 1.12524 10.2619 1.03874 10.3472C0.952232 10.4325 0.88354 10.5341 0.836655 10.6462C0.789769 10.7582 0.765625 10.8785 0.765625 11C0.765625 11.1215 0.789769 11.2418 0.836655 11.3538C0.88354 11.4659 0.952232 11.5675 1.03874 11.6528C1.12524 11.7381 1.22784 11.8054 1.34056 11.8506C1.45328 11.8959 1.57388 11.9184 1.69535 11.9167H4.57545C4.97573 13.3256 6.27138 14.3611 7.80646 14.3611C9.34154 14.3611 10.6372 13.3256 11.0375 11.9167H24.3065C24.4279 11.9184 24.5485 11.8959 24.6612 11.8506C24.774 11.8054 24.8766 11.7381 24.9631 11.6528C25.0496 11.5675 25.1183 11.4659 25.1651 11.3538C25.212 11.2418 25.2362 11.1215 25.2362 11C25.2362 10.8785 25.212 10.7582 25.1651 10.6462C25.1183 10.5341 25.0496 10.4325 24.9631 10.3472C24.8766 10.2619 24.774 10.1946 24.6612 10.1494C24.5485 10.1041 24.4279 10.0816 24.3065 10.0833H11.0375C10.6372 8.67437 9.34154 7.63889 7.80646 7.63889ZM16.9731 15.2778C15.438 15.2778 14.1424 16.3133 13.7421 17.7222H1.69535C1.57388 17.7205 1.45328 17.7429 1.34056 17.7882C1.22784 17.8335 1.12524 17.9008 1.03874 17.9861C0.952232 18.0714 0.88354 18.173 0.836655 18.2851C0.789769 18.3971 0.765625 18.5174 0.765625 18.6389C0.765625 18.7604 0.789769 18.8806 0.836655 18.9927C0.88354 19.1048 0.952232 19.2064 1.03874 19.2917C1.12524 19.377 1.22784 19.4442 1.34056 19.4895C1.45328 19.5348 1.57388 19.5573 1.69535 19.5556H13.7421C14.1424 20.9645 15.438 22 16.9731 22C18.5082 22 19.8039 20.9645 20.2041 19.5556H24.3065C24.4279 19.5573 24.5485 19.5348 24.6612 19.4895C24.774 19.4442 24.8766 19.377 24.9631 19.2917C25.0496 19.2064 25.1183 19.1048 25.1651 18.9927C25.212 18.8806 25.2362 18.7604 25.2362 18.6389C25.2362 18.5174 25.212 18.3971 25.1651 18.2851C25.1183 18.173 25.0496 18.0714 24.9631 17.9861C24.8766 17.9008 24.774 17.8335 24.6612 17.7882C24.5485 17.7429 24.4279 17.7205 24.3065 17.7222H20.2041C19.8039 16.3133 18.5082 15.2778 16.9731 15.2778Z" fill="white"/>
</svg>
