<svg width="14" height="10" viewBox="0 0 14 10" fill="none" xmlns="http://www.w3.org/2000/svg">
<path d="M5.37929 8.33859C5.2311 8.47692 5.11642 8.56951 4.99922 8.63719C4.42551 8.96842 3.71867 8.96842 3.14497 8.63719C2.93356 8.51512 2.73034 8.31189 2.32389 7.9055C1.91745 7.49905 1.71422 7.29583 1.59217 7.08438C1.26094 6.51068 1.26094 5.80384 1.59217 5.23014C1.71422 5.01876 1.91745 4.81553 2.32389 4.40908L4.07209 2.66089C4.47854 2.25444 4.68176 2.05122 4.89316 1.92917C5.46687 1.59794 6.17372 1.59794 6.74742 1.92916C6.9588 2.05122 7.16203 2.25444 7.56848 2.66089C7.97493 3.06733 8.17816 3.27055 8.30023 3.48196C8.63146 4.05566 8.63146 4.7625 8.30023 5.3362C8.23255 5.45339 8.13996 5.56811 8.00157 5.71626M6.2613 3.97599C6.12291 4.12415 6.03032 4.23886 5.96264 4.35605C5.63144 4.92975 5.63144 5.63659 5.96264 6.21029C6.08471 6.42174 6.28794 6.62496 6.69439 7.03135C7.10084 7.4378 7.30406 7.64103 7.51545 7.7631C8.08915 8.09433 8.79599 8.09433 9.36969 7.7631C9.58114 7.64103 9.78436 7.4378 10.1908 7.03135L11.939 5.28317C12.3454 4.87672 12.5487 4.6735 12.6707 4.46211C13.0019 3.88841 13.0019 3.18156 12.6707 2.60786C12.5487 2.39645 12.3454 2.19323 11.939 1.78678C11.5325 1.38034 11.3293 1.17712 11.1179 1.05506C10.5442 0.723833 9.83739 0.723833 9.26369 1.05506C9.14644 1.12273 9.03179 1.21534 8.88357 1.35369" stroke="#C1914F" stroke-width="1.23616" stroke-linecap="round"/>
</svg>
