<svg width="22" height="22" viewBox="0 0 22 22" fill="none" xmlns="http://www.w3.org/2000/svg">
<path d="M6.67215 8.39041V7.58869C6.67215 4.9239 8.7842 2.77832 11.4074 2.77832C14.0305 2.77832 16.1426 4.9239 16.1426 7.58869V8.39041M6.67215 8.39041C5.80403 8.39041 5.09375 9.11197 5.09375 9.99387V18.0111C5.09375 18.893 5.80403 19.6146 6.67215 19.6146H16.1426C17.0107 19.6146 17.721 18.893 17.721 18.0111V9.99387C17.721 9.11197 17.0107 8.39041 16.1426 8.39041M6.67215 8.39041H16.1426M11.4074 12.3991C12.2755 12.3991 12.9858 13.1206 12.9858 14.0025C12.9858 14.8844 12.2755 15.606 11.4074 15.606C10.5392 15.606 9.82896 14.8844 9.82896 14.0025C9.82896 13.1206 10.5392 12.3991 11.4074 12.3991Z" stroke="#008BD9" stroke-width="1.75378"/>
</svg>
