<svg width="19" height="18" viewBox="0 0 19 18" fill="none" xmlns="http://www.w3.org/2000/svg">
<path d="M7.09427 12.8889V14.7304C7.09427 15.2188 7.28991 15.6871 7.63815 16.0325C7.9864 16.3778 8.45872 16.5718 8.95121 16.5718H15.4505C15.943 16.5718 16.4153 16.3778 16.7636 16.0325C17.1118 15.6871 17.3075 15.2188 17.3075 14.7304L17.3075 3.68156C17.3075 3.19317 17.1118 2.72479 16.7636 2.37944C16.4153 2.0341 15.943 1.84009 15.4505 1.84009L8.95121 1.84009C8.45872 1.84009 7.9864 2.0341 7.63815 2.37944C7.28991 2.72478 7.09427 3.19317 7.09427 3.68156V5.52302M12.6651 9.20596L1.52344 9.20596M1.52344 9.20596L4.30885 11.9682M1.52344 9.20596L4.30885 6.44376" stroke="#F44545" stroke-width="1.75378" stroke-linecap="round" stroke-linejoin="round"/>
</svg>
