<svg width="22" height="21" viewBox="0 0 22 21" fill="none" xmlns="http://www.w3.org/2000/svg">
<path d="M12.8329 16.8824C12.8329 17.3891 12.6317 17.8751 12.2733 18.2334C11.915 18.5917 11.4291 18.793 10.9223 18.793C10.4156 18.793 9.92963 18.5917 9.57132 18.2334C9.21301 17.8751 9.01172 17.3891 9.01172 16.8824C9.01172 16.3757 9.21301 15.8897 9.57132 15.5314C9.92963 15.1731 10.4156 14.9718 10.9223 14.9718C11.4291 14.9718 11.915 15.1731 12.2733 15.5314C12.6317 15.8897 12.8329 16.3757 12.8329 16.8824ZM12.8329 10.5137C12.8329 11.0204 12.6317 11.5064 12.2733 11.8647C11.915 12.223 11.4291 12.4243 10.9223 12.4243C10.4156 12.4243 9.92963 12.223 9.57132 11.8647C9.21301 11.5064 9.01172 11.0204 9.01172 10.5137C9.01172 10.007 9.21301 9.52101 9.57132 9.1627C9.92963 8.80439 10.4156 8.60309 10.9223 8.60309C11.4291 8.60309 11.915 8.80439 12.2733 9.1627C12.6317 9.52101 12.8329 10.007 12.8329 10.5137ZM12.8329 4.14499C12.8329 4.65172 12.6317 5.13769 12.2733 5.496C11.915 5.85431 11.4291 6.0556 10.9223 6.0556C10.4156 6.0556 9.92963 5.85431 9.57132 5.496C9.21301 5.13769 9.01172 4.65172 9.01172 4.14499C9.01172 3.63826 9.21301 3.15229 9.57132 2.79398C9.92963 2.43567 10.4156 2.23438 10.9223 2.23438C11.4291 2.23438 11.915 2.43567 12.2733 2.79398C12.6317 3.15229 12.8329 3.63826 12.8329 4.14499Z" fill="#414652"/>
</svg>
