<svg width="4" height="20" viewBox="0 0 4 20" fill="none" xmlns="http://www.w3.org/2000/svg">
<path d="M0 10C-4.82823e-08 8.89543 0.89543 8 2 8C3.10457 8 4 8.89543 4 10C4 11.1046 3.10457 12 2 12C0.895431 12 4.82823e-08 11.1046 0 10Z" fill="#01042D"/>
<path d="M0 18C-4.82823e-08 16.8954 0.89543 16 2 16C3.10457 16 4 16.8954 4 18C4 19.1046 3.10457 20 2 20C0.895431 20 4.82823e-08 19.1046 0 18Z" fill="#01042D"/>
<path d="M0 2C-4.82823e-08 0.89543 0.89543 0 2 0C3.10457 0 4 0.89543 4 2C4 3.10457 3.10457 4 2 4C0.895431 4 4.82823e-08 3.10457 0 2Z" fill="#01042D"/>
</svg>
