<svg width="20" height="20" viewBox="0 0 20 20" fill="none" xmlns="http://www.w3.org/2000/svg">
<g clip-path="url(#clip0_387_16806)">
<path d="M12.3833 4.41665H4.43333C4.01569 4.41556 3.60193 4.49687 3.21575 4.65594C2.82958 4.81501 2.47859 5.0487 2.18288 5.34364C1.88717 5.63857 1.65256 5.98895 1.49248 6.37471C1.3324 6.76046 1.25 7.174 1.25 7.59165V12.3667C1.25 13.2109 1.58539 14.0206 2.18238 14.6176C2.77937 15.2146 3.58906 15.55 4.43333 15.55H6.025L8.40833 17.9333L10.8333 15.55H12.425C13.2693 15.55 14.079 15.2146 14.676 14.6176C15.2729 14.0206 15.6083 13.2109 15.6083 12.3667V7.59165C15.6084 7.17047 15.5246 6.75348 15.362 6.36497C15.1993 5.97647 14.9609 5.62421 14.6608 5.32872C14.3606 5.03324 14.0047 4.80042 13.6137 4.64383C13.2227 4.48725 12.8045 4.41002 12.3833 4.41665Z" stroke="#959595" stroke-width="2" stroke-miterlimit="10"/>
<path d="M15.563 12.3667C15.9825 12.3667 16.3978 12.2838 16.7851 12.1228C17.1724 11.9618 17.5241 11.7258 17.8199 11.4285C18.1157 11.1311 18.3498 10.7782 18.5088 10.3901C18.6678 10.0019 18.7486 9.58617 18.7464 9.16673V4.41673C18.7464 3.57246 18.411 2.76277 17.814 2.16578C17.217 1.56878 16.4073 1.2334 15.563 1.2334H7.61302C6.76875 1.2334 5.95906 1.56878 5.36206 2.16578C4.76507 2.76277 4.42969 3.57246 4.42969 4.41673" stroke="#959595" stroke-width="2" stroke-miterlimit="10"/>
<path d="M4.42969 9.9834H6.02135" stroke="#959595" stroke-width="2" stroke-miterlimit="10"/>
<path d="M7.61719 9.9834H9.20885" stroke="#959595" stroke-width="2" stroke-miterlimit="10"/>
<path d="M10.7891 9.9834H12.3807" stroke="#959595" stroke-width="2" stroke-miterlimit="10"/>
</g>
<defs>
<clipPath id="clip0_387_16806">
<rect width="20" height="20" fill="white"/>
</clipPath>
</defs>
</svg>
