<svg width="85" height="85" viewBox="0 0 85 85" fill="none" xmlns="http://www.w3.org/2000/svg">
<g clip-path="url(#clip0_387_15848)">
<path d="M27.3925 3.44142C26.6379 5.6143 25.7894 7.95313 26.4845 10.1479C26.7475 10.987 27.2265 11.7635 27.3424 12.6527C27.4801 13.7204 27.0574 14.7724 26.9197 15.8431C26.7005 17.5871 26.6567 19.6347 27.859 20.9184C28.8479 20.4271 29.9694 20.2689 31.0557 20.4676C31.2185 19.9384 31.6161 18.1632 31.5817 17.609C31.3312 13.2758 31.4721 4.9161 32.7714 0.235314C32.7558 0.219659 28.5916 -0.00576854 27.3925 3.44142Z" fill="#263238"/>
<path d="M39.4637 4.75339L39.5419 3.61998L32.7947 1.99501C30.7032 1.68192 28.3268 3.65755 28.0983 5.75216C27.8321 8.08786 27.6005 10.9496 27.7852 12.7123C28.164 16.2565 30.8379 16.8389 30.8379 16.8389L30.7189 20.5021C30.7027 21.0171 30.7912 21.5299 30.9791 22.0097C31.1669 22.4894 31.4502 22.926 31.8117 23.2931C32.1732 23.6602 32.6054 23.95 33.0822 24.1452C33.559 24.3403 34.0705 24.4366 34.5856 24.4283C35.612 24.4078 36.5926 24.0002 37.3312 23.2872C38.0697 22.5742 38.5116 21.6085 38.5682 20.5835L39.4637 4.75339Z" fill="#FFBE9D"/>
<path d="M28.7584 8.31642C28.7523 8.43382 28.7919 8.54903 28.869 8.63779C28.9461 8.72655 29.0546 8.78195 29.1717 8.79233C29.2288 8.79975 29.2867 8.7957 29.3422 8.78043C29.3976 8.76516 29.4495 8.73896 29.4947 8.70338C29.5399 8.66781 29.5775 8.62356 29.6054 8.57324C29.6333 8.52292 29.6508 8.46754 29.657 8.41035C29.664 8.29292 29.6252 8.17735 29.5487 8.08799C29.4722 7.99863 29.364 7.94247 29.2469 7.93132C29.1894 7.9239 29.131 7.92802 29.0752 7.94346C29.0194 7.95889 28.9672 7.98532 28.9217 8.02119C28.8762 8.05705 28.8383 8.10164 28.8103 8.15234C28.7823 8.20304 28.7646 8.25882 28.7584 8.31642Z" fill="#263238"/>
<path d="M28.7557 7.27372C28.809 7.33633 29.1628 7.10151 29.648 7.12656C30.1333 7.15161 30.4778 7.41148 30.5341 7.35512C30.5905 7.29876 30.5091 7.22362 30.3588 7.10151C30.1557 6.946 29.9098 6.8564 29.6543 6.84478C29.4022 6.83213 29.1525 6.89894 28.9405 7.03576C28.787 7.14222 28.7307 7.24554 28.7557 7.27372Z" fill="#263238"/>
<path d="M33.5163 8.51998C33.5101 8.63771 33.5496 8.75328 33.6266 8.84255C33.7036 8.93181 33.8122 8.98787 33.9295 8.99902C33.9868 9.00599 34.0448 9.00152 34.1003 8.98588C34.1557 8.97024 34.2075 8.94374 34.2527 8.90791C34.2978 8.87209 34.3354 8.82765 34.3633 8.77718C34.3911 8.72671 34.4086 8.67121 34.4148 8.61391C34.421 8.49651 34.3813 8.3813 34.3042 8.29254C34.2272 8.20378 34.1187 8.14838 34.0015 8.138C33.9446 8.13101 33.8868 8.13537 33.8315 8.15081C33.7762 8.16626 33.7245 8.19249 33.6794 8.22799C33.6343 8.26349 33.5967 8.30757 33.5687 8.35768C33.5407 8.4078 33.5228 8.46295 33.5163 8.51998Z" fill="#263238"/>
<path d="M33.5218 7.60575C33.5751 7.66837 33.9289 7.43354 34.4142 7.45859C34.8995 7.48364 35.2407 7.74664 35.2971 7.68715C35.3534 7.62766 35.272 7.55565 35.1249 7.43354C34.9218 7.27803 34.6759 7.18844 34.4204 7.17681C34.1682 7.16309 33.9182 7.22998 33.7066 7.3678C33.5625 7.47425 33.4937 7.57757 33.5218 7.60575Z" fill="#263238"/>
<path d="M31.5803 11.1154C31.3292 11.022 31.0672 10.961 30.8007 10.9338C30.6786 10.915 30.5627 10.8837 30.5439 10.796C30.5408 10.6683 30.5769 10.5427 30.6472 10.436L31.0605 9.4967C31.6366 8.1817 32.0624 7.09525 31.9998 7.07334C31.9372 7.05142 31.4331 8.09716 30.857 9.41529C30.7193 9.72839 30.5846 10.0415 30.4594 10.3546C30.3739 10.501 30.3418 10.6725 30.3686 10.8399C30.3848 10.8846 30.411 10.9251 30.4452 10.9582C30.4793 10.9912 30.5206 11.0161 30.5658 11.0309C30.6331 11.0517 30.7024 11.0653 30.7725 11.0716C31.0388 11.1207 31.3102 11.1354 31.5803 11.1154Z" fill="#263238"/>
<path d="M30.8329 16.8389C32.5254 16.9517 34.2165 16.5999 35.7235 15.8213C35.7235 15.8213 34.4116 18.2227 30.7891 17.7155L30.8329 16.8389Z" fill="#EB996E"/>
<path d="M31.8271 12.4023C31.9251 12.291 32.0498 12.2064 32.1895 12.1565C32.3291 12.1067 32.4792 12.0932 32.6255 12.1174C32.7316 12.1312 32.8339 12.166 32.9263 12.2197C33.0188 12.2735 33.0996 12.3451 33.1641 12.4305C33.223 12.5162 33.2546 12.6177 33.2546 12.7217C33.2546 12.8257 33.223 12.9272 33.1641 13.0129C33.0809 13.0949 32.9754 13.1509 32.8608 13.1737C32.7462 13.1965 32.6274 13.1852 32.5191 13.1412C32.2938 13.048 32.0894 12.9106 31.9179 12.7373C31.8645 12.6966 31.8197 12.6455 31.7864 12.5871C31.7678 12.561 31.7578 12.5298 31.7578 12.4978C31.7578 12.4658 31.7678 12.4346 31.7864 12.4086" fill="#EB996E"/>
<path d="M33.4892 6.4127C33.5518 6.53794 34.0277 6.4127 34.6007 6.4127C35.1736 6.4127 35.6495 6.51915 35.7122 6.39391C35.7403 6.33129 35.6464 6.21858 35.446 6.11212C35.1826 5.98231 34.8928 5.91479 34.5991 5.91479C34.3054 5.91479 34.0156 5.98231 33.7522 6.11212C33.5581 6.23736 33.461 6.35008 33.4892 6.4127Z" fill="#263238"/>
<path d="M28.8675 6.12157C28.9458 6.23428 29.287 6.12157 29.6878 6.15288C30.0886 6.18419 30.4267 6.26559 30.5113 6.15288C30.5488 6.09965 30.5113 5.98694 30.3578 5.87422C30.1663 5.73635 29.9364 5.6619 29.7003 5.66132C29.4638 5.65172 29.2302 5.7175 29.0334 5.84917C28.8675 5.95563 28.8237 6.06521 28.8675 6.12157Z" fill="#263238"/>
<path d="M33.6618 12.4337C33.3351 12.5829 32.9879 12.6821 32.6317 12.728C32.2867 12.8263 31.929 12.8727 31.5703 12.8657C31.8963 12.7141 32.2438 12.6138 32.6004 12.5683C32.945 12.4684 33.3031 12.423 33.6618 12.4337Z" fill="#263238"/>
<path d="M41.7979 44.4288C41.7979 44.648 43.3196 48.7402 43.3196 48.7402C43.3196 48.7402 46.5382 56.2545 45.7868 63.5934C45.5238 66.1608 42.9376 82.2383 42.9376 82.2383C42.9376 82.2383 42.014 94.1359 41.6477 99.2958C41.2563 104.769 41.1498 106.719 41.1498 106.719L34.6656 106.926L33.3475 83.9791L32.1483 65.5065L25.4888 88.6349C25.4888 88.6349 23.9014 95.6451 23.0341 98.607C22.1668 101.569 20.2162 107.862 20.2162 107.862L14.1484 106.976C14.1484 106.976 14.8028 95.9425 15.3789 93.2687C15.955 90.5948 17.8837 80.9984 17.8837 80.9984L19.5838 71.6651L21.381 56.4736L22.9621 50.6344L24.9252 44.0281L41.7979 44.4288Z" fill="#263238"/>
<path d="M31.2127 60.4501C31.1689 60.4501 30.8996 57.9829 30.6492 54.9333C30.3987 51.8838 30.2046 49.4103 30.2484 49.4041C30.2922 49.3978 30.5615 51.8713 30.812 54.9208C31.0624 57.9704 31.2566 60.447 31.2127 60.4501Z" fill="#455A64"/>
<path d="M42.7662 50.6658C42.7002 50.7536 42.621 50.8307 42.5314 50.8943C42.3006 51.0822 42.0484 51.2419 41.78 51.3703C40.8859 51.8146 39.8647 51.9326 38.8928 51.7039C37.9209 51.4753 37.0595 50.9143 36.4573 50.1179C36.2754 49.8827 36.121 49.6274 35.9971 49.357C35.945 49.2591 35.9091 49.1533 35.8906 49.0439C36.0847 49.3927 36.3045 49.7266 36.5481 50.0427C37.1529 50.7946 37.991 51.3236 38.93 51.5458C39.869 51.7681 40.8553 51.6711 41.733 51.2701C42.0915 51.0938 42.4368 50.8918 42.7662 50.6658Z" fill="#455A64"/>
<path d="M31.6636 50.027C31.6636 50.027 31.7043 49.9863 31.8045 49.9738C31.9486 49.9649 32.0904 50.0133 32.199 50.1084C32.2866 50.177 32.3507 50.271 32.3827 50.3775C32.4146 50.484 32.4128 50.5978 32.3775 50.7033C32.3346 50.8347 32.2505 50.9489 32.1378 51.0289C32.025 51.109 31.8896 51.1507 31.7513 51.1479C31.6153 51.1381 31.4853 51.0874 31.3786 51.0025C31.2719 50.9176 31.1934 50.8023 31.1533 50.672C31.1209 50.5678 31.1162 50.4569 31.1398 50.3504C31.1635 50.2438 31.2145 50.1453 31.2879 50.0646C31.3808 49.9575 31.5061 49.8838 31.6449 49.8548C31.7419 49.836 31.7951 49.8548 31.7951 49.8548C31.6341 49.9106 31.4905 50.0078 31.3787 50.1366C31.3253 50.2041 31.2899 50.2839 31.2757 50.3688C31.2614 50.4536 31.2689 50.5407 31.2973 50.6219C31.3312 50.7198 31.3927 50.8059 31.4744 50.8698C31.556 50.9336 31.6543 50.9726 31.7576 50.9819C31.8602 50.9807 31.9601 50.9482 32.044 50.889C32.1278 50.8297 32.1917 50.7464 32.2272 50.6501C32.2561 50.5708 32.2609 50.4847 32.2408 50.4028C32.2207 50.3209 32.1768 50.2467 32.1145 50.1898C31.9893 50.082 31.8288 50.0241 31.6636 50.027Z" fill="#455A64"/>
<path d="M26.1571 49.4854C26.1576 49.6919 26.1127 49.8961 26.0256 50.0834C25.8401 50.549 25.5485 50.965 25.174 51.2982C24.7995 51.6314 24.3524 51.8726 23.8683 52.0026C23.672 52.0683 23.4635 52.0897 23.2578 52.0653C23.2578 52.0371 23.4864 52.0089 23.837 51.8931C24.2898 51.7378 24.7071 51.494 25.0646 51.1758C25.422 50.8575 25.7125 50.4713 25.9191 50.0395C25.9887 49.8508 26.0682 49.6658 26.1571 49.4854Z" fill="#455A64"/>
<path d="M24.1988 22.7407C23.1666 23.7366 22.3456 24.9303 21.7848 26.2505C20.6796 29.034 16.4904 38.5427 16.4152 40.1802C16.3401 41.8177 16.1021 43.5272 17.27 43.8371C18.4378 44.1471 22.7993 43.9937 22.7993 43.9937L34.3212 39.1657L33.4633 34.2689L23.056 36.9208C23.056 36.9208 22.0979 31.9833 23.1092 29.8136C24.1205 27.6438 26.7568 21.0469 26.7568 21.0469C26.7568 21.0469 25.0066 21.9267 24.1988 22.7407Z" fill="#455A64"/>
<path d="M30.7414 19.8822C30.7414 19.8822 31.3112 22.8034 33.1616 22.603C35.012 22.4026 37.4729 19.0368 37.4729 19.0368C37.4729 19.0368 42.0285 18.1758 43.4875 19.3499C44.9465 20.524 43.6566 29.7666 43.3278 33.3954C42.9991 37.0242 42.4981 41.2385 42.4981 41.2385C42.4981 41.2385 43.4186 45.3619 43.0272 46.0695C41.9533 48.0139 33.9475 49.6075 27.219 49.3758C25.6817 49.3226 23.4462 47.1842 23.3147 46.7302C23.1832 46.2762 23.0517 45.268 23.7468 44.5385C24.4419 43.809 22.5852 34.2533 22.5852 34.2533C22.5852 34.2533 22.1719 31.4824 22.8075 30.2864C23.4431 29.0903 26.765 21.0344 26.765 21.0344C28.0237 20.4051 29.3136 20.2892 30.7414 19.8822Z" fill="#455A64"/>
<path d="M33.5625 35.0704C33.5625 35.0704 38.763 34.6665 39.3047 35.0704C39.8463 35.4743 43.3123 39.2596 43.4 39.6197C43.451 39.8876 43.451 40.1627 43.4 40.4306C43.4 40.4306 44.3925 41.3292 44.0763 41.5546C43.76 41.78 43.4908 41.5546 43.1777 41.5546C42.8646 41.5546 42.1852 40.5214 42.1852 40.5214L43.1244 42.2872C43.1244 42.2872 42.6298 42.2872 42.2259 42.2872C41.822 42.2872 40.8295 40.7437 40.8295 40.7437L39.8369 39.6197L41.3241 42.2904C41.3241 42.2904 41.1895 42.9729 40.698 42.6911C40.2064 42.4093 38.5345 40.7906 38.5345 40.7906C38.5345 40.7906 35.654 38.0448 35.5632 37.547L34.1856 38.4362L33.5625 35.0704Z" fill="#FFBE9D"/>
<path d="M23.5443 36.924C23.5443 36.924 22.7741 35.0454 22.4861 35.0736C22.198 35.1017 20.8298 36.0504 21.0176 36.7079C21.2055 37.3654 22.5831 37.1682 22.5831 37.1682L23.5443 36.924Z" fill="#FFBE9D"/>
<path d="M38.2121 22.268C38.2999 21.7451 38.4945 21.2458 38.7839 20.8015C39.0733 20.3571 39.4511 19.9772 39.8939 19.6854C40.3367 19.3937 40.8349 19.1964 41.3573 19.1058C41.8798 19.0152 42.4153 19.0333 42.9305 19.159C43.1909 19.2068 43.4388 19.3072 43.659 19.4542C43.8792 19.6012 44.067 19.7916 44.2111 20.0137C45.2224 21.8046 45.2224 25.6964 44.8372 27.3339C44.4521 28.9714 40.7889 41.7019 39.4645 42.6756C38.1401 43.6493 28.0991 47.7165 22.8047 43.9781L34.7931 36.8927L37.8302 24.4284L38.2121 22.268Z" fill="#455A64"/>
<path d="M43.2325 32.9163C43.226 32.9545 43.2166 32.9922 43.2043 33.029L43.1136 33.3421L42.741 34.5945C42.406 35.6684 41.9207 37.2213 41.2475 39.1156C41.0784 39.5883 40.8968 40.083 40.6933 40.5934C40.4966 41.1383 40.247 41.6626 39.9482 42.1589C39.5337 42.6228 39.0244 42.9923 38.4547 43.2422C37.8694 43.5255 37.2671 43.7723 36.6513 43.9811C35.3989 44.4163 34.0432 44.7795 32.6342 45.1145C31.9266 45.2742 31.2159 45.4526 30.477 45.581C29.7269 45.7153 28.966 45.7803 28.2039 45.7751C27.2215 45.7732 26.2458 45.6135 25.314 45.3023C24.8538 45.1427 24.4311 44.9611 23.9897 44.7732C23.5741 44.5447 23.2097 44.2336 22.9189 43.859L22.8594 43.7838L22.947 43.74C25.5864 42.4031 27.8814 40.9472 29.879 39.7605C31.8765 38.5739 33.5547 37.6002 34.7727 36.8894L34.7539 36.9145C34.9856 36.0378 35.1672 35.349 35.2924 34.8919C35.3488 34.6696 35.3926 34.4943 35.4208 34.369L35.4521 34.2344C35.4521 34.2062 35.4521 34.1906 35.4521 34.1906C35.4385 34.4316 35.3965 34.6702 35.3269 34.9013C35.2204 35.3647 35.0513 36.0504 34.8228 36.9333V36.9489H34.8071L29.9416 39.8607C27.9503 41.0599 25.6616 42.5252 23.0159 43.8715L23.041 43.7556C23.3178 44.1099 23.6641 44.404 24.0585 44.6198C24.4718 44.7951 24.9195 44.9861 25.361 45.1395C26.2768 45.4446 27.2355 45.601 28.2008 45.6029C28.9533 45.6074 29.7047 45.5435 30.4457 45.4119C31.1752 45.2836 31.8922 45.0988 32.5935 44.9485C33.9993 44.6198 35.3456 44.2566 36.598 43.8308C37.2084 43.6259 37.8055 43.3833 38.3858 43.1044C38.9344 42.8672 39.4255 42.5148 39.826 42.0712C40.121 41.5902 40.3685 41.0816 40.565 40.5527C40.7737 40.0455 40.9605 39.5549 41.1254 39.0811C41.8142 37.2025 42.3152 35.6371 42.6658 34.5819L43.0697 33.3546C43.1136 33.22 43.1511 33.1135 43.1762 33.0415C43.1898 32.9976 43.2087 32.9556 43.2325 32.9163Z" fill="#263238"/>
<path d="M33.5583 35.0706C33.391 35.1249 33.2191 35.1636 33.0448 35.1864L31.6327 35.44C30.4398 35.6498 28.7929 35.9316 26.977 36.276C25.161 36.6204 23.5329 36.9554 22.3526 37.2466C21.892 37.3629 21.4457 37.5299 21.0219 37.7444C20.7276 37.9041 20.5773 38.0199 20.571 38.0074C20.5648 37.9949 20.5992 37.9698 20.6681 37.9135C20.7681 37.8334 20.8726 37.7592 20.9812 37.6912C21.399 37.4499 21.8463 37.2636 22.3119 37.137C23.486 36.8239 25.1297 36.4607 26.9394 36.1132C28.7491 35.7656 30.4085 35.5058 31.6045 35.3242C32.2025 35.2365 32.6878 35.1676 33.026 35.1238C33.2019 35.0933 33.3798 35.0755 33.5583 35.0706Z" fill="#263238"/>
<path d="M26.0869 23.533C26.015 23.704 25.9302 23.8694 25.8333 24.0277L25.1069 25.3489C24.2845 26.7896 23.62 28.3148 23.125 29.8982C22.6461 31.4872 22.5442 33.166 22.8276 34.8013C22.9237 35.2934 23.0652 35.7755 23.2503 36.2415C23.3289 36.4082 23.3969 36.5797 23.4538 36.755C23.4225 36.7185 23.3971 36.6773 23.3787 36.6329C23.3087 36.5147 23.2459 36.3924 23.1908 36.2666C22.9808 35.8039 22.8212 35.32 22.7149 34.8232C22.3916 33.1711 22.4787 31.465 22.9685 29.8544C23.4632 28.2578 24.1475 26.7263 25.0067 25.2926C25.3198 24.7384 25.5922 24.2969 25.7832 23.9932C25.8726 23.8323 25.9741 23.6784 26.0869 23.533Z" fill="#263238"/>
<path d="M31.2817 44.9487C31.2535 44.9487 31.2817 44.6356 31.2316 44.1722C31.1717 43.5528 31.0066 42.9482 30.7432 42.3844C30.4722 41.8256 30.1104 41.3157 29.6724 40.8753C29.3311 40.5403 29.0838 40.3712 29.1026 40.3462C29.3426 40.456 29.5618 40.6064 29.7507 40.7908C30.2278 41.2178 30.6151 41.7357 30.8898 42.3142C31.1645 42.8926 31.3211 43.52 31.3506 44.1597C31.3736 44.4247 31.3503 44.6917 31.2817 44.9487Z" fill="white"/>
<path d="M36.2475 43.9498C36.2162 43.9498 36.2287 43.549 36.1316 42.9166C36.0731 42.547 35.9851 42.1826 35.8686 41.827C35.7216 41.3939 35.5361 40.9747 35.3145 40.5746C35.086 40.1776 34.8231 39.8014 34.5286 39.4506C34.2834 39.1672 34.0165 38.9034 33.7302 38.6616C33.2418 38.2514 32.8911 38.0573 32.9068 38.0354C32.9961 38.0639 33.0813 38.1039 33.1604 38.1544C33.3804 38.279 33.5898 38.4214 33.7866 38.5802C34.0904 38.8128 34.3714 39.0738 34.6257 39.3598C34.9347 39.7113 35.2075 40.0931 35.4397 40.4995C35.668 40.9087 35.8547 41.3398 35.997 41.7863C36.1085 42.1522 36.1871 42.5273 36.2318 42.9072C36.2632 43.1616 36.2737 43.4181 36.2631 43.6743C36.2702 43.7664 36.265 43.859 36.2475 43.9498Z" fill="white"/>
<path d="M41.2383 38.7212C41.2164 38.74 40.9847 38.4081 40.5338 37.951C40.2693 37.6823 39.9846 37.4343 39.6822 37.2089C39.3125 36.9362 38.9196 36.6963 38.5081 36.492C38.0929 36.2917 37.6613 36.1273 37.2182 36.0004C36.8558 35.8989 36.4863 35.8246 36.1129 35.7781C35.4867 35.6998 35.0703 35.7217 35.0703 35.6936C35.1616 35.6658 35.2567 35.6531 35.3521 35.656C35.6095 35.6358 35.8681 35.6358 36.1254 35.656C36.5079 35.6877 36.8871 35.7516 37.2589 35.847C37.7136 35.9693 38.156 36.1339 38.5801 36.3385C39.0005 36.5485 39.4 36.798 39.773 37.0837C40.0769 37.3185 40.3598 37.5794 40.6184 37.8633C40.7937 38.0529 40.9539 38.256 41.0974 38.4707C41.1569 38.5465 41.2045 38.631 41.2383 38.7212Z" fill="white"/>
<path d="M43.2652 33.2483C42.6 32.666 41.8636 32.1705 41.0736 31.7736C40.2644 31.4266 39.4159 31.1795 38.5469 31.0378C38.8081 31.0092 39.0723 31.0219 39.3296 31.0754C40.601 31.2656 41.7893 31.8227 42.7486 32.6785C42.9497 32.84 43.1241 33.0324 43.2652 33.2483Z" fill="white"/>
<path d="M44.5442 27.744C44.448 27.5984 44.3612 27.4467 44.2843 27.29C43.8489 26.5761 43.1546 26.0578 42.3463 25.8435C42.1734 25.8153 42.0029 25.7745 41.8359 25.7214C42.0122 25.6814 42.1951 25.6814 42.3713 25.7214C42.8003 25.7991 43.2054 25.9753 43.5547 26.2361C43.904 26.4969 44.1881 26.8351 44.3845 27.2243C44.4808 27.3813 44.5358 27.5601 44.5442 27.744Z" fill="white"/>
<path d="M22.5038 31.2696C22.048 31.1084 21.5689 31.0228 21.0855 31.016C20.6051 31.0607 20.1354 31.1845 19.6953 31.3823C19.6953 31.3666 19.8049 31.2476 20.0491 31.1193C20.3688 30.956 20.7205 30.8652 21.0792 30.8531C21.4379 30.8368 21.7958 30.8988 22.1281 31.0347C22.3817 31.1443 22.5132 31.2539 22.5038 31.2696Z" fill="white"/>
<path d="M25.0128 25.2048C24.6092 25.0047 24.1773 24.8675 23.7322 24.7978C23.2829 24.7788 22.8333 24.8273 22.3984 24.9418C22.3984 24.9418 22.5174 24.8322 22.7585 24.7477C23.0764 24.6395 23.4138 24.6011 23.7479 24.635C24.0796 24.6719 24.3997 24.7786 24.6872 24.9481C24.9189 25.0702 25.0253 25.1892 25.0128 25.2048Z" fill="white"/>
<path d="M21.8901 37.0337C21.8901 37.0619 21.5176 37.1589 20.9321 37.3875C20.171 37.6897 19.4514 38.0874 18.7905 38.571C18.1316 39.0575 17.5381 39.6268 17.0246 40.2648C16.6301 40.7533 16.4266 41.0883 16.3984 41.0758C16.4243 40.9864 16.4644 40.9018 16.5174 40.8253C16.6417 40.608 16.7798 40.3988 16.9307 40.1991C17.9282 38.8537 19.307 37.8392 20.8882 37.2873C21.1247 37.2033 21.3663 37.1343 21.6115 37.0807C21.702 37.0531 21.7956 37.0374 21.8901 37.0337Z" fill="white"/>
<path d="M23.5799 43.0107C23.5799 43.0107 23.5204 42.9449 23.4421 42.8072C23.3293 42.607 23.234 42.3975 23.1572 42.181C22.63 40.7715 22.6704 39.2124 23.2699 37.8321C23.3595 37.6263 23.4641 37.4275 23.583 37.2372C23.6707 37.1026 23.7239 37.0337 23.7333 37.0399C23.7427 37.0462 23.5768 37.353 23.3733 37.8759C22.8474 39.2435 22.8087 40.7506 23.2637 42.1434C23.439 42.6976 23.6049 43.0107 23.5799 43.0107Z" fill="white"/>
<path d="M29.8469 39.8484C29.65 39.7719 29.471 39.6558 29.3209 39.5072C28.9393 39.1663 28.6369 38.7462 28.4346 38.2762C28.2323 37.8062 28.1352 37.2978 28.1499 36.7863C28.1414 36.5722 28.1788 36.3587 28.2595 36.1602C28.2708 36.3687 28.2708 36.5778 28.2595 36.7863C28.2965 37.7767 28.7031 38.7172 29.3991 39.4226C29.6653 39.6887 29.8625 39.8234 29.8469 39.8484Z" fill="white"/>
<path d="M26.34 21.0938C26.3682 21.0593 26.6375 21.2848 26.7314 21.6887C26.8253 22.0926 26.6938 22.415 26.6531 22.3963C26.6124 22.3775 26.6531 22.0832 26.5749 21.7262C26.4966 21.3693 26.3056 21.1251 26.34 21.0938Z" fill="white"/>
<path d="M44.8644 23.9399C44.8425 23.9399 44.7142 23.7709 44.4574 23.5329C44.1216 23.2257 43.7254 22.9918 43.2941 22.8463C42.8629 22.7007 42.406 22.6467 41.9526 22.6876C41.7642 22.7233 41.574 22.7495 41.3828 22.7658C41.5501 22.6599 41.7399 22.5945 41.937 22.5748C42.4108 22.4947 42.8971 22.5334 43.3522 22.6876C43.8072 22.841 44.2177 23.1032 44.5482 23.4515C44.6898 23.5878 44.798 23.755 44.8644 23.9399Z" fill="white"/>
<path d="M37.4202 31.8487C37.9271 31.1644 38.558 30.5814 39.28 30.1298C41.2712 28.8774 42.3702 26.5918 41.4716 24.9011C40.1128 22.3776 44.0734 20.9811 43.2062 19.0368C42.7209 17.9504 42.3076 17.966 41.8129 16.8827C41.0395 15.192 41.3714 13.232 41.4184 11.3722C41.5061 7.66831 40.7202 3.17225 37.5611 0.886652C37.5625 0.895988 37.5625 0.905496 37.5611 0.914832C37.1788 0.672593 36.7728 0.470112 36.3494 0.310557C36.0336 0.18131 35.7036 0.0898762 35.3663 0.0381624C34.9643 0.00478884 34.5609 -0.0067085 34.1577 0.00372163H33.7319C33.4647 -0.00350695 33.1974 0.0143124 32.9335 0.0569474C32.6903 0.114554 32.4667 0.235545 32.2854 0.407616L31.8815 1.25297C30.9835 1.39644 30.1426 1.78545 29.4519 2.37699C28.3091 3.34132 27.5576 4.67825 26.8281 5.98386C28.267 5.43604 29.5756 4.59354 30.6698 3.5104C30.5321 3.73896 30.3912 3.96439 30.2503 4.18982C30.6315 4.24319 31.02 4.20797 31.3854 4.08688C31.7508 3.96579 32.0835 3.76209 32.3574 3.49161C32.7486 3.11787 33.0839 2.68976 33.353 2.22044C33.5275 3.18706 34.0444 4.05848 34.8089 4.67511C35.4917 5.22368 36.2697 5.64185 37.1039 5.90871C37.093 6.09119 37.093 6.27415 37.1039 6.45663C37.2073 8.48862 38.6694 10.4736 38.0432 12.4055C37.5736 13.8269 36.0738 14.7411 35.6887 16.1845C35.3036 17.6279 36.1553 19.1308 36.1333 20.6336C36.102 22.7376 34.4082 24.4095 33.6286 26.3727C32.6454 28.9087 32.2823 32.7692 33.7601 35.0517L35.1158 34.964L37.4202 31.8487Z" fill="#263238"/>
<path d="M30.2344 3.44477C30.4243 3.39156 30.5998 3.29632 30.7479 3.16611C31.5169 2.59971 32.0578 1.77672 32.2726 0.846073C32.3311 0.658911 32.3482 0.46127 32.3227 0.266846C32.2664 0.266846 32.163 1.14978 31.565 2.04523C31.1859 2.56903 30.7384 3.03972 30.2344 3.44477Z" fill="#455A64"/>
<path d="M27.0693 11.795C27.0849 11.795 27.016 11.6165 26.9534 11.2909C26.877 10.8296 26.856 10.3608 26.8908 9.89451C26.9284 9.29962 26.9879 8.5889 27.0693 7.80616C27.1537 6.95883 27.3129 6.12063 27.5452 5.30139C27.7798 4.48546 28.156 3.71712 28.6567 3.03144C29.0774 2.47948 29.5631 1.98015 30.1032 1.54424C30.5634 1.16539 30.9611 0.893 31.2366 0.702012C31.3859 0.60953 31.5273 0.504805 31.6593 0.388916C31.4984 0.455497 31.3443 0.537272 31.199 0.63313C30.7916 0.876017 30.3995 1.1437 30.0249 1.43466C29.4625 1.86316 28.9584 2.3631 28.5252 2.92186C28.0026 3.61719 27.6121 4.4025 27.373 5.23877C27.1358 6.06931 26.9785 6.92063 26.9033 7.78111C26.8313 8.57011 26.7843 9.27771 26.7656 9.87885C26.7394 10.3549 26.7795 10.8322 26.8845 11.2972C26.9171 11.4229 26.9579 11.5463 27.0066 11.6666C27.0214 11.7122 27.0424 11.7554 27.0693 11.795Z" fill="#455A64"/>
<path d="M41.0105 9.82236C41.0326 9.67208 41.0378 9.51981 41.0262 9.36837C41.0073 8.95726 40.9465 8.54916 40.8446 8.15043C40.4851 6.83674 39.8702 5.60682 39.0349 4.53104C38.0956 3.25048 37.053 2.25483 36.4174 1.44704C36.1615 1.1321 35.9252 0.801676 35.7098 0.457659C35.6414 0.323194 35.5607 0.195329 35.4688 0.0756836C35.5126 0.221179 35.5736 0.360959 35.6503 0.492099C35.844 0.854147 36.0671 1.19971 36.3172 1.52532C36.9434 2.36441 37.961 3.37258 38.8909 4.63749C39.7107 5.69847 40.3312 6.89931 40.7225 8.18174C40.8592 8.72069 40.9554 9.26909 41.0105 9.82236Z" fill="#455A64"/>
<path d="M53.5547 56.627L53.73 63.4086L55.7338 84.4612C55.7338 84.4612 55.1076 94.7182 54.6912 100.507C54.3374 105.536 55.355 114.249 55.355 114.249L63.8086 114.03L66.0785 84.8181L67.4843 66.6022L70.3429 57.0778L53.5547 56.627Z" fill="#263238"/>
<path d="M74.4714 58.1674L75.0475 87.8238L67.0573 110.079L66.7003 111.416L61.6094 110.326L64.0828 56.627L74.4714 58.1674Z" fill="#263238"/>
<path d="M67.3813 63.033C67.3861 63.0767 67.3861 63.1208 67.3813 63.1645C67.3813 63.2615 67.3813 63.3899 67.3813 63.5527C67.3813 63.9034 67.3813 64.4043 67.3813 65.0462C67.3813 66.3393 67.3437 68.2147 67.2842 70.5285C67.1464 75.156 66.8365 81.5495 66.276 88.5878C65.7156 95.6262 65.0863 101.988 64.6166 106.588C64.3755 108.883 64.1814 110.739 64.0468 112.036C63.9748 112.662 63.9216 113.169 63.884 113.517C63.8621 113.679 63.8464 113.805 63.837 113.899C63.8331 113.943 63.8258 113.987 63.8151 114.03C63.8116 113.986 63.8116 113.942 63.8151 113.899C63.8151 113.801 63.8308 113.676 63.8464 113.51C63.8777 113.163 63.9216 112.665 63.9779 112.029C64.1032 110.73 64.291 108.87 64.4977 106.575C64.9423 101.973 65.5653 95.6169 66.1132 88.5722C66.6611 81.5275 67.0024 75.1498 67.1652 70.5254C67.2404 68.2116 67.2936 66.3393 67.3155 65.043C67.3155 64.4168 67.3406 63.9034 67.3468 63.5527C67.3468 63.3899 67.3468 63.2615 67.3468 63.1645C67.354 63.1196 67.3656 63.0756 67.3813 63.033Z" fill="#455A64"/>
<path d="M59.9887 58.3646C59.9961 58.4698 59.9866 58.5755 59.9605 58.6777C59.9125 58.9582 59.8392 59.2338 59.7413 59.5011C59.4211 60.3951 58.8712 61.1889 58.1468 61.8029C57.4224 62.4168 56.5491 62.8291 55.6147 62.9984C55.3349 63.0505 55.0509 63.0767 54.7662 63.0767C54.6613 63.0845 54.5559 63.0771 54.4531 63.0547C54.4531 63.0234 54.9008 63.0547 55.5928 62.8888C56.5007 62.6985 57.3472 62.2856 58.056 61.6872C58.7648 61.0888 59.3138 60.3236 59.6536 59.4604C59.9041 58.8029 59.9667 58.3583 59.9887 58.3646Z" fill="#455A64"/>
<path d="M67.8237 59.4449C67.8251 59.502 67.8153 59.5589 67.7947 59.6123C67.7742 59.6656 67.7434 59.7144 67.704 59.7558C67.6646 59.7973 67.6174 59.8305 67.5651 59.8537C67.5129 59.8769 67.4566 59.8896 67.3994 59.8911C67.3423 59.8925 67.2854 59.8827 67.232 59.8621C67.1787 59.8416 67.1299 59.8107 67.0885 59.7713C67.0471 59.7319 67.0138 59.6848 66.9906 59.6325C66.9674 59.5803 66.9547 59.524 66.9533 59.4668C66.9504 59.3514 66.9934 59.2395 67.073 59.1559C67.1525 59.0722 67.2621 59.0236 67.3775 59.0206C67.4929 59.0177 67.6048 59.0608 67.6885 59.1404C67.7721 59.2199 67.8208 59.3295 67.8237 59.4449Z" fill="#455A64"/>
<path d="M74.6844 62.698C74.455 62.5489 74.2492 62.3663 74.0738 62.1563C73.1717 61.1745 72.583 59.946 72.3831 58.6277C72.3279 58.359 72.3142 58.0834 72.3424 57.8105C72.3674 57.8105 72.3956 58.1236 72.4927 58.6089C72.7501 59.887 73.3226 61.0805 74.1584 62.0812C74.4808 62.4663 74.7063 62.6792 74.6844 62.698Z" fill="#455A64"/>
<path d="M65.9688 22.3147C66.047 22.3742 69.9764 24.5064 71.0503 25.9685C72.1242 27.4307 74.0122 34.109 74.0122 34.109C74.164 34.0937 74.3168 34.127 74.4484 34.204C74.5801 34.2811 74.6839 34.3981 74.7448 34.538C74.7955 34.6865 74.8117 34.8446 74.7922 35.0003C74.7726 35.156 74.7179 35.3052 74.6321 35.4366L71.116 36.3758L65.9688 22.3147Z" fill="#5F2B38"/>
<path d="M57.4212 19.3779C57.4212 19.3779 50.9369 23.4638 50.4047 26.3036C49.8724 29.1434 50.3389 34.5099 50.6927 36.3759C50.8649 37.2714 51.9451 42.6097 52.5525 47.9104C53.1975 53.6463 53.0785 60.9696 53.0785 60.9696H75.0297C74.5037 55.8066 73.7335 51.2135 72.6095 47.4407L71.2757 31.3664L68.079 24.2622L65.6493 22.0267L57.4212 19.3779Z" fill="#5F2B38"/>
<path d="M58.0126 60.9695C57.9948 60.8956 57.9853 60.82 57.9845 60.7441C57.9845 60.5781 57.9532 60.3621 57.9312 60.0928C57.8874 59.5261 57.8342 58.7058 57.7778 57.6914C57.6745 55.6469 57.5305 52.8509 57.3739 49.7638C57.2174 46.6767 57.0326 43.8682 56.8573 41.8456C56.7696 40.8343 56.6945 40.0171 56.635 39.4504C56.61 39.1811 56.588 38.9651 56.5755 38.7992C56.5686 38.7242 56.5686 38.6487 56.5755 38.5737C56.5991 38.6458 56.6138 38.7204 56.6194 38.796C56.6413 38.962 56.6726 39.1749 56.7102 39.4441C56.7884 40.0077 56.8824 40.8249 56.9826 41.8362C57.1892 43.8588 57.3896 46.6579 57.5493 49.7544C57.7089 52.8509 57.8185 55.6562 57.9062 57.6851C57.9469 58.687 57.9813 59.5042 58.0064 60.0897C58.0064 60.3589 58.022 60.5781 58.0283 60.7409C58.0307 60.8174 58.0254 60.894 58.0126 60.9695Z" fill="#263238"/>
<g opacity="0.3">
<path d="M68.0534 45.4964C63.5443 42.5246 59.8082 38.5212 57.1545 33.8179L54.7656 34.992C55.5105 38.6262 57.1616 42.0133 59.5654 44.8389C60.6268 46.0912 61.8541 47.2246 63.3225 47.9166C64.791 48.6085 66.5725 48.8152 68.0816 48.189C68.6107 47.9729 69.1555 47.5628 69.19 46.9992C69.2432 46.3386 68.6076 45.8595 68.0534 45.4964Z" fill="black"/>
</g>
<path d="M54.4531 35.6401C54.4531 35.6401 63.2887 46.6141 64.6037 47.0306C65.9187 47.447 67.8568 48.2078 69.1029 47.7914C70.349 47.375 71.8707 47.0994 72.8381 45.6467C73.8056 44.1939 75.6247 40.8031 75.6247 40.8031C75.6247 40.8031 73.433 37.8318 72.6471 38.0353C72.6471 38.0353 69.2563 39.6258 68.5769 39.8325C67.8975 40.0391 63.0946 33.6801 63.0946 33.6801L62.03 31.8767L54.4531 35.6401Z" fill="#E1957A"/>
<path d="M62.3971 34.1341C62.5853 33.9924 62.8022 33.8935 63.0325 33.8443C63.2629 33.7951 63.5012 33.7968 63.7309 33.8492C64.451 34.0402 65.3747 34.5818 65.4373 34.7102C65.4719 34.8458 65.4719 34.9879 65.4373 35.1235C65.4373 35.1235 66.2012 35.3771 66.3296 35.6964C66.4222 36.0016 66.4758 36.3172 66.4893 36.6357C66.4893 36.6357 67.1906 36.858 67.3816 37.2619C67.4865 37.5941 67.4865 37.9505 67.3816 38.2826C67.3816 38.2826 68.2082 38.4736 68.3052 38.8211C68.3565 39.1321 68.3565 39.4494 68.3052 39.7604C68.3052 39.7604 66.4266 39.7917 66.076 39.3722C65.8621 39.0876 65.7596 38.7346 65.7879 38.3797L66.7554 38.2482L64.833 38.0603C64.833 38.0603 63.6244 38.029 63.5806 36.9144C63.5806 36.9144 62.4315 36.5637 62.4002 36.1504C62.377 35.9706 62.377 35.7886 62.4002 35.6088L63.5806 35.1329C63.5806 35.1329 62.2593 35.208 62.3971 34.1341Z" fill="#E1957A"/>
<path d="M74.0291 35.2644C74.0291 35.2644 76.9722 39.0873 77.7863 43.2421C77.7863 43.2421 78.4437 46.085 77.5389 47.1213C76.6341 48.1577 73.8381 49.194 71.0547 47.1213L71.8844 38.5738L71.6903 36.2381L74.0291 35.2644Z" fill="#E1957A"/>
<path d="M75.6215 41.16C75.6215 41.16 75.5777 40.252 75.6215 39.0873C75.6654 37.9225 73.6209 35.4397 73.6209 35.4397L71.6953 36.2381L71.8675 38.2983L75.6215 41.16Z" fill="#E1957A"/>
<path d="M54.2129 22.5183C54.2129 22.5183 58.1423 21.3943 59.952 24.4501C61.1626 26.5953 62.1649 28.8516 62.9452 31.188C62.9452 31.188 63.443 31.188 63.6309 32.1272C63.8187 33.0665 63.6309 33.3796 63.6309 33.3796L63.0704 33.6927C63.0704 33.6927 62.5632 32.8192 62.0059 32.8818C61.4486 32.9444 53.712 35.9251 53.712 35.9251L50.5309 33.1824C50.5309 33.1824 48.8496 25.5115 54.2129 22.5183Z" fill="#5F2B38"/>
<path d="M53.4143 35.6714L53.4895 35.7277L53.7212 35.9124H53.7055C54.2284 35.6933 55.4182 35.2205 57.0807 34.5787C57.9104 34.2656 58.856 33.8961 59.8986 33.511C60.4214 33.3169 60.9662 33.1165 61.5361 32.9255C61.6801 32.8817 61.8241 32.8316 61.99 32.7971C62.1621 32.7839 62.3335 32.8304 62.4753 32.9286C62.7458 33.116 62.9714 33.3608 63.136 33.6456L63.0264 33.6143L63.59 33.3012L63.5587 33.3325C63.62 33.1535 63.6434 32.9638 63.6275 32.7752C63.6193 32.5731 63.5942 32.372 63.5524 32.1741C63.5205 31.9745 63.4549 31.7818 63.3583 31.6042C63.3175 31.5217 63.2591 31.4492 63.1871 31.3918C63.1151 31.3345 63.0314 31.2937 62.9419 31.2724H62.8792L62.8636 31.2223L62.8448 31.1659C62.2728 29.4681 61.5909 27.8094 60.8034 26.2002C60.6187 25.8308 60.434 25.4738 60.2461 25.1294C60.0713 24.7877 59.8736 24.4582 59.6543 24.1432C59.2639 23.5946 58.7446 23.1506 58.1421 22.8501C57.6399 22.6045 57.0983 22.4497 56.5422 22.393C56.1266 22.3434 55.7072 22.334 55.2898 22.3648C55.0232 22.3835 54.7578 22.4159 54.4945 22.4618C54.3129 22.49 54.219 22.5151 54.2159 22.5088C54.237 22.4961 54.2604 22.4876 54.2848 22.4838C54.3514 22.4616 54.4193 22.4439 54.4883 22.4305C54.7501 22.3695 55.0158 22.3266 55.2835 22.3022C55.7092 22.258 56.1384 22.258 56.5641 22.3022C57.1333 22.3504 57.6891 22.501 58.2047 22.7468C58.8278 23.0494 59.3658 23.5024 59.7702 24.0649C59.9919 24.3776 60.1937 24.7038 60.3745 25.0418C60.5623 25.3862 60.7533 25.7431 60.938 26.1157C61.7373 27.7277 62.4266 29.392 63.0013 31.097L63.0201 31.1534L62.9419 31.097C63.0613 31.1156 63.1745 31.1629 63.2715 31.2349C63.3686 31.3069 63.4468 31.4014 63.4992 31.5103C63.6044 31.7058 63.6764 31.9174 63.7121 32.1365C63.7537 32.343 63.7799 32.5523 63.7903 32.7627C63.8076 32.982 63.7755 33.2024 63.6964 33.4077V33.4233H63.6714L63.1109 33.7364L63.0452 33.774L63.0045 33.7083C62.8534 33.4459 62.6472 33.2195 62.4002 33.0445C62.2873 32.9643 62.1501 32.9256 62.012 32.9349C61.869 32.9682 61.7279 33.0089 61.5893 33.057C61.0226 33.2417 60.4778 33.439 59.9549 33.6268L57.1371 34.6695L53.7337 35.9218L53.5145 35.7215C53.4331 35.6964 53.4112 35.6745 53.4143 35.6714Z" fill="#263238"/>
<path d="M62.919 31.3789C62.4305 31.2359 61.9274 31.1488 61.4193 31.119C60.1879 31.1189 58.9705 31.3793 57.8469 31.883C56.5162 32.4403 55.3421 33.0383 54.431 33.3389C54.077 33.4665 53.7151 33.5711 53.3477 33.652C53.2137 33.6874 53.076 33.7074 52.9375 33.7115C53.0649 33.6584 53.197 33.6175 53.332 33.5893C53.5856 33.5173 53.9582 33.4015 54.3934 33.2324C55.2826 32.9193 56.4442 32.2931 57.7874 31.7358C58.9295 31.2213 60.1733 30.9719 61.4255 31.0063C61.8034 31.0288 62.1769 31.0993 62.537 31.2161C62.6343 31.2476 62.7294 31.2853 62.8219 31.3288C62.8877 31.3444 62.919 31.3726 62.919 31.3789Z" fill="#263238"/>
<path d="M70.1837 27.0017C70.2276 27.0017 70.6127 29.4877 71.0448 32.5686C71.4768 35.6494 71.7899 38.1511 71.7461 38.1573C71.7023 38.1636 71.314 35.6713 70.8851 32.5905C70.4561 29.5096 70.1399 27.008 70.1837 27.0017Z" fill="#263238"/>
<path d="M70.9062 47.1215C72.7883 45.9478 74.2462 44.2036 75.0673 42.1432C75.4783 41.1954 75.6493 40.1609 75.5651 39.1312C75.5199 38.618 75.3638 38.1206 75.1075 37.6736C74.8513 37.2265 74.5011 36.8404 74.081 36.5419C73.6538 36.2533 73.1479 36.1035 72.6324 36.113C72.1169 36.1225 71.6168 36.2909 71.2006 36.5952" fill="#E1957A"/>
<path d="M71.2006 36.595C71.3482 36.4449 71.5266 36.3285 71.7234 36.2537C72.2619 36.0325 72.8601 36.0038 73.4173 36.1723C73.8274 36.302 74.2051 36.5176 74.5253 36.8049C74.8455 37.0921 75.1007 37.4443 75.2739 37.838C75.7033 38.8012 75.7959 39.8809 75.5369 40.9032C75.0841 42.74 74.1214 44.4115 72.7598 45.7249C72.3532 46.1223 71.9121 46.4827 71.4416 46.8019C71.2757 46.9147 71.1285 46.9929 71.0503 47.0462C71.0057 47.0774 70.9573 47.1026 70.9062 47.1213C70.9062 47.1213 71.0847 46.9898 71.4041 46.7487C71.8564 46.4134 72.2824 46.0439 72.6784 45.6435C73.2671 45.0515 73.7832 44.3914 74.2157 43.6772C74.7513 42.8063 75.1435 41.8548 75.3773 40.8594C75.6295 39.8721 75.5458 38.8288 75.1393 37.8944C74.977 37.5158 74.7366 37.1756 74.434 36.8962C74.1313 36.6167 73.7732 36.4042 73.3828 36.2725C72.8485 36.1036 72.2736 36.1135 71.7453 36.3007C71.5553 36.3823 71.373 36.4808 71.2006 36.595Z" fill="#B96346"/>
<path d="M68.5469 39.8326C68.7562 39.7292 68.9728 39.6413 69.195 39.5696C69.7132 39.3593 70.2201 39.1221 70.7135 38.8589C71.8657 38.2327 72.7925 37.6942 72.8206 37.7411C72.6457 37.8981 72.4535 38.0346 72.2477 38.1482C71.8813 38.3799 71.3741 38.693 70.7886 39.0029C70.2873 39.273 69.7635 39.4993 69.2232 39.6792C69.007 39.7648 68.7788 39.8165 68.5469 39.8326Z" fill="#B96346"/>
<path d="M62.3916 34.1342C62.3923 34.2883 62.4166 34.4414 62.4636 34.5882C62.539 34.7538 62.6744 34.8847 62.8424 34.9545C63.0719 35.0506 63.3205 35.0924 63.5688 35.0766H63.8162L63.5876 35.1737L62.4135 35.6621L62.4448 35.6246C62.4322 35.7714 62.4322 35.9191 62.4448 36.066C62.4429 36.1356 62.4614 36.2041 62.498 36.2633C62.5444 36.3231 62.5992 36.3759 62.6608 36.4198C62.9504 36.6103 63.2671 36.7559 63.6001 36.8519H63.6439V36.8989C63.644 37.0403 63.6736 37.1802 63.7307 37.3095C63.7878 37.4389 63.8713 37.555 63.9758 37.6503C64.2171 37.842 64.5132 37.9517 64.8212 37.9634L66.7467 38.145L67.4262 38.2107L66.7499 38.3015L65.7824 38.4362L65.8513 38.3641C65.8302 38.6332 65.8867 38.9027 66.0141 39.1406C66.0473 39.1986 66.0861 39.2531 66.1299 39.3034C66.1749 39.347 66.2268 39.383 66.2834 39.4099C66.4144 39.4646 66.5508 39.5055 66.6904 39.532C67.2165 39.6236 67.7501 39.6645 68.284 39.6541L68.2058 39.723C68.2316 39.5541 68.2452 39.3835 68.2465 39.2126C68.2594 39.0557 68.2347 38.8979 68.1744 38.7524C68.0743 38.6349 67.9462 38.5444 67.8019 38.4894C67.6544 38.4247 67.5014 38.3734 67.3447 38.336L67.2665 38.314L67.2884 38.2358C67.4079 37.9044 67.399 37.5402 67.2633 37.2151C67.0545 36.9541 66.7702 36.7638 66.4493 36.6703L66.4023 36.6546V36.6077C66.3933 36.4304 66.3745 36.2537 66.346 36.0785C66.3314 35.9176 66.2823 35.7617 66.2019 35.6214C65.9737 35.4108 65.7007 35.2545 65.4035 35.1643L65.3535 35.1455V35.0954C65.3846 34.9711 65.3846 34.8409 65.3535 34.7166C65.2633 34.632 65.1635 34.5585 65.056 34.4974C64.8487 34.3707 64.6344 34.2557 64.4142 34.153C64.0743 33.9658 63.6987 33.8527 63.3121 33.8211C63.067 33.8281 62.8265 33.8891 62.6076 33.9996C62.4573 34.0716 62.3853 34.1248 62.379 34.1217C62.4393 34.0571 62.5116 34.005 62.592 33.9683C62.8125 33.843 63.0589 33.7702 63.3121 33.7554C63.7112 33.7756 64.1011 33.8825 64.4549 34.0685C64.6811 34.168 64.9007 34.282 65.1124 34.4097C65.1687 34.4411 65.2251 34.4786 65.2814 34.5162C65.3476 34.5553 65.4059 34.6062 65.4536 34.6665C65.4973 34.8157 65.4973 34.9744 65.4536 35.1236L65.4129 35.0547C65.5656 35.105 65.7142 35.1667 65.8575 35.2394C66.0153 35.3158 66.1568 35.4222 66.274 35.5525C66.3737 35.7081 66.4349 35.8852 66.4524 36.0692C66.4833 36.2495 66.5042 36.4313 66.515 36.6139L66.4681 36.5482C66.6363 36.6048 66.7979 36.6793 66.9502 36.7705C67.116 36.8635 67.2584 36.9931 67.3667 37.1493C67.4605 37.323 67.5059 37.5188 67.4982 37.716C67.4953 37.9122 67.4658 38.1071 67.4105 38.2953L67.3541 38.1951C67.5203 38.2367 67.6826 38.2922 67.8394 38.361C68.0122 38.4236 68.1647 38.5318 68.2809 38.6741C68.3317 38.7588 68.3617 38.8543 68.3686 38.9528C68.38 39.042 68.3853 39.132 68.3842 39.222C68.3821 39.4013 68.3674 39.5802 68.3404 39.7574V39.8263H68.2715C67.725 39.8367 67.1788 39.7948 66.6403 39.7011C66.4886 39.6725 66.3406 39.6274 66.1988 39.5664C66.1223 39.5304 66.0524 39.4817 65.9922 39.4224C65.9397 39.3637 65.8936 39.2997 65.8544 39.2314C65.7124 38.9622 65.6505 38.658 65.6759 38.3548V38.2921H65.7417L66.7092 38.1606V38.3172L64.7868 38.1262C64.4419 38.1133 64.1113 37.9855 63.8475 37.763C63.7298 37.6539 63.636 37.5216 63.5719 37.3745C63.5078 37.2274 63.4748 37.0687 63.4749 36.9083L63.5218 36.9709C63.1786 36.8681 62.8533 36.7128 62.5575 36.5106C62.4858 36.4566 62.4225 36.3922 62.3697 36.3196C62.3226 36.2424 62.2987 36.1533 62.3008 36.0629C62.2852 35.9046 62.2852 35.7452 62.3008 35.587V35.5619H62.329L63.5093 35.0954L63.5281 35.18C63.2676 35.1898 63.0083 35.1394 62.7704 35.0328C62.5906 34.951 62.4493 34.8029 62.3759 34.6195C62.3343 34.4596 62.3397 34.2911 62.3916 34.1342Z" fill="#B96346"/>
<g opacity="0.3">
<path d="M53.5 33.5769C55.1751 32.4028 56.7155 31.4885 58.6692 30.8842C59.6854 30.5393 60.7953 30.5987 61.7689 31.0502C59.095 30.7715 56.4995 32.5718 53.6284 33.555" fill="black"/>
</g>
<path d="M60.3021 25.4394C60.036 25.4732 59.7805 25.5652 59.5538 25.7086C59.2923 25.881 59.0633 26.0983 58.8776 26.3505C58.6376 26.6914 58.419 27.0469 58.2232 27.415C57.9824 27.8743 57.6487 28.2784 57.2432 28.6016C56.7592 28.9566 56.1877 29.173 55.59 29.2278C54.9303 29.2925 54.2654 29.179 53.6645 28.8991C52.9987 28.6213 52.469 28.0927 52.1898 27.4275C52.0661 27.076 52.0498 26.6957 52.1429 26.3348C52.2253 25.9788 52.4432 25.6688 52.7503 25.4707C53.0496 25.2806 53.4116 25.2154 53.7584 25.2891C53.9232 25.3301 54.0765 25.4077 54.2072 25.5161C54.3378 25.6245 54.4423 25.7609 54.513 25.9153C54.6523 26.2078 54.6887 26.5388 54.6163 26.8546C54.5493 27.1427 54.4152 27.4108 54.2249 27.6373C53.8859 28.0389 53.4292 28.3237 52.9193 28.4514C52.5559 28.5443 52.1776 28.5645 51.8063 28.5108C51.435 28.4571 51.078 28.3305 50.7558 28.1383C50.5822 28.0346 50.4232 27.9083 50.2831 27.7625C50.2327 27.713 50.1876 27.6585 50.1484 27.5997C50.3386 27.7842 50.5486 27.9469 50.7746 28.085C51.417 28.4379 52.1708 28.5288 52.8786 28.3386C53.3602 28.2123 53.7897 27.9373 54.106 27.5528C54.2814 27.3423 54.4047 27.0934 54.466 26.8264C54.5237 26.5463 54.4886 26.255 54.3658 25.9967C54.305 25.8621 54.2141 25.7432 54.1001 25.6493C53.9861 25.5554 53.8521 25.4889 53.7083 25.455C53.4026 25.3943 53.0853 25.4538 52.8223 25.621C52.5514 25.7979 52.3596 26.0728 52.2869 26.3881C52.2095 26.7166 52.2302 27.0606 52.3464 27.3774C52.6106 28.003 53.1098 28.4999 53.7365 28.7613C54.3112 29.0282 54.9469 29.1363 55.5775 29.0744C56.1499 29.0293 56.6995 28.8302 57.168 28.4983C57.5618 28.1891 57.8879 27.8022 58.1261 27.3618C58.3302 26.9935 58.5582 26.6389 58.8087 26.3004C59.0067 26.0489 59.2498 25.8366 59.5257 25.6742C59.6991 25.5681 59.8916 25.4969 60.0924 25.4644C60.1609 25.4467 60.2314 25.4383 60.3021 25.4394Z" fill="white"/>
<path d="M70.3016 28.2761C70.2455 28.2843 70.1886 28.2843 70.1325 28.2761L69.6503 28.2386C69.0638 28.1645 68.4718 28.1425 67.8813 28.1728C67.4798 28.2086 67.0877 28.3145 66.7229 28.4859C66.3034 28.6772 65.9644 29.0096 65.7648 29.4252C65.6489 29.6436 65.5909 29.8881 65.5964 30.1353C65.6019 30.3825 65.6706 30.6242 65.7961 30.8372C65.9466 31.0512 66.1638 31.209 66.4137 31.2861C66.6636 31.3632 66.9321 31.3551 67.1769 31.2631C67.2939 31.2053 67.3972 31.1232 67.4798 31.0222C67.5624 30.9212 67.6225 30.8037 67.6559 30.6776C67.7211 30.4228 67.7211 30.1558 67.6559 29.9011C67.5214 29.4107 67.2394 28.9735 66.8481 28.6487C66.1753 28.0939 65.3281 27.7945 64.4561 27.8033C63.866 27.8057 63.279 27.89 62.7121 28.0538C62.3082 28.1665 62.0859 28.2479 62.0859 28.2354C62.1335 28.2037 62.1851 28.1784 62.2394 28.1603C62.3427 28.1196 62.493 28.0601 62.6933 27.9943C63.2614 27.8003 63.8559 27.6947 64.4561 27.6812C65.3659 27.6532 66.2554 27.9545 66.9608 28.5297C67.3786 28.8709 67.6796 29.3338 67.8218 29.8541C67.897 30.1351 67.897 30.431 67.8218 30.712C67.7824 30.8608 67.7114 30.9994 67.6136 31.1182C67.5158 31.2371 67.3936 31.3335 67.2551 31.4008C66.9757 31.5094 66.6679 31.5208 66.3811 31.4334C66.0944 31.3459 65.8453 31.1647 65.674 30.9187C65.5334 30.683 65.4564 30.4148 65.4503 30.1405C65.4443 29.8661 65.5095 29.5948 65.6396 29.3532C65.8581 28.913 66.2236 28.563 66.6728 28.3638C67.0534 28.1871 67.4629 28.081 67.8813 28.0507C68.4786 28.0284 69.0766 28.0672 69.666 28.1665L70.145 28.2354C70.1987 28.2425 70.2513 28.2562 70.3016 28.2761Z" fill="white"/>
<path d="M72.5238 29.6663C72.5426 29.6663 72.5238 29.804 72.4142 29.9794C72.2723 30.22 72.0734 30.4222 71.835 30.568C71.5976 30.7162 71.3281 30.8053 71.0491 30.8278C70.8362 30.8278 70.7079 30.8028 70.711 30.784C71.0739 30.7213 71.4247 30.602 71.7505 30.4302C72.0479 30.2191 72.3091 29.9611 72.5238 29.6663Z" fill="white"/>
<path d="M67.3485 23.301C67.3641 23.301 67.3172 23.4294 67.1763 23.5734C66.9871 23.7555 66.751 23.8812 66.4944 23.9365C66.2378 23.9918 65.9708 23.9745 65.7235 23.8865C65.5356 23.8145 65.4417 23.73 65.4542 23.7143C65.7814 23.8042 66.1238 23.8245 66.4593 23.7738C66.7851 23.6793 67.0879 23.5183 67.3485 23.301Z" fill="white"/>
<path d="M56.9119 32.4465C56.4911 32.7903 56.1211 33.1919 55.8129 33.6394C55.5501 34.1155 55.3571 34.6269 55.24 35.1579C55.2013 34.9964 55.2013 34.828 55.24 34.6664C55.3801 33.872 55.8179 33.1609 56.4642 32.6782C56.5938 32.5678 56.7469 32.4886 56.9119 32.4465Z" fill="white"/>
<path d="M61.4537 32.6437C61.2543 32.4227 61.0702 32.1884 60.9027 31.9424C60.6927 31.7311 60.4981 31.5051 60.3203 31.2661C60.606 31.3858 60.8515 31.5846 61.0279 31.8391C61.2449 32.0603 61.3929 32.3399 61.4537 32.6437Z" fill="white"/>
<path d="M70.7996 37.4122C70.7809 37.4342 70.6087 37.2682 70.283 37.0772C69.8615 36.8287 69.3919 36.6729 68.9054 36.6201C68.418 36.5692 67.9254 36.6204 67.4589 36.7704C67.102 36.8894 66.8985 37.0146 66.8828 36.9896C67.0357 36.8466 67.2187 36.7397 67.4182 36.6765C67.8944 36.4846 68.4105 36.4129 68.921 36.4675C69.4315 36.5221 69.9208 36.7014 70.3457 36.9896C70.5268 37.0946 70.682 37.239 70.7996 37.4122Z" fill="white"/>
<path d="M61.9212 44.1815C61.9212 44.2003 61.6613 44.1815 61.2167 44.2974C60.5954 44.4884 60.001 44.7577 59.4477 45.0989C59.0536 45.3268 58.6434 45.5256 58.2204 45.6938C57.7284 45.8867 57.2017 45.9752 56.6737 45.9536C56.0879 45.9314 55.5145 45.7785 54.9955 45.5059C54.4356 45.2123 53.9595 44.7814 53.6116 44.2535C53.2553 43.7327 53.0307 43.1332 52.9572 42.5064C52.9179 42.207 52.9306 41.903 52.9948 41.6079C53.0542 41.3163 53.2043 41.0511 53.4237 40.8502C53.5351 40.7578 53.6657 40.6915 53.8061 40.6563C53.9464 40.6211 54.0929 40.6178 54.2346 40.6467C54.375 40.6633 54.5079 40.7187 54.6185 40.8066C54.7291 40.8946 54.813 41.0115 54.8608 41.1445C54.8928 41.2696 54.8911 41.401 54.8559 41.5252C54.8207 41.6495 54.7533 41.7623 54.6605 41.8521C54.4994 42.0128 54.3017 42.1321 54.0844 42.1996C53.7146 42.3033 53.3245 42.3109 52.951 42.2215C52.6729 42.1634 52.4069 42.0575 52.1651 41.9084C52.013 41.8119 51.8732 41.6973 51.7487 41.5672C51.7046 41.5238 51.6657 41.4755 51.6328 41.4231C51.8086 41.5836 51.9982 41.7282 52.1995 41.8552C52.4394 41.9944 52.7007 42.0928 52.9729 42.1464C53.3288 42.2232 53.6983 42.2081 54.0468 42.1026C54.2428 42.0417 54.4211 41.9342 54.5665 41.7895C54.6441 41.7164 54.7002 41.6235 54.7289 41.5209C54.7576 41.4183 54.7578 41.3098 54.7293 41.2071C54.601 40.7813 53.9028 40.6561 53.5364 40.9879C53.1701 41.3198 53.0574 41.9491 53.1294 42.5127C53.2009 43.1132 53.4157 43.6877 53.7556 44.1878C54.0907 44.6904 54.5459 45.1015 55.08 45.3838C55.5778 45.6461 56.1272 45.7957 56.6893 45.8221C57.7789 45.8879 58.6775 45.3963 59.4007 45.0175C59.9663 44.6793 60.5765 44.4221 61.2136 44.2535C61.3166 44.2301 61.4213 44.2144 61.5266 44.2066C61.6022 44.1945 61.6787 44.1892 61.7552 44.1909C61.8101 44.1829 61.8657 44.1797 61.9212 44.1815Z" fill="white"/>
<path d="M74.0274 55.4872C73.943 55.5701 73.8507 55.6446 73.7519 55.7095C73.4708 55.9034 73.1613 56.0524 72.8345 56.151C72.2324 56.3393 71.5901 56.3585 70.9778 56.2067C70.3655 56.0548 69.8066 55.7377 69.3623 55.29C69.0659 54.9915 68.8234 54.6441 68.6453 54.263C68.4426 53.8492 68.355 53.3885 68.3917 52.9292C68.4108 52.6838 68.4835 52.4454 68.6046 52.231C68.7355 52.0056 68.94 51.832 69.1838 51.7395C69.4423 51.6657 69.7163 51.6653 69.9751 51.7383C70.2338 51.8113 70.4672 51.9548 70.6491 52.1528C71.4318 52.9355 71.4631 54.3194 70.7806 55.2837C70.4094 55.7597 69.9109 56.1206 69.3428 56.3245C68.7747 56.5284 68.1605 56.5671 67.5713 56.4359C66.9702 56.3079 66.4053 56.0468 65.9182 55.672C65.4601 55.3126 65.0544 54.891 64.7128 54.4196C64.394 53.9718 64.0146 53.5703 63.5856 53.2267C63.1599 52.9225 62.6648 52.7298 62.1454 52.6662C61.6521 52.6036 61.1511 52.654 60.6801 52.8134C60.24 52.9841 59.8324 53.2287 59.4747 53.5366C59.1333 53.83 58.7701 54.0969 58.3882 54.335C57.8914 54.6152 57.3377 54.7796 56.7685 54.8159C56.1992 54.8523 55.6291 54.7596 55.1007 54.5448C54.6001 54.3296 54.1517 54.0093 53.7857 53.6055C53.5555 53.354 53.3616 53.0716 53.2096 52.7664C53.156 52.661 53.112 52.551 53.0781 52.4377C53.268 52.8512 53.5228 53.2317 53.8327 53.5648C54.1989 53.9494 54.643 54.2515 55.1352 54.4509C55.7883 54.7111 56.5028 54.7764 57.1922 54.6387C57.5913 54.5633 57.9746 54.4204 58.3256 54.2161C58.7006 53.979 59.0565 53.7131 59.3901 53.4208C59.7611 53.0999 60.1848 52.8457 60.6425 52.6694C61.1347 52.4981 61.6598 52.4434 62.1767 52.5097C62.7221 52.5722 63.2425 52.7726 63.689 53.092C64.1311 53.4418 64.5221 53.8518 64.8505 54.31C65.1833 54.7733 65.5796 55.1875 66.0278 55.5405C66.4909 55.8911 67.0253 56.1359 67.5933 56.2574C68.1513 56.3826 68.7335 56.347 69.2722 56.1547C69.8108 55.9624 70.2839 55.6213 70.6366 55.171C71.2815 54.2849 71.2627 52.9793 70.5332 52.2561C70.3715 52.0769 70.1633 51.9461 69.9317 51.8781C69.7001 51.8101 69.4543 51.8076 69.2214 51.871C69.0133 51.9633 68.8358 52.1131 68.7099 52.3028C68.584 52.4925 68.5149 52.7141 68.5106 52.9418C68.4774 53.3729 68.5595 53.8052 68.7486 54.1941C68.9165 54.5641 69.1474 54.9021 69.4311 55.1929C69.922 55.6959 70.5562 56.0349 71.2471 56.1635C71.7689 56.2524 72.304 56.2224 72.8126 56.0758C73.2484 55.9512 73.6595 55.7521 74.0274 55.4872Z" fill="white"/>
<path d="M67.5208 16.1656C68.3975 15.7586 68.9486 14.86 69.271 13.9489C69.5935 13.0378 69.7438 12.0703 70.1007 11.1686C70.37 10.4985 70.0757 9.43089 70.6768 9.03013C71.4283 8.5323 71.422 7.21104 71.1308 6.5504C70.8177 5.83028 69.9567 5.29802 69.8972 5.06946C69.7438 4.47145 70.2636 3.81708 70.0726 3.23785C69.6186 1.86023 68.5071 2.04182 68.5071 2.04182C67.9967 1.41563 67.3048 0.604712 66.1839 0.313532C64.966 0.000436317 63.1719 -0.234385 62.0886 0.40433C61.0053 1.04305 60.21 1.46573 59.8594 2.67428" fill="#263238"/>
<path d="M68.6307 7.76523C68.5365 6.28193 67.8873 4.88846 66.8122 3.86215C65.7372 2.83583 64.3151 2.2519 62.829 2.22656H62.5159C59.2128 2.36119 57.4814 5.24481 57.7099 8.54484L57.4219 19.3842L65.171 24.5816L65.6563 22.0268V18.9334C65.6563 18.9334 68.8373 18.495 68.9313 15.3202C68.9782 13.7892 68.8123 10.6269 68.6307 7.76523Z" fill="#E1957A"/>
<path d="M67.8502 10.1322C67.8486 10.2503 67.8014 10.3631 67.7186 10.4471C67.6357 10.5312 67.5235 10.5799 67.4056 10.5831C67.3478 10.5869 67.2899 10.5791 67.2352 10.5601C67.1805 10.541 67.1302 10.5112 67.0873 10.4724C67.0443 10.4335 67.0096 10.3865 66.9853 10.3339C66.9609 10.2814 66.9473 10.2246 66.9453 10.1667C66.9453 10.0482 66.9919 9.93445 67.0751 9.85008C67.1583 9.7657 67.2714 9.71748 67.3899 9.71583C67.4476 9.71246 67.5054 9.7206 67.5598 9.73979C67.6143 9.75897 67.6645 9.78881 67.7073 9.82757C67.7502 9.86633 67.7848 9.91324 67.8094 9.96555C67.8339 10.0179 67.8478 10.0745 67.8502 10.1322Z" fill="#263238"/>
<path d="M67.9709 9.13975C67.9146 9.1961 67.5733 8.93623 67.088 8.92997C66.6027 8.92371 66.2364 9.16166 66.1863 9.09904C66.1362 9.03642 66.2207 8.96754 66.3773 8.85796C66.5906 8.71436 66.8435 8.64102 67.1005 8.64818C67.3536 8.65109 67.5993 8.73442 67.8019 8.88614C67.949 9.00511 67.9991 9.1147 67.9709 9.13975Z" fill="#263238"/>
<path d="M63.1158 10.1322C63.1158 10.2507 63.0692 10.3644 62.9859 10.4488C62.9027 10.5332 62.7897 10.5814 62.6712 10.5831C62.6134 10.5869 62.5555 10.579 62.5008 10.56C62.4461 10.541 62.3958 10.5112 62.3529 10.4723C62.3099 10.4335 62.2753 10.3864 62.2509 10.3339C62.2265 10.2814 62.2129 10.2245 62.2109 10.1666C62.2117 10.0484 62.2586 9.93511 62.3417 9.85091C62.4247 9.7667 62.5373 9.71822 62.6555 9.71578C62.7133 9.71197 62.7712 9.71981 62.8259 9.73883C62.8806 9.75786 62.9309 9.78768 62.9738 9.82652C63.0168 9.86536 63.0515 9.91244 63.0758 9.96495C63.1002 10.0175 63.1138 10.0743 63.1158 10.1322Z" fill="#263238"/>
<path d="M63.1031 8.91733C63.053 8.98308 62.6898 8.76078 62.2045 8.80774C61.7192 8.85471 61.3842 9.12084 61.3247 9.07388C61.2652 9.02691 61.3435 8.93925 61.4907 8.81088C61.6867 8.64482 61.9297 8.54412 62.1857 8.52283C62.4379 8.49977 62.691 8.55674 62.909 8.68564C63.078 8.80148 63.1375 8.88915 63.1031 8.91733Z" fill="#263238"/>
<path d="M64.8312 12.9596C65.0901 12.8847 65.3572 12.8415 65.6265 12.8312C65.7486 12.8312 65.8676 12.7968 65.8895 12.7122C65.903 12.5843 65.8768 12.4553 65.8144 12.3428L65.4606 11.4035C64.9721 10.0447 64.6215 8.9269 64.6778 8.89872C64.7342 8.87055 65.1725 9.96638 65.6609 11.3252L65.996 12.2864C66.0739 12.4368 66.0939 12.6106 66.0523 12.7749C66.0336 12.8183 66.0053 12.8569 65.9695 12.8878C65.9337 12.9187 65.8913 12.9411 65.8457 12.9533C65.7765 12.9729 65.7046 12.9814 65.6328 12.9784C65.3659 13.0069 65.0965 13.0005 64.8312 12.9596Z" fill="#263238"/>
<path d="M63.1172 8.10029C63.0608 8.22865 62.5787 8.12846 62.0026 8.15038C61.4265 8.1723 60.9537 8.28814 60.888 8.15038C60.8598 8.09089 60.9475 7.97505 61.1447 7.86233C61.4051 7.72279 61.6947 7.64663 61.9901 7.64003C62.285 7.62865 62.5782 7.6888 62.8448 7.81537C63.0483 7.92808 63.1454 8.0408 63.1172 8.10029Z" fill="#263238"/>
<path d="M67.7599 7.89051C67.6723 8.00009 67.3404 7.89051 66.9365 7.86546C66.5326 7.84041 66.1882 7.92808 66.1099 7.8091C66.0786 7.75275 66.135 7.64316 66.2852 7.54297C66.4861 7.41651 66.7215 7.35628 66.9584 7.37077C67.1955 7.37959 67.4241 7.46162 67.6128 7.60559C67.7537 7.72144 67.7944 7.83728 67.7599 7.89051Z" fill="#263238"/>
<path d="M60.0864 2.44561C60.0848 2.7985 60.161 3.1474 60.3095 3.46751C60.4581 3.78761 60.6753 4.07104 60.9459 4.29763C61.2164 4.52422 61.5336 4.6884 61.8747 4.77849C62.2159 4.86859 62.5728 4.88237 62.9199 4.81888C63.4585 4.72182 64.0471 4.44942 64.5105 4.73747C64.9738 5.02552 65.0208 5.77382 65.4497 6.14954C66.0759 6.68806 67.0528 6.18398 67.8387 6.41567C68.4461 6.59726 68.8249 7.17649 69.2288 7.66805C69.6327 8.15961 70.237 8.60734 70.8444 8.43827C70.8272 7.89117 70.7463 7.34794 70.6033 6.81956C70.4587 6.28669 70.1333 5.8207 69.6828 5.50143C69.4323 5.33549 69.1411 5.2353 68.9063 5.04744C68.4022 4.64041 68.2801 3.93282 67.967 3.36611C67.762 3.00103 67.4731 2.68995 67.1242 2.45858C66.7752 2.2272 66.3762 2.08217 65.9601 2.03546C65.2682 1.96344 64.5574 2.17009 63.8811 2.00101C63.3833 1.87578 62.9419 1.55329 62.444 1.45623C61.464 1.26837 60.5498 1.97597 59.8359 2.6773" fill="#263238"/>
<path d="M63.2272 3.84526C62.7858 3.72002 61.8872 3.43197 61.6618 3.05C61.4242 2.63976 61.0825 2.29953 60.6713 2.06368C60.2601 1.82783 59.7939 1.70472 59.3198 1.70681C58.8414 1.74443 58.388 1.93583 58.0274 2.25242C57.6668 2.56901 57.4183 2.99379 57.3191 3.46328C56.7449 3.4834 56.1868 3.65805 55.7035 3.96883C55.2202 4.27962 54.8298 4.71502 54.5733 5.22914C54.3102 5.76851 54.1819 6.36365 54.1993 6.96351C54.2168 7.56336 54.3795 8.15003 54.6734 8.6732C54.8636 8.92085 54.9875 9.21287 55.0335 9.52169C55.0335 9.91306 54.7486 10.223 54.5451 10.5455C53.9878 11.4284 54.0316 12.6401 54.4605 13.5982C54.8895 14.5563 55.1932 14.8975 55.8069 15.0885C57.006 15.4643 55.8069 17.8751 57.8075 17.8751L58.2083 10.7334C58.2676 10.7645 58.3308 10.7876 58.3962 10.8023C59.5765 11.0684 59.7331 8.764 59.467 8.10336C59.9136 7.73745 60.3123 7.31667 60.6536 6.85098C61.0304 6.11338 61.2166 5.2932 61.1952 4.46519C61.6085 4.49963 63.4151 3.89849 63.2272 3.84526Z" fill="#263238"/>
<path d="M58.3623 10.7805C58.3091 10.7554 56.1925 10.0979 56.227 12.2677C56.2614 14.4374 58.4186 13.9584 58.4186 13.8958C58.4186 13.8331 58.3623 10.7805 58.3623 10.7805Z" fill="#E1957A"/>
<path d="M57.7548 13.0847C57.7548 13.0847 57.7172 13.1097 57.6546 13.141C57.5641 13.1769 57.4633 13.1769 57.3728 13.141C57.2312 13.0542 57.1152 12.9314 57.0365 12.7851C56.9578 12.6388 56.9194 12.4742 56.9251 12.3082C56.9179 12.1224 56.9521 11.9374 57.0253 11.7665C57.0441 11.6984 57.0794 11.636 57.1279 11.5847C57.1765 11.5334 57.2369 11.4948 57.3039 11.4722C57.3473 11.4596 57.3937 11.4627 57.435 11.481C57.4763 11.4994 57.5097 11.5318 57.5294 11.5724C57.5575 11.6319 57.545 11.6757 57.5575 11.6789C57.5701 11.682 57.6045 11.6413 57.5857 11.5536C57.5713 11.5007 57.5406 11.4536 57.498 11.419C57.4683 11.3967 57.4345 11.3806 57.3985 11.3714C57.3625 11.3623 57.325 11.3604 57.2883 11.3658C57.1991 11.3839 57.1161 11.4249 57.0475 11.4848C56.9789 11.5446 56.927 11.6212 56.8969 11.7071C56.8071 11.8965 56.7652 12.105 56.7748 12.3145C56.7648 12.5097 56.8134 12.7034 56.9144 12.8708C57.0154 13.0382 57.1641 13.1716 57.3415 13.2537C57.3999 13.27 57.4612 13.2729 57.5209 13.262C57.5806 13.2512 57.637 13.2269 57.6859 13.1911C57.7516 13.1379 57.7767 13.0878 57.7548 13.0847Z" fill="#B96346"/>
<path d="M54.7598 14.24C54.8932 14.3832 54.9937 14.5538 55.0544 14.7398C55.1151 14.9259 55.1345 15.123 55.1113 15.3173C55.088 15.5116 55.0227 15.6985 54.9198 15.865C54.817 16.0315 54.679 16.1736 54.5156 16.2813C54.604 16.3619 54.7079 16.4235 54.821 16.4623C54.9341 16.501 55.0539 16.5162 55.1731 16.5068C55.2577 16.7823 54.86 16.967 54.7943 17.2425C54.7768 17.3274 54.7817 17.4154 54.8086 17.4977C54.8355 17.5801 54.8835 17.654 54.9477 17.7122C55.0779 17.8252 55.2305 17.9094 55.3954 17.9595C55.8768 18.1348 56.3831 18.2321 56.8952 18.2476C57.0426 18.269 57.193 18.2574 57.3354 18.2135C57.4779 18.1696 57.6087 18.0946 57.7186 17.994C57.8558 17.7858 57.9207 17.5382 57.9033 17.2895C57.92 16.6633 57.9378 16.0455 57.9566 15.436C57.9809 15.2548 57.9469 15.0706 57.8595 14.91C57.7203 14.7525 57.5292 14.6503 57.321 14.6219L54.691 13.9519" fill="#263238"/>
<path d="M65.7282 14.5312C65.453 14.6058 65.1658 14.626 64.8828 14.5907C64.6 14.6072 64.3166 14.5711 64.0469 14.4842C64.3214 14.4117 64.6073 14.3925 64.8891 14.4279C65.1728 14.4101 65.4573 14.4451 65.7282 14.5312Z" fill="#263238"/>
<path d="M65.6556 18.9334C65.6556 18.9334 62.7626 18.4888 61.0781 17.2051C61.0781 17.2051 61.9673 19.8507 65.6525 19.9259L65.6556 18.9334Z" fill="#B96346"/>
</g>
<defs>
<clipPath id="clip0_387_15848">
<rect width="85" height="85" fill="white"/>
</clipPath>
</defs>
</svg>
