<svg width="24" height="24" viewBox="0 0 24 24" fill="none" xmlns="http://www.w3.org/2000/svg">
<path d="M3.4125 0C2.3625 0 1.5 0.8625 1.5 1.9125V22.0875C1.5 23.1375 2.3625 24 3.4125 24H20.5875C21.6375 24 22.5 23.1375 22.5 22.0875V7.6125L15.4125 0H3.4125Z" fill="#8C181A"/>
<path d="M22.4994 7.6502V8.0252H17.6994C17.6994 8.0252 15.3369 7.5377 15.4119 5.5127C15.4119 5.5127 15.4869 7.6502 17.6619 7.6502H22.4994Z" fill="#6B0D12"/>
<path opacity="0.5" d="M15.4141 0V5.475C15.4141 6.1125 15.8266 7.65 17.7016 7.65H22.5016L15.4141 0Z" fill="white"/>
<path d="M7.08906 18.3748H5.85156V19.9123C5.85156 20.0623 5.73906 20.1748 5.55156 20.1748C5.40156 20.1748 5.28906 20.0623 5.28906 19.9123V16.0873C5.28906 15.8623 5.47656 15.6748 5.70156 15.6748H7.08906C7.98906 15.6748 8.51406 16.3123 8.51406 17.0248C8.51406 17.7748 7.98906 18.3748 7.08906 18.3748ZM7.05156 16.1623H5.85156V17.8873H7.05156C7.57656 17.8873 7.95156 17.5498 7.95156 17.0248C7.95156 16.4998 7.57656 16.1623 7.05156 16.1623ZM10.9516 20.1748H9.82656C9.60156 20.1748 9.41406 19.9873 9.41406 19.7623V16.0873C9.41406 15.8623 9.60156 15.6748 9.82656 15.6748H10.9516C12.3391 15.6748 13.2766 16.6498 13.2766 17.9248C13.2766 19.1998 12.3766 20.1748 10.9516 20.1748ZM10.9516 16.1623H9.97656V19.6498H10.9516C12.0391 19.6498 12.6766 18.8623 12.6766 17.8873C12.7141 16.9498 12.0766 16.1623 10.9516 16.1623ZM17.0641 16.1623H14.8891V17.6248H17.0266C17.1766 17.6248 17.2516 17.7373 17.2516 17.8873C17.2516 18.0373 17.1391 18.1123 17.0266 18.1123H14.8891V19.9123C14.8891 20.0623 14.7766 20.1748 14.5891 20.1748C14.4391 20.1748 14.3266 20.0623 14.3266 19.9123V16.0873C14.3266 15.8623 14.5141 15.6748 14.7391 15.6748H17.0641C17.2141 15.6748 17.2891 15.7873 17.2891 15.9373C17.3266 16.0498 17.2141 16.1623 17.0641 16.1623Z" fill="white"/>
</svg>
