<svg width="14" height="21" viewBox="0 0 14 21" fill="none" xmlns="http://www.w3.org/2000/svg">
<path d="M1.42969 6.41651V13.831C1.42969 15.2894 2.03328 16.6881 3.10767 17.7194C4.18207 18.7506 5.63926 19.33 7.15868 19.33C8.67811 19.33 10.1353 18.7506 11.2097 17.7194C12.2841 16.6881 12.8877 15.2894 12.8877 13.831V4.666C12.8877 3.69372 12.4853 2.76125 11.769 2.07375C11.0528 1.38624 10.0813 1 9.06835 1C8.0554 1 7.08394 1.38624 6.36767 2.07375C5.65141 2.76125 5.24902 3.69372 5.24902 4.666V13.0813C5.24902 13.322 5.29841 13.5604 5.39438 13.7828C5.49035 14.0052 5.63102 14.2072 5.80835 14.3774C5.98568 14.5476 6.1962 14.6827 6.42789 14.7748C6.65958 14.8669 6.9079 14.9143 7.15868 14.9143C7.66516 14.9143 8.15089 14.7212 8.50902 14.3774C8.86715 14.0337 9.06835 13.5674 9.06835 13.0813V6.499" stroke="#B6B6C2" stroke-width="1.5" stroke-linecap="round" stroke-linejoin="round"/>
</svg>
