<svg width="24" height="24" viewBox="0 0 24 24" fill="none" xmlns="http://www.w3.org/2000/svg">
<path d="M3.5 9.16667H20.5M9.16667 14.8333L11.0556 16.7222L14.8333 12.9444M7.27778 3.5V5.38889M16.7222 3.5V5.38889M6.52222 20.5H17.4778C18.5356 20.5 19.0646 20.5 19.4687 20.2941C19.8241 20.1131 20.1131 19.8241 20.2941 19.4687C20.5 19.0646 20.5 18.5356 20.5 17.4778V8.41111C20.5 7.35323 20.5 6.82429 20.2941 6.42024C20.1131 6.06482 19.8241 5.77586 19.4687 5.59477C19.0646 5.38889 18.5356 5.38889 17.4778 5.38889H6.52222C5.46435 5.38889 4.9354 5.38889 4.53135 5.59477C4.17593 5.77586 3.88697 6.06482 3.70588 6.42024C3.5 6.82429 3.5 7.35323 3.5 8.41111V17.4778C3.5 18.5356 3.5 19.0646 3.70588 19.4687C3.88697 19.8241 4.17593 20.1131 4.53135 20.2941C4.9354 20.5 5.46434 20.5 6.52222 20.5Z" stroke="#959595" stroke-width="2" stroke-linecap="round" stroke-linejoin="round"/>
</svg>
