<svg width="21" height="17" viewBox="0 0 21 17" fill="none" xmlns="http://www.w3.org/2000/svg">
<path d="M13.2162 4.47109L7.98176 8.78105C7.92158 8.83061 7.87552 8.89514 7.84819 8.96815C7.82087 9.04116 7.81325 9.12008 7.82611 9.19697L8.9178 15.6999C9.01124 16.3022 9.79653 16.4743 10.1324 15.9656L19.9786 1.05286C20.0468 0.949631 20.085 0.829436 20.0887 0.705751C20.0924 0.582067 20.0616 0.459788 19.9998 0.352626C19.9379 0.245463 19.8474 0.157657 19.7384 0.0990556C19.6294 0.0404548 19.5063 0.0133762 19.3828 0.0208558L1.54486 1.09154C0.936391 1.12806 0.693202 1.89495 1.16762 2.27623L6.25428 6.47272C6.31442 6.5225 6.38662 6.55555 6.4636 6.56853C6.54058 6.58151 6.61962 6.57396 6.69275 6.54665L13.0421 4.16766C13.0813 4.15333 13.1244 4.15329 13.1637 4.16756C13.2029 4.18183 13.2359 4.20949 13.2568 4.24568C13.2777 4.28187 13.2852 4.32427 13.2779 4.36541C13.2706 4.40656 13.2483 4.44427 13.2162 4.47109Z" fill="white"/>
</svg>
