<svg width="20" height="21" viewBox="0 0 20 21" fill="none" xmlns="http://www.w3.org/2000/svg">
<g clip-path="url(#clip0_387_17309)">
<path d="M10 12.7871C11.3807 12.7871 12.5 11.6678 12.5 10.2871C12.5 8.9064 11.3807 7.78711 10 7.78711C8.61929 7.78711 7.5 8.9064 7.5 10.2871C7.5 11.6678 8.61929 12.7871 10 12.7871Z" stroke="#1C274C" stroke-width="2"/>
<path d="M11.4686 2.08072C11.1623 1.95386 10.7741 1.95386 9.99747 1.95386C9.22089 1.95386 8.83264 1.95386 8.52631 2.08072C8.11795 2.24988 7.79349 2.57434 7.62433 2.98272C7.54712 3.16914 7.51689 3.38594 7.50507 3.70218C7.48769 4.16692 7.24936 4.5971 6.84659 4.82963C6.44384 5.06216 5.95213 5.05347 5.54097 4.83616C5.26118 4.68827 5.05832 4.60604 4.85826 4.57971C4.42001 4.52201 3.97679 4.64077 3.62611 4.90986C3.36309 5.11167 3.16895 5.44794 2.78067 6.12047C2.39238 6.793 2.19824 7.12926 2.15497 7.45795C2.09728 7.89619 2.21603 8.33941 2.48512 8.69011C2.60794 8.85019 2.78056 8.98469 3.04847 9.15302C3.44231 9.40052 3.69572 9.82211 3.69569 10.2872C3.69567 10.7523 3.44227 11.1738 3.04846 11.4212C2.78052 11.5896 2.60788 11.7242 2.48504 11.8843C2.21595 12.2349 2.09719 12.6781 2.15489 13.1164C2.19816 13.445 2.3923 13.7814 2.78058 14.4539C3.16888 15.1264 3.36302 15.4627 3.62602 15.6644C3.97671 15.9335 4.41992 16.0523 4.85817 15.9946C5.05822 15.9683 5.26107 15.886 5.54084 15.7382C5.95203 15.5209 6.44377 15.5122 6.84656 15.7447C7.24934 15.9773 7.48769 16.4074 7.50507 16.8723C7.5169 17.1884 7.54712 17.4053 7.62433 17.5917C7.79349 18 8.11795 18.3245 8.52631 18.4937C8.83264 18.6205 9.22089 18.6205 9.99747 18.6205C10.7741 18.6205 11.1623 18.6205 11.4686 18.4937C11.877 18.3245 12.2015 18 12.3706 17.5917C12.4478 17.4053 12.4781 17.1884 12.4899 16.8722C12.5072 16.4074 12.7456 15.9773 13.1483 15.7447C13.5511 15.5121 14.0428 15.5209 14.4541 15.7382C14.7338 15.886 14.9366 15.9682 15.1366 15.9945C15.5749 16.0523 16.0181 15.9335 16.3688 15.6644C16.6318 15.4626 16.826 15.1264 17.2142 14.4538C17.6026 13.7813 17.7967 13.445 17.84 13.1164C17.8976 12.6781 17.7789 12.2349 17.5098 11.8842C17.387 11.7241 17.2143 11.5895 16.9464 11.4212C16.5526 11.1738 16.2992 10.7522 16.2992 10.2871C16.2992 9.82202 16.5526 9.40061 16.9464 9.15319C17.2144 8.98477 17.3871 8.85027 17.5099 8.69011C17.779 8.33947 17.8977 7.89625 17.8401 7.458C17.7968 7.12932 17.6026 6.79305 17.2143 6.12052C16.8261 5.448 16.6319 5.11173 16.3689 4.90992C16.0182 4.64082 15.575 4.52207 15.1367 4.57977C14.9367 4.6061 14.7339 4.68832 14.4541 4.83619C14.0429 5.05352 13.5511 5.06221 13.1484 4.82966C12.7456 4.59712 12.5072 4.16691 12.4899 3.70214C12.4781 3.38592 12.4478 3.16913 12.3706 2.98272C12.2015 2.57434 11.877 2.24988 11.4686 2.08072Z" stroke="#1C274C" stroke-width="2"/>
</g>
<defs>
<clipPath id="clip0_387_17309">
<rect width="20" height="20" fill="white" transform="translate(0 0.287109)"/>
</clipPath>
</defs>
</svg>
