<svg width="84" height="84" viewBox="0 0 84 84" fill="none" xmlns="http://www.w3.org/2000/svg">
<path d="M26.1917 6.98713H25.5197L25.4105 7.26265H24.9922L25.6642 5.70361H26.0825L26.736 7.26265H26.3026L26.1917 6.98713ZM26.0724 6.67633L25.8658 6.12025L25.6491 6.67633H26.0724Z" fill="#E0E0E0"/>
<path d="M8.06275 67.5881C7.80639 67.5913 7.55258 67.5369 7.31999 67.429C7.0874 67.3212 6.88195 67.1626 6.71875 66.9648L7.18243 66.276C7.38629 66.5199 7.67633 66.6757 7.99219 66.7111C8.24083 66.7111 8.39539 66.5583 8.39539 66.2659V64.512H7.07491V63.6804H9.40675V66.2878C9.40675 67.1143 8.90275 67.5881 8.06275 67.5881Z" fill="#E0E0E0"/>
<path d="M26.5603 52.8158L25.858 51.7692L25.5103 52.1556V52.8158H24.8047V50.111H25.5103V51.24L26.5183 50.106H27.3364L26.3284 51.2248L27.3919 52.8108L26.5603 52.8158Z" fill="#E0E0E0"/>
<path d="M8.13731 51.519L9.40907 53.2091V51.519H10.0895V54.3263H9.45107L8.17763 52.6463V54.3263H7.49219V51.519H8.13731Z" fill="#E0E0E0"/>
<path d="M67.0702 45.718L67.4835 46.6286L67.8968 45.718H68.342V47.2787H67.9824V46.2892L67.6212 47.1292H67.3541L66.9912 46.2892V47.2787H66.625V45.718H67.0702Z" fill="#E0E0E0"/>
<path d="M54.4731 5.37598L54.8864 6.28654L55.2997 5.37598H55.7449V6.93502H55.3853V5.94718L55.0225 6.78718H54.757L54.3941 5.94718V6.93502H54.0312V5.37598H54.4731Z" fill="#E0E0E0"/>
<path d="M79.4976 52.9436V55.1713H80.7122V55.8097H78.75V52.9436H79.4976Z" fill="#E0E0E0"/>
<path d="M68.4144 5.71216V6.92512H69.0763V7.2712H68.0078V5.71216H68.4144Z" fill="#E0E0E0"/>
<path d="M39.3536 12.978V14.191H40.0138V14.5387H38.9453V12.978H39.3536Z" fill="#E0E0E0"/>
<path d="M76.9467 27.7806C76.5972 27.7806 76.3671 27.9082 76.3671 28.1619C76.3671 29.0826 79.2987 28.5584 79.2987 30.561C79.2987 31.6966 78.2907 32.2762 77.0575 32.2762C76.1274 32.2733 75.2248 31.9606 74.4922 31.3875L75.0567 30.2518C75.6279 30.7441 76.4947 31.0918 77.0727 31.0918C77.5011 31.0918 77.7715 30.9238 77.7715 30.6382C77.7715 29.6941 74.8399 30.2653 74.8399 28.2946C74.8399 27.2547 75.7219 26.5945 77.0643 26.5945C77.8501 26.5959 78.6203 26.8139 79.2903 27.2245L78.7426 28.377C78.1546 28.0426 77.407 27.7806 76.9467 27.7806Z" fill="#E0E0E0"/>
<path d="M60.306 55.1444C59.9566 55.1444 59.7264 55.272 59.7264 55.5257C59.7264 56.448 62.658 55.9239 62.658 57.9248C62.658 59.0604 61.65 59.6417 60.4186 59.6417C59.4877 59.6386 58.5845 59.3253 57.8516 58.7513L58.416 57.6156C58.9872 58.1079 59.8541 58.4556 60.432 58.4556C60.8604 58.4556 61.1309 58.296 61.1309 58.002C61.1309 57.0579 58.1993 57.6291 58.1993 55.6584C58.1993 54.6185 59.0813 53.96 60.4236 53.96C61.2121 53.9593 61.9855 54.1767 62.658 54.5883L62.1104 55.7408C61.5173 55.4064 60.7714 55.1444 60.306 55.1444Z" fill="#E0E0E0"/>
<path d="M44.1595 21.1497C44.1595 22.5676 43.1212 23.5319 41.5807 23.5319H39.5781V18.7742H41.6277C43.1347 18.7742 44.1595 19.7385 44.1595 21.1497ZM42.8911 21.1631C42.8911 20.3416 42.3552 19.7855 41.6008 19.7855H40.8247V22.5273H41.6647C42.382 22.5273 42.8911 21.9779 42.8911 21.1682V21.1631Z" fill="#E0E0E0"/>
<path d="M68.7717 37.7682L68.3501 36.9601H67.7872V37.7615H67.0312V34.8735H68.3316C69.0993 34.8735 69.5378 35.2448 69.5378 35.8815C69.5512 36.0702 69.5096 36.2587 69.4181 36.4242C69.3266 36.5897 69.189 36.725 69.0221 36.8139L69.6235 37.7598L68.7717 37.7682ZM67.7872 36.3637H68.3366C68.6424 36.3637 68.8204 36.2075 68.8204 35.9135C68.8204 35.6195 68.6424 35.4767 68.3366 35.4767H67.7872V36.3637Z" fill="#E0E0E0"/>
<path d="M71.6414 53.0764V54.0508H70.2856V57.599H69.1096V54.0508H67.7656V53.0764H71.6414Z" fill="#E0E0E0"/>
<path d="M60.7671 43.7859C60.7675 43.9719 60.7044 44.1524 60.5883 44.2978C60.4723 44.4432 60.3102 44.5447 60.1287 44.5855C60.347 44.6228 60.5442 44.7381 60.6839 44.9099C60.8236 45.0817 60.8961 45.2984 60.8881 45.5196C60.8881 46.1513 60.3337 46.5461 59.4651 46.5461H57.6406V42.8501H59.3962C60.2345 42.8518 60.7671 43.2163 60.7671 43.7859ZM59.7759 43.9539C59.7759 43.7321 59.6079 43.6011 59.3441 43.6061H58.6049V44.3235H59.3441C59.6129 44.3235 59.7759 44.184 59.7759 43.9539ZM59.8918 45.3987C59.8918 45.1668 59.6801 45.019 59.3441 45.024H58.6049V45.7985H59.3441C59.6801 45.7985 59.8918 45.6507 59.8918 45.3987Z" fill="#E0E0E0"/>
<path d="M76.8374 9.63989C76.8378 9.82611 76.7749 10.0069 76.6588 10.1526C76.5428 10.2982 76.3806 10.4 76.199 10.4413C76.417 10.4785 76.614 10.5935 76.7536 10.765C76.8933 10.9364 76.966 11.1527 76.9584 11.3737C76.9584 12.007 76.4057 12.4018 75.5354 12.4018H73.7109V8.70581H75.4665C76.3049 8.70749 76.8374 9.07205 76.8374 9.63989ZM75.8462 9.80789C75.8462 9.58613 75.6782 9.45341 75.4145 9.46013H74.6769V10.1758H75.4145C75.6833 10.1775 75.8462 10.0414 75.8462 9.80957V9.80789ZM75.9621 11.251C75.9621 11.0192 75.7521 10.8713 75.4145 10.8781H74.6769V11.6525H75.4145C75.7521 11.6542 75.9621 11.5064 75.9621 11.2561V11.251Z" fill="#E0E0E0"/>
<path d="M33.4144 44.9805C33.1479 44.9956 32.8973 45.1121 32.714 45.3061C32.5307 45.5001 32.4286 45.7569 32.4286 46.0238C32.4286 46.2907 32.5307 46.5475 32.714 46.7414C32.8973 46.9354 33.1479 47.0519 33.4144 47.0671C33.7641 47.0458 34.0924 46.8913 34.3316 46.6353L34.8961 47.2401C34.4952 47.6618 33.9439 47.9082 33.3623 47.9256C32.2501 47.9256 31.4219 47.1141 31.4219 46.0288C31.4219 44.9436 32.272 44.1624 33.3992 44.1624C33.9607 44.1679 34.4971 44.3957 34.8911 44.7957L34.3316 45.4677C34.2222 45.3259 34.0838 45.2091 33.9256 45.1251C33.7674 45.041 33.5931 44.9918 33.4144 44.9805Z" fill="#E0E0E0"/>
<path d="M74.7271 64.3524C74.4606 64.3675 74.21 64.484 74.0267 64.678C73.8435 64.872 73.7413 65.1288 73.7413 65.3956C73.7413 65.6625 73.8435 65.9193 74.0267 66.1133C74.21 66.3073 74.4606 66.4238 74.7271 66.4389C75.0768 66.4177 75.4051 66.2632 75.6443 66.0072L76.2088 66.6136C75.8077 67.0351 75.2565 67.2813 74.675 67.2991C74.4212 67.3085 74.1682 67.2661 73.9313 67.1745C73.6944 67.083 73.4786 66.9442 73.2971 66.7666C73.1156 66.589 72.9721 66.3763 72.8754 66.1415C72.7787 65.9067 72.7308 65.6546 72.7346 65.4007C72.7346 64.3372 73.583 63.5359 74.7119 63.5359C75.2732 63.541 75.8095 63.7681 76.2038 64.1676L75.6443 64.8396C75.5352 64.6975 75.3968 64.5805 75.2385 64.4965C75.0803 64.4124 74.9059 64.3633 74.7271 64.3524Z" fill="#E0E0E0"/>
<path d="M63.9537 14.8328H61.5462L61.1498 15.8172H59.6562L62.0536 10.248H63.5471L65.884 15.8172H64.3418L63.9537 14.8328ZM63.5236 13.7206L62.7609 11.7332L61.9898 13.7206H63.5236Z" fill="#E0E0E0"/>
<path d="M51.2475 12.2741V13.4501H50.2899V12.301L48.9375 9.78101H49.8917L50.7603 11.3585L51.6104 9.78101H52.5797L51.2475 12.2741Z" fill="#E0E0E0"/>
<path d="M31.8728 18.312C32.3482 18.312 32.6775 17.9894 32.6775 17.4552V15.0696H33.751V17.4569C33.751 18.5421 33.0236 19.2293 31.8677 19.2293C30.7119 19.2293 29.9609 18.5421 29.9609 17.4569V15.0696H31.0345V17.4569C31.0267 17.5697 31.043 17.6829 31.0822 17.789C31.1213 17.8952 31.1825 17.9918 31.2617 18.0726C31.3409 18.1533 31.4363 18.2164 31.5416 18.2577C31.6469 18.299 31.7598 18.3175 31.8728 18.312Z" fill="#E0E0E0"/>
<path d="M18.6491 54.5615V55.4956H16.4651V56.4952H18.4811V57.4293H16.4651V59.0488H15.2891V54.5615H18.6491Z" fill="#E0E0E0"/>
<path d="M4.6409 40.1301V41.496H5.9849V40.1301H6.85851V43.48H5.9849V42.1932H4.6409V43.48H3.76562V40.1301H4.6409Z" fill="#E0E0E0"/>
<path d="M66.4311 22.176V25.5075H65.5625V22.176H66.4311Z" fill="#E0E0E0"/>
<path d="M40.8817 6.84608C40.8817 8.00864 39.9644 8.88056 38.7347 8.88056C37.5049 8.88056 36.5859 8.00864 36.5859 6.84608C36.5859 5.68352 37.5049 4.83008 38.7347 4.83008C39.9644 4.83008 40.8817 5.69528 40.8817 6.84608ZM37.6511 6.84608C37.6447 7.14316 37.7565 7.43063 37.9619 7.64542C38.1672 7.86021 38.4493 7.98479 38.7464 7.99184C38.8913 7.98729 39.0339 7.95412 39.1659 7.89422C39.2979 7.83433 39.4168 7.74891 39.5156 7.64287C39.6145 7.53684 39.6914 7.41229 39.7419 7.2764C39.7924 7.14051 39.8155 6.99598 39.8099 6.85112C39.8166 6.70607 39.7943 6.56114 39.7442 6.42485C39.6941 6.28856 39.6172 6.16367 39.5181 6.05753C39.419 5.95139 39.2997 5.86615 39.1672 5.80682C39.0347 5.7475 38.8916 5.71528 38.7464 5.71208C38.5993 5.71358 38.4539 5.74439 38.3189 5.80271C38.1838 5.86103 38.0617 5.94569 37.9597 6.05174C37.8577 6.15779 37.7779 6.2831 37.7249 6.42036C37.6719 6.55761 37.6468 6.70405 37.6511 6.85112V6.84608Z" fill="#E0E0E0"/>
<path d="M75.4749 41.1382L76.4678 44.011L77.464 41.1382H78.5308L76.9768 45.1114H75.8999L74.3594 41.1382H75.4749Z" fill="#E0E0E0"/>
<path d="M55.7243 21.3362L56.2736 22.9238L56.8247 21.3362H57.4127L56.5542 23.5303H55.9595L55.1094 21.3362H55.7243Z" fill="#E0E0E0"/>
<path d="M7.25816 12.6236C7.25816 13.3174 6.82304 13.7223 6.0704 13.7223H5.54456V14.5388H4.77344V11.592H6.0704C6.82304 11.592 7.25816 11.9667 7.25816 12.6236ZM6.52568 12.6488C6.52568 12.3581 6.34424 12.2019 6.03176 12.2019H5.54456V13.104H6.03176C6.34424 13.104 6.52568 12.9478 6.52568 12.6488Z" fill="#E0E0E0"/>
<path d="M77.1223 17.8552L77.7338 19.1992L78.3436 17.8552H79.0005V20.1602H78.4696V18.7019L77.9337 19.9317H77.5389L77.0047 18.7019V20.1602H76.4688V17.8586L77.1223 17.8552Z" fill="#E0E0E0"/>
<path d="M12.151 26.6599V27.8208H9.21101V28.8607H11.8637V30.0132H9.21101V31.0632H12.235V32.2224H7.75781V26.6599H12.151Z" fill="#E0E0E0"/>
<path d="M19.4859 7.87925V8.83181L16.5409 12.2792H19.5279V13.4552H14.5938V12.5026L17.5338 9.04685H14.6979V7.87085L19.4859 7.87925Z" fill="#E0E0E0"/>
<path d="M80.1894 75.4992C80.1894 75.5244 63.008 75.5429 41.8199 75.5429C20.6317 75.5429 3.44531 75.5244 3.44531 75.4992C3.44531 75.474 20.6233 75.4556 41.8199 75.4556C63.0164 75.4556 80.1894 75.4757 80.1894 75.4992Z" fill="#263238"/>
<path d="M31.165 13.1981C31.1525 13.157 31.1321 13.1188 31.1048 13.0856C31.0775 13.0524 31.0439 13.025 31.0059 13.0048C30.968 12.9847 30.9265 12.9723 30.8837 12.9682C30.8409 12.9642 30.7978 12.9687 30.7568 12.9814L29.2851 13.44L9.10156 18.7942L16.2886 46.8048L18.7901 48.1202L39.3332 42.4082C39.4125 42.3862 39.4867 42.3486 39.5514 42.2975C39.616 42.2464 39.6698 42.183 39.7095 42.1108C39.7493 42.0387 39.7742 41.9593 39.7829 41.8774C39.7915 41.7955 39.7837 41.7126 39.7599 41.6338L31.165 13.1981Z" fill="#5F2B38"/>
<path d="M28.8808 12.0876L30.8918 13.267L39.5018 41.9547L18.7555 47.8784L16.3984 46.5982L28.8808 12.0876Z" fill="#F5F5F5"/>
<path d="M36.683 40.7619L16.2895 46.8099L8.04402 18.984C7.99239 18.8083 8.01167 18.6193 8.09771 18.4576C8.18376 18.2958 8.32973 18.1742 8.50434 18.1188L28.6795 11.7852C28.7289 11.7698 28.7809 11.7644 28.8324 11.7694C28.8839 11.7743 28.9339 11.7895 28.9795 11.8141C29.025 11.8387 29.0652 11.8721 29.0976 11.9125C29.1301 11.9528 29.1541 11.9992 29.1683 12.049L37.1399 39.937C37.1873 40.107 37.1659 40.2887 37.0804 40.4431C36.9949 40.5974 36.8522 40.7119 36.683 40.7619Z" fill="#5F2B38"/>
<path d="M18.8996 45.6271C18.8778 45.6271 16.9794 39.4111 14.6627 31.7133C12.346 24.0155 10.4845 17.7794 10.508 17.7693C10.5316 17.7592 12.4283 23.9853 14.7467 31.6847C17.0651 39.3842 18.9232 45.6203 18.8996 45.6271Z" fill="#263238"/>
<path d="M18.1809 46.3463C18.1574 46.3547 16.2606 40.1303 13.9439 32.4325C11.6272 24.7348 9.76576 18.5003 9.78928 18.4885C9.8128 18.4768 11.7095 24.7045 14.0262 32.404C16.343 40.1034 18.2044 46.3396 18.1809 46.3463Z" fill="#263238"/>
<path d="M17.2908 25.3681C17.4269 25.7981 17.2034 26.1913 16.7347 26.3374L16.135 26.5306L15.6797 25.0858L16.3013 24.8892C16.7515 24.7448 17.1564 24.9397 17.2908 25.3681ZM16.9061 25.4941C16.8935 25.439 16.8696 25.3872 16.8358 25.342C16.802 25.2967 16.7591 25.2591 16.7099 25.2314C16.6607 25.2037 16.6063 25.1866 16.5501 25.1812C16.4939 25.1758 16.4372 25.1822 16.3836 25.2001L16.1467 25.274L16.4088 26.114L16.6642 26.0333C16.7176 26.0169 16.767 25.9892 16.8089 25.9522C16.8508 25.9151 16.8844 25.8695 16.9073 25.8185C16.9302 25.7674 16.9419 25.7121 16.9417 25.6561C16.9415 25.6002 16.9294 25.5449 16.9061 25.4941Z" fill="white"/>
<path d="M17.6263 24.4675L18.0816 25.9123L17.7053 26.0316L17.25 24.5868L17.6263 24.4675Z" fill="white"/>
<path d="M18.6905 24.4725C18.5868 24.5102 18.5016 24.5865 18.4528 24.6855C18.4039 24.7845 18.3951 24.8985 18.4283 25.0038C18.4614 25.1091 18.5339 25.1975 18.6307 25.2507C18.7274 25.3038 18.841 25.3175 18.9476 25.289C19.0815 25.2369 19.1907 25.136 19.2533 25.0068L19.5473 25.1748C19.4426 25.3887 19.258 25.5528 19.0333 25.6317C18.9348 25.667 18.8302 25.6819 18.7258 25.6755C18.6214 25.6691 18.5193 25.6417 18.4259 25.5947C18.3324 25.5477 18.2495 25.4823 18.182 25.4023C18.1146 25.3224 18.0641 25.2296 18.0336 25.1295C18.0031 25.0295 17.9932 24.9243 18.0046 24.8203C18.0159 24.7163 18.0483 24.6157 18.0996 24.5246C18.151 24.4335 18.2203 24.3538 18.3034 24.2902C18.3865 24.2267 18.4816 24.1807 18.583 24.155C18.8034 24.0878 19.0415 24.1108 19.2449 24.2188L19.1089 24.5548C19.0491 24.5119 18.9809 24.4823 18.9087 24.4681C18.8365 24.4539 18.7621 24.4554 18.6905 24.4725Z" fill="white"/>
<path d="M20.4491 23.5789L20.5465 23.8897L20.1148 24.0274L20.4726 25.1597L20.0946 25.279L19.7368 24.145L19.3084 24.2811L19.2109 23.9703L20.4491 23.5789Z" fill="white"/>
<path d="M20.9796 23.4126L21.4348 24.8574L21.0568 24.9767L20.6016 23.5319L20.9796 23.4126Z" fill="white"/>
<path d="M22.9538 23.5823C23.0139 23.736 23.0263 23.9042 22.9895 24.065C22.9526 24.2259 22.8682 24.3719 22.7471 24.4841C22.6261 24.5963 22.4741 24.6694 22.3109 24.6939C22.1477 24.7185 21.9809 24.6933 21.8322 24.6217C21.6835 24.5501 21.5599 24.4353 21.4773 24.2924C21.3948 24.1495 21.3572 23.9851 21.3695 23.8205C21.3817 23.6559 21.4432 23.4989 21.546 23.3698C21.6488 23.2407 21.7881 23.1455 21.9458 23.0967C22.0437 23.0608 22.1479 23.0449 22.2521 23.05C22.3563 23.0551 22.4585 23.081 22.5525 23.1263C22.6465 23.1716 22.7304 23.2353 22.7994 23.3136C22.8683 23.3919 22.9208 23.4833 22.9538 23.5823ZM21.7778 23.9535C21.8094 24.0623 21.8828 24.1542 21.982 24.209C22.0812 24.2638 22.198 24.277 22.307 24.2459C22.408 24.2041 22.4896 24.1259 22.5358 24.0268C22.582 23.9278 22.5893 23.815 22.5564 23.7108C22.5235 23.6065 22.4527 23.5184 22.358 23.4639C22.2633 23.4093 22.1516 23.3922 22.0449 23.4159C21.9921 23.4338 21.9434 23.4618 21.9015 23.4985C21.8595 23.5351 21.8253 23.5797 21.8006 23.6297C21.776 23.6796 21.7614 23.7339 21.7578 23.7895C21.7541 23.8451 21.7615 23.9008 21.7795 23.9535H21.7778Z" fill="white"/>
<path d="M23.2439 22.6968L24.173 23.3688L23.8991 22.4986L24.2502 22.3877L24.7055 23.8325L24.3695 23.9367L23.4422 23.2781L23.7143 24.1433L23.3632 24.2542L22.9062 22.8094L23.2439 22.6968Z" fill="white"/>
<path d="M25.8753 23.1842L25.252 23.3807L25.2302 23.6697L24.8438 23.7906L25.0117 22.151L25.3998 22.0283L26.4599 23.2833L26.0584 23.4093L25.8753 23.1842ZM25.6737 22.9322L25.3125 22.4786L25.2738 23.0582L25.6737 22.9322Z" fill="white"/>
<path d="M27.4561 22.959L27.1201 22.623L26.8479 22.7087L26.9739 23.1086L26.5959 23.2278L26.1406 21.783L26.7891 21.5781C27.1738 21.4571 27.4493 21.5781 27.5518 21.8956C27.5881 21.9879 27.597 22.0886 27.5773 22.1858C27.5576 22.283 27.5103 22.3724 27.4409 22.4433L27.8912 22.8196L27.4561 22.959ZM26.7437 22.413L27.0176 22.3274C27.0501 22.3217 27.081 22.3089 27.1079 22.2898C27.1348 22.2707 27.1571 22.2458 27.1732 22.217C27.1893 22.1882 27.1988 22.1562 27.2009 22.1232C27.2031 22.0903 27.1978 22.0573 27.1856 22.0266C27.1778 21.9947 27.1628 21.9649 27.1419 21.9396C27.1209 21.9142 27.0945 21.8939 27.0647 21.8802C27.0348 21.8665 27.0022 21.8597 26.9693 21.8603C26.9364 21.8609 26.9041 21.869 26.8748 21.8838L26.6009 21.9695L26.7437 22.413Z" fill="white"/>
<path d="M28.6739 22.0653L28.8201 22.5273L28.4421 22.6465L28.3009 22.1946L27.4609 21.3697L27.8373 21.2505L28.3749 21.7545L28.5143 21.0287L28.8906 20.9094L28.6739 22.0653Z" fill="white"/>
<path d="M22.0899 29.8067L20.4485 30.3241L20.3948 31.0785L19.375 31.401L19.8101 27.0885L20.8282 26.7676L23.6187 30.0721L22.562 30.4081L22.0899 29.8067ZM21.5573 29.1347L20.6115 27.9453L20.5073 29.4573L21.5573 29.1347Z" fill="white"/>
<path d="M24.702 27.552L24.8969 28.1686L23.4605 28.6222L23.2656 28.0039L24.702 27.552Z" fill="white"/>
<path d="M27.9043 24.5381L28.1092 25.1882L26.8459 28.1702L28.8837 27.5285L29.134 28.3248L25.774 29.3849L25.5708 28.7414L26.8324 25.7527L24.8988 26.3626L24.6484 25.5646L27.9043 24.5381Z" fill="white"/>
<path d="M37.7493 41.4961L37.7023 41.5146L37.5595 41.5633L37.0118 41.7313L34.9958 42.363L28.3211 44.4126L21.6381 46.4387L19.607 47.0401L19.0543 47.2081L18.9098 47.2484C18.8935 47.2541 18.8766 47.2575 18.8594 47.2585C18.8742 47.2504 18.89 47.2442 18.9064 47.24L19.0492 47.1913L19.5969 47.0233L21.6129 46.3916L28.2892 44.3403L34.9706 42.3159L36.9983 41.7111L37.5511 41.5431L37.6955 41.5045C37.713 41.4992 37.7311 41.4964 37.7493 41.4961Z" fill="#263238"/>
<path d="M26.3116 44.4714L23.2188 45.4206C23.9459 46.7528 24.4628 48.1893 24.7509 49.6794C25.1909 49.0013 25.4313 48.213 25.4447 47.4047C25.9676 48.0314 26.5377 48.6172 27.15 49.157C27.1928 47.5543 26.9075 45.9598 26.3116 44.4714Z" fill="#455A64"/>
<path d="M37.3754 41.113C37.3754 41.113 37.3603 41.1214 37.3283 41.1332L37.1872 41.1802L36.6395 41.3482L34.6235 41.9782L27.9489 44.0295L21.2675 46.0556L19.2398 46.6604L18.6871 46.82L18.5426 46.8586L18.4922 46.8704C18.5069 46.8617 18.5228 46.8549 18.5392 46.8502L18.6803 46.8032L19.2297 46.6268L21.2457 45.9968L27.9203 43.9455L34.6034 41.9194L36.6311 41.3281L37.1839 41.1685L37.3283 41.1298L37.3754 41.113Z" fill="#263238"/>
<path d="M38.0019 40.32C37.9916 40.2972 37.9832 40.2736 37.9767 40.2494L37.9146 40.0411L37.6844 39.2414C37.4862 38.5426 37.2006 37.5379 36.8444 36.2981C36.1388 33.8117 35.156 30.3778 34.0489 26.5927C32.9418 22.8077 31.927 19.3889 31.1744 16.9142C30.8031 15.6794 30.5024 14.6798 30.2907 13.9826C30.1899 13.6466 30.1093 13.3711 30.0538 13.1846C30.0286 13.0973 30.0085 13.0284 29.995 12.978C29.987 12.9545 29.9808 12.9303 29.9766 12.9058C29.987 12.9281 29.996 12.9511 30.0034 12.9746C30.0186 13.025 30.0421 13.0922 30.0706 13.1796C30.1294 13.3661 30.2151 13.6315 30.3243 13.9726C30.5394 14.6664 30.8502 15.6643 31.2349 16.8958C31.9959 19.3654 33.0291 22.7842 34.1379 26.5709C35.2467 30.3576 36.2178 33.7949 36.9082 36.283C37.2442 37.5262 37.5265 38.5325 37.718 39.2347L37.933 40.0394C37.9549 40.1285 37.9734 40.1974 37.9851 40.2494C37.9969 40.3015 38.0019 40.32 38.0019 40.32Z" fill="#263238"/>
<path d="M29.1229 18.2768C29.1229 18.2768 29.1229 18.2566 29.1028 18.2196L29.0473 18.0516C28.9981 17.8993 28.9275 17.6809 28.8357 17.3964C28.6542 16.8252 28.3905 15.9936 28.0561 14.9436L28.0881 14.9604L12.7564 19.7585L12.7849 19.7031C13.1428 20.8488 13.4922 21.9694 13.8265 23.0463L13.7728 23.0177L24.7012 19.6292L27.9352 18.6346L28.8105 18.3675L29.0389 18.2986L29.1179 18.2768L29.0457 18.3036L28.8239 18.3742L27.9671 18.648L24.7482 19.656L13.798 23.1017L13.756 23.1135L13.7425 23.0732C13.4065 21.9963 13.0571 20.8757 12.7009 19.7316L12.6875 19.6896L12.7295 19.6762L28.0729 14.9117L28.0965 14.9033V14.9268C28.4207 15.9869 28.6761 16.8252 28.8541 17.4032C28.9381 17.6854 29.0053 17.9072 29.0507 18.055C29.0725 18.1272 29.0877 18.181 29.0994 18.223C29.1089 18.2402 29.1167 18.2582 29.1229 18.2768Z" fill="white"/>
<path d="M69.8234 28.6644C73.3927 27.21 75.1072 23.1375 73.6528 19.5682C72.1983 15.9989 68.1258 14.2844 64.5565 15.7389C60.9872 17.1933 59.2728 21.2658 60.7272 24.8351C62.1816 28.4044 66.2542 30.1188 69.8234 28.6644Z" fill="white"/>
<path d="M61.489 29.1026C61.4806 29.1026 61.489 29.027 61.4436 28.8993C61.3854 28.7185 61.2727 28.5601 61.1211 28.4457C61.0192 28.3643 60.9004 28.3069 60.7733 28.2777C60.6287 28.2483 60.4786 28.2617 60.3415 28.3164C60.1812 28.3723 60.0416 28.4756 59.9411 28.6125C59.8406 28.7494 59.784 28.9136 59.7787 29.0834C59.7735 29.2531 59.8198 29.4205 59.9115 29.5634C60.0033 29.7063 60.1363 29.818 60.2928 29.8838C60.4266 29.9454 60.5752 29.9676 60.7212 29.9477C60.8494 29.9275 60.9716 29.8793 61.0791 29.8065C61.2374 29.7022 61.3594 29.5514 61.4285 29.3748C61.4755 29.2488 61.4789 29.1715 61.4856 29.1732C61.4879 29.1916 61.4879 29.2102 61.4856 29.2286C61.4851 29.2508 61.4817 29.2728 61.4755 29.2941C61.471 29.3246 61.4631 29.3545 61.452 29.3832C61.3979 29.5412 61.3023 29.6819 61.1752 29.7903C61.0481 29.8988 60.8942 29.9711 60.7296 29.9997C60.5729 30.0253 60.4121 30.0036 60.2676 29.9376C60.1063 29.8654 59.9688 29.7489 59.8711 29.6016C59.761 29.4478 59.7022 29.2632 59.7031 29.0741C59.7124 28.8849 59.7818 28.7036 59.9014 28.5566C60.0091 28.4191 60.1527 28.3138 60.3163 28.2525C60.4648 28.196 60.6266 28.1843 60.7817 28.2189C60.9186 28.2524 61.0457 28.3174 61.153 28.4088C61.308 28.5315 61.4198 28.7004 61.4722 28.8909C61.4796 28.9208 61.4852 28.9511 61.489 28.9817C61.492 29.004 61.492 29.0266 61.489 29.0489C61.4908 29.0667 61.4908 29.0847 61.489 29.1026Z" fill="#263238"/>
<path d="M66.0117 29.1429L66.1259 29.153L66.4619 29.1899L66.7055 29.2168C66.7962 29.2168 66.8954 29.2168 67.0029 29.2168H67.349C67.4129 29.2198 67.477 29.217 67.5405 29.2084L67.7438 29.1916C68.4198 29.1409 69.0842 28.988 69.7144 28.738C70.5512 28.4127 71.3178 27.9296 71.9723 27.3151L72.2462 27.053C72.3318 26.9606 72.4142 26.8598 72.4999 26.7624L72.6292 26.6145C72.6732 26.565 72.7142 26.5128 72.7519 26.4583L72.9854 26.1223C73.024 26.0668 73.0643 26.0131 73.103 25.9543L73.2054 25.7745C73.2726 25.6536 73.3432 25.5326 73.4121 25.41C73.481 25.2873 73.5297 25.1512 73.5902 25.0219C73.6204 24.9564 73.649 24.8891 73.6792 24.8236C73.6926 24.79 73.7094 24.7581 73.7212 24.7245L73.7565 24.6204C73.859 24.3408 73.9421 24.0545 74.0051 23.7635C74.0354 23.6157 74.0757 23.4695 74.0992 23.3167C74.1227 23.1638 74.1345 23.0109 74.153 22.8564C74.1614 22.7791 74.1748 22.7018 74.1782 22.6228C74.1815 22.5439 74.1782 22.4666 74.1782 22.3876C74.1782 22.2297 74.1866 22.0701 74.1782 21.9105C74.1616 21.5863 74.1234 21.2636 74.0639 20.9445L74.0186 20.7009C74.0186 20.6606 74.0051 20.6203 73.995 20.5783L73.9614 20.459C73.9144 20.291 73.869 20.1381 73.822 19.9768C73.775 19.8156 73.6994 19.6627 73.6389 19.5031C73.6053 19.4258 73.5784 19.3351 73.5398 19.2679L73.4222 19.0394C73.265 18.7292 73.0871 18.4301 72.8896 18.1439C72.7821 18.0045 72.6729 17.8667 72.5637 17.7273L72.4814 17.6215L72.389 17.5257L72.2042 17.3308L72.0194 17.1359L71.8161 16.9679L71.6145 16.7999L71.512 16.7109C71.4767 16.684 71.4381 16.6588 71.4011 16.6319L70.9542 16.3144L70.4754 16.0406C69.1439 15.3261 67.6153 15.0665 66.1226 15.3014L65.5799 15.4022L65.0524 15.5534L64.9214 15.592L64.7954 15.6424L64.5434 15.7432L64.293 15.8424L64.0528 15.965L63.8159 16.0876L63.6967 16.1498L63.5858 16.2204L63.1389 16.5059C62.8584 16.7121 62.5918 16.9366 62.3409 17.1779L62.1611 17.3527C62.099 17.4115 62.0469 17.4803 61.9931 17.5442C61.8839 17.6735 61.768 17.7979 61.6571 17.9306L61.3665 18.3388L61.2942 18.4413C61.2724 18.4766 61.2522 18.5119 61.2321 18.5488C61.1901 18.6194 61.1498 18.6916 61.1094 18.7622C60.9481 19.0442 60.8055 19.3366 60.6827 19.6375C60.6256 19.787 60.5802 19.9399 60.5282 20.0894C60.5046 20.1633 60.4794 20.2389 60.4542 20.3128C60.429 20.3868 60.419 20.4657 60.4005 20.5413C60.3669 20.6942 60.3333 20.8437 60.2997 20.9949C60.2661 21.1461 60.261 21.2973 60.2409 21.4468C60.2053 21.7422 60.1896 22.0397 60.1939 22.3372V22.4464C60.1939 22.4834 60.1938 22.5187 60.2022 22.5556C60.2022 22.6279 60.214 22.7001 60.219 22.7707C60.2342 22.9135 60.2375 23.0563 60.2594 23.1957C60.2812 23.3352 60.3098 23.4729 60.335 23.609C60.3484 23.6762 60.3602 23.7451 60.3719 23.8123L60.4274 24.0088C60.466 24.1399 60.503 24.2692 60.5399 24.3969C60.5567 24.4607 60.5786 24.5231 60.6054 24.5834C60.629 24.6456 60.6525 24.706 60.6777 24.7665C60.7264 24.8875 60.7701 25.0084 60.8222 25.1244C60.8742 25.2403 60.9364 25.3512 60.9902 25.4604C61.4053 26.2568 61.97 26.9658 62.6534 27.5486C62.7273 27.6124 62.7995 27.6779 62.8734 27.7384L63.1019 27.9064L63.322 28.0644C63.359 28.0896 63.3942 28.1164 63.4312 28.1383L63.5421 28.2021L63.9638 28.4457C64.0999 28.518 64.2376 28.5717 64.3636 28.6322L64.5484 28.7145C64.6058 28.7428 64.6653 28.7664 64.7265 28.7851L65.0541 28.896C65.1566 28.9296 65.2506 28.9648 65.3363 28.9884L65.5766 29.0438L65.9025 29.1194L66.0134 29.1463C66.0134 29.1463 65.9747 29.1463 65.9008 29.1261L65.5749 29.0555L65.333 29.0035C65.2456 28.9816 65.1515 28.9464 65.049 28.9144L64.713 28.8069C64.6518 28.7885 64.5922 28.7649 64.535 28.7364L64.3485 28.654C64.2208 28.5952 64.083 28.5431 63.9453 28.4709L63.5236 28.224L63.411 28.1601C63.3741 28.1383 63.3405 28.1114 63.3035 28.0862L63.0818 27.9299L62.8499 27.762L62.6282 27.5704C61.9378 26.9875 61.3673 26.276 60.9482 25.4755C60.8894 25.3646 60.8322 25.252 60.7802 25.1395C60.7281 25.0269 60.6827 24.9009 60.634 24.78C60.6105 24.7178 60.5853 24.6573 60.5601 24.5951C60.533 24.5344 60.5111 24.4714 60.4946 24.407C60.4576 24.2776 60.419 24.1483 60.382 24.0172C60.3618 23.9517 60.3417 23.8862 60.3249 23.819C60.3081 23.7518 60.2997 23.6829 60.2862 23.614C60.261 23.4763 60.2358 23.3385 60.209 23.1991C60.1821 23.0596 60.1821 22.9135 60.1687 22.7707C60.1687 22.6984 60.1552 22.6262 60.1502 22.5523C60.1502 22.517 60.1418 22.48 60.1418 22.4431V22.344C60.1361 22.0442 60.1513 21.7445 60.1871 21.4468C60.2073 21.2973 60.2174 21.1427 60.2459 20.9915L60.3467 20.5346C60.3652 20.4573 60.377 20.38 60.4005 20.3044L60.4761 20.0776C60.5265 19.9281 60.5719 19.7736 60.6307 19.6224C60.7533 19.319 60.8964 19.0243 61.059 18.7404L61.1817 18.5236C61.2035 18.4867 61.222 18.4497 61.2455 18.4144L61.3211 18.3119C61.4186 18.1764 61.516 18.0387 61.6134 17.8987C61.7176 17.7659 61.8352 17.64 61.9494 17.5089C62.0066 17.4451 62.0586 17.3762 62.1174 17.3174L62.3056 17.1376C62.559 16.8964 62.8278 16.6719 63.1103 16.4656L63.5606 16.1784L63.6731 16.1061L63.7924 16.0439L64.0327 15.9196L64.2746 15.797L64.5282 15.6945L64.7819 15.5937L64.9096 15.5433L65.0407 15.5047L65.5732 15.3501L66.1209 15.2493C67.6275 15.0118 69.1703 15.2738 70.5141 15.9952L70.9979 16.2724L71.4482 16.5916C71.4851 16.6185 71.5238 16.6437 71.5607 16.6723L71.6632 16.763L71.8699 16.9411L72.0765 17.1208L72.263 17.3174L72.4494 17.5123C72.4797 17.5459 72.5116 17.5778 72.5402 17.6114L72.6242 17.7172L72.9602 18.1372C73.1585 18.4264 73.3375 18.7283 73.4961 19.0411L73.6137 19.2712C73.654 19.3485 73.6809 19.4392 73.7128 19.5098C73.775 19.6778 73.8438 19.8273 73.8976 19.9886L74.0387 20.4741L74.0723 20.5951C74.0824 20.6354 74.0891 20.6774 74.0975 20.7177C74.1126 20.8 74.1278 20.8857 74.1412 20.963C74.2014 21.2848 74.2396 21.6104 74.2554 21.9374C74.2554 22.1054 74.2554 22.2599 74.2554 22.4195C74.2554 22.4985 74.2554 22.5775 74.2554 22.6564C74.2554 22.7354 74.2386 22.8143 74.2302 22.8916L74.1748 23.357C74.1513 23.5099 74.111 23.6577 74.0807 23.8072C74.016 24.1 73.9312 24.3879 73.827 24.6691L73.7918 24.7732C73.78 24.8068 73.7632 24.8404 73.7481 24.874L73.659 25.0739C73.5986 25.205 73.5465 25.3377 73.4793 25.4637L73.2491 25.8182L73.145 25.9996C73.1063 26.0567 73.066 26.1122 73.0274 26.1676L72.7905 26.5036C72.7533 26.559 72.7117 26.6112 72.6662 26.6599L72.5368 26.8094C72.4495 26.9068 72.3688 27.0076 72.2798 27.1017L72.0042 27.3638C71.342 27.9796 70.5667 28.4611 69.7211 28.7817C69.0882 29.0317 68.4209 29.1836 67.7421 29.2319L67.5388 29.2471C67.4751 29.2529 67.411 29.2529 67.3473 29.2471H66.9995C66.892 29.2471 66.7912 29.2471 66.7022 29.2387L66.4569 29.2084L66.1209 29.1648L66.0117 29.1429Z" fill="#263238"/>
<path d="M65.5237 20.664H66.5082C66.5081 20.5522 66.5305 20.4414 66.5738 20.3383C66.6172 20.2351 66.6807 20.1417 66.7607 20.0634C66.8407 19.9852 66.9355 19.9237 67.0395 19.8826C67.1436 19.8415 67.2548 19.8216 67.3666 19.824C67.5315 19.818 67.6942 19.8633 67.8323 19.9535C67.9704 20.0438 68.0771 20.1746 68.1378 20.328C68.1897 20.4569 68.2104 20.5963 68.1981 20.7347C68.1858 20.8731 68.141 21.0066 68.0672 21.1244C67.8992 21.3999 67.5346 21.6502 66.871 21.5326V23.7519H67.8438V22.4532C68.2435 22.3359 68.5937 22.0905 68.8404 21.7548C69.0872 21.4191 69.2169 21.0117 69.2096 20.5952C69.2096 19.1554 67.9194 18.8228 67.3616 18.8228C66.9399 18.8328 65.5018 18.9336 65.5237 20.664Z" fill="#263238"/>
<path d="M67.855 24.2188H66.8672V25.1411H67.855V24.2188Z" fill="#263238"/>
<path d="M42.3677 24.0542C41.3849 23.3032 41.269 21.7492 41.9292 20.7043C42.5894 19.6593 43.8444 19.0999 45.0775 19.0108C45.9733 18.9542 46.8697 19.1103 47.6936 19.4662C48.5176 19.8221 49.2457 20.3678 49.8185 21.0588C50.4283 21.8097 50.892 22.7589 51.774 23.1554C52.5485 23.5048 53.454 23.3234 54.2856 23.5132C55.3994 23.7585 56.2932 24.6439 56.7854 25.672C57.2777 26.7002 57.4138 27.856 57.4474 29.0001C57.4776 30.0468 57.4591 31.1841 58.111 32.0073C58.7628 32.8305 59.8363 33.059 60.6612 33.6588C62.2118 34.7894 62.5277 37.2775 61.308 38.7576C60.9199 39.2313 60.384 39.648 60.2899 40.2528C60.2042 40.8038 60.5201 41.3313 60.641 41.8756C60.9535 43.2801 59.6935 44.8039 58.2554 44.7602C57.5297 44.7367 56.7804 44.3872 56.105 44.6527C55.4297 44.9181 55.1273 45.6708 54.6636 46.2235C54.1928 46.7574 53.5528 47.1133 52.8508 47.2313C52.1488 47.3494 51.4275 47.2225 50.808 46.872C50.304 46.5645 49.837 46.0908 49.2422 46.079C48.6475 46.0672 48.1418 46.5276 47.5522 46.583C46.781 46.662 46.1107 46.0404 45.7142 45.3734C45.3178 44.7064 45.0691 43.9387 44.5382 43.3742C43.8427 42.635 42.7944 42.3763 41.867 41.9613C40.8394 41.503 39.9222 40.8294 39.1776 39.9859C38.4329 39.1424 37.8781 38.1487 37.5507 37.0722C37.2234 35.9957 37.1311 34.8614 37.2802 33.7462C37.4292 32.6309 37.8161 31.5607 38.4146 30.6079" fill="#263238"/>
<path d="M52.1699 38.6199C52.425 38.3904 52.7316 38.2256 53.0637 38.1394L52.9999 38.131C53.0604 38.121 53.1216 38.1159 53.183 38.1159C53.2954 38.0934 53.4112 38.0942 53.5233 38.1182C53.6354 38.1422 53.7414 38.1888 53.8348 38.2553C54.1911 38.4206 54.4727 38.713 54.6244 39.0752C54.739 39.3943 54.7636 39.7389 54.6954 40.071C54.6273 40.4032 54.469 40.7102 54.238 40.9585C53.8432 41.3936 53.2048 41.6439 52.6487 41.4625C52.1447 41.2945 51.7919 40.7821 51.6895 40.2512C51.6258 39.9608 51.6364 39.6591 51.7204 39.3739C51.8044 39.0887 51.959 38.8294 52.1699 38.6199Z" fill="#455A64"/>
<path d="M53.7865 31.5418C53.7764 28.5867 52.0426 24.8605 49.0909 24.9898L39.7971 26.7589C39.3645 26.7784 38.9551 26.9596 38.6498 27.2667C38.3446 27.5738 38.1659 27.9844 38.149 28.417L36.8672 53.3298L47.3857 53.2743C47.5133 51.4918 47.9838 46.4737 47.9838 46.4905C47.9838 46.5073 52.0779 46.1007 53.1481 41.2422C53.6823 38.8297 53.7965 34.8229 53.7865 31.5418Z" fill="#FFBF9D"/>
<path d="M51.5865 35.5639C51.5786 35.7279 51.5069 35.8823 51.3866 35.9941C51.2664 36.1059 51.1071 36.1661 50.943 36.162C50.8626 36.1638 50.7827 36.1495 50.7079 36.1198C50.6332 36.0902 50.5651 36.0459 50.5078 35.9895C50.4505 35.9331 50.405 35.8658 50.3742 35.7915C50.3433 35.7173 50.3277 35.6376 50.3281 35.5572C50.336 35.3931 50.4077 35.2385 50.5279 35.1264C50.6481 35.0144 50.8073 34.9537 50.9716 34.9574C51.052 34.9559 51.132 34.9704 51.2068 35.0002C51.2815 35.03 51.3496 35.0745 51.4069 35.131C51.4642 35.1876 51.5096 35.255 51.5404 35.3293C51.5713 35.4037 51.5869 35.4834 51.5865 35.5639Z" fill="#263238"/>
<path d="M52.8052 33.237C52.7229 33.3143 52.2676 32.9329 51.5889 32.901C50.9101 32.8691 50.3961 33.1715 50.3272 33.0841C50.2936 33.0455 50.3826 32.9027 50.6077 32.7582C50.9103 32.5739 51.2622 32.4871 51.6157 32.5096C51.97 32.5249 52.3099 32.6539 52.5851 32.8775C52.785 33.0505 52.8455 33.2034 52.8052 33.237Z" fill="#263238"/>
<path d="M45.4927 35.1455C45.4849 35.3095 45.4131 35.4639 45.2929 35.5756C45.1726 35.6874 45.0134 35.7477 44.8493 35.7435C44.7687 35.7453 44.6887 35.7309 44.6138 35.7012C44.5389 35.6715 44.4708 35.627 44.4135 35.5704C44.3561 35.5139 44.3107 35.4464 44.28 35.3719C44.2492 35.2975 44.2337 35.2176 44.2344 35.1371C44.2427 34.9732 44.3145 34.8191 44.4347 34.7074C44.5548 34.5957 44.7138 34.5353 44.8778 34.539C44.9583 34.5374 45.0383 34.552 45.113 34.5818C45.1878 34.6116 45.2558 34.6561 45.3131 34.7126C45.3704 34.7691 45.4158 34.8365 45.4467 34.9109C45.4775 34.9852 45.4932 35.065 45.4927 35.1455Z" fill="#263238"/>
<path d="M46.1412 32.9666C46.0572 33.0439 45.6019 32.6626 44.9249 32.6306C44.2478 32.5987 43.7321 32.9011 43.6632 32.8138C43.6296 32.7751 43.717 32.6323 43.9438 32.4878C44.2461 32.3031 44.5982 32.2163 44.9518 32.2392C45.3043 32.2585 45.6415 32.3897 45.9144 32.6138C46.1194 32.7802 46.1815 32.928 46.1412 32.9666Z" fill="#263238"/>
<path d="M48.2969 38.136C48.2969 38.0974 48.7202 38.0487 49.4074 38.0033C49.5754 38.0033 49.7434 37.9697 49.7837 37.8538C49.824 37.7379 49.7702 37.5413 49.6997 37.3347L49.2662 35.9907C48.6682 34.0738 48.2465 32.5013 48.3238 32.4778C48.401 32.4543 48.9487 33.9898 49.5468 35.905C49.6896 36.3788 49.8274 36.829 49.9567 37.2591C50.0105 37.459 50.1096 37.6892 50.0071 37.9428C49.9784 38.0022 49.9366 38.0543 49.8848 38.095C49.833 38.1358 49.7725 38.1642 49.7081 38.178C49.6104 38.199 49.5104 38.2069 49.4107 38.2016C48.7169 38.1948 48.2969 38.173 48.2969 38.136Z" fill="#263238"/>
<path d="M48.0283 46.4302C48.0283 46.4302 45.0043 46.4571 41.8594 44.2966C41.8594 44.2966 42.9547 48.0615 47.8923 47.8952L48.0283 46.4302Z" fill="#FF9A6C"/>
<path d="M48.107 39.7369C47.9679 39.5047 47.7744 39.3097 47.5432 39.1689C47.312 39.0282 47.05 38.9458 46.7798 38.9289C46.6029 38.92 46.4265 38.9545 46.266 39.0295C46.1055 39.1045 45.9658 39.2176 45.8591 39.3589C45.7511 39.5194 45.6893 39.7065 45.6807 39.8998C45.6721 40.093 45.717 40.2849 45.8104 40.4543C45.9226 40.6302 46.0852 40.7682 46.277 40.8503C46.4688 40.9324 46.6809 40.9548 46.8856 40.9146C47.2737 40.8457 47.6046 40.6021 47.9188 40.3585C48.0118 40.2958 48.0903 40.2139 48.149 40.1183C48.1787 40.0655 48.1943 40.0059 48.1943 39.9453C48.1943 39.8846 48.1787 39.825 48.149 39.7722" fill="#FF9A6C"/>
<path d="M46.2804 38.4837C46.3913 38.4837 46.3493 39.2179 46.9524 39.7773C47.5556 40.3367 48.3368 40.3015 48.3368 40.4056C48.3368 40.4527 48.1536 40.5383 47.8227 40.5266C47.3919 40.5061 46.9818 40.3355 46.6635 40.0444C46.3617 39.7626 46.1811 39.3748 46.1595 38.9625C46.1376 38.6534 46.2317 38.4719 46.2804 38.4837Z" fill="#263238"/>
<path d="M46.6077 30.198C46.5288 30.3777 45.8585 30.25 45.0588 30.2988C44.2591 30.3475 43.6039 30.5256 43.5081 30.3542C43.4661 30.2719 43.5871 30.1056 43.8576 29.9426C44.2159 29.7442 44.6149 29.6303 45.024 29.6096C45.4331 29.589 45.8415 29.662 46.218 29.8233C46.5036 29.9577 46.6413 30.1123 46.6077 30.198Z" fill="#263238"/>
<path d="M52.7039 30.8935C52.5762 31.0397 52.1193 30.8532 51.5582 30.8112C50.997 30.7692 50.5166 30.8532 50.4174 30.6852C50.3738 30.6046 50.4578 30.4551 50.6728 30.3223C50.9627 30.1638 51.2933 30.0951 51.6224 30.125C51.9515 30.1549 52.2642 30.2821 52.5208 30.4903C52.7056 30.6583 52.761 30.8213 52.7039 30.8935Z" fill="#263238"/>
<path d="M57.1822 30.4701C57.0142 29.7175 56.6613 28.9816 56.0549 28.5045C55.7189 28.2441 55.3257 28.0677 55.0217 27.7754C54.3648 27.142 54.2875 26.134 53.9213 25.2991C53.6795 24.7613 53.3131 24.289 52.8524 23.9211C52.3916 23.5533 51.8498 23.3006 51.2719 23.1839C50.3109 22.9991 49.2861 23.2024 48.3622 22.8815C47.6784 22.643 47.1072 22.1356 46.4117 21.9391C45.0559 21.556 43.6884 22.4313 42.6014 23.3284C42.5107 24.3146 43.2398 25.0437 43.9454 25.7443C44.2993 26.0926 44.7245 26.3601 45.1918 26.5284C45.659 26.6966 46.1572 26.7615 46.6519 26.7187C47.4163 26.6481 48.2748 26.3407 48.8913 26.7993C49.5398 27.2815 49.4777 28.3113 50.0388 28.8993C50.8418 29.7292 52.285 29.1429 53.3602 29.5713C54.1884 29.8989 54.6487 30.7607 55.1544 31.4949C55.6601 32.2291 56.4513 32.9565 57.3249 32.7784C57.3333 32.0023 57.3451 31.2244 57.1822 30.4701Z" fill="#263238"/>
<path d="M47.2086 25.3881C46.6071 25.1563 45.3774 24.6456 45.0935 24.0794C44.4769 22.8513 43.2774 21.9458 41.9737 21.8954C41.298 21.8888 40.6383 22.1011 40.0932 22.5005C39.5482 22.8999 39.147 23.465 38.9497 24.1113C37.3806 23.9853 35.7577 24.8354 34.8791 26.2517C34.768 26.4295 34.6692 26.6147 34.5834 26.8061C34.3008 27.2174 34.1116 27.6856 34.0289 28.1777C33.9462 28.6699 33.972 29.1742 34.1046 29.6553C34.2726 30.2316 34.5783 30.8851 34.2457 31.3841C33.9131 31.883 33.1655 31.8427 32.5657 31.9905C32.0521 32.1339 31.6051 32.4532 31.3029 32.8926C31.0008 33.3321 30.8626 33.8637 30.9126 34.3946C30.9596 34.7726 31.1041 35.159 30.9932 35.5236C30.8823 35.8881 30.5245 36.1485 30.2423 36.4274C29.8922 36.778 29.6402 37.2143 29.5114 37.6927C29.3826 38.1712 29.3816 38.675 29.5084 39.154C29.6353 39.6329 29.8855 40.0702 30.2342 40.4222C30.5829 40.7742 31.0178 41.0286 31.4955 41.16C31.929 41.2776 32.4061 41.3011 32.7673 41.5699C33.1789 41.8757 33.3234 42.4183 33.5955 42.8551C33.8651 43.2702 34.2545 43.5936 34.712 43.7823C35.1696 43.971 35.6737 44.0162 36.1575 43.9118C36.351 43.864 36.5369 43.79 36.7103 43.6917C36.969 44.1269 37.4058 44.4444 38.1971 44.5133L38.9245 34.1796C38.9702 34.311 39.0471 34.4294 39.1486 34.5245C39.2502 34.6196 39.3733 34.6886 39.5075 34.7256C41.1303 35.2447 41.673 31.8545 41.384 30.8969C42.0308 30.4181 42.6843 29.9325 43.2001 29.2958C43.7159 28.6591 44.282 26.8531 44.2585 26.0148C44.8566 26.1055 47.469 25.4889 47.2086 25.3881Z" fill="#263238"/>
<path d="M39.3139 35.0616C39.3525 34.0082 38.0892 33.6706 37.1299 34.1158C36.604 34.3594 36.1723 34.907 36.1219 36.0242C35.9824 39.0029 39.0014 38.5291 39.0115 38.4434C39.0148 38.3914 39.2618 36.288 39.3139 35.0616Z" fill="#FFBF9D"/>
<path d="M38.1476 37.2725C38.1342 37.2624 38.0938 37.3061 38.0031 37.3413C37.8774 37.3885 37.7382 37.3849 37.615 37.3313C37.3059 37.2019 37.064 36.6895 37.0741 36.1553C37.0796 35.8996 37.1416 35.6483 37.2555 35.4194C37.2875 35.3275 37.3414 35.2447 37.4125 35.1783C37.4837 35.1119 37.5699 35.0637 37.6638 35.0381C37.7242 35.0256 37.7871 35.0344 37.8419 35.0628C37.8966 35.0913 37.9399 35.1377 37.9645 35.1943C37.9998 35.28 37.9779 35.3388 37.993 35.3455C38.0082 35.3522 38.0602 35.2985 38.0418 35.1775C38.0283 35.1026 37.9898 35.0345 37.9326 34.9843C37.8536 34.9191 37.7524 34.8872 37.6503 34.8953C37.5266 34.9134 37.4097 34.9632 37.3108 35.0397C37.212 35.1162 37.1345 35.2169 37.0858 35.3321C36.9469 35.5839 36.8719 35.866 36.8674 36.1536C36.8574 36.755 37.1396 37.3296 37.5646 37.4757C37.6432 37.503 37.7269 37.5122 37.8095 37.5026C37.8922 37.493 37.9715 37.4648 38.0418 37.4203C38.1325 37.343 38.1577 37.2775 38.1476 37.2725Z" fill="#FF9A6C"/>
<path d="M43.186 24.2256C43.2045 24.2592 42.8786 24.2844 42.5493 24.6691C42.22 25.0538 42.0453 25.8132 42.1495 26.7036L42.1595 26.7792L42.0856 26.7909C41.6489 26.8676 41.2358 27.0439 40.8783 27.3061C40.5208 27.5683 40.2286 27.9095 40.0243 28.3029C39.9121 28.5259 39.8383 28.7661 39.8059 29.0136C39.7896 29.2781 39.7975 29.5435 39.8294 29.8065C39.8637 30.0902 39.8767 30.3761 39.868 30.6617C39.8622 30.9736 39.7522 31.2746 39.5555 31.5168C39.1372 32.046 38.519 32.2694 37.9848 32.4929C37.4592 32.6718 36.9666 32.9357 36.5265 33.2741C35.7974 33.8742 35.3231 34.7285 35.1993 35.6647C35.122 36.2973 35.2004 36.9392 35.4278 37.5345C35.5958 37.9562 35.7386 38.1645 35.7201 38.1763C35.6756 38.133 35.6372 38.0838 35.6059 38.0301C35.5082 37.8825 35.4233 37.7269 35.3522 37.5648C35.0872 36.9628 34.9836 36.3021 35.0515 35.6479C35.158 34.6661 35.6395 33.7633 36.3955 33.1279C36.8492 32.7698 37.3605 32.4915 37.9075 32.3047C38.4417 32.0813 39.0247 31.8561 39.3892 31.3891C39.7588 30.9674 39.6631 30.366 39.6244 29.8267C39.5921 29.5479 39.5853 29.2667 39.6043 28.9867C39.6419 28.7163 39.7243 28.454 39.8479 28.2105C40.0676 27.7921 40.3824 27.4309 40.7669 27.1561C41.1514 26.8812 41.595 26.7004 42.0621 26.628L41.9966 26.7153C41.9008 25.7846 42.1108 24.9933 42.4838 24.6019C42.6221 24.4507 42.7951 24.3354 42.9878 24.2659C43.0519 24.2443 43.1185 24.2307 43.186 24.2256Z" fill="#455A64"/>
<path d="M36.9442 38.2855C37.1992 38.056 37.5058 37.8912 37.8379 37.805L37.7724 37.795C37.8337 37.7866 37.8954 37.7815 37.9572 37.7798C38.0698 37.7576 38.1856 37.7587 38.2978 37.7829C38.4099 37.8072 38.5158 37.8542 38.6091 37.921C38.9651 38.085 39.2464 38.3771 39.397 38.7391C39.5121 39.0583 39.5371 39.4031 39.4692 39.7356C39.4014 40.0681 39.2433 40.3755 39.0123 40.6241C38.6158 41.0575 37.9791 41.3095 37.423 41.1281C36.919 40.9601 36.5662 40.4561 36.4637 39.9168C36.3992 39.6265 36.4094 39.3245 36.4935 39.0392C36.5775 38.7539 36.7326 38.4945 36.9442 38.2855Z" fill="#455A64"/>
<path d="M26.2718 51.7993C26.2718 51.7993 13.4399 64.2515 13.5558 68.2717C13.549 68.3384 13.5355 68.4043 13.5155 68.4683C13.0485 71.1092 14.967 73.5839 17.6282 73.9199L22.5875 74.5364L33.1816 60.873L30.3138 53.2391L26.2718 51.7993Z" fill="#5F2B38"/>
<path d="M21.8438 57.9314C21.8438 57.9314 23.9135 54.4303 26.2773 51.7994C28.515 49.3114 31.4937 48.6074 32.1573 48.5705C34.6101 48.4546 44.9522 49.1534 51.5865 49.4105C54.051 49.5096 56.4854 50.941 58.0965 52.8091C61.7034 56.9923 68.0286 64.4482 69.2987 66.7447C71.0997 69.9972 69.8363 77.4026 68.5729 78.3905C67.3096 79.3783 28.5453 77.6966 28.5453 77.6966L21.8438 57.9314Z" fill="#5F2B38"/>
<path d="M65.4325 66.7532C65.4058 66.7567 65.3787 66.7567 65.3519 66.7532L65.1201 66.7448L64.9521 66.7364C64.8916 66.7364 64.8244 66.7364 64.7538 66.7364C64.5928 66.7364 64.4318 66.7449 64.2717 66.7616L63.9928 66.7901C63.8953 66.8002 63.7962 66.8237 63.6921 66.8405C63.4837 66.8708 63.2687 66.9329 63.0385 66.99C62.049 67.2728 61.1364 67.776 60.369 68.4617C60.2027 68.611 60.044 68.7686 59.8936 68.9338C59.8247 69.0128 59.7525 69.085 59.6903 69.1606C59.6281 69.2362 59.5727 69.3118 59.5223 69.3824C59.4231 69.5085 59.3306 69.6397 59.2451 69.7755C59.2048 69.836 59.1661 69.8897 59.1342 69.9435L59.0536 70.088C59.0065 70.1669 58.9696 70.2341 58.9377 70.2879C58.9057 70.3416 58.894 70.3568 58.8906 70.3551C58.898 70.3289 58.9082 70.3036 58.9209 70.2795C58.9494 70.224 58.983 70.1552 59.0233 70.0712L59.0989 69.9216C59.1292 69.8679 59.1661 69.8124 59.2031 69.7536C59.2856 69.6137 59.3759 69.4786 59.4736 69.3488C59.5273 69.2748 59.5845 69.1992 59.6416 69.122C59.6987 69.0447 59.7743 68.9691 59.8432 68.8884C59.9934 68.7193 60.1521 68.5578 60.3186 68.4046C61.0907 67.7045 62.0158 67.1947 63.0201 66.9161C63.2414 66.8563 63.4657 66.8081 63.6921 66.7716C63.7962 66.7565 63.897 66.7347 63.9961 66.7263L64.2784 66.7028C64.4405 66.69 64.6031 66.6861 64.7656 66.691C64.8378 66.691 64.9033 66.691 64.9655 66.691L65.1335 66.7061L65.3653 66.7313C65.3886 66.7355 65.4113 66.7428 65.4325 66.7532Z" fill="#263238"/>
<path d="M31.1759 66.2256C31.1614 66.1883 31.1512 66.1494 31.1456 66.1097L31.0734 65.7737C31.0079 65.4814 30.9054 65.0597 30.7525 64.5439C30.347 63.2055 29.8697 61.8898 29.3228 60.6027C28.6912 59.0907 28.0427 57.7467 27.537 56.8075C27.4127 56.569 27.2951 56.3556 27.1892 56.1708C27.0834 55.986 26.996 55.8231 26.9188 55.6954L26.7508 55.3963C26.7285 55.3626 26.7099 55.3265 26.6953 55.2888C26.7219 55.3196 26.7455 55.3528 26.7659 55.3879L26.954 55.6786C27.0364 55.8029 27.122 55.9625 27.238 56.1456C27.3539 56.3287 27.4698 56.5404 27.5975 56.7773C28.2651 58.0072 28.8668 59.2718 29.4001 60.5657C29.9493 61.8555 30.42 63.1772 30.8096 64.5238C30.9524 65.0429 31.0482 65.4679 31.1036 65.7636C31.1272 65.9064 31.1456 66.019 31.1591 66.0996C31.1692 66.1409 31.1749 66.1831 31.1759 66.2256Z" fill="#263238"/>
<path d="M56.7864 55.3914C56.788 55.4053 56.788 55.4194 56.7864 55.4334V55.556C56.7864 55.6719 56.7864 55.8298 56.7864 56.0298C56.7864 56.443 56.7612 57.0378 56.7293 57.7736C56.6688 59.2453 56.5412 61.2764 56.316 63.5142C56.0909 65.7519 55.812 67.7662 55.5752 69.2262C55.4592 69.9536 55.3584 70.5399 55.2828 70.9448C55.2459 71.143 55.2156 71.2976 55.1938 71.4118L55.1686 71.5328C55.1674 71.5469 55.1634 71.5606 55.1568 71.5731C55.1561 71.5591 55.1561 71.5451 55.1568 71.5311C55.1568 71.4975 55.1669 71.4572 55.1736 71.4085C55.1904 71.2942 55.2156 71.138 55.2459 70.9398C55.3097 70.5248 55.4004 69.9318 55.5113 69.2161C55.728 67.7612 56.0002 65.7452 56.2253 63.5041C56.4504 61.263 56.5865 59.2402 56.6655 57.7702C56.7008 57.0411 56.7293 56.4481 56.7495 56.0298C56.7596 55.8298 56.7663 55.6702 56.7713 55.556C56.7713 55.5056 56.7713 55.4653 56.7797 55.4334C56.7802 55.4191 56.7824 55.405 56.7864 55.3914Z" fill="#263238"/>
<path d="M49.6387 48.1874C49.4943 48.1041 49.3315 48.0579 49.1649 48.053L37.6334 46.7896C37.2403 46.7459 36.7934 46.7174 36.4943 46.9761C36.113 47.3037 36.1735 47.9102 36.3448 48.3839C36.5162 48.8577 36.7732 49.3382 36.6808 49.8321L49.0574 50.6083C48.9801 50.1614 49.3346 49.7683 49.5967 49.4054C49.8587 49.0425 50.0083 48.4478 49.6387 48.1874Z" fill="#5F2B38"/>
<path d="M50.1876 50.3697C50.144 50.386 50.099 50.3984 50.0532 50.4067L49.6601 50.4924C49.4921 50.5293 49.2788 50.573 49.0335 50.6116C48.7882 50.6503 48.511 50.704 48.1935 50.7376L47.708 50.7998C47.54 50.82 47.3602 50.8317 47.1771 50.8485C46.8125 50.8872 46.4194 50.9006 46.0011 50.9208C45.1046 50.9477 44.2073 50.9264 43.3131 50.8569C42.4192 50.7784 41.5303 50.6511 40.6503 50.4756C40.2471 50.3882 39.8624 50.3076 39.5079 50.2101C39.3298 50.1631 39.1568 50.1228 38.9938 50.074L38.5234 49.9346C38.2227 49.8489 37.9572 49.7498 37.722 49.6708C37.4868 49.5919 37.2869 49.5146 37.1256 49.4491L36.7527 49.2996C36.7088 49.2836 36.6661 49.2645 36.625 49.2424C36.6708 49.2524 36.7157 49.2659 36.7594 49.2828L37.1374 49.4172C37.3054 49.4776 37.502 49.5499 37.7388 49.6238C37.9757 49.6977 38.2428 49.7918 38.5419 49.8741L39.0106 50.0102C39.1786 50.0556 39.3466 50.0942 39.5247 50.1412C39.8792 50.2353 40.2639 50.3092 40.6671 50.3966C42.4215 50.7456 44.2098 50.8943 45.9977 50.8401C46.4093 50.8233 46.8008 50.8116 47.1653 50.7763C47.3484 50.7612 47.5248 50.7511 47.6928 50.7326L48.18 50.6772C48.4892 50.6469 48.768 50.5982 49.02 50.5629C49.272 50.5276 49.4753 50.4907 49.6467 50.4588L50.0415 50.3882C50.0895 50.3775 50.1384 50.3713 50.1876 50.3697Z" fill="#263238"/>
<g opacity="0.3">
<path d="M21.9994 62.5935C20.8949 62.7878 19.8653 63.2826 19.0233 64.0234C18.1814 64.7643 17.5598 65.7227 17.2266 66.7935C17.8028 66.6037 18.3522 66.1081 18.7722 65.6679C19.8658 64.5205 21.2149 63.7527 22.7907 63.5847C23.876 63.4671 24.9142 63.7527 25.929 64.1509C26.3876 64.3323 26.9 64.4331 27.3099 64.7103L27.8526 64.8346C26.5774 63.0001 24.2053 62.2374 21.9994 62.5935Z" fill="black"/>
</g>
<g opacity="0.3">
<path d="M37.4922 49.5601C39.1302 51.0452 41.2755 52.1002 43.4814 52.2598C45.6872 52.4194 47.8007 51.7138 49.6352 50.4773C45.1547 51.1796 41.0773 50.941 37.4922 49.5601Z" fill="black"/>
</g>
<g opacity="0.3">
<path d="M65.6347 65.4762C65.2735 65.2478 64.8149 65.2528 64.3899 65.3082C61.7254 65.6241 59.1466 67.4385 58.8828 70.365C60.0051 68.1945 62.3134 66.6035 64.7477 66.8135C65.1576 66.8488 65.6448 66.8975 65.9069 66.58C66.169 66.2625 65.9943 65.7064 65.6347 65.4762Z" fill="black"/>
</g>
<path d="M14.5762 79.4639L36.4263 79.353C36.4263 79.353 36.2818 79.7747 37.1874 79.7747L44.4114 79.7243C44.4114 79.7243 44.9456 79.7747 44.954 79.353C44.954 79.353 61.8934 79.6386 66.0783 79.7562C66.3908 79.7646 66.9452 79.5748 66.6848 79.1766L65.2249 77.4277L41.0564 75.0757L23.9204 76.8767L18.0404 74.7532H17.8455C17.7663 74.7529 17.6881 74.7716 17.6176 74.8079C17.5472 74.8442 17.4865 74.8968 17.4406 74.9615L14.4166 79.1615C14.3967 79.1905 14.3852 79.2245 14.3831 79.2596C14.3811 79.2947 14.3887 79.3298 14.4051 79.3609C14.4216 79.392 14.4462 79.4181 14.4763 79.4362C14.5065 79.4544 14.541 79.4639 14.5762 79.4639Z" fill="#455A64"/>
<path opacity="0.2" d="M23.8125 78.9583L62.7381 79.2591L53.5838 76.4232L42.1715 76.7441L30.7526 76.2888L23.8125 78.9583Z" fill="black"/>
<path d="M40.8382 78.1889L41.055 73.3992C41.055 73.3992 41.0986 70.7649 37.9251 69.8863C34.7516 69.0077 30.7969 70.1265 27.1026 70.3265C23.4082 70.5264 23.4519 70.2458 23.4519 70.2458L20.4531 74.8759L32.2316 76.5929C32.2316 76.5929 39.0558 76.991 39.1851 77.0313C39.3145 77.0717 40.8382 78.1889 40.8382 78.1889Z" fill="white"/>
<path d="M40.7969 78.3585L41.0522 73.8578C41.0522 73.8578 41.0086 71.2319 44.1804 70.3466C47.3522 69.4612 51.307 70.5851 55.0013 70.785C57.5868 70.9245 58.3882 70.901 58.6368 70.8741C58.6714 70.8703 58.7064 70.876 58.738 70.8905C58.7696 70.905 58.7968 70.9278 58.8166 70.9564L61.6524 75.3345L49.8756 77.0514C49.8756 77.0514 43.0514 77.4513 42.9204 77.4899C42.7894 77.5286 40.7969 78.3585 40.7969 78.3585Z" fill="white"/>
<path d="M15.3281 79.1077L20.4572 74.8758C20.4572 74.8758 31.0832 73.0799 34.6868 73.7183C38.2904 74.3567 40.3467 75.5949 40.8423 78.2291L37.3815 79.1077C35.9518 78.3826 34.3776 77.9876 32.7749 77.9519C30.1676 77.9116 23.6475 79.1094 23.6475 79.1094L15.3281 79.1077Z" fill="#E0E0E0"/>
<path d="M44.5117 79.1079L40.8594 78.1889C40.8594 78.1889 41.1198 74.0041 47.0519 73.3052C47.0519 73.3052 48.7319 72.7609 54.6807 73.8781C60.6296 74.9953 61.2445 74.9566 61.2445 74.9566L66.1938 79.3465C66.1938 79.3465 63.2387 79.5867 60.8043 79.1079C58.37 78.6291 54.1112 76.9911 49.5047 77.4716C44.8981 77.9521 44.5117 79.1079 44.5117 79.1079Z" fill="#E0E0E0"/>
<path d="M20.4518 74.8758L23.3548 70.3953L18.2056 74.5045L14.9531 79.1077H15.3227L20.4518 74.8758Z" fill="#E0E0E0"/>
<path d="M61.2248 74.9566L58.8594 70.9817C58.8594 70.9817 63.5718 75.0775 63.6121 75.1934C63.6524 75.3094 66.1791 79.3464 66.1791 79.3464L61.2248 74.9566Z" fill="#E0E0E0"/>
<path d="M37.1875 79.1079H44.4905L40.8398 78.189L40.6483 78.2293" fill="#263238"/>
<path d="M40.8379 78.1888C40.8127 78.1888 40.8379 77.1422 40.8917 75.8553C40.9455 74.5684 41.011 73.5235 41.0345 73.5251C41.058 73.5268 41.0345 74.5701 40.9791 75.8587C40.9236 77.1472 40.8615 78.1905 40.8379 78.1888Z" fill="#263238"/>
<path d="M25.569 74.1367C25.5369 74.1477 25.5037 74.1551 25.4699 74.1586L25.1793 74.209L24.1007 74.377L20.4585 74.928L20.4786 74.9196L19.7781 75.4589L16.3778 78.0511L15.3412 78.8306L15.0556 79.039C15.0233 79.0645 14.989 79.0875 14.9531 79.1078C14.9807 79.0769 15.0117 79.0493 15.0455 79.0255L15.3194 78.8038L16.3391 78.0007L19.7243 75.3799L20.4249 74.8423H20.435H20.445L24.094 74.3299L25.1742 74.1854L25.4666 74.1518C25.5001 74.143 25.5344 74.138 25.569 74.1367Z" fill="#263238"/>
<path d="M40.359 75.6756C40.359 75.6756 40.3473 75.6655 40.3271 75.642L40.2381 75.5345C40.1608 75.4421 40.0432 75.306 39.8802 75.143C39.4176 74.684 38.8873 74.2987 38.3077 74.0006C37.4463 73.5625 36.52 73.2658 35.5643 73.122C34.3923 72.9514 33.2088 72.8728 32.0245 72.8868C29.8714 72.8791 27.721 73.0421 25.5935 73.374C24.777 73.5017 24.1201 73.6277 23.6665 73.7184L23.1441 73.8242L23.008 73.8511C22.9924 73.8533 22.9765 73.8533 22.9609 73.8511L23.0063 73.836L23.1407 73.8024C23.2583 73.7738 23.433 73.7302 23.6598 73.6798C24.1101 73.579 24.7669 73.4429 25.5834 73.3085C27.7123 72.9573 29.8669 72.7853 32.0245 72.7944C33.2136 72.7798 34.4018 72.8612 35.5777 73.038C36.5405 73.1864 37.4724 73.4917 38.3363 73.9418C38.9192 74.2469 39.449 74.644 39.9054 75.1178C40.0287 75.2458 40.1442 75.381 40.2515 75.5227L40.3338 75.6353C40.3441 75.6475 40.3526 75.661 40.359 75.6756Z" fill="#263238"/>
<path d="M40.3617 75.0961C40.3617 75.0961 40.3499 75.086 40.3315 75.0641L40.2491 74.9667C40.2139 74.9213 40.1685 74.8693 40.1131 74.8088C40.0576 74.7483 39.9955 74.676 39.9199 74.6004C39.4945 74.1722 39.0103 73.8067 38.4818 73.5152C37.6938 73.086 36.8435 72.7827 35.9618 72.6164C34.882 72.419 33.7868 72.3184 32.6891 72.3157C30.6939 72.275 28.6984 72.38 26.7184 72.6298C25.9574 72.7273 25.3459 72.823 24.9225 72.8936L24.437 72.9742L24.3093 72.9944H24.2656L24.3076 72.9826L24.4336 72.954C24.5428 72.9305 24.7058 72.8953 24.9175 72.8566C25.3375 72.776 25.9507 72.6701 26.71 72.566C28.6918 72.2977 30.6915 72.1854 32.6908 72.23C33.7933 72.233 34.8932 72.3364 35.9769 72.5391C36.864 72.7107 37.7181 73.0226 38.507 73.4631C39.0379 73.7602 39.5206 74.1363 39.9383 74.5786C40.0123 74.6576 40.0761 74.7281 40.1282 74.7937C40.1803 74.8592 40.2256 74.9113 40.2575 74.9617L40.3331 75.0658C40.3439 75.0747 40.3535 75.0848 40.3617 75.0961Z" fill="#263238"/>
<path d="M40.3584 74.5063C40.3584 74.5063 40.3466 74.4979 40.3281 74.4761L40.2475 74.3786C40.2128 74.3327 40.1674 74.2806 40.1114 74.2224C40.0554 74.1642 39.9916 74.0953 39.9199 74.0158C39.5003 73.5899 39.0216 73.2267 38.4986 72.9372C37.7215 72.5087 36.8819 72.2048 36.0105 72.0367C34.9415 71.8392 33.8569 71.7385 32.7698 71.736C30.7935 71.6912 28.8165 71.7901 26.8545 72.0317C26.1002 72.1241 25.4937 72.2165 25.0737 72.2854L24.5916 72.3643L24.4656 72.3828C24.4511 72.3857 24.4363 72.3857 24.4219 72.3828L24.4639 72.371L24.5882 72.3442C24.6991 72.3223 24.8604 72.287 25.0687 72.2484C25.4853 72.1694 26.0918 72.067 26.8461 71.9662C28.8106 71.7068 30.7922 71.5995 32.7732 71.6453C33.8648 71.6501 34.9537 71.7564 36.0256 71.9628C36.904 72.1361 37.749 72.4486 38.5288 72.8885C39.0535 73.1854 39.5309 73.5592 39.9451 73.9973C40.019 74.0746 40.0795 74.1451 40.1316 74.209C40.1836 74.2728 40.2273 74.3266 40.2609 74.377L40.3348 74.4794C40.3436 74.4875 40.3515 74.4966 40.3584 74.5063Z" fill="#263238"/>
<path d="M40.358 73.92C40.358 73.92 40.3463 73.9116 40.3278 73.8897L40.2488 73.794C40.18 73.71 40.0808 73.5873 39.9313 73.4378C38.9145 72.389 37.6106 71.6637 36.1832 71.3529C35.2256 71.1396 34.142 71.1295 33.0097 71.1446C30.7417 71.158 28.6904 71.2555 27.2137 71.4117C26.4745 71.4856 25.8697 71.5646 25.4682 71.6268L24.9944 71.6973L24.8701 71.7141C24.8562 71.7167 24.842 71.7167 24.8281 71.7141C24.8418 71.7096 24.8559 71.7062 24.8701 71.704L24.9911 71.6772C25.0986 71.657 25.2565 71.6251 25.4615 71.5915C25.8714 71.5192 26.4695 71.4235 27.207 71.3479C29.1351 71.1544 31.0719 71.0596 33.0097 71.064C34.1404 71.0505 35.234 71.064 36.2017 71.2824C37.0594 71.4674 37.8755 71.8091 38.6092 72.2904C39.1037 72.6089 39.5554 72.9894 39.9532 73.4227C40.0615 73.5404 40.1636 73.6638 40.2589 73.7923L40.3328 73.8931C40.342 73.9013 40.3504 73.9103 40.358 73.92Z" fill="#263238"/>
<path d="M40.3614 73.337C40.3614 73.337 40.3513 73.337 40.3329 73.3067L40.2539 73.211C40.1867 73.127 40.0859 73.0026 39.9481 72.8481C39.5653 72.4107 39.1296 72.0224 38.6512 71.6922C38.3213 71.4664 37.9681 71.2766 37.5978 71.1261C37.1696 70.9581 36.7255 70.8337 36.2723 70.7548C35.2308 70.5809 34.174 70.5156 33.1189 70.5599C30.8694 70.6271 28.84 70.8438 27.3683 70.9581C26.6325 71.0169 26.0377 71.0606 25.6245 71.0841L25.1507 71.1076H25.0264L25.149 71.0958L25.6228 71.0555L27.3633 70.901C28.8333 70.7716 30.8627 70.5448 33.1173 70.4776C34.1791 70.431 35.2428 70.4969 36.2908 70.6742C36.7507 70.7564 37.201 70.8853 37.6348 71.0589C38.0089 71.2138 38.365 71.4093 38.6965 71.6418C39.1756 71.9785 39.6083 72.3767 39.9834 72.8262C40.1178 72.9842 40.2153 73.1118 40.2774 73.2009L40.3497 73.3017C40.3546 73.3131 40.3585 73.3249 40.3614 73.337Z" fill="#263238"/>
<path d="M41.4141 75.516C41.4141 75.516 41.4225 75.5008 41.4409 75.4756L41.5249 75.3664C41.635 75.2262 41.7533 75.0926 41.8794 74.9666C42.3444 74.503 42.8811 74.1172 43.4687 73.8242C44.3409 73.3898 45.2785 73.1015 46.2441 72.9708C47.4223 72.8156 48.6111 72.7561 49.7989 72.7927C51.9571 72.8231 54.1088 73.0344 56.2317 73.4244C57.0448 73.5756 57.6983 73.7234 58.1485 73.8326C58.3737 73.8864 58.5467 73.9334 58.6643 73.9636L58.797 74.0006C58.8127 74.0036 58.828 74.0087 58.8424 74.0157C58.8268 74.0183 58.8109 74.0183 58.7953 74.0157L58.6593 73.9872L58.1401 73.8712C57.6882 73.7738 57.0347 73.6344 56.2199 73.4932C54.099 73.1212 51.952 72.9184 49.7989 72.8868C48.6153 72.8493 47.4306 72.9055 46.2558 73.0548C45.2975 73.181 44.3656 73.4601 43.4956 73.8813C42.9105 74.1683 42.3733 74.544 41.9029 74.9952C41.7349 75.1548 41.6173 75.2875 41.5384 75.3799L41.4477 75.4857L41.4141 75.516Z" fill="#263238"/>
<path d="M41.4219 74.928L41.4471 74.891L41.5244 74.7886C41.558 74.7432 41.6033 74.6894 41.6571 74.6206C41.7108 74.5517 41.7747 74.4862 41.8503 74.4106C42.2766 73.9756 42.7666 73.6079 43.3035 73.3202C44.0995 72.8936 44.9588 72.5975 45.8487 72.4433C46.9359 72.2605 48.0375 72.1772 49.1398 72.1946C51.1398 72.1891 53.1373 72.3396 55.1139 72.6449C55.8716 72.7625 56.4814 72.8801 56.9014 72.9691C57.1114 73.0111 57.2727 73.0498 57.3836 73.075L57.5079 73.1052C57.5223 73.1082 57.5364 73.1127 57.5499 73.1186C57.5354 73.1209 57.5207 73.1209 57.5062 73.1186L57.3802 73.0968L56.8947 73.0078C56.473 72.9288 55.8632 72.8213 55.1038 72.7104C53.1287 72.4243 51.1354 72.2829 49.1398 72.287C48.0428 72.2694 46.9465 72.3498 45.8638 72.5273C44.9805 72.6768 44.1261 72.9642 43.332 73.379C42.7973 73.6601 42.3061 74.0172 41.8738 74.4391C41.7965 74.513 41.731 74.5819 41.6772 74.6424C41.6235 74.7029 41.5731 74.755 41.5378 74.7986L41.4538 74.8944L41.4219 74.928Z" fill="#263238"/>
<path d="M41.4375 74.3466C41.4375 74.3466 41.4375 74.3331 41.461 74.3096L41.5383 74.2088C41.5789 74.1505 41.6226 74.0944 41.6693 74.0408C41.7296 73.9677 41.7936 73.8976 41.8609 73.8308C42.2827 73.4002 42.7669 73.0355 43.2973 72.7489C44.0846 72.3226 44.9355 72.0259 45.8173 71.8703C46.8933 71.6831 47.9844 71.5964 49.0765 71.6115C51.058 71.6024 53.0373 71.7461 54.9968 72.0416C55.7477 72.1559 56.3525 72.2701 56.7675 72.3558C56.9758 72.3978 57.1371 72.4364 57.2463 72.4599L57.3689 72.4902C57.3836 72.4922 57.3978 72.4967 57.4109 72.5036C57.3965 72.5058 57.3817 72.5058 57.3673 72.5036L57.2429 72.4835L56.7608 72.3944C56.3441 72.3188 55.7377 72.2147 54.9867 72.1088C53.029 71.8311 51.0537 71.6958 49.0765 71.7039C47.9898 71.6895 46.904 71.7733 45.8324 71.9543C44.958 72.1064 44.1128 72.3943 43.3275 72.8077C42.7992 73.0882 42.3138 73.4429 41.8861 73.8611C41.8105 73.9333 41.7449 74.0022 41.6912 74.0627C41.6374 74.1231 41.5887 74.1735 41.5534 74.2155L41.4694 74.313C41.4493 74.3365 41.4392 74.3483 41.4375 74.3466Z" fill="#263238"/>
<path d="M41.4453 73.337C41.568 73.1625 41.7094 73.0019 41.867 72.8582C42.2989 72.4667 42.7958 72.1534 43.3353 71.9325C43.7036 71.7746 44.0798 71.6361 44.4626 71.5175C44.8987 71.3701 45.3444 71.2528 45.7965 71.1664C46.7575 70.9867 47.8344 70.9984 48.9499 71.0371C51.191 71.1076 53.2036 71.3848 54.6619 71.5545L56.3856 71.7628L56.8543 71.8183L56.9752 71.8351L57.0172 71.8435H56.9752H56.8526L56.3822 71.8031C55.974 71.7662 55.3826 71.704 54.6552 71.6234C53.1969 71.4671 51.186 71.2017 48.9516 71.1311C47.8344 71.0959 46.7676 71.0791 45.815 71.2521C45.3657 71.3348 44.9223 71.4471 44.4878 71.5881C44.0762 71.7158 43.6982 71.8485 43.3622 71.9913C42.8261 72.2059 42.3294 72.5079 41.8922 72.8851C41.8241 72.9445 41.7591 73.0073 41.6973 73.0732C41.6491 73.1186 41.6036 73.1669 41.5612 73.2177L41.4789 73.3101C41.4571 73.3286 41.447 73.3387 41.4453 73.337Z" fill="#263238"/>
<path d="M48.7422 74.8608V77.7034L49.6847 76.8516L50.607 77.6597L50.6607 74.891C50.6607 74.891 49.1454 74.8104 48.7422 74.8608Z" fill="#5F2B38"/>
<path d="M59.399 76.5123L59.3503 76.5039L59.2108 76.472L58.6783 76.3443C58.2146 76.2334 57.5426 76.0805 56.7076 75.9159C55.8727 75.7513 54.8748 75.5799 53.7626 75.3951L52.0204 75.1078C51.3997 74.9977 50.7722 74.9303 50.1422 74.9062C49.5116 74.8796 48.8801 74.8886 48.2505 74.9331C47.6646 74.9692 47.0828 75.0557 46.5117 75.1918C45.5447 75.4308 44.6375 75.8672 43.8472 76.4737C43.545 76.7068 43.2577 76.9587 42.9871 77.228C42.7452 77.4649 42.5486 77.6799 42.389 77.8563L42.0278 78.2679L41.9337 78.3754C41.9119 78.3989 41.9001 78.4107 41.8984 78.409L41.927 78.3687L42.0144 78.2578C42.0916 78.1587 42.2092 78.0159 42.3638 77.8344C42.5184 77.653 42.7132 77.4346 42.9518 77.1944C43.2199 76.9191 43.5061 76.662 43.8086 76.4249C44.6025 75.804 45.5184 75.3575 46.4966 75.1145C47.0717 74.9742 47.658 74.8848 48.2488 74.8474C48.8817 74.8015 49.5167 74.792 50.1506 74.8189C50.784 74.843 51.415 74.9115 52.0389 75.0238L53.7811 75.3161C54.8916 75.5026 55.8912 75.6824 56.7244 75.8554C57.5577 76.0284 58.2364 76.1914 58.6917 76.3107C58.9219 76.3695 59.1 76.4199 59.2209 76.4552L59.357 76.4955C59.3718 76.4989 59.386 76.5045 59.399 76.5123Z" fill="#263238"/>
<path d="M39.5874 78.456C39.5874 78.456 39.5723 78.4425 39.5454 78.414L39.4295 78.2863C39.3774 78.2309 39.3169 78.1586 39.2396 78.0797C39.1624 78.0007 39.0716 77.9117 38.9675 77.8109C38.3732 77.2549 37.7015 76.7881 36.9733 76.4249C35.8911 75.8913 34.7289 75.5383 33.5327 75.3799C32.0658 75.2003 30.5818 75.2111 29.1176 75.4118C27.5569 75.605 26.0936 75.9158 24.7496 76.1913C23.4056 76.4669 22.2078 76.7054 21.1847 76.8533C20.378 76.9735 19.5653 77.0498 18.7504 77.0817C18.4614 77.0901 18.2363 77.0935 18.0784 77.0901C18.2296 77.0901 18.453 77.0801 18.742 77.0666C19.5544 77.0218 20.3641 76.936 21.1679 76.8096C22.1876 76.6567 23.3922 76.4131 24.7261 76.1376C26.06 75.8621 27.5317 75.5429 29.0941 75.3497C30.5657 75.1484 32.0572 75.14 33.531 75.3245C34.7351 75.4881 35.9039 75.8497 36.9901 76.3946C37.7219 76.7567 38.3961 77.2248 38.991 77.784L39.2598 78.0595C39.3354 78.1418 39.3925 78.2157 39.4429 78.2729L39.5538 78.4056C39.5675 78.4206 39.5788 78.4376 39.5874 78.456Z" fill="#263238"/>
<path d="M39.5874 79.0456C39.5874 79.0456 39.5723 79.0321 39.5454 79.0036L39.4295 78.8759C39.3774 78.8205 39.3169 78.7482 39.2396 78.6693L38.9675 78.4005C38.3728 77.8451 37.7012 77.3783 36.9733 77.0145C35.8911 76.4809 34.7289 76.1279 33.5327 75.9695C32.0658 75.7899 30.5818 75.8007 29.1176 76.0014C27.5569 76.1946 26.0936 76.5054 24.7496 76.7809C23.4056 77.0565 22.2078 77.2967 21.1847 77.4429C20.378 77.5636 19.5654 77.6404 18.7504 77.673C18.4614 77.673 18.2363 77.6831 18.0784 77.673C18.2296 77.673 18.453 77.6629 18.742 77.6495C19.5544 77.6054 20.3641 77.5201 21.1679 77.3941C22.1876 77.2396 23.3922 76.9977 24.7261 76.7137C26.06 76.4298 27.5317 76.1207 29.0941 75.9258C30.5657 75.7246 32.0572 75.7161 33.531 75.9006C34.735 76.0651 35.9036 76.4267 36.9901 76.9708C37.7195 77.3421 38.3898 77.8193 38.9792 78.387L39.248 78.6625C39.3236 78.7449 39.3808 78.8188 39.4312 78.8759L39.542 79.0103C39.5773 79.0288 39.5891 79.0439 39.5874 79.0456Z" fill="#263238"/>
<path d="M37.8635 78.5451C37.8308 78.5248 37.7999 78.5017 37.7711 78.4762C37.7106 78.4309 37.6283 78.3553 37.5107 78.2713C37.1881 78.0268 36.8459 77.8093 36.4875 77.6211C35.9559 77.3419 35.3962 77.12 34.8176 76.9592C34.1089 76.763 33.3823 76.6386 32.6487 76.5879C31.3121 76.5212 29.9721 76.5882 28.6487 76.7878L27.4424 76.9558L27.1064 77.0012C27.0685 77.0053 27.0302 77.0053 26.9922 77.0012C27.0289 76.989 27.0665 76.98 27.1047 76.9743L27.4307 76.9138C27.7129 76.8617 28.1228 76.7912 28.6335 76.7156C29.9602 76.4989 31.3062 76.4234 32.6487 76.4905C33.3881 76.541 34.1201 76.6688 34.8327 76.8718C35.4161 77.0376 35.9794 77.2669 36.5127 77.5556C36.8685 77.7484 37.2059 77.9733 37.5207 78.2276C37.635 78.3166 37.7139 78.3956 37.7711 78.446C37.8063 78.4746 37.8374 78.508 37.8635 78.5451Z" fill="#263238"/>
<path d="M31.3982 66.6556L37.3319 65.3738C37.3319 65.3738 39.5563 64.9252 39.9863 65.1621C40.4164 65.399 42.8944 67.3814 43.1078 67.5662C43.3211 67.751 45.6899 70.5902 45.6899 70.5902C45.6899 70.5902 45.6362 71.489 44.3359 71.1278C43.6639 70.943 40.8213 68.4566 40.8213 68.4566L40.1543 67.9324C40.1543 67.9324 41.1909 69.5385 41.1707 70.066C41.1506 70.5935 40.4903 71.6469 40.2635 71.7914C40.0367 71.9358 38.9011 71.7376 38.9011 71.7376C38.9011 71.7376 38.0947 72.6078 37.4613 71.9224C37.4613 71.9224 36.3811 73.0463 35.5041 72.3945L35.0337 71.4722L34.5851 71.1244C34.5851 71.1244 34.5163 71.7594 34.0811 71.83C33.646 71.9006 28.7656 70.8489 28.7656 70.8489L30.4456 66.2574L31.3982 66.6556Z" fill="#FFBF9D"/>
<path d="M37.7034 68.2803C37.7531 68.3035 37.7989 68.3341 37.8395 68.371C37.9235 68.4365 38.0428 68.539 38.1755 68.6616C38.5428 68.9957 38.8708 69.3705 39.1533 69.7788C39.2314 69.8995 39.2956 70.0285 39.3448 70.1636C39.3991 70.2906 39.416 70.4305 39.3935 70.5668C39.3624 70.7897 39.3025 71.0077 39.2154 71.2152C39.1615 71.3562 39.0922 71.4909 39.0088 71.6168C38.98 71.6644 38.9417 71.7056 38.8962 71.7377C38.8962 71.7377 38.9298 71.689 38.9802 71.5983C39.0515 71.4683 39.1111 71.3323 39.1583 71.1917C39.2347 70.9874 39.2872 70.7748 39.3145 70.5584C39.3204 70.4975 39.3204 70.4361 39.3145 70.3752C39.3032 70.3128 39.2863 70.2516 39.2641 70.1921C39.2148 70.0639 39.1523 69.9412 39.0777 69.8259C38.799 69.426 38.4835 69.053 38.1352 68.712C37.8731 68.4416 37.695 68.2904 37.7034 68.2803Z" fill="#FF9A6C"/>
<path d="M34.6406 68.8077C34.6979 68.7779 34.7598 68.758 34.8237 68.7489C34.9964 68.7113 35.1744 68.7039 35.3496 68.7271C35.9326 68.8128 36.4584 69.1249 36.8129 69.5956C36.9967 69.8582 37.1358 70.1494 37.2245 70.4575C37.2987 70.7051 37.3549 70.9577 37.3925 71.2135C37.4261 71.4302 37.4445 71.6083 37.4546 71.7309C37.4623 71.7945 37.4623 71.8588 37.4546 71.9224C37.4395 71.9224 37.4093 71.6536 37.3269 71.2235C37.2785 70.9726 37.2156 70.7247 37.1388 70.481C37.0495 70.1812 36.9128 69.8976 36.7339 69.641C36.5461 69.395 36.3107 69.1893 36.0417 69.0362C35.8219 68.9096 35.5813 68.8231 35.3311 68.7808C35.1009 68.7553 34.8682 68.7644 34.6406 68.8077Z" fill="#FF9A6C"/>
<path d="M38.1562 66.5364C38.1562 66.5364 38.1899 66.5196 38.2571 66.5045C38.2985 66.4962 38.3409 66.4934 38.3831 66.4961C38.4396 66.4952 38.4961 66.5014 38.5511 66.5146C38.8638 66.5952 39.1521 66.7509 39.3911 66.9682C39.634 67.173 39.8516 67.4059 40.0395 67.662C40.1257 67.7621 40.195 67.8756 40.2445 67.998C40.1515 67.9057 40.0646 67.8075 39.9841 67.704C39.784 67.4624 39.5643 67.2376 39.3272 67.032C39.0979 66.824 38.8271 66.6671 38.5326 66.5717C38.4086 66.5474 38.2826 66.5356 38.1562 66.5364Z" fill="#FF9A6C"/>
<path d="M30.351 65.6358L27.3808 64.4783L21.9124 64.7588L19.1874 68.4347L18.0938 73.7284C18.0938 73.7284 28.1082 71.5292 28.4257 71.499C28.7433 71.4688 29.254 70.9547 29.254 70.9547L30.3225 71.1781L31.6917 66.5917L30.351 65.6358Z" fill="#5F2B38"/>
<path d="M32.1427 66.3465L32.1024 66.3365L31.9882 66.2945L31.5463 66.1265L29.9318 65.5032L27.5412 64.5691L26.1317 64.013C25.6338 63.8024 25.1218 63.6267 24.5995 63.4872C24.0773 63.3521 23.5352 63.3106 22.9985 63.3645C22.4993 63.4164 22.0094 63.535 21.5419 63.7173C20.7493 64.0348 20.0077 64.4673 19.3411 65.0009C18.7649 65.4477 18.3331 65.8409 18.0223 66.1181L17.6729 66.4322L17.5805 66.5112C17.5586 66.5297 17.5469 66.5381 17.5469 66.5364C17.5544 66.5251 17.5634 66.5149 17.5738 66.5061L17.6611 66.4188L17.9971 66.0929C18.2945 65.814 18.7262 65.4074 19.2991 64.9521C19.9658 64.4073 20.7105 63.9656 21.5083 63.6417C21.9826 63.4549 22.4799 63.3329 22.9867 63.2789C23.5329 63.224 24.0845 63.2655 24.6163 63.4015C25.143 63.542 25.659 63.7199 26.1602 63.9341L27.5681 64.4952L29.952 65.4461L31.5564 66.0945L31.9915 66.276L32.1024 66.3247L32.1427 66.3465Z" fill="#263238"/>
<path d="M56.5234 74.3987C56.4041 74.1988 56.3554 73.9148 56.646 73.5738L57.4457 73.2176C57.537 72.9699 57.6693 72.7393 57.8371 72.5356C58.0421 72.3491 58.3411 72.1105 58.3411 72.1105C58.3411 72.1105 58.783 71.499 59.208 71.2436C59.633 70.9883 60.6713 70.7161 61.0291 70.4036C61.387 70.0912 62.5092 69.11 63.2921 69.4847C64.075 69.8593 64.6361 71.1747 65.2476 71.4519C65.8591 71.7291 66.0876 72.6481 66.3194 73.0228C66.5513 73.3974 66.8134 73.6696 66.847 73.9585C66.8806 74.2475 67.5442 74.8271 67.6634 75.6083C67.7827 76.3895 67.7155 76.6633 67.3577 76.9523C66.9998 77.2412 66.3026 77.8208 65.6054 77.9233C65.214 77.9804 64.6781 78.0157 64.2833 78.0359C64.1264 78.044 63.9707 78.0052 63.8361 77.9244C63.7014 77.8436 63.5939 77.7245 63.5273 77.5823L63.4786 77.4798C63.4786 77.4798 61.6927 78.382 60.8426 78.2627C59.9926 78.1434 60.3386 77.4126 60.3386 77.4126C60.3386 77.4126 59.4701 78.2526 58.9258 78.093C58.3814 77.9334 58.0858 77.9569 58.0421 77.4798C57.9984 77.0027 58.3982 76.4583 58.3982 76.4583C58.3982 76.4583 57.5818 76.4768 57.5146 75.9325C57.4913 75.5453 57.5671 75.1585 57.7346 74.8086L57.0794 74.7347C56.9673 74.7248 56.8588 74.6894 56.7624 74.6312C56.666 74.573 56.5842 74.4934 56.5234 74.3987Z" fill="#FFBF9D"/>
<path d="M61.0944 70.7532C61.0741 70.8201 61.047 70.8849 61.0137 70.9464C60.9795 71.0212 60.9402 71.0936 60.8961 71.1631C60.8423 71.2575 60.7834 71.3489 60.7197 71.437C60.5544 71.6671 60.3718 71.8844 60.1737 72.0871C59.952 72.3156 59.6966 72.5558 59.4245 72.8028C59.1523 73.0498 58.9003 73.2883 58.6785 73.5151C58.4836 73.7152 58.3034 73.9292 58.1393 74.1552C57.8604 74.545 57.7529 74.8272 57.7344 74.8154C57.7531 74.7482 57.7784 74.6829 57.81 74.6206C57.8398 74.5436 57.8763 74.4694 57.9192 74.3988C57.9698 74.3027 58.0259 74.2096 58.0872 74.1199C58.2473 73.8859 58.426 73.6651 58.6214 73.4597C58.8398 73.2278 59.0952 72.9859 59.3657 72.739C59.6361 72.492 59.8932 72.2551 60.1166 72.0317C60.3147 71.8337 60.4994 71.6227 60.6693 71.4C60.9566 71.0186 61.0776 70.7431 61.0944 70.7532Z" fill="#FF9A6C"/>
<path d="M63.3124 71.4907C63.3082 71.5145 63.3009 71.5377 63.2906 71.5596C63.2738 71.605 63.2486 71.6688 63.2116 71.7511C63.1082 71.982 62.9909 72.2064 62.8605 72.4231C62.4298 73.1481 61.8586 73.7798 61.1805 74.2812C60.7891 74.5802 60.3993 74.839 60.0516 75.0792C59.7038 75.3194 59.3947 75.5446 59.1494 75.7512C58.9544 75.9089 58.7682 76.0772 58.5916 76.2552C58.532 76.3263 58.4674 76.3931 58.3984 76.4551C58.4472 76.3755 58.5035 76.3007 58.5664 76.2317C58.7346 76.0407 58.916 75.8616 59.1091 75.6958C59.3527 75.4858 59.6584 75.2539 60.0045 75.0086C60.3506 74.7634 60.7387 74.5046 61.1268 74.2073C61.4923 73.9326 61.83 73.6225 62.1348 73.2816C62.3817 73.0011 62.6064 72.7017 62.8068 72.3862C62.9748 72.1157 63.0974 71.8822 63.1797 71.7276C63.218 71.6454 63.2623 71.5663 63.3124 71.4907Z" fill="#FF9A6C"/>
<path d="M63.5809 71.7024C63.5961 71.7209 63.4684 71.862 63.292 72.0166C63.1156 72.1711 62.956 72.282 62.9459 72.2635C62.9358 72.245 63.0585 72.1056 63.2349 71.951C63.3328 71.8462 63.4504 71.7617 63.5809 71.7024Z" fill="#FF9A6C"/>
<path d="M64.6401 73.752C64.6257 73.8266 64.6026 73.8994 64.5712 73.9687C64.495 74.1618 64.3969 74.3456 64.2789 74.5164C63.8778 75.073 63.3687 75.5433 62.782 75.899C62.11 76.3291 61.4834 76.6819 61.0449 76.9608C60.8248 77.0985 60.6484 77.2144 60.5275 77.2968C60.4671 77.3423 60.403 77.3828 60.3359 77.4177C60.3863 77.3624 60.4426 77.3128 60.5039 77.2699C60.6199 77.1792 60.7912 77.0565 61.0079 76.9104C61.4397 76.6164 62.0647 76.2552 62.7316 75.8268C63.309 75.476 63.8156 75.0201 64.2251 74.4828C64.3831 74.2509 64.5219 74.0064 64.6401 73.752Z" fill="#FF9A6C"/>
<path d="M66.379 74.8591C66.3627 74.9096 66.3395 74.9576 66.3101 75.0019C66.2631 75.0909 66.1858 75.2152 66.085 75.3647C65.8166 75.7528 65.5074 76.111 65.1627 76.4332C64.9724 76.6092 64.7721 76.7741 64.5629 76.9271C64.3897 77.0502 64.2091 77.1624 64.022 77.2631C63.943 77.3068 63.8691 77.3404 63.8036 77.3707C63.7381 77.4009 63.6809 77.4244 63.6356 77.4412C63.588 77.4645 63.5369 77.4798 63.4844 77.4866C63.4844 77.4731 63.686 77.3891 63.9884 77.2077C64.1687 77.1019 64.3431 76.9863 64.5109 76.8616C64.699 76.7188 64.9006 76.5542 65.1005 76.3694C65.4397 76.0492 65.7511 75.7007 66.0313 75.3278C66.248 75.0422 66.3589 74.8523 66.379 74.8591Z" fill="#FF9A6C"/>
<path d="M58.1429 72.9354C57.9051 73.0664 57.6574 73.1788 57.4021 73.2714C57.1551 73.3866 56.9009 73.4853 56.641 73.5671C56.6276 73.5402 56.9518 73.3655 57.3685 73.1908C57.7851 73.0161 58.1329 72.9119 58.1429 72.9354Z" fill="#FF9A6C"/>
<path d="M58.6331 69.8157C58.9246 69.8066 59.2163 69.8156 59.5067 69.8426C58.9244 69.8807 58.3402 69.8807 57.7578 69.8426C58.0487 69.8156 58.3411 69.8066 58.6331 69.8157Z" fill="#5F2B38"/>
</svg>
