<svg width="22" height="22" viewBox="0 0 22 22" fill="none" xmlns="http://www.w3.org/2000/svg">
<path d="M1.75781 7.66434H19.3368M7.61746 13.524L9.57068 15.4772L13.4771 11.5708M5.66425 1.80469V3.7579M15.4303 1.80469V3.7579M4.88296 19.3836H16.2116C17.3055 19.3836 17.8525 19.3836 18.2703 19.1707C18.6378 18.9835 18.9366 18.6847 19.1239 18.3172C19.3368 17.8994 19.3368 17.3524 19.3368 16.2585V6.88305C19.3368 5.78914 19.3368 5.24219 19.1239 4.82438C18.9366 4.45685 18.6378 4.15805 18.2703 3.97079C17.8525 3.7579 17.3055 3.7579 16.2116 3.7579H4.88296C3.78906 3.7579 3.2421 3.7579 2.82429 3.97079C2.45676 4.15805 2.15796 4.45685 1.9707 4.82438C1.75781 5.24219 1.75781 5.78914 1.75781 6.88305V16.2585C1.75781 17.3524 1.75781 17.8994 1.9707 18.3172C2.15796 18.6847 2.45676 18.9835 2.82429 19.1707C3.2421 19.3836 3.78905 19.3836 4.88296 19.3836Z" stroke="#10A957" stroke-width="1.75789" stroke-linecap="round" stroke-linejoin="round"/>
</svg>
