<svg width="22" height="22" viewBox="0 0 22 22" fill="none" xmlns="http://www.w3.org/2000/svg">
<path d="M3.10938 4.07803C3.10938 2.68389 4.23955 1.55371 5.63369 1.55371H16.1193C17.5134 1.55371 18.6436 2.68388 18.6436 4.07803V13.4985C18.5501 13.5611 18.4613 13.6337 18.3788 13.7163L17.4786 14.6165V4.07803C17.4786 3.32734 16.87 2.71878 16.1193 2.71878H5.63369C4.883 2.71878 4.27444 3.32734 4.27444 4.07803V17.6703C4.27444 18.421 4.883 19.0295 5.63369 19.0295H11.9L13.0651 20.1946H5.63369C4.23955 20.1946 3.10938 19.0644 3.10938 17.6703V4.07803Z" fill="#414652" stroke="#414652" stroke-width="0.347967"/>
<path d="M8.15272 6.79609C8.15272 7.3323 7.71804 7.76698 7.18183 7.76698C6.64562 7.76698 6.21094 7.3323 6.21094 6.79609C6.21094 6.25987 6.64562 5.8252 7.18183 5.8252C7.71804 5.8252 8.15272 6.25987 8.15272 6.79609Z" fill="#414652" stroke="#414652" stroke-width="0.347967"/>
<path d="M7.18183 11.8446C7.71804 11.8446 8.15272 11.41 8.15272 10.8737C8.15272 10.3376 7.71804 9.90283 7.18183 9.90283C6.64562 9.90283 6.21094 10.3376 6.21094 10.8737C6.21094 11.41 6.64562 11.8446 7.18183 11.8446Z" fill="#414652" stroke="#414652" stroke-width="0.347967"/>
<path d="M7.18183 15.9227C7.71804 15.9227 8.15272 15.4881 8.15272 14.9518C8.15272 14.4156 7.71804 13.981 7.18183 13.981C6.64562 13.981 6.21094 14.4156 6.21094 14.9518C6.21094 15.4881 6.64562 15.9227 7.18183 15.9227Z" fill="#414652" stroke="#414652" stroke-width="0.347967"/>
<path d="M9.90285 6.21338C9.58113 6.21338 9.32031 6.47419 9.32031 6.79591C9.32031 7.11764 9.58113 7.37845 9.90285 7.37845H14.9515C15.2732 7.37845 15.534 7.11764 15.534 6.79591C15.534 6.47419 15.2732 6.21338 14.9515 6.21338H9.90285Z" fill="#414652" stroke="#414652" stroke-width="0.347967"/>
<path d="M9.32031 10.8736C9.32031 10.5518 9.58113 10.291 9.90285 10.291H14.9515C15.2732 10.291 15.534 10.5518 15.534 10.8736C15.534 11.1953 15.2732 11.4561 14.9515 11.4561H9.90285C9.58113 11.4561 9.32031 11.1953 9.32031 10.8736Z" fill="#414652" stroke="#414652" stroke-width="0.347967"/>
<path d="M9.90285 14.3691C9.58113 14.3691 9.32031 14.63 9.32031 14.9517C9.32031 15.2734 9.58113 15.5342 9.90285 15.5342H14.9515C15.2732 15.5342 15.534 15.2734 15.534 14.9517C15.534 14.63 15.2732 14.3691 14.9515 14.3691H9.90285Z" fill="#414652" stroke="#414652" stroke-width="0.347967"/>
<path d="M20.0224 15.3635L15.3621 20.0238C15.2529 20.1331 15.1047 20.1945 14.9502 20.1945C14.7958 20.1945 14.6476 20.1331 14.5384 20.0238L12.2097 17.6952C11.9822 17.4677 11.9822 17.0989 12.2097 16.8714C12.4372 16.6439 12.806 16.6439 13.0335 16.8714L14.9502 18.7881L19.1986 14.5398C19.4261 14.3123 19.7949 14.3123 20.0224 14.5398C20.2499 14.7673 20.2499 15.136 20.0224 15.3635Z" fill="#414652" stroke="#414652" stroke-width="0.347967"/>
</svg>
