<svg width="92" height="62" viewBox="0 0 92 62" fill="none" xmlns="http://www.w3.org/2000/svg">
<path d="M84.7013 5.06226H5.80118C4.34474 5.06226 3.16406 6.24293 3.16406 7.69938V58.0889C3.16406 59.5453 4.34474 60.726 5.80118 60.726H84.7013C86.1577 60.726 87.3384 59.5453 87.3384 58.0889V7.69938C87.3384 6.24293 86.1577 5.06226 84.7013 5.06226Z" fill="#455A64"/>
<path d="M0.405678 57.1296H91.6009V58.7785C91.6009 59.633 91.2615 60.4524 90.6573 61.0566C90.0531 61.6608 89.2336 62.0003 88.3792 62.0003H3.62018C2.76572 62.0003 1.94626 61.6608 1.34206 61.0566C0.73787 60.4524 0.398437 59.633 0.398438 58.7785V57.1296H0.405678Z" fill="#455A64"/>
<path d="M36.9531 56.6084L38.0844 58.4093H54.0085L55.0582 56.6084H36.9531Z" fill="#263238"/>
<path d="M86.6144 56.6083C86.6144 56.639 67.9319 56.6625 44.8929 56.6625C21.8538 56.6625 3.16406 56.639 3.16406 56.6083C3.16406 56.5775 21.8429 56.554 44.8929 56.554C67.9428 56.554 86.6144 56.5775 86.6144 56.6083Z" fill="#263238"/>
<path d="M84.0016 8.26221H6.16217C5.8353 8.26221 5.57031 8.52719 5.57031 8.85407V54.5449C5.57031 54.8718 5.8353 55.1367 6.16217 55.1367H84.0016C84.3285 55.1367 84.5935 54.8718 84.5935 54.5449V8.85407C84.5935 8.52719 84.3285 8.26221 84.0016 8.26221Z" fill="#EBEBEB"/>
<path d="M84.5076 55.2056H5.48438L5.56944 11.7664H84.5076V55.2056Z" fill="white"/>
<path d="M12.0524 10.074C12.0535 10.1992 12.0173 10.3218 11.9486 10.4264C11.8798 10.531 11.7816 10.6128 11.6662 10.6615C11.5509 10.7101 11.4237 10.7234 11.3008 10.6996C11.178 10.6759 11.0649 10.6161 10.976 10.528C10.8871 10.4399 10.8264 10.3274 10.8016 10.2047C10.7768 10.082 10.789 9.95471 10.8366 9.83897C10.8843 9.72323 10.9652 9.62425 11.0692 9.5546C11.1732 9.48495 11.2956 9.44776 11.4207 9.44776C11.5875 9.44727 11.7476 9.51293 11.866 9.63032C11.9844 9.74771 12.0514 9.90727 12.0524 10.074Z" fill="#263238"/>
<path d="M8.23209 10.074C8.23316 10.1994 8.19689 10.3223 8.12789 10.427C8.0589 10.5317 7.9603 10.6135 7.84466 10.662C7.72901 10.7105 7.60156 10.7234 7.47852 10.6992C7.35548 10.675 7.24243 10.6148 7.15376 10.5261C7.0651 10.4374 7.00482 10.3244 6.98062 10.2013C6.95642 10.0783 6.96939 9.95085 7.01788 9.8352C7.06636 9.71956 7.14816 9.62096 7.25287 9.55197C7.35757 9.48297 7.48045 9.4467 7.60584 9.44778C7.77163 9.44873 7.93037 9.51501 8.04761 9.63225C8.16485 9.74949 8.23114 9.90823 8.23209 10.074Z" fill="#263238"/>
<path d="M10.0602 10.0741C10.0602 10.199 10.0232 10.3211 9.95378 10.425C9.88437 10.5289 9.78571 10.6098 9.67029 10.6577C9.55486 10.7055 9.42785 10.718 9.30532 10.6936C9.18279 10.6692 9.07023 10.6091 8.98189 10.5207C8.89355 10.4324 8.83339 10.3198 8.80901 10.1973C8.78464 10.0748 8.79715 9.94776 8.84496 9.83233C8.89277 9.71691 8.97373 9.61825 9.07761 9.54884C9.18149 9.47943 9.30362 9.44239 9.42855 9.44239C9.51157 9.44215 9.59382 9.45832 9.67057 9.48998C9.74732 9.52164 9.81705 9.56816 9.87575 9.62687C9.93446 9.68557 9.98097 9.7553 10.0126 9.83205C10.0443 9.9088 10.0605 9.99104 10.0602 10.0741Z" fill="#263238"/>
<path d="M84.5926 51.01H5.48438V55.2055H84.5926V51.01Z" fill="#263238"/>
<path d="M8.47676 53.5928V53.7268H7.84689V53.6218L8.18535 53.2996C8.26861 53.22 8.28309 53.1693 8.28309 53.1186C8.28309 53.0408 8.22879 52.9955 8.12381 52.9955C8.08597 52.9935 8.04818 53.0004 8.01356 53.0159C7.97895 53.0313 7.94849 53.0547 7.92472 53.0842L7.8125 52.9992C7.85218 52.952 7.90226 52.9147 7.95879 52.8902C8.01532 52.8658 8.07677 52.8547 8.13829 52.858C8.31929 52.858 8.44418 52.9503 8.44418 53.1023C8.44299 53.1553 8.42945 53.2073 8.40462 53.2541C8.3798 53.3009 8.34438 53.3413 8.30119 53.372L8.07314 53.5892L8.47676 53.5928Z" fill="white"/>
<path d="M8.56341 53.1695C8.56341 53.1493 8.5694 53.1297 8.58062 53.113C8.59184 53.0963 8.60778 53.0833 8.6264 53.0757C8.64503 53.068 8.6655 53.0661 8.68521 53.0702C8.70492 53.0743 8.72298 53.0841 8.73708 53.0985C8.75118 53.1128 8.76068 53.131 8.76439 53.1508C8.76809 53.1706 8.76583 53.191 8.75788 53.2095C8.74993 53.228 8.73665 53.2437 8.71975 53.2546C8.70285 53.2655 8.68307 53.2712 8.66295 53.2708C8.64966 53.2711 8.63645 53.2686 8.62413 53.2636C8.61182 53.2586 8.60066 53.2511 8.59134 53.2416C8.58202 53.2321 8.57474 53.2208 8.56994 53.2084C8.56513 53.196 8.56291 53.1827 8.56341 53.1695ZM8.56341 53.6346C8.56148 53.6203 8.56264 53.6057 8.5668 53.5919C8.57097 53.5781 8.57804 53.5653 8.58756 53.5544C8.59707 53.5435 8.6088 53.5348 8.62196 53.5288C8.63512 53.5228 8.6494 53.5197 8.66386 53.5197C8.67831 53.5197 8.69259 53.5228 8.70575 53.5288C8.71891 53.5348 8.73064 53.5435 8.74016 53.5544C8.74967 53.5653 8.75675 53.5781 8.76091 53.5919C8.76508 53.6057 8.76624 53.6203 8.76431 53.6346C8.76624 53.6489 8.76508 53.6635 8.76091 53.6774C8.75675 53.6912 8.74967 53.704 8.74016 53.7149C8.73064 53.7257 8.71891 53.7345 8.70575 53.7404C8.69259 53.7464 8.67831 53.7495 8.66386 53.7495C8.6494 53.7495 8.63512 53.7464 8.62196 53.7404C8.6088 53.7345 8.59707 53.7257 8.58756 53.7149C8.57804 53.704 8.57097 53.6912 8.5668 53.6774C8.56264 53.6635 8.56148 53.6489 8.56341 53.6346Z" fill="white"/>
<path d="M9.15878 52.8725V53.7268H9.00131V53.0028H8.82031V52.8689L9.15878 52.8725Z" fill="white"/>
<path d="M10.0872 53.5331H9.93513V53.7268H9.78128V53.5331H9.3125V53.43L9.73422 52.887H9.90436L9.50617 53.4137H9.78671V53.2417H9.93513V53.4137H10.0872V53.5331Z" fill="white"/>
<path d="M76.3247 53.1912H11.4844V53.4862H76.3247V53.1912Z" fill="white"/>
<path d="M31.7001 52.8743H11.4375V53.6634H31.7001V52.8743Z" fill="#5F2B38"/>
<path d="M32.3557 53.3395C32.3557 53.5346 32.2978 53.7253 32.1894 53.8875C32.081 54.0497 31.927 54.1761 31.7467 54.2508C31.5665 54.3255 31.3682 54.345 31.1768 54.3069C30.9855 54.2689 30.8097 54.1749 30.6717 54.037C30.5338 53.899 30.4398 53.7233 30.4018 53.5319C30.3637 53.3406 30.3832 53.1422 30.4579 52.962C30.5326 52.7817 30.659 52.6277 30.8212 52.5193C30.9834 52.4109 31.1741 52.353 31.3692 52.353C31.6309 52.353 31.8818 52.457 32.0668 52.6419C32.2517 52.8269 32.3557 53.0778 32.3557 53.3395Z" fill="#5F2B38"/>
<path d="M77.9576 53.3304C77.9572 53.3698 77.9487 53.4088 77.9326 53.4447C77.9164 53.4806 77.8929 53.5128 77.8636 53.5392C77.8344 53.5656 77.7999 53.5856 77.7625 53.598C77.7251 53.6103 77.6855 53.6147 77.6462 53.611C77.4128 53.611 77.2843 53.4607 77.2843 53.1856C77.2771 53.1272 77.2828 53.0679 77.3008 53.0119C77.3189 52.9558 77.349 52.9044 77.3889 52.8612C77.4289 52.818 77.4778 52.7839 77.5322 52.7615C77.5867 52.7391 77.6453 52.7288 77.7042 52.7313C77.7827 52.7294 77.8602 52.7488 77.9286 52.7874L77.8689 52.9069C77.8206 52.8772 77.7644 52.8627 77.7078 52.8653C77.5467 52.8653 77.4453 52.9648 77.4453 53.1585C77.4746 53.128 77.5101 53.1042 77.5495 53.0889C77.5889 53.0735 77.6312 53.067 77.6734 53.0698C77.7094 53.0673 77.7455 53.0722 77.7795 53.0841C77.8136 53.0961 77.8448 53.1148 77.8714 53.1392C77.898 53.1635 77.9193 53.1931 77.9341 53.2259C77.9489 53.2588 77.9569 53.2944 77.9576 53.3304ZM77.8037 53.3304C77.8037 53.2417 77.7367 53.1856 77.6336 53.1856C77.6119 53.182 77.5896 53.1831 77.5683 53.1887C77.5471 53.1943 77.5272 53.2044 77.5101 53.2182C77.493 53.2321 77.479 53.2494 77.4691 53.2691C77.4592 53.2887 77.4536 53.3102 77.4526 53.3322C77.4526 53.4119 77.5159 53.4752 77.6336 53.4752C77.654 53.4786 77.6748 53.4776 77.6948 53.4723C77.7148 53.467 77.7334 53.4575 77.7495 53.4446C77.7655 53.4316 77.7787 53.4153 77.788 53.3969C77.7974 53.3785 77.8027 53.3583 77.8037 53.3377V53.3304Z" fill="white"/>
<path d="M78.04 53.0372C78.038 53.0229 78.0392 53.0083 78.0434 52.9945C78.0475 52.9807 78.0546 52.9679 78.0641 52.957C78.0736 52.9461 78.0854 52.9374 78.0985 52.9314C78.1117 52.9255 78.126 52.9224 78.1404 52.9224C78.1549 52.9224 78.1692 52.9255 78.1823 52.9314C78.1955 52.9374 78.2072 52.9461 78.2167 52.957C78.2262 52.9679 78.2333 52.9807 78.2375 52.9945C78.2416 53.0083 78.2428 53.0229 78.2409 53.0372C78.2428 53.0516 78.2416 53.0661 78.2375 53.08C78.2333 53.0938 78.2262 53.1066 78.2167 53.1175C78.2072 53.1284 78.1955 53.1371 78.1823 53.143C78.1692 53.149 78.1549 53.1521 78.1404 53.1521C78.126 53.1521 78.1117 53.149 78.0985 53.143C78.0854 53.1371 78.0736 53.1284 78.0641 53.1175C78.0546 53.1066 78.0475 53.0938 78.0434 53.08C78.0392 53.0661 78.038 53.0516 78.04 53.0372ZM78.04 53.5024C78.038 53.4881 78.0392 53.4735 78.0434 53.4597C78.0475 53.4458 78.0546 53.433 78.0641 53.4222C78.0736 53.4113 78.0854 53.4026 78.0985 53.3966C78.1117 53.3906 78.126 53.3875 78.1404 53.3875C78.1549 53.3875 78.1692 53.3906 78.1823 53.3966C78.1955 53.4026 78.2072 53.4113 78.2167 53.4222C78.2262 53.433 78.2333 53.4458 78.2375 53.4597C78.2416 53.4735 78.2428 53.4881 78.2409 53.5024C78.2428 53.5167 78.2416 53.5313 78.2375 53.5451C78.2333 53.559 78.2262 53.5718 78.2167 53.5826C78.2072 53.5935 78.1955 53.6022 78.1823 53.6082C78.1692 53.6142 78.1549 53.6173 78.1404 53.6173C78.126 53.6173 78.1117 53.6142 78.0985 53.6082C78.0854 53.6022 78.0736 53.5935 78.0641 53.5826C78.0546 53.5718 78.0475 53.559 78.0434 53.5451C78.0392 53.5313 78.038 53.5167 78.04 53.5024Z" fill="white"/>
<path d="M78.3359 53.1676C78.3359 52.8871 78.4898 52.7278 78.6979 52.7278C78.9061 52.7278 79.0599 52.8871 79.0599 53.1676C79.0599 53.4481 78.9061 53.6074 78.6979 53.6074C78.4898 53.6074 78.3359 53.4481 78.3359 53.1676ZM78.8898 53.1676C78.8898 52.9613 78.8101 52.8672 78.6925 52.8672C78.5748 52.8672 78.4952 52.9613 78.4952 53.1676C78.4952 53.3739 78.5767 53.4699 78.6925 53.4699C78.8083 53.4699 78.8898 53.3739 78.8898 53.1676Z" fill="white"/>
<path d="M79.1562 53.1676C79.1562 52.8871 79.3101 52.7278 79.5182 52.7278C79.7264 52.7278 79.8802 52.8871 79.8802 53.1676C79.8802 53.4481 79.7264 53.6074 79.5182 53.6074C79.3101 53.6074 79.1562 53.4481 79.1562 53.1676ZM79.7119 53.1676C79.7119 52.9613 79.6305 52.8672 79.5128 52.8672C79.3952 52.8672 79.3173 52.9613 79.3173 53.1676C79.3173 53.3739 79.397 53.4699 79.5128 53.4699C79.6287 53.4699 79.7119 53.3739 79.7119 53.1676Z" fill="white"/>
<path d="M81.2578 53.1152H80.9609V52.2627H81.8134V52.5577H81.2578V53.1152Z" fill="white"/>
<path d="M81.8134 54.2264H80.9609V53.3757H81.256V53.9314H81.8134V54.2264Z" fill="white"/>
<path d="M83.171 54.2265H82.3203V53.9315H82.8742V53.374H83.171V54.2265Z" fill="white"/>
<path d="M83.165 53.1134H82.87V52.5577H82.3125V52.2627H83.165V53.1134Z" fill="white"/>
<path d="M16.3224 14.3491H11.6636L9.33594 18.3835L11.6636 22.4161H16.3224L18.65 18.3835L16.3224 14.3491Z" fill="#EBEBEB"/>
<path d="M12.0452 19.1728C11.8286 18.9501 11.638 18.7036 11.4769 18.438C11.3145 18.1699 11.2463 17.8552 11.2832 17.5439C11.3321 17.3694 11.3714 17.1923 11.4009 17.0135C11.419 16.7638 11.314 16.5031 11.4009 16.2697C11.5384 15.9077 12.0289 15.8479 12.3276 15.5963C12.5592 15.3991 12.6733 15.0805 12.9285 14.9158C13.1655 14.7903 13.4394 14.7531 13.7013 14.8108C13.9605 14.8705 14.2267 14.8937 14.4923 14.8796C14.6757 14.8403 14.857 14.7914 15.0353 14.733C15.2146 14.6766 15.4086 14.6902 15.5783 14.771C15.6612 14.8163 15.7231 14.8921 15.7508 14.9824C15.7785 15.0727 15.7699 15.1703 15.7267 15.2543C16.0326 15.1131 16.4199 15.352 16.5032 15.676C16.5351 15.8418 16.52 16.0133 16.4595 16.171C16.3991 16.3287 16.2957 16.4663 16.1611 16.5683C15.8903 16.77 15.5726 16.8996 15.238 16.9448C14.3022 17.1258 13.2887 17.0226 12.4832 16.5158" fill="#263238"/>
<path d="M16.3619 20.1683C16.3311 19.5909 16.1701 18.4072 16.0108 17.3375C15.9284 16.7833 15.6408 16.2804 15.2049 15.9283C14.7691 15.5763 14.2169 15.401 13.6578 15.437H13.542C12.304 15.5927 11.7447 16.7311 11.9347 17.971L12.2967 22.4144H15.3194C15.3194 22.4144 15.247 21.6343 15.247 21.6271C15.247 21.6199 16.4271 21.3628 16.3619 20.1683Z" fill="#FFBE9D"/>
<path d="M15.2436 21.6126C14.6927 21.659 14.1403 21.5412 13.6562 21.2742C13.6562 21.2742 14.0834 22.1086 15.2671 21.9221L15.2436 21.6126Z" fill="#EB996E"/>
<path d="M15.6303 18.3618C15.6338 18.4059 15.6199 18.4496 15.5914 18.4835C15.563 18.5173 15.5223 18.5386 15.4783 18.5428C15.4571 18.5456 15.4356 18.5441 15.415 18.5385C15.3944 18.5329 15.3751 18.5232 15.3582 18.5101C15.3414 18.4969 15.3273 18.4806 15.3169 18.462C15.3064 18.4433 15.2997 18.4228 15.2973 18.4016C15.2942 18.3576 15.3084 18.3142 15.3367 18.2804C15.3651 18.2466 15.4055 18.2252 15.4493 18.2206C15.4705 18.2178 15.492 18.2193 15.5126 18.2249C15.5332 18.2305 15.5525 18.2402 15.5694 18.2533C15.5862 18.2664 15.6003 18.2828 15.6107 18.3014C15.6212 18.32 15.6279 18.3406 15.6303 18.3618Z" fill="#263238"/>
<path d="M15.7986 17.9384C15.7787 17.9619 15.643 17.8751 15.4584 17.8877C15.2737 17.9004 15.1471 18.0018 15.1253 17.98C15.1036 17.9583 15.1253 17.9294 15.1905 17.8823C15.2662 17.8224 15.3584 17.787 15.4547 17.7809C15.5503 17.7741 15.6455 17.7982 15.7262 17.8497C15.786 17.8895 15.8077 17.9275 15.7986 17.9384Z" fill="#263238"/>
<path d="M13.8955 18.4867C13.8961 18.5301 13.8811 18.5722 13.8532 18.6054C13.8253 18.6387 13.7863 18.6608 13.7435 18.6677C13.7006 18.6723 13.6576 18.6599 13.6238 18.6332C13.59 18.6064 13.568 18.5675 13.5625 18.5247C13.562 18.4813 13.577 18.4392 13.6049 18.406C13.6328 18.3727 13.6717 18.3507 13.7146 18.3437C13.7574 18.3391 13.8004 18.3515 13.8343 18.3782C13.8681 18.405 13.8901 18.4439 13.8955 18.4867Z" fill="#263238"/>
<path d="M13.994 18.094C13.974 18.1175 13.8383 18.0307 13.6537 18.0433C13.4691 18.056 13.3424 18.1556 13.3206 18.1356C13.2989 18.1157 13.3206 18.085 13.3858 18.0379C13.4616 17.9767 13.5546 17.9405 13.6518 17.9343C13.7491 17.9281 13.8459 17.9523 13.9288 18.0035C13.9813 18.0433 14.003 18.0832 13.994 18.094Z" fill="#263238"/>
<path d="M14.7489 19.4026C14.8437 19.3655 14.9429 19.3405 15.0439 19.3284C15.091 19.3284 15.1344 19.3085 15.1399 19.2759C15.1406 19.2277 15.1267 19.1804 15.1001 19.1402L14.9372 18.7927C14.7889 18.5012 14.6636 18.1987 14.5625 17.8877C14.7351 18.1689 14.8846 18.4637 15.0096 18.7691C15.0639 18.8904 15.1163 19.0081 15.167 19.1185C15.1986 19.1732 15.2114 19.2368 15.2032 19.2995C15.1973 19.3164 15.1877 19.3318 15.1752 19.3446C15.1627 19.3574 15.1476 19.3673 15.1308 19.3737C15.105 19.3821 15.0783 19.3875 15.0512 19.39C14.9514 19.4071 14.8498 19.4113 14.7489 19.4026Z" fill="#263238"/>
<path d="M13.988 17.3701C13.9735 17.4208 13.7889 17.4099 13.5753 17.4515C13.3617 17.4932 13.1916 17.562 13.159 17.5185C13.1264 17.4751 13.1735 17.4497 13.2405 17.3954C13.3296 17.3293 13.4332 17.2852 13.5427 17.2669C13.6516 17.2455 13.7641 17.2511 13.8703 17.2832C13.9518 17.3104 13.9952 17.3466 13.988 17.3701Z" fill="#263238"/>
<path d="M15.6903 17.4116C15.6595 17.455 15.531 17.4206 15.379 17.4279C15.2269 17.4351 15.1002 17.4749 15.0676 17.4279C15.0351 17.3808 15.0677 17.3645 15.1238 17.3211C15.1954 17.2673 15.2822 17.2376 15.3717 17.236C15.461 17.2321 15.5494 17.2554 15.6251 17.303C15.6812 17.3482 15.7029 17.3899 15.6903 17.4116Z" fill="#263238"/>
<path d="M12.0904 18.8596C12.0687 18.8596 11.2524 18.6786 11.3338 19.4876C11.4153 20.2967 12.2986 20.0306 12.2967 20.0125C12.2949 19.9944 12.0904 18.8596 12.0904 18.8596Z" fill="#FFBE9D"/>
<path d="M11.932 19.7374C11.932 19.7374 11.9193 19.7483 11.8976 19.7609C11.865 19.7789 11.8267 19.7834 11.7908 19.7736C11.7348 19.7456 11.6874 19.7031 11.6533 19.6506C11.6193 19.5981 11.5999 19.5375 11.5971 19.4749C11.5877 19.4056 11.5945 19.3349 11.617 19.2686C11.6217 19.242 11.6329 19.217 11.6497 19.1959C11.6664 19.1747 11.6882 19.158 11.713 19.1473C11.7288 19.1419 11.746 19.142 11.7617 19.1476C11.7775 19.1532 11.7909 19.1639 11.7998 19.1781C11.8143 19.1998 11.8107 19.2179 11.8143 19.2179C11.8179 19.2179 11.8306 19.2035 11.8143 19.1691C11.8078 19.1498 11.795 19.1333 11.7781 19.122C11.7661 19.1144 11.7527 19.1094 11.7387 19.1072C11.7247 19.105 11.7104 19.1057 11.6967 19.1093C11.664 19.1196 11.6345 19.138 11.6108 19.1626C11.5871 19.1873 11.5699 19.2175 11.5609 19.2505C11.5338 19.3245 11.5251 19.4041 11.5356 19.4822C11.5376 19.5552 11.5616 19.626 11.6046 19.6851C11.6476 19.7442 11.7074 19.789 11.7763 19.8134C11.7989 19.8175 11.8222 19.8166 11.8444 19.8106C11.8666 19.8047 11.8873 19.7939 11.9048 19.779C11.9428 19.7645 11.9428 19.7374 11.932 19.7374Z" fill="#EB996E"/>
<path d="M15.9552 16.2207C15.8991 16.5447 15.2402 16.8434 14.6882 16.8271C14.185 16.8126 13.9353 16.5628 13.5715 16.3854C13.3398 16.2732 13.3398 16.2732 13.0285 16.3239C12.7751 16.3655 12.6429 16.6642 12.5018 16.8796C12.7733 17.4714 12.6628 18.1592 12.547 18.7999C12.5425 18.8718 12.5138 18.9401 12.4656 18.9936C12.4134 19.0257 12.3516 19.0383 12.2911 19.0294C12.2305 19.0204 12.175 18.9905 12.1343 18.9447C12.0004 18.8007 11.9111 18.6209 11.8773 18.4271C11.7633 17.9945 11.7362 17.5435 11.7977 17.1004C11.8577 16.657 12.0465 16.2411 12.3407 15.904C12.7285 15.4952 13.26 15.2531 13.823 15.2289C14.3836 15.2082 14.9365 15.3646 15.4031 15.6759C15.6258 15.8099 15.8122 15.9963 15.9461 16.2189" fill="#263238"/>
<path d="M14.8717 19.8225L14.4554 19.6289C14.4323 19.6157 14.406 19.6094 14.3794 19.6108C14.3504 19.6172 14.3251 19.6348 14.3088 19.6596C14.26 19.7177 14.2295 19.7889 14.2211 19.8643C14.2127 19.9397 14.2269 20.0158 14.2618 20.0832C14.2998 20.1491 14.3598 20.1996 14.4312 20.2258C14.5027 20.2519 14.5811 20.2521 14.6527 20.2262C14.7227 20.1877 14.781 20.1311 14.8214 20.0623C14.8619 19.9935 14.883 19.915 14.8826 19.8352L14.8717 19.8225Z" fill="#EB996E"/>
<path d="M14.6615 20.2569C14.6615 20.2569 14.5746 20.3239 14.4172 20.2786C14.3252 20.2474 14.2483 20.1828 14.2018 20.0976C14.1722 20.0465 14.1544 19.9894 14.1497 19.9306C14.145 19.8717 14.1535 19.8125 14.1746 19.7574C14.1967 19.6998 14.2314 19.6479 14.276 19.6053C14.2976 19.5854 14.3213 19.5678 14.3466 19.5528C14.3633 19.5439 14.3819 19.5393 14.4009 19.5393C14.4198 19.5393 14.4384 19.5439 14.4552 19.5528C14.5511 19.6053 14.6144 19.6506 14.6778 19.6904C14.7991 19.7718 14.8715 19.8279 14.8588 19.8388C14.8461 19.8497 14.7683 19.8153 14.638 19.7483L14.4154 19.6325C14.3991 19.6325 14.4009 19.6325 14.3828 19.6325C14.3646 19.6447 14.3476 19.6586 14.3321 19.6741C14.298 19.7076 14.272 19.7485 14.2561 19.7935C14.2399 19.8362 14.2328 19.8817 14.2353 19.9272C14.2378 19.9727 14.2498 20.0172 14.2706 20.0578C14.3058 20.1261 14.3633 20.1804 14.4335 20.2117C14.5692 20.2696 14.6615 20.2406 14.6615 20.2569Z" fill="#263238"/>
<path d="M14.5288 18.3817C14.5288 18.3817 14.5288 18.3075 14.4853 18.179C14.4329 17.9996 14.3228 17.8425 14.1722 17.7319C14.0516 17.6423 13.9084 17.5879 13.7587 17.5748C13.6089 17.5618 13.4585 17.5906 13.3242 17.6581C13.1899 17.7256 13.077 17.8291 12.9981 17.957C12.9193 18.085 12.8775 18.2323 12.8775 18.3826C12.8775 18.5329 12.9193 18.6803 12.9981 18.8082C13.077 18.9362 13.1899 19.0396 13.3242 19.1071C13.4585 19.1746 13.6089 19.2035 13.7587 19.1904C13.9084 19.1774 14.0516 19.123 14.1722 19.0333C14.3228 18.9227 14.4329 18.7656 14.4853 18.5862C14.5215 18.4577 14.5197 18.3817 14.5288 18.3817C14.5378 18.3817 14.5288 18.4016 14.5288 18.4378C14.5299 18.4908 14.5244 18.5437 14.5125 18.5953C14.4718 18.7898 14.3634 18.9636 14.2066 19.0858C14.0894 19.1773 13.951 19.2378 13.8042 19.2619C13.6575 19.2859 13.507 19.2727 13.3668 19.2234C13.1932 19.1616 13.0429 19.0477 12.9367 18.8971C12.8305 18.7466 12.7734 18.5669 12.7734 18.3826C12.7734 18.1984 12.8305 18.0187 12.9367 17.8681C13.0429 17.7176 13.1932 17.6036 13.3668 17.5419C13.507 17.4926 13.6575 17.4793 13.8042 17.5034C13.951 17.5274 14.0894 17.588 14.2066 17.6795C14.3634 17.8016 14.4718 17.9754 14.5125 18.17C14.5245 18.2215 14.53 18.2745 14.5288 18.3274C14.5342 18.3636 14.5324 18.3817 14.5288 18.3817Z" fill="#263238"/>
<path d="M16.5625 18.3021C16.5534 18.3021 16.5625 18.2297 16.5191 18.1048C16.4684 17.9305 16.3615 17.7777 16.215 17.6704C16.0976 17.5832 15.9583 17.5303 15.8126 17.5177C15.6669 17.5051 15.5205 17.5332 15.3899 17.5989C15.2592 17.6646 15.1494 17.7653 15.0726 17.8898C14.9959 18.0143 14.9553 18.1577 14.9553 18.3039C14.9553 18.4502 14.9959 18.5935 15.0726 18.718C15.1494 18.8425 15.2592 18.9432 15.3899 19.0089C15.5205 19.0746 15.6669 19.1027 15.8126 19.0901C15.9583 19.0775 16.0976 19.0246 16.215 18.9374C16.3615 18.8301 16.4684 18.6774 16.5191 18.503C16.5553 18.3781 16.5534 18.3039 16.5625 18.3039C16.5715 18.3039 16.5625 18.322 16.5625 18.3582C16.5635 18.4099 16.5586 18.4615 16.548 18.5121C16.5076 18.7014 16.4019 18.8706 16.2494 18.9899C16.135 19.0794 15.9999 19.1386 15.8566 19.162C15.7133 19.1854 15.5664 19.1723 15.4295 19.1238C15.2603 19.0635 15.114 18.9523 15.0106 18.8055C14.9071 18.6587 14.8516 18.4835 14.8516 18.3039C14.8516 18.1243 14.9071 17.9491 15.0106 17.8024C15.114 17.6556 15.2603 17.5444 15.4295 17.484C15.5664 17.4356 15.7133 17.4225 15.8566 17.4459C15.9999 17.4693 16.135 17.5285 16.2494 17.6179C16.402 17.7379 16.5077 17.9077 16.548 18.0976C16.5588 18.1481 16.5636 18.1998 16.5625 18.2514C16.5679 18.284 16.5661 18.3021 16.5625 18.3021Z" fill="#263238"/>
<path d="M14.9037 18.1158C14.8856 18.1321 14.8041 18.0796 14.6955 18.0832C14.5869 18.0868 14.5145 18.1393 14.4892 18.123C14.4638 18.1067 14.5399 17.9927 14.6937 17.9891C14.8475 17.9855 14.9272 18.1013 14.9037 18.1158Z" fill="#263238"/>
<path d="M12.8803 18.2625C12.8966 18.2824 12.7373 18.4272 12.5274 18.5846C12.4087 18.6929 12.2696 18.7766 12.1183 18.8308C12.102 18.8109 12.2613 18.6661 12.4713 18.5086C12.5897 18.3999 12.7288 18.3162 12.8803 18.2625Z" fill="#263238"/>
<path d="M29.682 18.342C29.682 18.3673 27.5879 18.389 25.0051 18.389C22.4223 18.389 20.3281 18.3673 20.3281 18.342C20.3281 18.3166 22.4223 18.2949 25.0051 18.2949C27.5879 18.2949 29.682 18.3166 29.682 18.342Z" fill="#263238"/>
<path d="M25.3572 19.3211C25.3572 19.3464 24.2459 19.3681 22.8739 19.3681C21.5019 19.3681 20.3906 19.3464 20.3906 19.3211C20.3906 19.2957 21.5019 19.2722 22.8739 19.2722C24.2459 19.2722 25.3572 19.2939 25.3572 19.3211Z" fill="#263238"/>
<path d="M57.698 25.5728C58.5173 26.0387 59.2361 26.6626 59.8127 27.4082C60.3894 28.1539 60.8124 29.0065 61.0573 29.9167C61.9315 33.0443 64.6048 41.1892 64.6048 41.1892C64.6048 41.1892 66.1324 42.9865 66.2953 44.3168C66.4582 45.6471 66.1324 48.867 65.6401 49.4679C65.4975 49.6423 65.3145 49.7791 65.1069 49.8665C64.8993 49.9539 64.6735 49.9892 64.4491 49.9693L58.0183 49.3594L55.4844 32.4036L57.698 25.5728Z" fill="#5F2B38"/>
<path d="M36.4401 25.2778C36.4401 25.2778 31.841 26.7257 30.6953 27.9746L34.46 45.4879L34.3931 51.0155H56.1996C56.1996 50.7422 56.395 32.666 56.395 32.666L57.7036 25.5728L49.9588 24.2099L48.4312 23.0081L39.8103 23.4461L38.4999 24.7547L36.4401 25.2778Z" fill="#5F2B38"/>
<g opacity="0.3">
<path d="M38.192 40.4724C38.1251 40.324 38.0273 40.1629 37.868 40.1303C37.6056 40.076 37.43 40.3855 37.3413 40.6389C36.6461 42.6243 35.6827 44.5054 34.478 46.2299L34.4219 48.9195C35.6889 47.8498 36.945 46.7041 37.7558 45.2543C38.5667 43.8045 38.869 41.9855 38.192 40.4724Z" fill="black"/>
</g>
<path d="M30.6923 27.9746C30.6923 27.9746 29.1773 30.0398 28.5493 31.3882C27.9212 32.7366 22.7067 44.058 22.3954 45.229C22.0841 46.4001 21.2732 50.0816 23.6533 50.9359H28.5529L33.4688 40.9937L33.7203 29.4552L30.6923 27.9746Z" fill="#5F2B38"/>
<path d="M28.8598 43.7539C28.8598 43.7539 28.7512 43.658 28.525 43.5295C28.2021 43.3563 27.8558 43.2307 27.4969 43.1566C27.2502 43.1026 26.9997 43.0675 26.7476 43.0517C26.4572 43.0298 26.1651 43.0505 25.8806 43.1132C25.2368 43.2785 24.6604 43.6404 24.2317 44.1485C23.7959 44.6509 23.4769 45.2437 23.2978 45.8843C23.15 46.4078 23.0518 46.9441 23.0046 47.4861C22.9575 47.9494 22.9412 48.3277 22.925 48.5865C22.925 48.7096 22.9105 48.8092 22.9069 48.887C22.907 48.9225 22.9021 48.9578 22.8924 48.992C22.89 48.957 22.89 48.9219 22.8924 48.887C22.8924 48.8073 22.8924 48.706 22.8924 48.5865C22.8924 48.3241 22.9032 47.9476 22.9412 47.4806C22.9795 46.9298 23.0723 46.3842 23.2182 45.8517C23.396 45.1966 23.7196 44.5903 24.1648 44.0779C24.6068 43.5556 25.2021 43.1858 25.8662 43.0209C26.1565 42.9604 26.4542 42.944 26.7494 42.972C27.005 42.9908 27.2586 43.0301 27.5078 43.0897C27.8707 43.1703 28.2188 43.3071 28.5395 43.4951C28.6259 43.5485 28.7076 43.609 28.7838 43.6761C28.8118 43.6993 28.8373 43.7254 28.8598 43.7539Z" fill="#263238"/>
<path d="M26.5391 41.7739C26.5926 41.7583 26.648 41.7498 26.7038 41.7486C26.855 41.7368 27.0069 41.7368 27.1581 41.7486C27.3832 41.7618 27.6067 41.7951 27.8259 41.8481C28.3653 41.9785 28.8715 42.2202 29.3119 42.5576C29.4914 42.6942 29.658 42.8469 29.8097 43.0137C29.9125 43.1269 30.0063 43.2479 30.0902 43.3757C30.1244 43.42 30.1524 43.4687 30.1735 43.5205C30.159 43.5314 30.0251 43.3395 29.7608 43.0644C29.6047 42.908 29.4371 42.7634 29.2594 42.6318C29.0407 42.4726 28.8081 42.3332 28.5644 42.2155C28.3194 42.1013 28.0651 42.008 27.8042 41.9368C27.5903 41.8817 27.3725 41.843 27.1526 41.821C26.7762 41.7721 26.5391 41.792 26.5391 41.7739Z" fill="#263238"/>
<path d="M30.9638 41.229C30.888 41.2321 30.8121 41.2266 30.7375 41.2127C30.5927 41.1946 30.3846 41.1729 30.124 41.153C28.7704 41.0521 27.41 41.215 26.1185 41.6326C25.8705 41.7123 25.6714 41.7829 25.5357 41.8354C25.4664 41.866 25.3943 41.8896 25.3203 41.9059C25.3826 41.8627 25.4501 41.8274 25.5212 41.801C25.6533 41.7376 25.8506 41.658 26.0968 41.5693C27.3893 41.1116 28.7673 40.9472 30.1312 41.0878C30.39 41.115 30.6 41.1458 30.743 41.1765C30.8181 41.1869 30.892 41.2045 30.9638 41.229Z" fill="#263238"/>
<path d="M44.9177 31.5547C44.8979 31.5375 44.8808 31.5173 44.8671 31.4949L44.7331 31.3139L44.2408 30.6334C43.8191 30.0361 43.229 29.2035 42.5358 28.2261L42.6119 28.2153C42.3476 28.9899 42.0562 29.8442 41.7503 30.7492L41.7304 30.8053L41.6797 30.7728L41.5784 30.7076C41.184 30.4551 40.8254 30.1507 40.5123 29.8026C40.2229 29.4785 39.9676 29.1255 39.7503 28.7492C39.3887 28.1124 39.1072 27.4334 38.9123 26.7275C38.7814 26.2507 38.6757 25.7674 38.5955 25.2795C38.5666 25.1166 38.5449 24.9845 38.5268 24.8849C38.5216 24.8512 38.5138 24.8179 38.5032 24.7854C38.5032 24.7637 38.4906 24.7528 38.4924 24.751C38.4942 24.7492 38.5666 24.932 38.6317 25.2741C38.6969 25.6162 38.8001 26.1085 38.9774 26.7039C39.1779 27.4033 39.463 28.0755 39.8263 28.7058C40.043 29.075 40.2958 29.4218 40.5811 29.7411C40.8888 30.0809 41.2406 30.3779 41.6272 30.6243L41.7268 30.6895L41.658 30.7148C41.9675 29.8098 42.2607 28.961 42.5286 28.1809L42.5557 28.1012L42.6046 28.17C43.2852 29.1565 43.8716 29.9963 44.2825 30.5972C44.4797 30.8904 44.6444 31.1239 44.7549 31.294L44.8761 31.475C44.8928 31.5 44.9067 31.5267 44.9177 31.5547Z" fill="#263238"/>
<g opacity="0.3">
<path d="M50.5919 39.915C50.3967 41.9573 50.8393 44.0099 51.8589 45.7902C52.8725 47.5531 54.3603 49.126 56.2119 49.9694C56.2716 48.1721 56.1847 46.0545 56.2444 44.2572L50.5919 39.915Z" fill="black"/>
</g>
<path d="M50.3884 37.5493C50.3884 37.5493 49.5956 37.7683 50.1893 39.3919C50.783 41.0154 50.9821 40.9158 51.3785 42.4326C51.7748 43.9493 52.2364 45.3285 52.9278 46.1937C53.6192 47.0589 56.1948 48.8001 56.1948 48.8001L58.5043 46.6281C58.5043 46.6281 58.1242 44.9991 58.2147 43.9023C58.3052 42.8054 58.5369 40.1014 58.5043 39.6326C58.4717 39.1638 57.9758 38.0489 57.9758 38.0489V37.2814L56.7885 33.6289C56.7885 33.6289 56.1278 33.3321 55.898 34.3873L55.5016 33.2669C55.5016 33.2669 54.8753 33.1674 54.7106 34.4543C54.5459 35.7411 54.8427 37.5222 54.8427 37.5222L54.5115 39.7647L54.0174 41.2833L53.5884 41.3484C53.5884 41.3484 52.9423 41.1674 52.5893 39.9566C52.2364 38.7457 51.2789 37.2851 50.3884 37.5493Z" fill="#FFBE9D"/>
<path d="M57.7362 43.2941C57.7362 43.2941 57.7362 43.267 57.7253 43.2127C57.7144 43.1584 57.7144 43.0697 57.709 42.9701C57.6963 42.7493 57.68 42.4434 57.6601 42.0651C57.6239 41.2778 57.5751 40.181 57.5172 38.9013L57.5262 38.9285C57.4671 38.8672 57.3923 38.8233 57.3099 38.8016C57.2276 38.7799 57.1409 38.7812 57.0592 38.8054C56.9707 38.8269 56.8873 38.8658 56.814 38.9199C56.7406 38.9739 56.6788 39.0421 56.6321 39.1203C56.4294 39.4443 56.4185 39.8678 56.3551 40.2751C56.2303 41.2 56.1108 42.0851 56.0022 42.8832C55.9479 43.2851 55.89 43.6652 55.8122 44.0181C55.7389 44.3454 55.6427 44.6672 55.5244 44.981C55.423 45.2688 55.3325 45.524 55.2764 45.7647C55.2264 45.9629 55.2014 46.1666 55.2022 46.3711C55.2086 46.5469 55.239 46.7211 55.2927 46.8887C55.271 46.8481 55.2528 46.8057 55.2384 46.762C55.1955 46.6365 55.1711 46.5054 55.166 46.3729C55.1574 46.163 55.1775 45.9529 55.2257 45.7484C55.2892 45.4798 55.3684 45.2151 55.4628 44.9557C55.5747 44.643 55.6654 44.3231 55.7343 43.9982C55.8085 43.6489 55.8646 43.2742 55.9153 42.8688C56.0203 42.0651 56.138 41.1855 56.261 40.2588C56.29 40.0543 56.3117 39.8497 56.3479 39.647C56.3776 39.4421 56.4464 39.2449 56.5506 39.066C56.6045 38.9782 56.6753 38.9019 56.7589 38.8416C56.8424 38.7814 56.9372 38.7383 57.0375 38.7149C57.1351 38.6856 57.2389 38.6843 57.3372 38.7111C57.4354 38.738 57.5241 38.792 57.5932 38.8669L57.6022 38.8796V38.8941C57.6475 40.1737 57.6855 41.2706 57.7126 42.0597C57.7126 42.4416 57.7289 42.7475 57.7362 42.9647C57.7362 43.0642 57.7362 43.1457 57.7362 43.2072C57.7392 43.2361 57.7392 43.2652 57.7362 43.2941Z" fill="#EB996E"/>
<path d="M56.4683 39.1313C56.4271 39.0669 56.3943 38.9976 56.3706 38.925C56.2949 38.7321 56.2303 38.5351 56.1769 38.3349C56.0993 38.0378 56.0442 37.7353 56.0122 37.4299C55.9899 37.2498 55.9862 37.0678 56.0013 36.8869C56.0181 36.6847 56.0867 36.4903 56.2004 36.3222C56.3019 36.1716 56.4511 36.0594 56.624 36.0037L56.6583 35.9946L56.6764 36.0254C57.0113 36.6154 57.3027 37.1367 57.5054 37.5114L57.7425 37.9548C57.775 38.0068 57.8005 38.0628 57.8185 38.1213C57.778 38.0753 57.7428 38.0249 57.7136 37.9711L57.4529 37.5421C57.2357 37.1802 56.9335 36.6607 56.5968 36.0725L56.6493 36.0942C56.4979 36.1448 56.3674 36.2441 56.2783 36.3765C56.174 36.5318 56.1117 36.7114 56.0973 36.8978C56.0791 37.0747 56.0791 37.253 56.0973 37.4299C56.1245 37.7345 56.1723 38.0368 56.2402 38.3349C56.2982 38.5883 56.3615 38.791 56.4031 38.9304C56.4315 38.995 56.4533 39.0623 56.4683 39.1313Z" fill="#EB996E"/>
<path d="M55.9203 39.428C55.9042 39.3586 55.8969 39.2875 55.8986 39.2163C55.8986 39.0606 55.8841 38.8687 55.8751 38.6425C55.8606 38.1574 55.8443 37.4877 55.8352 36.7475C55.8082 36.1145 55.8179 35.4806 55.8642 34.8488C55.8869 34.657 55.9281 34.4679 55.9873 34.2841C56.0048 34.2148 56.0336 34.1487 56.0724 34.0886C56.0059 34.3406 55.9581 34.5971 55.9294 34.856C55.8841 35.3357 55.9294 36.0054 55.9294 36.7457C55.9294 37.4859 55.9438 38.1556 55.942 38.6407C55.942 38.8687 55.942 39.0606 55.942 39.2163C55.9426 39.2874 55.9353 39.3584 55.9203 39.428Z" fill="#EB996E"/>
<path d="M53.9617 45.5115C53.949 45.5006 54.0938 45.3305 54.2712 45.021C54.3752 44.8405 54.4654 44.6523 54.5409 44.4581C54.6297 44.2192 54.6987 43.9735 54.7472 43.7233C54.7895 43.4721 54.8107 43.2178 54.8106 42.9631C54.8078 42.7551 54.7897 42.5476 54.7563 42.3423C54.6966 41.9893 54.6205 41.7794 54.6368 41.7739C54.6654 41.8182 54.6873 41.8663 54.702 41.9169C54.7531 42.051 54.793 42.189 54.8214 42.3296C54.8657 42.5374 54.8912 42.7488 54.8975 42.9613C54.9134 43.4848 54.819 44.0059 54.6205 44.4907C54.5406 44.6873 54.443 44.8763 54.3291 45.0554C54.2537 45.1769 54.1683 45.2919 54.0739 45.3993C54.007 45.4753 53.9671 45.5151 53.9617 45.5115Z" fill="#EB996E"/>
<path d="M58.0179 44.3801L60.0216 45.0752C60.0216 45.0752 61.9365 44.0851 63.256 45.0752C64.5755 46.0652 65.7212 48.6734 65.3592 49.7286C65.3592 49.7286 64.4542 50.8544 63.7555 51.0191C63.0569 51.1838 60.3691 50.5304 59.2487 50.2951C58.1284 50.0598 56.1953 48.8037 56.1953 48.8037L58.0179 44.3801Z" fill="#FFBE9D"/>
<path d="M58.2653 47.3285C58.2513 47.2692 58.244 47.2085 58.2436 47.1476C58.2436 47.0118 58.2273 46.8507 58.2165 46.6625C58.1948 46.2534 58.1676 45.6887 58.1586 45.0625C58.1495 44.4362 58.1676 43.8697 58.2038 43.4606C58.2219 43.2561 58.2454 43.0987 58.2653 42.9774C58.2698 42.9153 58.2838 42.8542 58.307 42.7964C58.3215 42.7964 58.2907 43.0498 58.2708 43.4588C58.2509 43.8679 58.2436 44.4308 58.2527 45.0552C58.2617 45.6797 58.2744 46.219 58.2816 46.6534C58.2816 46.858 58.2816 47.0245 58.2816 47.1385C58.2865 47.2023 58.281 47.2665 58.2653 47.3285Z" fill="#EB996E"/>
<path d="M64.8735 44.9921C64.6658 44.7764 64.4433 44.5756 64.2074 44.3912C63.6279 43.9575 62.933 43.705 62.2103 43.6654C61.4876 43.6258 60.7693 43.8009 60.1459 44.1685C59.8929 44.3262 59.651 44.501 59.4219 44.6916C59.4697 44.6252 59.5249 44.5645 59.5866 44.5106C59.7495 44.3593 59.9271 44.2247 60.1169 44.1088C60.7464 43.7167 61.4816 43.5284 62.222 43.5695C62.9625 43.6107 63.6723 43.8793 64.2545 44.3387C64.4305 44.4741 64.5919 44.6275 64.7359 44.7966C64.7893 44.8561 64.8355 44.9217 64.8735 44.9921Z" fill="#263238"/>
<path d="M64.6189 43.3214C64.36 43.1355 64.0799 42.9812 63.7845 42.8617C63.0583 42.6039 62.2695 42.5805 61.5293 42.7947C61.1221 42.909 60.7301 43.0719 60.3618 43.2798C60.062 43.4521 59.7791 43.6521 59.5166 43.8771C59.2921 44.069 59.1202 44.2391 59.0025 44.3531C58.9448 44.4191 58.8812 44.4797 58.8125 44.5341C58.8596 44.4611 58.9142 44.3931 58.9754 44.3314C59.1317 44.1551 59.2979 43.9877 59.4731 43.83C59.7332 43.5952 60.0164 43.3872 60.3184 43.2092C60.6904 42.9919 61.0888 42.8234 61.5039 42.7079C62.2623 42.4863 63.0725 42.52 63.8098 42.8038C64.03 42.8918 64.2376 43.0086 64.427 43.1513C64.494 43.2002 64.5392 43.2472 64.5736 43.2762C64.608 43.3052 64.6189 43.3196 64.6189 43.3214Z" fill="#263238"/>
<path d="M64.6324 41.8735C64.6324 41.8916 64.2705 41.7848 63.6949 41.707C63.3547 41.6613 63.0118 41.6396 62.6686 41.6418C62.2482 41.6464 61.8289 41.684 61.4143 41.754C61.0006 41.8301 60.5934 41.9378 60.1962 42.0762C59.8725 42.1912 59.5573 42.3291 59.2532 42.4889C58.7338 42.7604 58.4405 42.9812 58.4297 42.9649C58.4912 42.9052 58.5585 42.8519 58.6306 42.8056C58.7094 42.7436 58.7923 42.6867 58.8786 42.6355C58.9781 42.5721 59.0903 42.4979 59.2206 42.4291C59.5249 42.2609 59.8413 42.1157 60.1673 41.9948C60.5673 41.8488 60.979 41.7374 61.398 41.6617C61.8166 41.5909 62.2404 41.5551 62.665 41.5549C63.0124 41.5567 63.3591 41.5851 63.7021 41.64C63.8487 41.6581 63.979 41.6925 64.0931 41.716C64.1921 41.7361 64.29 41.7614 64.3863 41.792C64.4705 41.812 64.5529 41.8393 64.6324 41.8735Z" fill="#263238"/>
<path d="M49.2797 24.1501C49.3548 24.3187 49.4013 24.4985 49.4173 24.6823C49.4713 25.2014 49.4457 25.7257 49.3413 26.237C49.2778 26.6041 49.1913 26.9668 49.0824 27.323C48.9398 27.7375 48.7642 28.14 48.5575 28.5266C48.125 29.3592 47.582 30.266 46.9521 31.2416L46.8797 31.3556V31.2199C46.8797 30.5792 46.8797 29.9077 46.8797 29.2108L46.9503 29.2452L45.2507 30.6009L45.2652 30.5792C44.8621 31.9003 44.6142 33.264 44.5268 34.6425C44.3602 36.8453 44.4942 38.9521 44.5973 40.8634C44.7005 42.7747 44.7458 44.4996 44.8055 45.9476C44.8652 47.3956 44.9141 48.5648 44.9575 49.3739C44.9829 49.7757 45.001 50.087 45.0136 50.3042C45.0136 50.4073 45.0263 50.4852 45.0299 50.5467C45.0335 50.6083 45.0299 50.63 45.0299 50.63C45.0299 50.63 45.0299 50.6028 45.0172 50.5485C45.0046 50.4942 45.0028 50.4092 44.9919 50.306C44.972 50.0942 44.9467 49.7811 44.9195 49.3757C44.8652 48.5684 44.8019 47.3974 44.7385 45.9494C44.6752 44.5014 44.5973 42.7801 44.5105 40.867C44.4236 38.9539 44.2661 36.8453 44.4326 34.6353C44.5242 33.2485 44.7787 31.8774 45.191 30.5502V30.5375H45.2019L46.896 29.1782L46.9666 29.1203V29.2108C46.9666 29.9077 46.9666 30.5792 46.9666 31.2199L46.8924 31.1964C48.1358 29.2687 49.1476 27.5927 49.3033 26.237C49.4108 25.7305 49.4437 25.211 49.401 24.6949C49.3862 24.5594 49.3614 24.4251 49.3268 24.2931C49.2906 24.1954 49.2797 24.1501 49.2797 24.1501Z" fill="#263238"/>
<path d="M46.0339 47.4971H45.976C45.8442 47.5055 45.7209 47.5649 45.6321 47.6627C45.5433 47.7605 45.496 47.8889 45.5003 48.0209C45.5045 48.1529 45.5599 48.2781 45.6548 48.37C45.7496 48.4619 45.8765 48.5132 46.0086 48.5132C46.1407 48.5132 46.2676 48.4619 46.3624 48.37C46.4573 48.2781 46.5127 48.1529 46.5169 48.0209C46.5212 47.8889 46.4739 47.7605 46.3851 47.6627C46.2963 47.5649 46.173 47.5055 46.0412 47.4971H46.0339Z" fill="white"/>
<path d="M46.0321 40.5212H45.9742C45.8429 40.5297 45.72 40.5889 45.6316 40.6863C45.5431 40.7838 45.496 40.9118 45.5003 41.0433C45.5045 41.1748 45.5597 41.2995 45.6542 41.3911C45.7488 41.4826 45.8752 41.5338 46.0068 41.5338C46.1384 41.5338 46.2648 41.4826 46.3593 41.3911C46.4539 41.2995 46.5091 41.1748 46.5133 41.0433C46.5176 40.9118 46.4705 40.7838 46.382 40.6863C46.2936 40.5889 46.1707 40.5297 46.0394 40.5212H46.0321Z" fill="white"/>
<path d="M45.9713 34.2805C46.1065 34.2894 46.2396 34.2442 46.3414 34.1549C46.4433 34.0657 46.5055 33.9396 46.5143 33.8045C46.5232 33.6693 46.4781 33.5362 46.3888 33.4344C46.2995 33.3325 46.1734 33.2704 46.0383 33.2615H45.9713C45.836 33.2615 45.7062 33.3152 45.6104 33.411C45.5147 33.5067 45.4609 33.6365 45.4609 33.7719C45.4609 33.9073 45.5147 34.0371 45.6104 34.1328C45.7062 34.2285 45.836 34.2823 45.9713 34.2823V34.2805Z" fill="white"/>
<path d="M38.146 15.9764C37.5125 15.2723 36.879 14.5628 36.4102 13.7374C35.9414 12.9121 35.6717 11.9474 35.8238 11.0225C35.9143 10.4795 36.1459 9.95461 36.1858 9.39352C36.2364 8.63333 35.9179 7.83876 36.1858 7.12744C36.6057 6.0125 38.1061 5.84055 39.0147 5.07132C39.7224 4.47222 40.0663 3.50026 40.8446 2.99709C41.5252 2.55546 42.3994 2.56632 43.1976 2.67854C43.9958 2.79076 44.8066 2.99528 45.6103 2.88669C46.1822 2.81067 46.7216 2.57899 47.2809 2.43962C47.8401 2.30026 48.4682 2.25863 48.9659 2.55546C49.4637 2.8523 49.746 3.55275 49.4184 4.02877C50.3488 3.59981 51.5307 4.32561 51.7859 5.31747C52.0411 6.30933 51.5307 7.38264 50.7415 8.03242C49.9524 8.6822 48.9316 8.99171 47.927 9.18175C45.0781 9.72474 41.9849 9.41524 39.5288 7.87315" fill="#263238"/>
<path d="M48.1709 25.5566C48.0316 24.4706 47.9175 23.5783 47.9103 23.4661C47.9103 23.4661 51.5158 22.6552 51.3167 19.0099C51.2207 17.247 50.7284 13.6343 50.2433 10.371C49.9941 8.67923 49.1164 7.14358 47.7853 6.07013C46.4543 4.99668 44.7675 4.46428 43.0614 4.57906L42.6994 4.60078C38.9256 5.0768 37.2188 8.54832 37.798 12.3094L39.836 24.9195C39.836 24.9195 40.7048 27.7086 42.5637 28.1919L44.9166 31.544L45.3039 30.096L47.0524 28.572C47.3874 28.178 47.677 27.7475 47.9157 27.2887C48.1827 26.7531 48.2721 26.1464 48.1709 25.5566Z" fill="#FFBE9D"/>
<path d="M47.9102 23.4153C47.9102 23.4153 45.6206 23.7556 43.0703 22.3818C43.0703 22.3818 44.3699 24.9285 47.9826 24.3583L47.9102 23.4153Z" fill="#EB996E"/>
<path d="M49.0746 13.5057C49.0847 13.6413 49.0416 13.7756 48.9545 13.88C48.8673 13.9844 48.7429 14.0508 48.6076 14.065C48.5417 14.0746 48.4746 14.071 48.4102 14.0542C48.3458 14.0375 48.2854 14.008 48.2325 13.9675C48.1797 13.927 48.1356 13.8763 48.1027 13.8184C48.0698 13.7606 48.0488 13.6967 48.0411 13.6306C48.029 13.4939 48.0715 13.3579 48.1594 13.2524C48.2472 13.147 48.3732 13.0805 48.5099 13.0677C48.5759 13.0583 48.6431 13.0623 48.7075 13.0794C48.7719 13.0965 48.8322 13.1263 48.8849 13.1672C48.9376 13.208 48.9815 13.2591 49.0141 13.3172C49.0467 13.3754 49.0672 13.4395 49.0746 13.5057Z" fill="#263238"/>
<path d="M49.582 12.2135C49.5223 12.2859 49.1078 12.0198 48.5485 12.0596C47.9892 12.0995 47.6037 12.4054 47.5313 12.3438C47.5006 12.3167 47.5585 12.19 47.7286 12.047C47.9591 11.8627 48.2412 11.7545 48.5359 11.7375C48.8273 11.7163 49.1179 11.7893 49.3648 11.9456C49.5458 12.0615 49.611 12.1809 49.582 12.2135Z" fill="#263238"/>
<path d="M43.785 13.884C43.7956 14.0195 43.7526 14.1538 43.6653 14.2581C43.578 14.3623 43.4533 14.4281 43.318 14.4415C43.2522 14.4514 43.1852 14.448 43.1207 14.4314C43.0563 14.4149 42.9959 14.3856 42.9431 14.3452C42.8902 14.3049 42.846 14.2543 42.8131 14.1965C42.7802 14.1387 42.7592 14.0749 42.7515 14.0089C42.7413 13.8735 42.7841 13.7395 42.8709 13.6351C42.9577 13.5308 43.0817 13.4643 43.2166 13.4496C43.2826 13.4399 43.3498 13.4436 43.4144 13.4603C43.4789 13.477 43.5394 13.5065 43.5924 13.547C43.6453 13.5875 43.6897 13.6381 43.7227 13.696C43.7558 13.7539 43.777 13.8178 43.785 13.884Z" fill="#263238"/>
<path d="M44.0828 12.6858C44.0213 12.7582 43.6086 12.4921 43.0493 12.5319C42.49 12.5718 42.0973 12.8776 42.0321 12.8125C41.9995 12.7853 42.0575 12.6586 42.2276 12.5156C42.459 12.3316 42.7415 12.2235 43.0366 12.2061C43.3275 12.1852 43.6174 12.2582 43.8638 12.4143C44.0448 12.5337 44.1118 12.6532 44.0828 12.6858Z" fill="#263238"/>
<path d="M46.3942 16.7022C46.3942 16.6696 46.7345 16.5863 47.2992 16.4759C47.4404 16.4524 47.5743 16.4144 47.5924 16.3166C47.5942 16.1678 47.5507 16.022 47.4676 15.8985L46.9716 14.8379C46.282 13.3284 45.7716 12.0813 45.8332 12.0542C45.8947 12.027 46.5028 13.2288 47.1942 14.7402L47.6721 15.808C47.7733 15.9744 47.813 16.1711 47.7843 16.3637C47.7668 16.4153 47.7378 16.4623 47.6996 16.5012C47.6613 16.54 47.6148 16.5698 47.5635 16.5881C47.4857 16.6151 47.4048 16.6322 47.3228 16.6388C46.7508 16.7076 46.3997 16.7329 46.3942 16.7022Z" fill="#263238"/>
<path d="M44.0842 10.4813C44.039 10.6388 43.4761 10.6026 42.8172 10.7257C42.1584 10.8488 41.6462 11.0641 41.5503 10.9338C41.5068 10.8705 41.5901 10.7221 41.7946 10.5592C42.0686 10.3603 42.384 10.2261 42.7172 10.1666C43.0504 10.107 43.3927 10.1237 43.7186 10.2153C43.9738 10.2967 44.1041 10.4089 44.0842 10.4813Z" fill="#263238"/>
<path d="M49.2645 10.6062C49.1758 10.7402 48.7812 10.6352 48.3161 10.6587C47.8509 10.6822 47.4654 10.8017 47.3658 10.675C47.3224 10.6135 47.3767 10.4813 47.5468 10.3492C47.7679 10.1902 48.0312 10.1001 48.3033 10.0905C48.5755 10.0808 48.8445 10.1519 49.0763 10.2949C49.2428 10.4144 49.3043 10.5338 49.2645 10.6062Z" fill="#263238"/>
<path d="M38.284 14.9971C38.2206 14.9754 35.7319 14.4252 35.9781 16.9103C36.2242 19.3953 38.9138 18.5845 38.9138 18.5139C38.9138 18.4433 38.284 14.9971 38.284 14.9971Z" fill="#FFBE9D"/>
<path d="M37.8177 17.6978C37.805 17.6978 37.7779 17.7322 37.7073 17.772C37.6092 17.8268 37.4936 17.8411 37.3851 17.8118C37.1118 17.7412 36.8421 17.3467 36.7932 16.9068C36.7662 16.6945 36.7866 16.4787 36.853 16.2752C36.8692 16.1957 36.9043 16.1213 36.9553 16.0583C37.0064 15.9953 37.0718 15.9455 37.1462 15.9132C37.1948 15.8952 37.2482 15.8948 37.2971 15.912C37.346 15.9292 37.3873 15.9629 37.4141 16.0073C37.4539 16.0743 37.443 16.1249 37.4557 16.1267C37.4684 16.1285 37.5046 16.0815 37.4756 15.9801C37.4552 15.9198 37.415 15.8681 37.3616 15.8335C37.3247 15.8088 37.2834 15.7916 37.2399 15.7829C37.1964 15.7742 37.1517 15.7742 37.1082 15.7828C37.0083 15.8135 36.918 15.8691 36.8458 15.9445C36.7735 16.0199 36.7218 16.1126 36.6955 16.2136C36.6106 16.4393 36.5827 16.6823 36.614 16.9213C36.6792 17.4209 36.976 17.8643 37.3507 17.9313C37.4196 17.9444 37.4905 17.9417 37.5582 17.9235C37.6259 17.9054 37.6886 17.8721 37.7417 17.8263C37.8195 17.7575 37.8322 17.7014 37.8177 17.6978Z" fill="#EB996E"/>
<path d="M50.0592 6.97725C49.889 7.96731 47.8872 8.8741 46.2184 8.82523C44.6854 8.77998 43.927 8.01979 42.8139 7.47861C42.108 7.13653 42.108 7.13653 41.1505 7.29762C40.3776 7.4225 39.9758 8.33654 39.5414 8.98813C40.3686 10.7981 40.0338 12.8904 39.6826 14.8452C39.6675 15.0656 39.5789 15.2747 39.431 15.4389C39.1523 15.685 38.707 15.5384 38.4247 15.2868C37.9849 14.8832 37.784 14.2859 37.641 13.7067C37.2903 12.3894 37.2066 11.0152 37.3948 9.66505C37.5851 8.30831 38.1691 7.03715 39.0745 6.00892C40.2585 4.7612 41.8809 4.02206 43.5994 3.94737C45.3093 3.88608 46.9951 4.36484 48.4175 5.3157C49.0763 5.74828 49.6845 6.28222 50.0646 6.97544" fill="#263238"/>
<path d="M46.7625 17.9547L45.4955 17.3647C45.4261 17.3236 45.3462 17.3035 45.2656 17.3067C45.1765 17.3268 45.0983 17.3798 45.0466 17.4552C44.8981 17.6329 44.8055 17.8506 44.7804 18.0809C44.7552 18.3111 44.7988 18.5437 44.9054 18.7493C45.0214 18.9496 45.2038 19.103 45.4209 19.183C45.6381 19.263 45.8764 19.2645 46.0946 19.1873C46.5435 19.0063 46.7607 18.4796 46.7969 17.9945L46.7625 17.9547Z" fill="#EB996E"/>
<path d="M46.1325 19.2813C46.1325 19.2922 46.0728 19.3284 45.9515 19.3555C45.7701 19.3881 45.5833 19.3744 45.4085 19.3157C45.1413 19.2257 44.9173 19.0392 44.7805 18.7926C44.6939 18.6424 44.642 18.4748 44.6285 18.3019C44.615 18.129 44.6404 17.9554 44.7026 17.7935C44.7663 17.6258 44.8665 17.4744 44.9959 17.3501C45.0586 17.2907 45.1278 17.2385 45.2022 17.1944C45.2468 17.1679 45.297 17.1524 45.3488 17.1492C45.3991 17.1472 45.4492 17.1565 45.4954 17.1763C45.563 17.2104 45.6289 17.2479 45.6927 17.2886L45.8646 17.3954L46.1741 17.5872C46.5488 17.8261 46.7751 17.9854 46.7624 18.0071C46.7497 18.0288 46.4999 17.913 46.1072 17.703L45.7868 17.5221L45.6058 17.4225C45.5443 17.3917 45.4791 17.3501 45.4248 17.3284C45.4025 17.3177 45.3777 17.3134 45.3531 17.3159C45.3285 17.3185 45.3051 17.3278 45.2855 17.3429C45.2254 17.3808 45.1695 17.4251 45.1189 17.475C45.0115 17.5819 44.9277 17.7102 44.8728 17.8515C44.8203 17.9885 44.7979 18.1353 44.8073 18.2818C44.8167 18.4283 44.8575 18.5711 44.9271 18.7003C45.0399 18.917 45.2249 19.0873 45.4502 19.1818C45.606 19.2445 45.7727 19.2759 45.9407 19.2741C46.0601 19.2795 46.1271 19.2687 46.1325 19.2813Z" fill="#263238"/>
<path d="M45.731 13.5691C45.713 13.357 45.6797 13.1465 45.6314 12.9392C45.5418 12.5927 45.3807 12.2687 45.1584 11.9881C44.9361 11.7075 44.6575 11.4765 44.3406 11.31C44.0238 11.1434 43.6756 11.045 43.3184 11.0211C42.9612 10.9971 42.603 11.0482 42.2667 11.1709C42.0349 11.2541 41.8171 11.3718 41.6205 11.5202C41.411 11.6703 41.2276 11.8537 41.0776 12.0632C40.755 12.4994 40.5809 13.0275 40.5809 13.57C40.5809 14.1125 40.755 14.6407 41.0776 15.0768C41.2276 15.2863 41.411 15.4698 41.6205 15.6198C41.8171 15.7682 42.0349 15.886 42.2667 15.9691C42.603 16.0907 42.961 16.1408 43.3178 16.1164C43.6746 16.0919 44.0224 15.9933 44.339 15.8269C44.6556 15.6605 44.934 15.43 45.1566 15.15C45.3791 14.87 45.5408 14.5468 45.6314 14.2008C45.6795 13.9941 45.7128 13.7842 45.731 13.5727C45.7331 13.5865 45.7331 13.6006 45.731 13.6144C45.731 13.6469 45.731 13.6886 45.731 13.7374C45.7326 13.8047 45.7277 13.872 45.7165 13.9383C45.7064 14.0298 45.6901 14.1206 45.6676 14.2098C45.6103 14.4562 45.5157 14.6924 45.3871 14.9103C45.0779 15.4387 44.5934 15.8421 44.0178 16.0504C43.4421 16.2587 42.8116 16.2588 42.2359 16.0506C41.9961 15.9648 41.7708 15.8427 41.5681 15.6886C41.352 15.5338 41.1625 15.3449 41.007 15.1293C40.6726 14.6775 40.4922 14.1303 40.4922 13.5682C40.4922 13.0061 40.6726 12.4589 41.007 12.0071C41.1614 11.7912 41.3503 11.6022 41.5662 11.4478C41.769 11.2937 41.9943 11.1716 42.2341 11.0858C42.6777 10.9266 43.1558 10.8891 43.6188 10.9772C43.9852 11.0473 44.3325 11.195 44.6372 11.4105C44.9419 11.6259 45.197 11.904 45.3853 12.2261C45.5139 12.444 45.6085 12.6802 45.6658 12.9266C45.6883 13.0158 45.7046 13.1066 45.7147 13.1981C45.7259 13.2644 45.7308 13.3317 45.7292 13.399C45.7292 13.4478 45.7292 13.4895 45.7292 13.522C45.7321 13.5376 45.7327 13.5534 45.731 13.5691Z" fill="#263238"/>
<path d="M51.9305 13.3247C51.9128 13.1182 51.8807 12.9132 51.8346 12.7111C51.6895 12.1637 51.3643 11.6811 50.9115 11.341C50.603 11.1064 50.2432 10.9482 49.8617 10.8795C49.4241 10.7991 48.9729 10.8372 48.5549 10.9899C48.3301 11.0712 48.1184 11.1853 47.9269 11.3283C47.7253 11.4759 47.5482 11.6543 47.402 11.8568C47.0891 12.2823 46.9204 12.7966 46.9204 13.3247C46.9204 13.8528 47.0891 14.3671 47.402 14.7926C47.5477 14.995 47.7249 15.1729 47.9269 15.3193C48.1179 15.4636 48.3297 15.5783 48.5549 15.6596C48.9731 15.8114 49.424 15.8494 49.8617 15.77C50.2432 15.7013 50.603 15.5431 50.9115 15.3084C51.3643 14.9684 51.6895 14.4857 51.8346 13.9383C51.8807 13.7362 51.9128 13.5312 51.9305 13.3247C51.9348 13.3783 51.9348 13.4322 51.9305 13.4858C51.9312 13.5519 51.9263 13.6179 51.916 13.6831C51.9064 13.7722 51.8907 13.8604 51.869 13.9474C51.7536 14.4214 51.5048 14.8524 51.1519 15.1892C50.799 15.5261 50.3569 15.7547 49.878 15.8478C49.4264 15.9331 48.9603 15.8962 48.5278 15.741C48.0494 15.5668 47.6328 15.2559 47.3296 14.8469C47.0039 14.4062 46.8281 13.8727 46.8281 13.3247C46.8281 12.7767 47.0039 12.2432 47.3296 11.8025C47.6328 11.3936 48.0494 11.0827 48.5278 10.9084C48.9603 10.7533 49.4264 10.7164 49.878 10.8016C50.3569 10.8948 50.799 11.1234 51.1519 11.4602C51.5048 11.7971 51.7536 12.2281 51.869 12.7021C51.8907 12.789 51.9064 12.8773 51.916 12.9663C51.9263 13.0316 51.9312 13.0976 51.9305 13.1636C51.9348 13.2172 51.9348 13.2711 51.9305 13.3247Z" fill="#263238"/>
<path d="M46.8807 12.7529C46.8699 12.762 46.8101 12.7131 46.6997 12.6606C46.5574 12.5928 46.4013 12.5588 46.2436 12.5611C46.0863 12.5633 45.9318 12.603 45.7929 12.6769C45.6843 12.733 45.6264 12.7855 45.6119 12.7746C45.5975 12.7638 45.6445 12.695 45.7531 12.619C45.8961 12.5216 46.0645 12.4681 46.2376 12.4652C46.4106 12.4623 46.5807 12.5101 46.7269 12.6027C46.8373 12.6751 46.8807 12.7457 46.8807 12.7529Z" fill="#263238"/>
<path d="M40.699 13.2C40.3408 13.5253 39.9624 13.8275 39.566 14.1049C39.1867 14.4065 38.789 14.684 38.375 14.9357C38.7328 14.6092 39.1119 14.3069 39.5098 14.0307C39.8879 13.7285 40.2852 13.451 40.699 13.2Z" fill="#263238"/>
<g opacity="0.3">
<path d="M38.5558 24.9792C38.3043 27.4354 39.2382 30.0291 41.2093 31.5168C41.3631 31.6345 41.5568 31.7503 41.7396 31.6834C41.8615 31.6243 41.9588 31.5244 42.0147 31.401C42.5667 30.4473 42.7738 29.3327 42.6011 28.2444C42.2898 29.0662 42.0219 29.8734 41.707 30.7313C39.993 29.6888 38.9178 27.4734 38.5558 24.9792Z" fill="black"/>
</g>
<path opacity="0.3" d="M45.2266 30.5646L46.6745 30.0361L46.9135 32.4814C46.9135 32.4814 48.4736 29.6379 49.1198 28.342C49.766 27.0461 49.4329 24.7546 49.4329 24.7546C49.4329 24.7546 49.6628 26.7456 48.1008 29.2922L46.9207 31.2108V29.2017L45.2266 30.5646Z" fill="black"/>
<g opacity="0.3">
<path d="M28.4143 42.9919C27.7542 42.7116 27.029 42.6207 26.3201 42.7295C25.5647 42.7913 24.8421 43.0648 24.235 43.5186C23.6486 43.991 23.2522 44.7367 23.3301 45.4861L23.4025 45.4951C23.9074 44.1304 24.9102 43.1422 26.2043 43.0173C27.4984 42.8924 28.76 43.4716 29.6432 44.4218C29.5473 43.7123 29.0514 43.2942 28.4143 42.9919Z" fill="black"/>
</g>
<g opacity="0.3">
<path d="M64.9675 44.3801C64.4658 43.8652 63.8101 43.5278 63.0996 43.419C62.4807 43.3154 61.8464 43.3523 61.2436 43.5268C60.6409 43.7013 60.085 44.009 59.6172 44.4272L59.8923 44.2027C60.5922 43.7812 61.3957 43.5631 62.2127 43.5729C63.0326 43.5869 63.8189 43.9012 64.4226 44.4561C64.9656 44.9702 65.2896 45.667 65.5991 46.3457C65.6493 45.9916 65.6185 45.6308 65.509 45.2904C65.3996 44.9499 65.2145 44.6387 64.9675 44.3801Z" fill="black"/>
</g>
<path d="M55.6484 33.0317C55.6632 32.9638 55.685 32.8977 55.7136 32.8344C55.7697 32.6914 55.8385 32.5158 55.9181 32.3077C56.0991 31.8643 56.3344 31.2525 56.5878 30.5701C56.8412 29.8878 57.0602 29.267 57.2177 28.8181L57.3987 28.2841C57.4181 28.2175 57.4448 28.1531 57.4783 28.0923C57.4727 28.1616 57.4575 28.2299 57.4331 28.295C57.3987 28.4253 57.3444 28.6099 57.2738 28.838C57.1326 29.2941 56.9227 29.924 56.6693 30.6027C56.4159 31.2814 56.1643 31.8968 55.9724 32.333C55.8783 32.552 55.7914 32.7276 55.7389 32.8489C55.7164 32.9133 55.686 32.9747 55.6484 33.0317Z" fill="#263238"/>
<path d="M32.8335 33.209C32.8082 33.209 32.6109 32.3529 32.3937 31.285C32.1765 30.2172 32.0209 29.3574 32.0408 29.343C32.0607 29.3285 32.2616 30.1991 32.4788 31.2669C32.696 32.3348 32.8589 33.2036 32.8335 33.209Z" fill="#263238"/>
<path d="M32.4906 43.9766C32.5485 44.0056 31.8281 38.3368 31.8281 38.3368C31.8281 38.3368 32.2824 34.0345 32.5376 33.8354V32.3168C32.5376 32.3168 33.2417 31.8915 33.4299 32.5793C33.4299 32.5793 34.0544 32.0363 34.1539 33.3268C34.2535 34.6173 34.2861 35.9349 34.2861 35.9349L35.6743 39.4065L35.9024 39.5223C35.9024 39.5223 36.201 36.8073 36.3748 36.4019C36.5485 35.9965 36.668 35.0281 37.325 35.1748C37.982 35.3214 38.0381 35.8644 37.9205 36.7512C37.8028 37.6381 37.6544 38.5612 37.7105 39.1295C37.7666 39.6979 38.0255 40.963 37.9458 41.9658C37.8662 42.9685 37.3159 44.0255 36.7404 44.7676C36.1648 45.5097 35.0625 47.0463 34.4652 47.5079C34.2716 47.6708 32.4906 43.9766 32.4906 43.9766Z" fill="#FFBE9D"/>
<path d="M33.193 39.363C33.184 39.2824 33.184 39.2011 33.193 39.1205C33.2039 38.9395 33.2202 38.7259 33.2383 38.4617C33.2799 37.906 33.3451 37.1386 33.4193 36.2897C33.4591 35.868 33.4971 35.4662 33.5315 35.0969C33.5522 34.9268 33.5522 34.7548 33.5315 34.5847C33.5122 34.4391 33.4491 34.3027 33.3505 34.1938C33.2782 34.1157 33.1905 34.0535 33.0931 34.0108C32.9956 33.9681 32.8904 33.946 32.784 33.9458C32.7043 33.9496 32.6251 33.9592 32.5469 33.9748C32.5647 33.9623 32.5842 33.9526 32.6048 33.9458C32.6629 33.924 32.7239 33.9112 32.7858 33.9078C32.8999 33.9013 33.0141 33.9194 33.1206 33.9609C33.2271 34.0025 33.3234 34.0664 33.403 34.1485C33.5124 34.266 33.5826 34.4147 33.6039 34.5739C33.6266 34.7499 33.6266 34.9281 33.6039 35.1042C33.5713 35.4662 33.5351 35.877 33.4989 36.2988C33.4211 37.1458 33.3451 37.9114 33.2853 38.4707L33.2111 39.1277C33.2119 39.2065 33.2058 39.2853 33.193 39.363Z" fill="#EB996E"/>
<path d="M33.9352 37.0445C33.8341 37.1822 33.7514 37.3325 33.689 37.4916C33.5786 37.8923 33.5018 38.3016 33.4592 38.7151C33.3832 39.2002 33.3108 39.6382 33.2528 39.9549C33.2318 40.1277 33.1942 40.298 33.1406 40.4635C33.1413 40.2893 33.1571 40.1155 33.1877 39.9441C33.2275 39.6255 33.2908 39.1857 33.3687 38.7006C33.4465 38.2156 33.4972 37.7721 33.6311 37.468C33.6787 37.3489 33.7454 37.2382 33.8284 37.1404C33.8881 37.068 33.9316 37.0409 33.9352 37.0445Z" fill="#EB996E"/>
<path d="M33.4219 32.5051C33.4471 32.5627 33.4635 32.6237 33.4707 32.6861C33.4961 32.802 33.5269 32.9703 33.5612 33.1802C33.63 33.5983 33.706 34.1793 33.7549 34.8255C33.8038 35.4717 33.8128 36.0581 33.8056 36.4816C33.8056 36.6934 33.7965 36.8653 33.7875 36.983C33.789 37.044 33.7817 37.105 33.7658 37.164C33.7438 36.9366 33.7348 36.7082 33.7386 36.4798C33.7296 36.0563 33.7078 35.4735 33.6608 34.8309C33.6137 34.1884 33.5486 33.6074 33.4961 33.1875C33.4578 32.9617 33.4331 32.7338 33.4219 32.5051Z" fill="#EB996E"/>
<path d="M37.4342 37.8191C37.3656 37.8634 37.2871 37.8902 37.2057 37.8971C37.1243 37.9041 37.0424 37.8909 36.9672 37.8589C36.7012 37.7792 36.5781 37.5747 36.6052 37.5657C36.7299 37.6448 36.8613 37.7126 36.998 37.7684C37.1418 37.7973 37.2877 37.8143 37.4342 37.8191Z" fill="#EB996E"/>
<path d="M32.5645 43.2708L28.8975 44.8128H26.7111C26.7111 44.8128 24.55 45.488 24.217 47.5151C23.8839 49.5423 23.8369 50.583 24.7871 50.8346C25.7373 51.0862 28.4215 51.1133 29.7519 50.6717C31.0822 50.2301 34.5682 47.4138 34.5682 47.4138L34.903 45.3794L32.5645 43.2708Z" fill="#FFBE9D"/>
<path d="M33.4237 45.5115C33.4237 45.5115 33.3821 45.4807 33.3187 45.4156C33.2314 45.3209 33.1521 45.2192 33.0816 45.1115C32.852 44.7535 32.6792 44.3621 32.5694 43.9513C32.4559 43.5441 32.3801 43.1272 32.3431 42.706C32.3187 42.5322 32.3139 42.3561 32.3287 42.1812C32.3679 42.3509 32.3945 42.5233 32.4083 42.697C32.4642 43.1119 32.5482 43.5225 32.6599 43.926C32.7692 44.3286 32.9298 44.7155 33.1377 45.0771C33.3024 45.3504 33.4364 45.4988 33.4237 45.5115Z" fill="#EB996E"/>
<path d="M35.0226 46.1539C35.1197 45.9002 35.1895 45.6368 35.2307 45.3683C35.3128 44.7135 35.1362 44.0524 34.7384 43.5258C34.5158 43.2145 34.2642 42.943 34.0524 42.6787C33.8596 42.4483 33.6932 42.197 33.5565 41.9294C33.4667 41.7468 33.4057 41.5514 33.3755 41.3502C33.3644 41.277 33.3644 41.2026 33.3755 41.1294C33.4179 41.3973 33.5022 41.6569 33.6253 41.8986C33.7678 42.157 33.9371 42.3996 34.1303 42.6226C34.342 42.8796 34.5954 43.1511 34.8235 43.4697C35.0453 43.7684 35.2014 44.1108 35.2814 44.4742C35.3431 44.7721 35.351 45.0785 35.3049 45.3792C35.2745 45.5798 35.2186 45.7756 35.1384 45.962C35.1095 46.0272 35.0823 46.076 35.0642 46.1086C35.0461 46.1412 35.0244 46.1557 35.0226 46.1539Z" fill="#EB996E"/>
<path d="M29.37 37.3213C29.0447 36.7937 28.7463 36.25 28.4759 35.6923C28.0053 34.7873 27.6433 34.0344 27.665 34.0217C27.9903 34.5493 28.2887 35.093 28.5591 35.6507C28.8577 36.1934 29.1284 36.751 29.37 37.3213Z" fill="white"/>
<path d="M35.2969 30.7166C35.4512 30.2526 35.6356 29.7992 35.8489 29.3592C36.0341 28.907 36.2475 28.4669 36.4878 28.0415C36.3326 28.5052 36.1482 28.9586 35.9358 29.399C35.7511 29.8514 35.5377 30.2915 35.2969 30.7166Z" fill="white"/>
<path d="M41.1066 35.0027C40.8063 34.7137 40.528 34.4027 40.274 34.0723C39.9972 33.7614 39.7437 33.4305 39.5156 33.0823C39.8162 33.3705 40.0939 33.6815 40.3464 34.0126C40.6241 34.3232 40.8782 34.6542 41.1066 35.0027Z" fill="white"/>
<path d="M39.7734 40.898C39.9571 40.5671 40.1665 40.2512 40.3997 39.9531C40.6097 39.6381 40.8451 39.3409 41.1038 39.0645C40.9206 39.3956 40.7112 39.7116 40.4775 40.0093C40.2687 40.3251 40.0331 40.6224 39.7734 40.898Z" fill="white"/>
<path d="M37.9701 49.2255C37.8856 49.1136 37.8146 48.9921 37.7584 48.8635C37.6389 48.6319 37.4851 48.3079 37.3294 47.9441C37.1737 47.5803 37.0489 47.2418 36.9674 46.9975C36.9133 46.8672 36.8744 46.7312 36.8516 46.592C36.9261 46.7121 36.9868 46.8402 37.0326 46.9739L37.4217 47.9061C37.5719 48.2518 37.7059 48.5649 37.8235 48.8346C37.8868 48.959 37.9359 49.0902 37.9701 49.2255Z" fill="white"/>
<path d="M43.0753 45.6851C42.7051 45.6606 42.3377 45.6056 41.9766 45.5204C41.608 45.4659 41.2446 45.3799 40.8906 45.2634C41.6252 45.3426 42.3518 45.4837 43.0626 45.6851H43.0753Z" fill="white"/>
<path d="M47.0625 37.9042C47.3868 37.4841 47.7362 37.084 48.1087 36.706C48.4589 36.3055 48.8324 35.926 49.2272 35.5693C48.9016 35.9894 48.5517 36.3901 48.1793 36.7693C47.829 37.1687 47.4562 37.5476 47.0625 37.9042Z" fill="white"/>
<path d="M51.0417 48.2808C51.0218 48.2989 50.4372 47.6201 49.7349 46.7694C49.0327 45.9188 48.4806 45.2129 48.5005 45.1966C48.5204 45.1803 49.1051 45.8572 49.8073 46.7079C50.5096 47.5586 51.058 48.2645 51.0417 48.2808Z" fill="white"/>
<path d="M26.2781 43.8589C26.2908 43.8842 25.7568 44.1557 25.174 44.6028C24.5912 45.0498 24.1858 45.4915 24.1641 45.4716C24.2299 45.357 24.3129 45.2532 24.4102 45.1639C24.627 44.9324 24.8631 44.7199 25.1161 44.5286C25.368 44.3363 25.6356 44.1656 25.9161 44.0182C26.0284 43.9478 26.1503 43.8941 26.2781 43.8589Z" fill="white"/>
<path d="M27.7741 39.8552C27.6591 40.1113 27.5164 40.3541 27.3487 40.5792C27.2058 40.8216 27.0365 41.0475 26.8438 41.2525C26.9591 40.9966 27.1017 40.7539 27.2691 40.5285C27.4116 40.2858 27.581 40.06 27.7741 39.8552Z" fill="white"/>
<path d="M31.1326 43.7865C30.8428 43.3257 30.7189 42.7798 30.7815 42.239C30.8086 42.239 30.8177 42.601 30.9172 43.0227C31.0168 43.4444 31.1579 43.7739 31.1326 43.7865Z" fill="white"/>
<path d="M31.6269 31.3123C31.4019 31.3909 31.1677 31.4401 30.9301 31.4589C30.6964 31.508 30.4571 31.5257 30.2188 31.5114C30.4444 31.433 30.6792 31.3838 30.9174 31.3648C31.1506 31.3168 31.3891 31.2992 31.6269 31.3123Z" fill="white"/>
<path d="M34.1498 26.8362C33.76 27.1246 33.334 27.3607 32.8828 27.5384C33.068 27.3814 33.2731 27.2493 33.4928 27.1457C33.6978 27.0151 33.9186 26.9111 34.1498 26.8362Z" fill="white"/>
<path d="M41.251 28.7277C40.9952 28.4676 40.7615 28.1867 40.5523 27.8879C40.3201 27.6072 40.1118 27.3075 39.9297 26.9919C40.4194 27.5313 40.8615 28.1121 41.251 28.7277Z" fill="white"/>
<path d="M50.2591 33.2273C49.7602 32.7356 49.3849 32.1327 49.1641 31.468C49.1912 31.4571 49.3849 31.8788 49.689 32.3621C49.993 32.8454 50.2808 33.2092 50.2591 33.2273Z" fill="white"/>
<path d="M53.6998 34.3601C53.4813 34.9964 53.2025 35.6104 52.8672 36.1936C52.9637 35.8711 53.0891 35.5579 53.2419 35.2578C53.3657 34.9448 53.519 34.6442 53.6998 34.3601Z" fill="white"/>
<path d="M54.1794 29.6671C53.8503 29.3476 53.5443 29.0053 53.2635 28.6426C52.9585 28.3003 52.6773 27.9375 52.4219 27.5566C53.0552 28.2192 53.6424 28.9243 54.1794 29.6671Z" fill="white"/>
<path d="M48.9273 25.8551C48.8699 25.5667 48.8426 25.2731 48.8458 24.9791C48.8186 24.6857 48.8228 24.3902 48.8585 24.0977C48.9159 24.3861 48.9432 24.6796 48.94 24.9737C48.9684 25.2671 48.9641 25.5627 48.9273 25.8551Z" fill="white"/>
<path d="M53.2167 25.6182C52.8499 25.7143 52.4758 25.7803 52.0982 25.8154C51.7252 25.881 51.3474 25.9155 50.9688 25.9186C51.3356 25.8225 51.7097 25.7565 52.0873 25.7213C52.4603 25.6557 52.8381 25.6212 53.2167 25.6182Z" fill="white"/>
<path d="M59.9551 30.5721C59.7037 30.1596 59.4788 29.7316 59.2817 29.2906C59.0579 28.8627 58.8621 28.4207 58.6953 27.9675C58.9477 28.3797 59.1732 28.8078 59.3704 29.249C59.5935 29.677 59.7887 30.119 59.9551 30.5721Z" fill="white"/>
<path d="M58.8281 34.8524C58.9039 34.1611 59.0408 33.4779 59.2372 32.8108C59.2153 33.1581 59.1626 33.5027 59.0797 33.8407C59.0269 34.1849 58.9427 34.5236 58.8281 34.8524Z" fill="white"/>
<path d="M61.9432 38.2263C61.7321 37.7752 61.5507 37.3109 61.4002 36.8362C61.2208 36.3721 61.0714 35.8969 60.9531 35.4136C61.163 35.8658 61.3443 36.3306 61.4961 36.8054C61.6748 37.2692 61.8241 37.7437 61.9432 38.2263Z" fill="white"/>
<path d="M61.5072 40.2009C61.1841 40.1523 60.8736 40.041 60.5932 39.8733C60.2987 39.7319 60.0358 39.5324 59.8203 39.2869C59.8384 39.2651 60.1714 39.5403 60.6384 39.79C61.1054 40.0398 61.5162 40.1737 61.5072 40.2009Z" fill="white"/>
<path d="M65.5238 44.7006C65.2801 44.3054 65.0908 43.8793 64.9609 43.4336C65.2046 43.8287 65.394 44.2549 65.5238 44.7006Z" fill="white"/>
<path d="M41.8497 50.9775C41.7726 50.7164 41.7252 50.4475 41.7086 50.1757C41.6627 49.9074 41.6469 49.6348 41.6615 49.363C41.7442 49.6256 41.7946 49.8973 41.8117 50.1721C41.8551 50.4382 41.8678 50.7085 41.8497 50.9775Z" fill="white"/>
<path d="M54.1406 50.6662C54.1489 50.4012 54.1884 50.1382 54.2583 49.8825C54.299 49.6205 54.3701 49.3642 54.47 49.1187C54.4617 49.3837 54.4216 49.6469 54.3506 49.9024C54.3109 50.1643 54.2404 50.4207 54.1406 50.6662Z" fill="white"/>
<path d="M56.5 14.7763L58.1 11.9817C57.1133 10.3889 56.7581 8.48464 57.1043 6.64323C57.4505 4.80183 58.473 3.15655 59.9708 2.03088C61.4687 0.905219 63.3334 0.38061 65.1985 0.560203C67.0635 0.739796 68.7939 1.6106 70.0494 3.00139C71.3049 4.39219 71.9947 6.20236 71.9832 8.07599C71.9716 9.94962 71.2596 11.7512 69.9871 13.1264C68.7145 14.5016 66.9735 15.351 65.1064 15.5076C63.2393 15.6643 61.3812 15.1167 59.8973 13.9727L56.5 14.7763Z" fill="#FAFAFA"/>
<path d="M56.4976 14.7763L59.8949 14.0017H59.9293L59.9076 13.9727L59.875 14.0035C60.3511 14.3726 60.8686 14.6848 61.4171 14.9338C62.071 15.2264 62.7634 15.4239 63.4732 15.5202C63.8665 15.5751 64.2638 15.5951 64.6606 15.58C64.8651 15.5691 65.0714 15.5637 65.2814 15.5474L65.9149 15.4515C67.8026 15.0813 69.4784 14.0055 70.6009 12.4433C71.2244 11.5791 71.6564 10.5918 71.8679 9.54734C72.0832 8.44236 72.0529 7.30354 71.7792 6.21157C71.4947 5.0731 70.9438 4.0185 70.1719 3.13462L69.8624 2.78168C69.7611 2.66765 69.6416 2.57534 69.533 2.47036C69.4244 2.36539 69.3158 2.26041 69.1927 2.17353L68.8307 1.90566C68.7127 1.8145 68.5881 1.73222 68.4579 1.6595L68.0778 1.42782L67.6796 1.23416C67.5493 1.16606 67.4151 1.10563 67.2778 1.05316C66.21 0.632395 65.0615 0.456132 63.9167 0.537319C62.8371 0.609921 61.7867 0.918868 60.8397 1.4423C59.1324 2.3919 57.8562 3.96237 57.2759 5.82786C57.0434 6.61912 56.9335 7.44134 56.9501 8.26588C56.9686 8.98133 57.0906 9.69034 57.3121 10.3709C57.4988 10.9364 57.7509 11.4783 58.0632 11.9854V11.9618C57.0605 13.7591 56.57 14.637 56.4922 14.7745C56.5718 14.6388 57.075 13.7664 58.1012 11.9836V11.9727V11.9618C57.7965 11.4558 57.5523 10.9158 57.3736 10.3528C57.1533 9.67691 57.0314 8.97286 57.0116 8.26226C56.9997 7.44533 57.1113 6.63129 57.3429 5.84776C57.9238 4.00749 59.1874 2.45955 60.8741 1.52194C61.8118 0.999624 62.8531 0.690618 63.9239 0.616958C65.0548 0.53726 66.1891 0.712299 67.2434 1.12918C67.379 1.18163 67.5113 1.24207 67.6398 1.31018L68.0343 1.50203L68.4144 1.73733C68.5406 1.8097 68.6615 1.89074 68.7764 1.97986L69.1384 2.24593C69.2597 2.33281 69.3611 2.44141 69.4733 2.53914C69.5855 2.63688 69.6995 2.73462 69.7991 2.84684L70.1013 3.17806C70.8645 4.0535 71.4091 5.09746 71.6905 6.22424C71.9624 7.30233 71.9927 8.42721 71.7792 9.51838C71.5723 10.5517 71.1465 11.5287 70.5303 12.3836C69.422 13.9303 67.7667 14.9974 65.9004 15.3682L65.2741 15.4659C65.066 15.4822 64.8615 15.4895 64.6588 15.5003C64.2658 15.5163 63.8721 15.4982 63.4823 15.446C62.777 15.3548 62.0883 15.1634 61.437 14.8777C60.8908 14.6334 60.3751 14.3261 59.9004 13.9618L59.761 13.8551L59.8678 13.9944L59.8804 13.9582L56.4976 14.7763Z" fill="#263238"/>
<path d="M66.4922 7.73749C66.494 7.87989 66.5378 8.01861 66.618 8.13627C66.6983 8.25393 66.8114 8.34532 66.9433 8.39899C67.0752 8.45266 67.2201 8.46623 67.3597 8.43801C67.4992 8.40979 67.6274 8.34102 67.7281 8.24032C67.8288 8.13961 67.8976 8.01145 67.9258 7.87186C67.954 7.73226 67.9405 7.58745 67.8868 7.45554C67.8331 7.32362 67.7417 7.21046 67.6241 7.13023C67.5064 7.04999 67.3677 7.00624 67.2253 7.00445C67.1287 7.00324 67.0328 7.02137 66.9433 7.05778C66.8538 7.09418 66.7726 7.14813 66.7042 7.21644C66.6359 7.28476 66.582 7.36605 66.5456 7.45554C66.5092 7.54502 66.491 7.64089 66.4922 7.73749Z" fill="#263238"/>
<path d="M63.5626 7.73743C63.5643 7.88022 63.6083 8.0193 63.6889 8.13716C63.7696 8.25503 63.8833 8.34641 64.0157 8.39982C64.1481 8.45323 64.2934 8.46628 64.4333 8.43734C64.5731 8.40839 64.7012 8.33873 64.8016 8.23713C64.9019 8.13553 64.97 8.00652 64.9972 7.86633C65.0244 7.72614 65.0096 7.58104 64.9545 7.44927C64.8995 7.31751 64.8067 7.20497 64.6878 7.12581C64.569 7.04665 64.4293 7.00441 64.2865 7.00439C64.1907 7.00439 64.0958 7.02341 64.0074 7.06036C63.9189 7.09731 63.8387 7.15144 63.7714 7.21963C63.704 7.28782 63.6509 7.36871 63.615 7.45759C63.5792 7.54648 63.5614 7.6416 63.5626 7.73743Z" fill="#263238"/>
<path d="M60.6401 7.37176C60.5701 7.49595 60.5384 7.63804 60.5488 7.78022C60.5593 7.92239 60.6115 8.05831 60.6988 8.17094C60.7862 8.28358 60.9049 8.36791 61.04 8.41336C61.1751 8.45881 61.3207 8.46337 61.4584 8.42645C61.596 8.38953 61.7198 8.31279 61.814 8.20584C61.9083 8.09889 61.9689 7.96649 61.9882 7.82525C62.0075 7.68401 61.9847 7.54022 61.9226 7.41189C61.8605 7.28356 61.7619 7.17641 61.6392 7.10388C61.5563 7.05487 61.4644 7.0229 61.369 7.00985C61.2735 6.9968 61.1764 7.00292 61.0834 7.02787C60.9903 7.05282 60.9032 7.09608 60.8271 7.15513C60.751 7.21418 60.6874 7.28783 60.6401 7.37176Z" fill="#263238"/>
</svg>
