<svg width="14" height="14" viewBox="0 0 14 14" fill="none" xmlns="http://www.w3.org/2000/svg">
<path d="M4.95898 9.67508L2.74639 7.4625C2.63638 7.35624 2.48903 7.29744 2.33608 7.29877C2.18313 7.3001 2.03682 7.36145 1.92867 7.4696C1.82051 7.57776 1.75916 7.72406 1.75783 7.87701C1.75651 8.02996 1.8153 8.17731 1.92156 8.28733L4.54656 10.9123C4.65595 11.0217 4.8043 11.0831 4.95898 11.0831C5.11366 11.0831 5.262 11.0217 5.37139 10.9123L11.7881 4.49566C11.8943 4.38564 11.9531 4.23829 11.9518 4.08534C11.9505 3.9324 11.8891 3.78609 11.781 3.67793C11.6728 3.56978 11.5265 3.50843 11.3735 3.5071C11.2206 3.50577 11.0732 3.56457 10.9632 3.67083L4.95898 9.67508Z" fill="#282828" fill-opacity="0.7"/>
</svg>
